<?xml version="1.0" encoding="utf-8"?>
<!-- Generator: Adobe Illustrator 24.0.1, SVG Export Plug-In . SVG Version: 6.00 Build 0)  -->
<svg version="1.1" id="Layer_1" xmlns="http://www.w3.org/2000/svg" xmlns:xlink="http://www.w3.org/1999/xlink" x="0px" y="0px"
	 viewBox="0 0 360 360" style="enable-background:new 0 0 360 360;" xml:space="preserve">
<style type="text/css">
	.st0{fill:#82C342;}
	.st1{opacity:0.6;}
	.st2{opacity:0.4;fill:#FFFFFF;enable-background:new    ;}
	.st3{opacity:0.3;fill:#FFFFFF;enable-background:new    ;}
	.st4{opacity:0.2;fill:#FFFFFF;enable-background:new    ;}
	.st5{opacity:0.5;fill:#FFFFFF;enable-background:new    ;}
</style>
<rect class="st0" width="360" height="360"/>
<g class="st1">
	<path class="st2" d="M239.8,252.1l7.6,5.9l10.9-2.7l-5.3,9l5.1,7.9l-10.8-0.4l-7.8,7.6l-1.4-9.3l-9.8-3.2l9.8-5.2h0.1L239.8,252.1z
		"/>
	<path class="st3" d="M229.8,285.9l4.3,1.9l4.2-2.5l-0.8,4.8l3.5,3.1l-4.7,0.9l-2.2,4.5l-2.2-4.2l-4.7-0.3l3.4-3.5v-0.1L229.8,285.9
		z"/>
	<path class="st4" d="M208.7,263l2.2,1.8l3.3-0.7l-1.9,2.4l1.3,2.3l-3.2-0.2l-2.6,2l-0.2-2.5l-2.8-0.9l3-1.4l0.1-0.1L208.7,263z"/>
	<path class="st5" d="M223.7,232.3l2.1,1.6l3.4-0.7l-1.9,2.4l1.2,2.2l-3.2-0.2l-2.5,2l-0.2-2.4l-2.9-0.9l3.1-1.4L223.7,232.3z"/>
	<path class="st3" d="M268.5,291.6l4.1,4.6l7.7-0.4l-5,4.8l2.2,5.3l-7.2-1.6l-6.4,3.6l0.5-5.7l-6.1-3.1l7.4-1.9v-0.1L268.5,291.6z"
		/>
	<path class="st4" d="M163.7,237.4l4.1,4.5l7.7-0.4l-5,4.8l2.2,5.3l-7.2-1.6l-6.4,3.6l0.5-5.7l-6.1-3l7.4-2L163.7,237.4z"/>
</g>
</svg>
