<svg xmlns="http://www.w3.org/2000/svg" xmlns:xlink="http://www.w3.org/1999/xlink" viewBox="0 0 1200.86 949"><defs><style>.cls-1{fill:none;}.cls-2{clip-path:url(#clip-path);}.cls-3{fill:url(#linear-gradient);}.cls-4{fill:url(#linear-gradient-2);}.cls-5{fill:#fff;isolation:isolate;opacity:0.24;}</style><clipPath id="clip-path"><rect class="cls-1" width="1200" height="949"/></clipPath><linearGradient id="linear-gradient" x1="483.5" y1="260.78" x2="94.14" y2="379.89" gradientTransform="translate(747.49 -69.49)" gradientUnits="userSpaceOnUse"><stop offset="0" stop-color="#006f73"/><stop offset="1" stop-color="#00a662"/></linearGradient><linearGradient id="linear-gradient-2" x1="-247.87" y1="146.01" x2="-84.83" y2="853.22" gradientTransform="translate(747.49 -69.49)" gradientUnits="userSpaceOnUse"><stop offset="0" stop-color="#008f5b"/><stop offset="1" stop-color="#008d88"/></linearGradient></defs><g id="Layer_2" data-name="Layer 2"><g id="Layer_1-2" data-name="Layer 1"><g class="cls-2"><path class="cls-3" d="M547.72,949S1228.28,674.84,1200,0C1200,0,556.6,109.39,0,19.2"/><path class="cls-4" d="M0,949H1200l.5-872S423,86.5,0,0Z"/></g><path class="cls-5" d="M161.58,189.33s23.48,15.21,33.95,24.81c0,0,39.07-5.54,49.33-5.75,0,0-2.56,16-23.28,41.11,0,0,9.85,25,4.25,47.52,0,0-20.72-16.49-42.32-24,0,0-31.18,10.89-52.78,12.17,0,0,10.06-18.59,13.43-28.66,0,0-25.64-11.56-34.62-14.54l46.17-16.7C155.77,225.23,165.15,208.12,161.58,189.33Z"/><path class="cls-5" d="M96.92,127.6s11.67,7.57,16.94,12.37c0,0,19.43-2.77,24.57-2.84,0,0-1.29,8-11.61,20.48,0,0,4.86,12.44,2.16,23.67,0,0-10.33-8.18-21.06-11.9,0,0-15.52,5.41-26.26,6.08,0,0,5-9.26,6.69-14.26,0,0-12.76-5.75-17.21-7.24l22.94-8.31C94.08,145.51,98.74,137,96.92,127.6Z"/><path class="cls-5" d="M223.94,116.72s14.57,9.46,21.12,15.41c0,0,24.3-3.44,30.64-3.58,0,0-1.62,10-14.44,25.56,0,0,6.07,15.54,2.63,29.47,0,0-12.89-10.21-26.25-14.87,0,0-19.37,6.76-32.74,7.57,0,0,6.21-11.56,8.37-17.78,0,0-15.93-7.17-21.46-9.06l28.68-10.34C220.43,139,226.23,128.42,223.94,116.72Z"/><path class="cls-5" d="M331.59,175.94s9.52,6.15,13.77,10c0,0,15.79-2.23,20-2.36,0,0-1,6.49-9.45,16.63,0,0,4,10.14,1.75,19.2,0,0-8.37-6.7-17.14-9.67,0,0-12.62,4.39-21.33,4.93a107.93,107.93,0,0,0,5.47-11.62s-10.39-4.67-14-5.89l18.63-6.76C329.23,190.47,333,183.58,331.59,175.94Z"/><path class="cls-5" d="M101,316s9.59,6.22,13.91,10.14c0,0,15.93-2.23,20.11-2.37,0,0-1,6.56-9.52,16.77,0,0,4,10.21,1.76,19.4,0,0-8.44-6.76-17.28-9.8,0,0-12.76,4.46-21.53,4.93,0,0,4.12-7.57,5.47-11.69,0,0-10.47-4.73-14.11-5.95l18.83-6.83A23.74,23.74,0,0,0,101,316Z"/><path class="cls-5" d="M199.64,318.38s39.21,25.35,56.69,41.38c0,0,65.2-9.2,82.28-9.67,0,0-4.26,26.84-38.81,68.55,0,0,16.4,41.78,7.08,79.23,0,0-34.55-27.51-70.59-39.95,0,0-52,18.18-87.95,20.28,0,0,16.74-31,22.41-47.86,0,0-42.72-19.2-57.7-24.27l77-27.79C190,378.35,205.65,349.75,199.64,318.38Z"/><path class="cls-5" d="M301.58,247.6s23.35,15.07,33.75,24.68c0,0,38.81-5.48,49-5.75,0,0-2.5,16-23.15,40.83,0,0,9.71,24.88,4.25,47.19,0,0-20.59-16.36-42.05-23.8,0,0-31,10.82-52.37,12.11,0,0,10-18.46,13.36-28.53,0,0-25.45-11.43-34.35-14.47l45.82-16.57C295.77,283.36,305.16,266.33,301.58,247.6Z"/></g></g></svg>