<svg width="1376" height="369" viewBox="0 0 1376 369" fill="none" xmlns="http://www.w3.org/2000/svg">
<g clip-path="url(#clip0_16588_503995)">
<rect width="1376" height="369" fill="#E3262D"/>
<path d="M510.492 721C510.492 721 130.526 604.011 -77 335.065C-77 335.065 304.853 248.904 591 70" fill="url(#paint0_linear_16588_503995)"/>
<path d="M-100 417.134C-100 417.134 226.249 178.982 474 87C474 87 423.829 338.054 420.559 467" fill="url(#paint1_linear_16588_503995)"/>
<path d="M510.492 709C510.492 709 130.526 592.011 -77 323.065C-77 323.065 304.853 236.904 591 58" fill="url(#paint2_linear_16588_503995)"/>
</g>
<defs>
<linearGradient id="paint0_linear_16588_503995" x1="342.247" y1="229.98" x2="312.021" y2="372.064" gradientUnits="userSpaceOnUse">
<stop stop-color="#E30613" stop-opacity="0.09"/>
<stop offset="0.639143" stop-color="#CA000C"/>
</linearGradient>
<linearGradient id="paint1_linear_16588_503995" x1="171.271" y1="160.638" x2="144.637" y2="368.605" gradientUnits="userSpaceOnUse">
<stop stop-color="#D00511"/>
<stop offset="1" stop-color="#E30613"/>
</linearGradient>
<linearGradient id="paint2_linear_16588_503995" x1="373.69" y1="184.737" x2="333.851" y2="383.638" gradientUnits="userSpaceOnUse">
<stop stop-color="#BE0510" stop-opacity="0.18"/>
<stop offset="0.9375" stop-color="#B2000A"/>
</linearGradient>
<clipPath id="clip0_16588_503995">
<rect width="1376" height="369" fill="white"/>
</clipPath>
</defs>
</svg>
