<svg xmlns="http://www.w3.org/2000/svg" viewBox="0 0 47.66 16.68"><defs><style>.cls-1{fill:#1f2937;}</style></defs><g id="Layer_2" data-name="Layer 2"><g id="Layer_1-2" data-name="Layer 1"><path class="cls-1" d="M3,9.9l0,5.28h.72a4.29,4.29,0,0,0,2.47-.49.69.69,0,0,1,.17.54c0,.76-.74,1.38-2.83,1.38C1.18,16.61.92,16.5.83,16c0-.31,0-1.26,0-2.89V10.38c0-.28-.14-.46-.78-.4C0,9.3.54,8.74,1.67,8.74,2.55,8.74,3,9.08,3,9.9Z"/><path class="cls-1" d="M9.57,16.68c-1.92,0-3.14-.83-3.14-2.81a3,3,0,0,1,3.32-3.29c1.93,0,3.11.86,3.11,2.85A3,3,0,0,1,9.57,16.68Zm0-4.7c-.8,0-1.06.56-1.06,1.76s.28,1.62,1.14,1.62,1.1-.47,1.1-1.76C10.79,12.58,10.53,12,9.61,12Z"/><path class="cls-1" d="M13.79,15c0-1.17,0-2.95,0-2.95h-.75a.68.68,0,0,1-.11-.39,1,1,0,0,1,.92-1,1.5,1.5,0,0,1,1.51-1.6,2.67,2.67,0,0,1,.55.07,13.57,13.57,0,0,0-.07,1.56h.22a2.8,2.8,0,0,0,1.32-.21.86.86,0,0,1,.16.54,1.13,1.13,0,0,1-1.23,1.05h-.47v2.65c0,.36.13.47.54.47a2.49,2.49,0,0,0,1.32-.42.83.83,0,0,1,.15.51c0,.79-.82,1.4-2.08,1.4S13.79,16.24,13.79,15Z"/><path class="cls-1" d="M21.09,16.68c-1.92,0-3.14-.83-3.14-2.81a3,3,0,0,1,3.32-3.29c1.93,0,3.11.86,3.11,2.85A3,3,0,0,1,21.09,16.68Zm0-4.7c-.8,0-1.06.56-1.06,1.76s.28,1.62,1.14,1.62,1.1-.47,1.1-1.76C22.31,12.58,22.05,12,21.13,12Z"/><path class="cls-1" d="M27.48,8.56c.77,0,1.38.28,1.38,1a1.27,1.27,0,0,1,0,.32,8.15,8.15,0,0,0-1.08-.1c-.5,0-.57.14-.57.33a2.75,2.75,0,0,0,.08.58,9.92,9.92,0,0,0,1.46-.07,1.06,1.06,0,0,1,.09.42c0,.58-.53,1-1.29,1h-.16v4.4a2.36,2.36,0,0,1-1,.17c-.63,0-1-.15-1-.6s0-.94,0-1.57c0-1.18,0-2.44,0-2.44h-.76a.77.77,0,0,1-.11-.39,1,1,0,0,1,.93-1A2,2,0,0,1,27.48,8.56Z"/><path class="cls-1" d="M34.5,15c0,.28.19.45.82.39,0,.68-.55,1.24-1.59,1.24-.77,0-1.08-.31-1.08-1v-.24c-.19.86-.86,1.22-2,1.22-1.31,0-2-.66-2-1.63,0-1.2.85-1.83,2.62-1.83a9.23,9.23,0,0,1,1.18.08V13c0-.71-.45-.93-1.17-.93a2.47,2.47,0,0,0-1.91.86.87.87,0,0,1-.4-.83c0-.79,1-1.5,2.93-1.5s2.59.67,2.59,1.94Zm-2.93-.85c-.65,0-.92.2-.92.66s.2.58.79.58,1-.34,1-1.17A3.89,3.89,0,0,0,31.57,14.19Z"/><path class="cls-1" d="M38.76,12.09c-.79,0-1.2.37-1.2,1.54s.36,1.56,1.28,1.56a2.18,2.18,0,0,0,1.79-.8.81.81,0,0,1,.3.73c0,.91-1,1.55-2.45,1.55-2,0-3.08-.87-3.08-2.77a3,3,0,0,1,3.32-3.3c1.14,0,2,.52,2,1.25a.93.93,0,0,1-.57.84A1.64,1.64,0,0,0,38.76,12.09Z"/><path class="cls-1" d="M40.8,11.86c0-.67.54-1.24,1.67-1.24.87,0,1.21.35,1.21.88v5a2.32,2.32,0,0,1-1,.16c-.63,0-1-.14-1.06-.59s0-1.08,0-2.16,0-1.55,0-1.64C41.57,12,41.42,11.8,40.8,11.86Zm1.71-1.79c-.76,0-1.09-.25-1.09-.75s.33-.79,1.17-.79,1.09.29,1.09.76S43.47,10.07,42.51,10.07Z"/><path class="cls-1" d="M44.75,11.45a6.63,6.63,0,0,0-.27-2.35,1.84,1.84,0,0,1,1.21-.42c.83,0,1.2.36,1.2,1V15c0,.28.15.45.77.39,0,.68-.54,1.24-1.67,1.24-.75,0-1.21-.3-1.21-1.08Z"/><path class="cls-1" d="M4.26,1.9a9.67,9.67,0,0,1,.89.65s1-.14,1.3-.15a2.59,2.59,0,0,1-.62,1.08,2.29,2.29,0,0,1,.1,1.24A4.32,4.32,0,0,0,4.82,4.1a6.58,6.58,0,0,1-1.38.32,7,7,0,0,0,.35-.73s-.67-.3-.91-.37C3.57,3,4.48,3.11,4.26,1.9Z"/><path class="cls-1" d="M2.56.28A4,4,0,0,1,3,.61s.51-.07.65-.07a1.35,1.35,0,0,1-.31.53,1.1,1.1,0,0,1,.06.62,2.5,2.5,0,0,0-.55-.31,3.66,3.66,0,0,1-.73.16,2.53,2.53,0,0,0,.18-.37L1.88,1l.6-.22A.73.73,0,0,0,2.56.28Z"/><path class="cls-1" d="M5.93,0a3.74,3.74,0,0,1,.55.41s.64-.1.81-.1A1.6,1.6,0,0,1,6.91,1,1.48,1.48,0,0,1,7,1.76a2.88,2.88,0,0,0-.73-.4,3.62,3.62,0,0,1-.85.2,3.82,3.82,0,0,0,.21-.46S5.2.91,5.05.86L5.78.59A1,1,0,0,0,5.93,0Z"/><path class="cls-1" d="M8.72,1.55c.12.08.25.17.36.26l.52-.05a1,1,0,0,1-.24.43.94.94,0,0,1,0,.5A2,2,0,0,0,9,2.44a2.68,2.68,0,0,1-.56.13,1.77,1.77,0,0,0,.15-.31l-.37-.15.49-.18A.82.82,0,0,0,8.72,1.55Z"/><path class="cls-1" d="M2.67,5.22,3,5.49s.41-.06.52-.06a1,1,0,0,1-.25.44,1,1,0,0,1,0,.51,1.7,1.7,0,0,0-.45-.26,2.93,2.93,0,0,1-.57.13,3,3,0,0,0,.15-.31l-.38-.13.5-.18A.64.64,0,0,0,2.67,5.22Z"/><path class="cls-1" d="M5.26,5.29A15.14,15.14,0,0,1,6.71,6.37s1.71-.24,2.18-.25a4.37,4.37,0,0,1-1,1.8A4,4,0,0,1,8.11,10,7.65,7.65,0,0,0,6.26,9,10.75,10.75,0,0,1,4,9.48a11.58,11.58,0,0,0,.53-1.26S3.36,7.72,3,7.58l2-.72A2.59,2.59,0,0,0,5.26,5.29Z"/><path class="cls-1" d="M7.89,4.05a9.19,9.19,0,0,1,.89.65s1-.14,1.28-.15a2.49,2.49,0,0,1-.61,1.07,2.27,2.27,0,0,1,.11,1.24,4.43,4.43,0,0,0-1.1-.63,6.35,6.35,0,0,1-1.37.32,7,7,0,0,0,.35-.73s-.67-.3-.91-.38L7.74,5A1.52,1.52,0,0,0,7.89,4.05Z"/></g></g></svg>