<svg xmlns="http://www.w3.org/2000/svg" viewBox="0 0 41.63 12.15"><defs><style>.cls-1{fill:#1f2937;}</style></defs><g id="Layer_2" data-name="Layer 2"><g id="Layer_1-2" data-name="Layer 1"><path class="cls-1" d="M5.66,7.9c.5.83.76,1,1.16,1a1.61,1.61,0,0,0,1-.3A1,1,0,0,1,8,9.13c0,.62-.66,1.23-1.8,1.23s-1.75-.69-2.46-2.2C1.38,8.11,0,7.14,0,4.56S1.31.19,4,.19,7.87,1.5,7.87,3.93C7.87,6,7.2,7.34,5.66,7.9ZM3.87,1.79c-1.36,0-1.7.92-1.7,2.54S2.76,6.69,4,6.69s1.73-.81,1.73-2.53C5.77,2.67,5.28,1.79,3.87,1.79Z"/><path class="cls-1" d="M15.46,6.91c0,.67-.54,1.23-1.66,1.23C13,8.14,12.63,7.8,12.63,7a1.65,1.65,0,0,1-1.8,1.19c-1.29,0-2.13-.48-2.13-1.89,0-.53.05-1.77.05-2.53,0-.29-.15-.47-.78-.41,0-.67.54-1.23,1.67-1.23.75,0,1.17.2,1.17,1,0,.54,0,2.15,0,2.57,0,.69.24,1,1.05,1,.52,0,.76-.23.76-.74V4.28a13.21,13.21,0,0,0-.12-1.94,2,2,0,0,1,1-.24c.94,0,1.24.37,1.24,1.64s0,2.77,0,2.77C14.68,6.8,14.83,7,15.46,6.91Z"/><path class="cls-1" d="M15.17,3.33c0-.67.54-1.23,1.66-1.23.88,0,1.22.35,1.22.87V8a2.34,2.34,0,0,1-1,.15c-.63,0-1-.13-1.06-.59s0-1.08,0-2.16,0-1.54,0-1.64C15.94,3.45,15.79,3.27,15.17,3.33Zm1.71-1.78c-.76,0-1.09-.26-1.09-.76S16.12,0,17,0s1.09.3,1.09.77S17.84,1.55,16.88,1.55Z"/><path class="cls-1" d="M21.36,3.26a1.66,1.66,0,0,1,1.8-1.19c1.3,0,2.2.48,2.2,1.88,0,.54,0,1.79,0,2.56,0,.29.14.46.77.4,0,.67-.54,1.23-1.67,1.23-.76,0-1.19-.3-1.19-1.08,0-.52,0-2,0-2.47,0-.69-.31-1-1.13-1-.52,0-.76.23-.76.74V8a2.39,2.39,0,0,1-1,.15c-.73,0-1-.19-1.05-.59s0-.94,0-1.58c0-1.17,0-2.22,0-2.22,0-.29-.15-.47-.78-.41,0-.67.54-1.23,1.66-1.23C21,2.1,21.36,2.43,21.36,3.26Z"/><path class="cls-1" d="M31.89,6.51c0,.29.19.46.83.4,0,.67-.55,1.23-1.6,1.23-.76,0-1.07-.31-1.07-1V6.92c-.2.86-.87,1.22-2,1.22-1.32,0-2-.66-2-1.63,0-1.2.85-1.82,2.63-1.82a9,9,0,0,1,1.17.07V4.47c0-.7-.44-.92-1.16-.92a2.53,2.53,0,0,0-1.92.85.85.85,0,0,1-.39-.83c0-.79.95-1.5,2.92-1.5s2.59.68,2.59,1.95ZM29,5.66c-.65,0-.93.2-.93.66s.21.59.79.59,1-.35,1-1.18A3.94,3.94,0,0,0,29,5.66Z"/><path class="cls-1" d="M35.49,2.23a10.82,10.82,0,0,1,.94.69s1.09-.15,1.38-.16a2.88,2.88,0,0,1-.66,1.15,2.34,2.34,0,0,1,.11,1.31,4.82,4.82,0,0,0-1.17-.66,6.82,6.82,0,0,1-1.47.34A7.76,7.76,0,0,0,35,4.13s-.71-.32-1-.4C34.76,3.35,35.72,3.52,35.49,2.23Z"/><path class="cls-1" d="M33.7.52l.49.34s.54-.07.68-.07a1.47,1.47,0,0,1-.32.57,1.19,1.19,0,0,1,.06.65A2.79,2.79,0,0,0,34,1.68a3.42,3.42,0,0,1-.77.17,3.39,3.39,0,0,0,.18-.39,3.9,3.9,0,0,0-.48-.2L33.6,1A.92.92,0,0,0,33.7.52Z"/><path class="cls-1" d="M37.26.22a4.94,4.94,0,0,1,.59.43s.67-.1.85-.1a1.79,1.79,0,0,1-.4.71,1.52,1.52,0,0,1,.07.82,2.89,2.89,0,0,0-.77-.42,4.63,4.63,0,0,1-.91.21,3.12,3.12,0,0,0,.23-.49s-.43-.2-.59-.25L37.1.84A1,1,0,0,0,37.26.22Z"/><path class="cls-1" d="M40.21,1.86c.14.09.26.18.39.28s.44-.06.55-.06a1.17,1.17,0,0,1-.26.46,1.06,1.06,0,0,1,0,.53,2.27,2.27,0,0,0-.48-.27,3,3,0,0,1-.59.14A1.87,1.87,0,0,0,40,2.62s-.29-.13-.39-.16l.52-.2A.68.68,0,0,0,40.21,1.86Z"/><path class="cls-1" d="M33.81,5.75a3.47,3.47,0,0,1,.38.29s.44-.07.56-.07a1.21,1.21,0,0,1-.26.47,1,1,0,0,1,0,.53,1.69,1.69,0,0,0-.47-.27,3.26,3.26,0,0,1-.6.14,2.41,2.41,0,0,0,.15-.33l-.39-.14.52-.19A.7.7,0,0,0,33.81,5.75Z"/><path class="cls-1" d="M36.55,5.82A14.22,14.22,0,0,1,38.08,7s1.82-.26,2.31-.27a4.51,4.51,0,0,1-1.08,1.9,4.25,4.25,0,0,1,.26,2.2,7.89,7.89,0,0,0-2-1.1,11.94,11.94,0,0,1-2.45.56,11.74,11.74,0,0,0,.56-1.33s-1.19-.53-1.6-.68l2.13-.77A2.74,2.74,0,0,0,36.55,5.82Z"/><path class="cls-1" d="M39.34,4.51c.32.21.63.44.93.68,0,0,1.08-.14,1.36-.15A2.66,2.66,0,0,1,41,6.17a2.54,2.54,0,0,1,.11,1.31,4.3,4.3,0,0,0-1.16-.66,6.06,6.06,0,0,1-1.46.33,6.88,6.88,0,0,0,.38-.77s-.71-.31-1-.4l1.28-.46A1.68,1.68,0,0,0,39.34,4.51Z"/><path class="cls-1" d="M12,8.74c.56,0,.84-.05.95-.16a.38.38,0,0,1,.15.32c0,.24-.19.57-.84.57H11.4V10l.46,0c1,0,1.3.44,1.3,1s-.52,1.09-1.53,1.09c-.8,0-1.11-.29-1.11-.6a.55.55,0,0,1,.16-.39,1.11,1.11,0,0,0,1,.38c.4,0,.61-.09.61-.35s-.15-.48-.81-.48a4.52,4.52,0,0,0-.64,0,.64.64,0,0,1,0-.36V8.74Z"/><path class="cls-1" d="M14.38,10.4a1,1,0,0,0,.42-.07.46.46,0,0,1,.06.22c0,.25-.15.47-.68.47h-.7a.47.47,0,0,1,.27-.59.46.46,0,0,1,.2,0Z"/><path class="cls-1" d="M19.33,10.4a1,1,0,0,0,.42-.07.46.46,0,0,1,.06.22c0,.25-.16.47-.68.47h-.7a.46.46,0,0,1,.27-.59.44.44,0,0,1,.2,0Z"/><path class="cls-1" d="M23.84,10.4a1,1,0,0,0,.42-.06.43.43,0,0,1,.06.22c0,.25-.15.47-.68.47h-.71a.45.45,0,0,1,.25-.6.48.48,0,0,1,.24,0Z"/><path class="cls-1" d="M28.14,10.4a1.05,1.05,0,0,0,.43-.07.46.46,0,0,1,.06.22c0,.25-.16.47-.68.47h-.7a.46.46,0,0,1,.27-.59.44.44,0,0,1,.2,0Z"/><path class="cls-1" d="M17.92,10.84a.46.46,0,0,1,0,.2.48.48,0,0,1-.47.48h0v.25c0,.28-.16.38-.46.38a1,1,0,0,1-.5-.13,1.31,1.31,0,0,0,.08-.48H15.13a.63.63,0,0,1-.11-.35.42.42,0,0,1,.11-.32l1.4-2.07a1.15,1.15,0,0,1,.36-.07c.42,0,.59.17.59.63v1.58A.86.86,0,0,0,17.92,10.84ZM16.59,9.65l-.84,1.28h.84Z"/><path class="cls-1" d="M21.85,10.34a.78.78,0,0,1,.76.75c0,.67-.51,1-1.56,1-.81,0-1.11-.28-1.11-.59a.59.59,0,0,1,.16-.4,1.09,1.09,0,0,0,.95.39c.45,0,.61-.11.61-.36s-.23-.37-.64-.37a.67.67,0,0,0-.31.07.51.51,0,0,1-.16-.37c0-.19.13-.31.36-.31.42,0,.64-.11.64-.42s-.17-.39-.53-.39a.71.71,0,0,0-.7.42A.39.39,0,0,1,20,9.38c0-.32.34-.66,1.21-.66s1.23.42,1.23.93A.72.72,0,0,1,21.85,10.34Z"/><path class="cls-1" d="M26.81,9.74c0,.57-.29.93-1.33,1.71h.7a1.35,1.35,0,0,0,.73-.11.36.36,0,0,1,.06.2c0,.26-.22.54-.68.54H24.37a.63.63,0,0,1-.09-.33.3.3,0,0,1,.15-.28c1.26-.91,1.48-1.17,1.48-1.61,0-.29-.18-.47-.52-.47a.72.72,0,0,0-.71.48.38.38,0,0,1-.29-.42c0-.33.37-.73,1.16-.73S26.81,9.19,26.81,9.74Z"/><path class="cls-1" d="M28.71,12.08a.46.46,0,0,1-.05-.2c0-.24.17-.42.92-.42V9.52a.71.71,0,0,0-.47.42.39.39,0,0,1-.31-.42c0-.37.61-.81,1.26-.81.35,0,.43.08.43.25v2.47a1.41,1.41,0,0,0,.73-.09.31.31,0,0,1,.06.19c0,.26-.22.54-.68.54Z"/></g></g></svg>