<svg xmlns="http://www.w3.org/2000/svg" viewBox="0 0 61.24 20.42"><defs><style>.cls-1{fill:#1f2937;}</style></defs><g id="Layer_2" data-name="Layer 2"><g id="Layer_1-2" data-name="Layer 1"><path class="cls-1" d="M.78,11.2c0-.28-.14-.46-.78-.4,0-.68.56-1.24,1.68-1.24A2.16,2.16,0,0,1,3.9,10.84l1.47,3.29,1.77-3.71a1.32,1.32,0,0,1,1.24-.85A2.68,2.68,0,0,1,10.1,10a4.28,4.28,0,0,0-.24,1.95v5.34a2.77,2.77,0,0,1-1.13.17c-.65,0-.9-.17-1-.5s-.06-1.38-.06-3c0-1.09,0-1.79,0-1.79l-1.84,4.1a1.66,1.66,0,0,1-.81.21c-.5,0-.82-.12-1-.53L2.45,12.26v1.8c0,2,.14,2.64.49,3a1.67,1.67,0,0,1-1.17.42c-.76,0-1-.47-1-1.41Z"/><path class="cls-1" d="M16.54,13.6c0,.85-.19,1.19-.61,1.19H12.77c0,.9.5,1.31,1.62,1.31a2.84,2.84,0,0,0,2-.81.75.75,0,0,1,.21.57c0,1-1,1.63-2.93,1.63s-3.07-.83-3.07-2.77a3,3,0,0,1,3.26-3.32C15.62,11.4,16.54,12.34,16.54,13.6Zm-1.94,0a.86.86,0,0,0-1-.85c-.64,0-.8.43-.85,1.07h1.81A1.48,1.48,0,0,0,14.6,13.61Z"/><path class="cls-1" d="M20,16.18c-.21,0-.73,0-.93,0,0,.23.1.33.39.37l2.57.31c.93.1,1.23.54,1.23,1.2,0,1.3-.93,2.4-3.41,2.4-2,0-3.15-.34-3.15-1.49,0-.6.36-1,1.06-1.18a.57.57,0,0,1-.37-.59c0-.34.21-.72.9-1.21a1.73,1.73,0,0,1-1.35-1.84c0-1.65.91-2.73,3-2.73.49,0,1.46.12,2,.12a2.16,2.16,0,0,0,1.28-.27,1,1,0,0,1,.15.57c0,.62-.45,1-1.2,1.07a1.29,1.29,0,0,1,.78,1.2C23,15.5,22,16.18,20,16.18Zm1.49,2.54c0-.2-.07-.34-.94-.45L18.6,18a.91.91,0,0,0-.07.35c0,.53.57.89,1.63.89S21.49,18.92,21.49,18.72ZM20,15.07c.75,0,1.07-.35,1.07-1.16A1.07,1.07,0,0,0,20,12.69c-.79,0-1,.5-1,1.22S19.33,15.07,20,15.07Z"/><path class="cls-1" d="M29.26,15.86c0,.28.2.45.83.39,0,.67-.55,1.24-1.59,1.24-.77,0-1.08-.31-1.08-1v-.25c-.19.87-.87,1.23-2,1.23-1.32,0-2-.66-2-1.63,0-1.2.85-1.83,2.63-1.83a9.23,9.23,0,0,1,1.18.08v-.29c0-.71-.45-.93-1.17-.93a2.51,2.51,0,0,0-1.92.86.88.88,0,0,1-.39-.83c0-.79,1-1.5,2.92-1.5s2.59.67,2.59,1.94ZM26.34,15c-.65,0-.93.2-.93.66s.21.58.8.58,1-.34,1-1.17A3.89,3.89,0,0,0,26.34,15Z"/><path class="cls-1" d="M33.14,13.51a2.63,2.63,0,0,0,1-.17,1,1,0,0,1,.14.51c0,.58-.36,1.08-1.58,1.08H30.14a1.06,1.06,0,0,1,1.1-1.41Z"/><path class="cls-1" d="M37.64,17.49c-2.14,0-3.07-.52-3.07-1.45a1.29,1.29,0,0,1,.67-1.15A2.73,2.73,0,0,0,37.63,16c.67,0,.89-.21.89-.7s-.39-.5-1.81-.92c-1.06-.31-1.92-.9-1.92-2.13,0-1.5.93-2.69,3.08-2.69,1.8,0,2.61.72,2.61,1.57a1.09,1.09,0,0,1-.66,1,2.68,2.68,0,0,0-2.09-1c-.74,0-.93.29-.93.7s.33.63,2,1.11c1.35.39,1.89.93,1.89,2C40.66,16.31,39.9,17.49,37.64,17.49Z"/><path class="cls-1" d="M46.93,13.6c0,.85-.19,1.19-.61,1.19H43.15c0,.9.5,1.31,1.62,1.31a2.82,2.82,0,0,0,2-.81.77.77,0,0,1,.22.57c0,1-1.05,1.63-2.94,1.63S41,16.66,41,14.72a3,3,0,0,1,3.26-3.32C46,11.4,46.93,12.34,46.93,13.6Zm-2,0a.86.86,0,0,0-1-.85c-.63,0-.8.43-.85,1.07H45A1.48,1.48,0,0,0,45,13.61Z"/><path class="cls-1" d="M49.88,12.61a1.66,1.66,0,0,1,1.8-1.19c1.31,0,2.21.48,2.21,1.87,0,.54,0,1.8,0,2.57,0,.28.15.45.77.39,0,.67-.54,1.24-1.67,1.24-.75,0-1.18-.3-1.18-1.08,0-.53,0-2.05,0-2.47,0-.7-.31-1-1.13-1a.65.65,0,0,0-.75.75v3.68a2.4,2.4,0,0,1-1,.16c-.74,0-1-.2-1.06-.59s0-1,0-1.58c0-1.18,0-2.22,0-2.22,0-.29-.14-.47-.78-.41,0-.67.54-1.24,1.67-1.24C49.51,11.44,49.88,11.78,49.88,12.61Z"/><path class="cls-1" d="M60.42,15.86c0,.28.19.45.82.39,0,.67-.55,1.24-1.59,1.24-.77,0-1.08-.31-1.08-1v-.25c-.19.87-.86,1.23-2,1.23-1.31,0-2-.66-2-1.63,0-1.2.85-1.83,2.62-1.83a9.23,9.23,0,0,1,1.18.08v-.29c0-.71-.45-.93-1.17-.93a2.47,2.47,0,0,0-1.91.86.87.87,0,0,1-.4-.83c0-.79,1-1.5,2.93-1.5s2.59.67,2.59,1.94ZM57.49,15c-.65,0-.92.2-.92.66s.2.58.79.58,1-.34,1-1.17A3.89,3.89,0,0,0,57.49,15Z"/><path class="cls-1" d="M11.63,2c.32.22.63.45.93.7,0,0,1.09-.16,1.38-.17a3,3,0,0,1-.65,1.15A2.43,2.43,0,0,1,13.39,5a5,5,0,0,0-1.17-.66,6.82,6.82,0,0,1-1.47.34c.14-.25.26-.5.38-.77,0,0-.72-.32-1-.4C10.89,3.13,11.86,3.3,11.63,2Z"/><path class="cls-1" d="M9.83.3a5.48,5.48,0,0,1,.49.35s.54-.08.68-.08a1.4,1.4,0,0,1-.32.57,1.2,1.2,0,0,1,.06.65,3,3,0,0,0-.58-.33,3.42,3.42,0,0,1-.77.17,3.39,3.39,0,0,0,.18-.39S9.22,1.08,9.1,1L9.74.81A.91.91,0,0,0,9.83.3Z"/><path class="cls-1" d="M13.39,0A4.94,4.94,0,0,1,14,.43s.67-.1.85-.1a1.68,1.68,0,0,1-.4.71,1.52,1.52,0,0,1,.07.82,2.48,2.48,0,0,0-.77-.41,4,4,0,0,1-.91.2,4.44,4.44,0,0,0,.24-.49s-.44-.2-.6-.25l.77-.29A1,1,0,0,0,13.39,0Z"/><path class="cls-1" d="M16.35,1.64c.13.09.26.18.38.28s.44-.06.55-.06a1.17,1.17,0,0,1-.26.46,1.06,1.06,0,0,1,.05.53,2.27,2.27,0,0,0-.48-.27,2.41,2.41,0,0,1-.59.14,1.87,1.87,0,0,0,.15-.32s-.29-.13-.39-.16l.52-.2A.77.77,0,0,0,16.35,1.64Z"/><path class="cls-1" d="M9.94,5.53a4,4,0,0,1,.39.29s.44-.07.55-.07a1,1,0,0,1-.26.47,1.1,1.1,0,0,1,.05.54,1.94,1.94,0,0,0-.48-.28,3.26,3.26,0,0,1-.6.14,2,2,0,0,0,.15-.33l-.39-.14L9.87,6A.64.64,0,0,0,9.94,5.53Z"/><path class="cls-1" d="M12.68,5.6a17.11,17.11,0,0,1,1.54,1.15s1.81-.26,2.3-.27a4.7,4.7,0,0,1-1.07,1.91,4.3,4.3,0,0,1,.25,2.19,7.89,7.89,0,0,0-2-1.1A12,12,0,0,1,11.3,10c.21-.43.39-.88.56-1.33,0,0-1.19-.53-1.61-.68l2.14-.77A2.73,2.73,0,0,0,12.68,5.6Z"/><path class="cls-1" d="M15.47,4.29c.32.21.64.44.94.68,0,0,1.07-.14,1.36-.15A2.68,2.68,0,0,1,17.12,6a2.44,2.44,0,0,1,.12,1.31,4.76,4.76,0,0,0-1.16-.66,6.28,6.28,0,0,1-1.46.33A6.82,6.82,0,0,0,15,6.16s-.7-.31-1-.4l1.28-.46A1.6,1.6,0,0,0,15.47,4.29Z"/></g></g></svg>