<svg xmlns="http://www.w3.org/2000/svg" viewBox="0 0 63.43 17.5"><defs><style>.cls-1{fill:#1f2937;}</style></defs><g id="Layer_2" data-name="Layer 2"><g id="Layer_1-2" data-name="Layer 1"><path class="cls-1" d="M3,10.72,3,16h.72a4.29,4.29,0,0,0,2.47-.49.69.69,0,0,1,.17.54c0,.75-.74,1.38-2.83,1.38-2.32,0-2.58-.11-2.67-.6,0-.31,0-1.26,0-2.89V11.2c0-.28-.14-.46-.78-.4,0-.68.54-1.24,1.67-1.24C2.55,9.56,3,9.9,3,10.72Z"/><path class="cls-1" d="M9.57,17.5c-1.92,0-3.14-.83-3.14-2.81A3,3,0,0,1,9.75,11.4c1.93,0,3.11.86,3.11,2.85A3,3,0,0,1,9.57,17.5Zm0-4.7c-.8,0-1.06.56-1.06,1.76s.28,1.62,1.14,1.62,1.1-.47,1.1-1.76C10.79,13.4,10.53,12.8,9.61,12.8Z"/><path class="cls-1" d="M13.79,15.82c0-1.17,0-3,0-3h-.75a.69.69,0,0,1-.11-.4,1,1,0,0,1,.92-1,1.5,1.5,0,0,1,1.51-1.6,2.67,2.67,0,0,1,.55.07,13.57,13.57,0,0,0-.07,1.56h.22a2.8,2.8,0,0,0,1.32-.21.84.84,0,0,1,.16.54,1.13,1.13,0,0,1-1.23,1.05h-.47v2.65c0,.36.13.47.54.47a2.49,2.49,0,0,0,1.32-.42.81.81,0,0,1,.15.51c0,.79-.82,1.4-2.08,1.4S13.79,17.06,13.79,15.82Z"/><path class="cls-1" d="M21.09,17.5c-1.92,0-3.14-.83-3.14-2.81a3,3,0,0,1,3.32-3.29c1.93,0,3.11.86,3.11,2.85A3,3,0,0,1,21.09,17.5Zm0-4.7c-.8,0-1.06.56-1.06,1.76s.28,1.62,1.14,1.62,1.1-.47,1.1-1.76C22.31,13.4,22.05,12.8,21.13,12.8Z"/><path class="cls-1" d="M27.8,13.51a2.63,2.63,0,0,0,1-.17,1,1,0,0,1,.14.51c0,.58-.36,1.08-1.58,1.08H24.8a1.06,1.06,0,0,1,1.1-1.41Z"/><path class="cls-1" d="M29.87,11.2c0-.28-.15-.46-.78-.4,0-.68.56-1.24,1.68-1.24A2.16,2.16,0,0,1,33,10.84l1.47,3.29,1.76-3.71a1.33,1.33,0,0,1,1.25-.85,2.68,2.68,0,0,1,1.72.42A4.28,4.28,0,0,0,39,11.94v5.34a2.77,2.77,0,0,1-1.13.17c-.65,0-.9-.17-1-.5s-.06-1.38-.06-3c0-1.09,0-1.79,0-1.79L35,16.25a1.59,1.59,0,0,1-.8.21c-.5,0-.83-.12-1-.53l-1.62-3.67v1.8c0,2,.15,2.64.5,3a1.67,1.67,0,0,1-1.17.42c-.77,0-1-.47-1-1.41Z"/><path class="cls-1" d="M45.37,15.86c0,.28.19.45.83.39,0,.67-.56,1.24-1.6,1.24-.77,0-1.08-.31-1.08-1v-.25c-.19.87-.86,1.23-2,1.23-1.32,0-2-.66-2-1.63,0-1.2.85-1.83,2.62-1.83a9.23,9.23,0,0,1,1.18.08v-.29c0-.71-.44-.93-1.16-.93a2.48,2.48,0,0,0-1.92.86.87.87,0,0,1-.4-.83c0-.79,1-1.5,2.93-1.5s2.59.67,2.59,1.94ZM42.44,15c-.65,0-.92.2-.92.66s.2.58.79.58,1-.34,1-1.17A4,4,0,0,0,42.44,15Z"/><path class="cls-1" d="M48.75,12.61a1.67,1.67,0,0,1,1.8-1.19c1.31,0,2.21.48,2.21,1.87,0,.54,0,1.8,0,2.57,0,.28.14.45.76.39,0,.67-.54,1.24-1.66,1.24-.76,0-1.19-.3-1.19-1.08,0-.53,0-2.05,0-2.47,0-.7-.31-1-1.12-1-.52,0-.76.23-.76.75v3.68a2.4,2.4,0,0,1-1,.16c-.73,0-1-.2-1.06-.59s0-1,0-1.58c0-1.18,0-2.22,0-2.22,0-.29-.14-.47-.78-.41,0-.67.54-1.24,1.67-1.24C48.38,11.44,48.75,11.78,48.75,12.61Z"/><path class="cls-1" d="M53.21,12.68c0-.67.54-1.24,1.66-1.24.88,0,1.22.35,1.22.88v5a2.37,2.37,0,0,1-1,.16c-.62,0-1-.14-1-.59s0-1.08,0-2.16,0-1.55,0-1.64C54,12.8,53.83,12.62,53.21,12.68Zm1.71-1.79c-.77,0-1.09-.25-1.09-.75s.32-.8,1.16-.8,1.1.3,1.1.77S55.88,10.89,54.92,10.89Z"/><path class="cls-1" d="M62.6,15.86c0,.28.19.45.83.39,0,.67-.55,1.24-1.6,1.24-.77,0-1.08-.31-1.08-1v-.25c-.19.87-.86,1.23-2,1.23-1.32,0-2-.66-2-1.63,0-1.2.85-1.83,2.63-1.83a9.08,9.08,0,0,1,1.17.08v-.29c0-.71-.44-.93-1.16-.93a2.51,2.51,0,0,0-1.92.86.87.87,0,0,1-.4-.83c0-.79,1-1.5,2.93-1.5s2.59.67,2.59,1.94ZM59.67,15c-.64,0-.92.2-.92.66s.2.58.79.58,1-.34,1-1.17A4,4,0,0,0,59.67,15Z"/><path class="cls-1" d="M4.2,2a10.91,10.91,0,0,1,.94.7s1.08-.16,1.37-.17a2.75,2.75,0,0,1-.65,1.15A2.44,2.44,0,0,1,6,5a5.25,5.25,0,0,0-1.18-.66,6.68,6.68,0,0,1-1.47.34,6.88,6.88,0,0,0,.38-.77s-.71-.32-1-.4C3.46,3.13,4.43,3.3,4.2,2Z"/><path class="cls-1" d="M2.4.3a4.34,4.34,0,0,1,.49.35s.54-.08.69-.08a1.4,1.4,0,0,1-.32.57,1.31,1.31,0,0,1,.06.65,3.08,3.08,0,0,0-.59-.33A3.31,3.31,0,0,1,2,1.63a3.49,3.49,0,0,0,.19-.39S1.8,1.08,1.67,1L2.31.81A.91.91,0,0,0,2.4.3Z"/><path class="cls-1" d="M6,0a4.83,4.83,0,0,1,.58.43s.68-.1.86-.1A1.92,1.92,0,0,1,7,1a1.63,1.63,0,0,1,.07.82,2.73,2.73,0,0,0-.77-.41,4.12,4.12,0,0,1-.91.2,4.37,4.37,0,0,0,.23-.49S5.19,1,5,.91L5.81.62A1.11,1.11,0,0,0,6,0Z"/><path class="cls-1" d="M8.92,1.64c.13.09.26.18.38.28s.44-.06.56-.06a1.17,1.17,0,0,1-.26.46,1.06,1.06,0,0,1,0,.53,2,2,0,0,0-.47-.27,2.49,2.49,0,0,1-.6.14,3.18,3.18,0,0,0,.16-.32s-.29-.13-.39-.16L8.86,2A.77.77,0,0,0,8.92,1.64Z"/><path class="cls-1" d="M2.52,5.53l.38.29s.44-.07.56-.07a1.06,1.06,0,0,1-.27.47,1,1,0,0,1,.05.54,1.64,1.64,0,0,0-.48-.28,2.92,2.92,0,0,1-.6.14,3.36,3.36,0,0,0,.16-.33l-.39-.14L2.45,6A.7.7,0,0,0,2.52,5.53Z"/><path class="cls-1" d="M5.25,5.6A15.8,15.8,0,0,1,6.79,6.75s1.82-.26,2.31-.27A4.61,4.61,0,0,1,8,8.39a4.09,4.09,0,0,1,.25,2.19,7.55,7.55,0,0,0-2-1.1A12,12,0,0,1,3.87,10a12.9,12.9,0,0,0,.56-1.33S3.24,8.18,2.83,8L5,7.26A2.73,2.73,0,0,0,5.25,5.6Z"/><path class="cls-1" d="M8,4.29A10.72,10.72,0,0,1,9,5s1.08-.14,1.36-.15A2.77,2.77,0,0,1,9.7,6a2.54,2.54,0,0,1,.11,1.31A4.58,4.58,0,0,0,8.65,6.6a6.06,6.06,0,0,1-1.46.33,6.88,6.88,0,0,0,.38-.77s-.71-.31-1-.4L7.88,5.3A1.6,1.6,0,0,0,8,4.29Z"/></g></g></svg>