<svg xmlns="http://www.w3.org/2000/svg" viewBox="0 0 63.71 17.98"><defs><style>.cls-1{fill:#1f2937;}</style></defs><g id="Layer_2" data-name="Layer 2"><g id="Layer_1-2" data-name="Layer 1"><path class="cls-1" d="M3.92,7.31a3.63,3.63,0,0,1,4,4c0,3.05-2,3.88-4.55,3.88-1.77,0-2.44-.13-2.51-.59s-.07-1.32-.07-3V8.87c0-.29-.14-.47-.78-.41,0-.67.55-1.15,1.67-1.15Zm-1,1.38v5.06c.18,0,.54,0,.79,0,1.41,0,2.07-.53,2.07-2.26C5.79,9.46,4.62,8.63,2.93,8.69Z"/><path class="cls-1" d="M15.5,13.92c0,.67-.54,1.23-1.67,1.23-.79,0-1.16-.34-1.16-1.17a1.66,1.66,0,0,1-1.8,1.19c-1.3,0-2.13-.48-2.13-1.89,0-.52,0-1.77,0-2.53,0-.28-.14-.46-.78-.4,0-.68.54-1.24,1.67-1.24.76,0,1.18.2,1.18,1,0,.54,0,2.15,0,2.57,0,.69.24,1,1.06,1,.51,0,.75-.23.75-.74V11.29a12,12,0,0,0-.12-1.94,2.15,2.15,0,0,1,1-.24c.94,0,1.24.37,1.24,1.64s0,2.77,0,2.77C14.72,13.81,14.86,14,15.5,13.92Z"/><path class="cls-1" d="M19.88,9.09c1.6,0,2.48.82,2.48,2.83s-1.16,3.25-3.1,3.25a5.32,5.32,0,0,1-1.14-.11,6.74,6.74,0,0,0,.27,2.51,1.91,1.91,0,0,1-1.22.41c-.82,0-1.16-.35-1.16-1l0-6.2c0-.28-.14-.46-.78-.4,0-.68.54-1.24,1.67-1.24.79,0,1.16.34,1.16,1.16A1.66,1.66,0,0,1,19.88,9.09ZM18.12,11.3v2.47a3,3,0,0,0,.9.11c.9,0,1.29-.57,1.29-1.74s-.46-1.58-1.44-1.58C18.36,10.56,18.12,10.79,18.12,11.3Z"/><path class="cls-1" d="M23.05,9.94a6.47,6.47,0,0,0-.26-2.35A1.84,1.84,0,0,1,24,7.17c.83,0,1.2.36,1.2,1v5.31c0,.29.14.46.77.4,0,.67-.54,1.23-1.67,1.23-.76,0-1.21-.29-1.21-1.08Z"/><path class="cls-1" d="M31.74,13.52c0,.29.19.46.82.4,0,.67-.55,1.23-1.59,1.23-.77,0-1.08-.31-1.08-1v-.24c-.19.86-.86,1.22-2,1.22-1.32,0-2-.66-2-1.63,0-1.2.85-1.82,2.62-1.82a9.23,9.23,0,0,1,1.18.07v-.29c0-.7-.45-.92-1.17-.92a2.53,2.53,0,0,0-1.92.85.86.86,0,0,1-.39-.82c0-.8,1-1.5,2.93-1.5s2.59.67,2.59,1.94Zm-2.93-.85c-.65,0-.92.21-.92.66s.2.59.79.59,1-.35,1-1.18A3.89,3.89,0,0,0,28.81,12.67Z"/><path class="cls-1" d="M35.61,11.17a2.45,2.45,0,0,0,1-.17.94.94,0,0,1,.14.52c0,.58-.36,1.08-1.58,1.08H32.62a1.05,1.05,0,0,1,1.09-1.42Z"/><path class="cls-1" d="M40.11,15.15C38,15.15,37,14.64,37,13.7a1.3,1.3,0,0,1,.67-1.15,2.72,2.72,0,0,0,2.39,1.13c.67,0,.89-.22.89-.71s-.38-.49-1.81-.91c-1.06-.31-1.92-.9-1.92-2.13,0-1.5.93-2.69,3.08-2.69C42.14,7.24,43,8,43,8.81a1.11,1.11,0,0,1-.66,1,2.7,2.7,0,0,0-2.1-1c-.73,0-.93.29-.93.69s.33.64,2,1.12c1.36.38,1.9.92,1.9,2C43.14,14,42.37,15.15,40.11,15.15Z"/><path class="cls-1" d="M49.4,11.27c0,.85-.19,1.19-.61,1.19H45.62c0,.9.51,1.3,1.62,1.3a2.79,2.79,0,0,0,2-.8.74.74,0,0,1,.22.56c0,1-1,1.63-2.94,1.63s-3.07-.82-3.07-2.77a3,3,0,0,1,3.26-3.32C48.48,9.06,49.4,10,49.4,11.27Zm-1.94,0a.86.86,0,0,0-1-.85c-.64,0-.81.43-.86,1.07h1.82A1.62,1.62,0,0,0,47.46,11.28Z"/><path class="cls-1" d="M52.35,10.27a1.66,1.66,0,0,1,1.8-1.18c1.31,0,2.21.48,2.21,1.87,0,.54,0,1.8,0,2.56,0,.29.14.46.76.4,0,.67-.54,1.23-1.66,1.23-.76,0-1.19-.29-1.19-1.08,0-.52,0-2.05,0-2.47,0-.69-.31-1-1.12-1-.52,0-.76.23-.76.74V15a2.41,2.41,0,0,1-1,.15c-.73,0-1-.19-1.06-.58s0-1,0-1.59c0-1.17,0-2.22,0-2.22,0-.28-.14-.46-.78-.4,0-.68.54-1.24,1.67-1.24C52,9.11,52.35,9.45,52.35,10.27Z"/><path class="cls-1" d="M62.89,13.52c0,.29.19.46.82.4,0,.67-.55,1.23-1.59,1.23-.77,0-1.08-.31-1.08-1v-.24c-.19.86-.86,1.22-1.95,1.22-1.32,0-2-.66-2-1.63,0-1.2.85-1.82,2.62-1.82a9.23,9.23,0,0,1,1.18.07v-.29c0-.7-.45-.92-1.16-.92a2.5,2.5,0,0,0-1.92.85.85.85,0,0,1-.4-.82c0-.8,1-1.5,2.93-1.5s2.59.67,2.59,1.94ZM60,12.67c-.65,0-.92.21-.92.66s.2.59.79.59,1-.35,1-1.18A3.89,3.89,0,0,0,60,12.67Z"/><path class="cls-1" d="M12.68,2.15l-1.94.57L11.31.78A1.14,1.14,0,0,1,12.68,0a1.1,1.1,0,0,1,.72,1.39A1.12,1.12,0,0,1,12.68,2.15Z"/><path class="cls-1" d="M6.85,5.18l1.94-.57L8.22,6.55A1.1,1.1,0,1,1,6.85,5.18Z"/><path class="cls-1" d="M8.79,6.72l.46-2,1.43,1.49A1.09,1.09,0,1,1,9,7.61,1.13,1.13,0,0,1,8.79,6.72Z"/><path class="cls-1" d="M9.54,1.87l-.46,2L7.65,2.38A1.14,1.14,0,0,1,7.71.78,1.15,1.15,0,0,1,9.54,1.87Z"/><path class="cls-1" d="M11.08,5.81,9.59,4.38l2-.46a1.16,1.16,0,0,1,1.38.8,1.15,1.15,0,0,1-.88,1.36A1.13,1.13,0,0,1,11.08,5.81Z"/><path class="cls-1" d="M7.25,2.78,8.72,4.21l-2,.46a1.15,1.15,0,0,1-1.37-.8,1.14,1.14,0,0,1,.88-1.36,1.13,1.13,0,0,1,1,.27Z"/></g></g></svg>