<svg xmlns="http://www.w3.org/2000/svg" viewBox="0 0 59.05 12.97"><defs><style>.cls-1{fill:#1f2937;}</style></defs><g id="Layer_2" data-name="Layer 2"><g id="Layer_1-2" data-name="Layer 1"><path class="cls-1" d="M.78,6.67c0-.28-.14-.47-.78-.4C0,5.59.56,5,1.68,5A2.16,2.16,0,0,1,3.9,6.31L5.37,9.6,7.14,5.89A1.32,1.32,0,0,1,8.38,5a2.68,2.68,0,0,1,1.72.42A4.26,4.26,0,0,0,9.86,7.4v5.35a2.77,2.77,0,0,1-1.13.17c-.65,0-.9-.17-1-.5s-.06-1.38-.06-3c0-1.09,0-1.79,0-1.79l-1.84,4.1a1.66,1.66,0,0,1-.81.21c-.5,0-.82-.12-1-.53L2.45,7.73v1.8c0,2,.14,2.64.49,3a1.67,1.67,0,0,1-1.17.42c-.76,0-1-.47-1-1.41Z"/><path class="cls-1" d="M10.2,8.15c0-.67.54-1.24,1.67-1.24.87,0,1.21.35,1.21.88v5a2.34,2.34,0,0,1-1,.15c-.63,0-1-.13-1.06-.58s0-1.08,0-2.16,0-1.55,0-1.64C11,8.27,10.82,8.09,10.2,8.15Zm1.72-1.79c-.77,0-1.1-.25-1.1-.76s.33-.79,1.17-.79,1.09.3,1.09.77S12.87,6.36,11.92,6.36Z"/><path class="cls-1" d="M14.15,7.74a6.18,6.18,0,0,0-.27-2.35A1.85,1.85,0,0,1,15.1,5c.82,0,1.19.36,1.19,1v5.32c0,.28.15.45.77.39,0,.67-.54,1.24-1.66,1.24-.76,0-1.22-.3-1.22-1.08Z"/><path class="cls-1" d="M16.75,8.15c0-.67.54-1.24,1.67-1.24.87,0,1.21.35,1.21.88v5a2.34,2.34,0,0,1-1,.15c-.62,0-1-.13-1.06-.58s0-1.08,0-2.16,0-1.55,0-1.64C17.52,8.27,17.38,8.09,16.75,8.15Zm1.72-1.79c-.77,0-1.09-.25-1.09-.76s.32-.79,1.16-.79,1.09.3,1.09.77S19.43,6.36,18.47,6.36Z"/><path class="cls-1" d="M23.6,13c-1.92,0-3.14-.83-3.14-2.81a3,3,0,0,1,3.32-3.3c1.93,0,3.11.87,3.11,2.86A3,3,0,0,1,23.6,13Zm0-4.7c-.81,0-1.06.56-1.06,1.76s.28,1.62,1.14,1.62,1.09-.47,1.09-1.76C24.81,8.87,24.56,8.27,23.64,8.27Z"/><path class="cls-1" d="M29.82,8.08a1.65,1.65,0,0,1,1.8-1.19c1.3,0,2.2.48,2.2,1.87,0,.54,0,1.8,0,2.57,0,.28.14.45.77.39,0,.67-.54,1.24-1.67,1.24-.76,0-1.19-.3-1.19-1.08,0-.53,0-2.05,0-2.47,0-.7-.31-1.05-1.13-1.05-.52,0-.76.23-.76.75v3.68a2.39,2.39,0,0,1-1,.15c-.73,0-1-.19-1.05-.58s0-.95,0-1.59c0-1.17,0-2.21,0-2.21,0-.29-.15-.47-.78-.41,0-.67.54-1.24,1.66-1.24C29.45,6.91,29.82,7.25,29.82,8.08Z"/><path class="cls-1" d="M40.35,11.33c0,.28.19.45.83.39,0,.67-.55,1.24-1.6,1.24-.76,0-1.08-.32-1.08-1v-.24c-.19.87-.86,1.23-2,1.23-1.32,0-2-.66-2-1.63,0-1.2.85-1.83,2.63-1.83a11.14,11.14,0,0,1,1.17.07V9.29c0-.71-.44-.93-1.16-.93a2.51,2.51,0,0,0-1.92.86.87.87,0,0,1-.4-.83c0-.79,1-1.5,2.93-1.5s2.59.67,2.59,1.94Zm-2.92-.86c-.65,0-.93.21-.93.66s.21.59.79.59,1-.35,1-1.17A3.93,3.93,0,0,0,37.43,10.47Z"/><path class="cls-1" d="M43.65,8.08c.16-.78.48-1.17,1.26-1.17A1,1,0,0,1,46,8a2.62,2.62,0,0,1-.25,1,4.8,4.8,0,0,0-1.15-.19c-.68,0-.84.36-.84,1v3a2.71,2.71,0,0,1-1,.14c-.68,0-1-.15-1-.58s0-.95,0-1.59c0-1.17,0-2.21,0-2.21,0-.29-.15-.47-.77-.41,0-.67.54-1.24,1.66-1.24C43.32,6.91,43.69,7.26,43.65,8.08Z"/><path class="cls-1" d="M45.78,8.15c0-.67.54-1.24,1.67-1.24.87,0,1.21.35,1.21.88v5a2.34,2.34,0,0,1-1,.15c-.63,0-1-.13-1.06-.58s0-1.08,0-2.16,0-1.55,0-1.64C46.55,8.27,46.4,8.09,45.78,8.15Zm1.71-1.79c-.76,0-1.09-.25-1.09-.76s.33-.79,1.17-.79,1.09.3,1.09.77S48.45,6.36,47.49,6.36Z"/><path class="cls-1" d="M55.17,11.33c0,.28.19.45.83.39,0,.67-.55,1.24-1.6,1.24-.76,0-1.08-.32-1.08-1v-.24c-.19.87-.86,1.23-2,1.23-1.32,0-2-.66-2-1.63,0-1.2.85-1.83,2.63-1.83a11.14,11.14,0,0,1,1.17.07V9.29c0-.71-.44-.93-1.16-.93a2.51,2.51,0,0,0-1.92.86.87.87,0,0,1-.4-.83c0-.79,1-1.5,2.93-1.5s2.59.67,2.59,1.94Zm-2.92-.86c-.65,0-.93.21-.93.66s.21.59.79.59,1-.35,1-1.17A3.93,3.93,0,0,0,52.25,10.47Z"/><path class="cls-1" d="M52.91,3.19a10.29,10.29,0,0,1,.94.69s1.08-.15,1.37-.16a2.86,2.86,0,0,1-.65,1.15,2.54,2.54,0,0,1,.11,1.31,4.89,4.89,0,0,0-1.18-.66A7.46,7.46,0,0,1,52,5.86a7.85,7.85,0,0,0,.38-.77s-.72-.32-1-.4C52.17,4.31,53.14,4.47,52.91,3.19Z"/><path class="cls-1" d="M51.11,1.48a5.36,5.36,0,0,1,.49.34s.54-.07.69-.07a1.51,1.51,0,0,1-.33.56A1.35,1.35,0,0,1,52,3a2.29,2.29,0,0,0-.59-.33,4.08,4.08,0,0,1-.77.17c.07-.13.13-.26.19-.4l-.48-.2L51,2A.86.86,0,0,0,51.11,1.48Z"/><path class="cls-1" d="M54.68,1.18a4.83,4.83,0,0,1,.58.43s.68-.1.85-.1a1.64,1.64,0,0,1-.4.7,1.47,1.47,0,0,1,.07.83A2.74,2.74,0,0,0,55,2.62a4.53,4.53,0,0,1-.9.21,4.37,4.37,0,0,0,.23-.49l-.59-.26.77-.28A1.13,1.13,0,0,0,54.68,1.18Z"/><path class="cls-1" d="M57.63,2.82c.13.09.26.18.38.28s.44-.06.56-.06a1.08,1.08,0,0,1-.27.46,1,1,0,0,1,.05.53,1.87,1.87,0,0,0-.48-.27,3,3,0,0,1-.59.14c.06-.11.11-.21.16-.32s-.3-.14-.4-.17l.53-.19A.89.89,0,0,0,57.63,2.82Z"/><path class="cls-1" d="M1.14,0c.13.09.26.18.38.28S2,.22,2.08.22a1.08,1.08,0,0,1-.27.46,1,1,0,0,1,.05.54A1.61,1.61,0,0,0,1.38,1a2.91,2.91,0,0,1-.6.13A3.18,3.18,0,0,0,.94.76L.55.61,1.07.43A.7.7,0,0,0,1.14,0Z"/><path class="cls-1" d="M3.87.07A15.71,15.71,0,0,1,5.41,1.21S7.23,1,7.72,1a4.57,4.57,0,0,1-1.08,1.9,4.25,4.25,0,0,1,.26,2.2,8.25,8.25,0,0,0-2-1.11,11,11,0,0,1-2.45.56,12,12,0,0,0,.56-1.33s-1.19-.53-1.6-.67l2.13-.77A2.73,2.73,0,0,0,3.87.07Z"/><path class="cls-1" d="M56.75,5.47a10.72,10.72,0,0,1,.94.68S58.77,6,59.05,6a2.68,2.68,0,0,1-.65,1.13,2.44,2.44,0,0,1,.12,1.31,4.3,4.3,0,0,0-1.16-.66,6.58,6.58,0,0,1-1.46.33c.14-.25.26-.51.38-.77,0,0-.71-.31-1-.4l1.28-.46A1.61,1.61,0,0,0,56.75,5.47Z"/></g></g></svg>