<svg xmlns="http://www.w3.org/2000/svg" viewBox="0 0 62.78 16.38"><defs><style>.cls-1{fill:#1f2937;}</style></defs><g id="Layer_2" data-name="Layer 2"><g id="Layer_1-2" data-name="Layer 1"><path class="cls-1" d="M3.07,13.55C.92,13.55,0,13,0,12.1a1.31,1.31,0,0,1,.67-1.16,2.71,2.71,0,0,0,2.39,1.13c.67,0,.89-.21.89-.71s-.39-.49-1.82-.91c-1-.31-1.91-.9-1.91-2.13,0-1.5.93-2.69,3.08-2.69,1.8,0,2.61.72,2.61,1.57a1.11,1.11,0,0,1-.66,1,2.69,2.69,0,0,0-2.1-1c-.73,0-.92.29-.92.7s.32.63,2,1.11c1.35.38,1.89.92,1.89,2C6.09,12.37,5.33,13.55,3.07,13.55Z"/><path class="cls-1" d="M13.56,12.31c0,.67-.54,1.24-1.67,1.24-.79,0-1.16-.35-1.16-1.18a1.66,1.66,0,0,1-1.8,1.19c-1.3,0-2.14-.48-2.14-1.88,0-.53,0-1.78,0-2.53,0-.29-.14-.47-.78-.41,0-.67.54-1.24,1.67-1.24.75,0,1.17.21,1.17,1,0,.54,0,2.15,0,2.57,0,.7.24,1,1,1,.52,0,.76-.22.76-.74V9.68a13.31,13.31,0,0,0-.12-1.94,2.12,2.12,0,0,1,1-.24c.93,0,1.23.37,1.23,1.65s0,2.77,0,2.77C12.78,12.2,12.92,12.37,13.56,12.31Z"/><path class="cls-1" d="M17.94,7.48c1.59,0,2.48.83,2.48,2.83s-1.16,3.25-3.11,3.25a5.39,5.39,0,0,1-1.14-.11A6.67,6.67,0,0,0,16.45,16a1.92,1.92,0,0,1-1.22.42c-.82,0-1.17-.36-1.17-1l0-6.2c0-.29-.15-.47-.78-.41,0-.67.54-1.24,1.67-1.24.79,0,1.16.34,1.16,1.17A1.65,1.65,0,0,1,17.94,7.48ZM16.17,9.7v2.47a3.46,3.46,0,0,0,.9.11c.9,0,1.3-.58,1.3-1.74S17.9,9,16.93,9C16.41,9,16.17,9.18,16.17,9.7Z"/><path class="cls-1" d="M26.82,9.66c0,.85-.2,1.19-.62,1.19H23c0,.9.5,1.31,1.62,1.31a2.82,2.82,0,0,0,2-.81.75.75,0,0,1,.22.57c0,1-1.05,1.63-2.94,1.63s-3.07-.83-3.07-2.77a3,3,0,0,1,3.26-3.33C25.89,7.45,26.82,8.4,26.82,9.66Zm-1.95,0a.86.86,0,0,0-1-.85c-.63,0-.8.43-.85,1.07h1.81A1.48,1.48,0,0,0,24.87,9.67Z"/><path class="cls-1" d="M29.69,8.67c.15-.78.48-1.17,1.26-1.17a1,1,0,0,1,1.11,1,2.49,2.49,0,0,1-.25,1,4.66,4.66,0,0,0-1.15-.19c-.67,0-.84.36-.84,1v3a2.65,2.65,0,0,1-1,.14c-.69,0-1-.15-1.06-.58s0-.95,0-1.59c0-1.17,0-2.21,0-2.21,0-.29-.15-.47-.77-.41,0-.67.54-1.24,1.67-1.24C29.35,7.5,29.72,7.85,29.69,8.67Z"/><path class="cls-1" d="M35.18,9.56a2.67,2.67,0,0,0,1-.16,1,1,0,0,1,.14.51c0,.58-.36,1.08-1.58,1.08H32.18a1.06,1.06,0,0,1,1.09-1.42Z"/><path class="cls-1" d="M39.68,13.55c-2.15,0-3.07-.52-3.07-1.45a1.31,1.31,0,0,1,.67-1.16,2.71,2.71,0,0,0,2.39,1.13c.67,0,.89-.21.89-.71s-.39-.49-1.81-.91c-1.06-.31-1.92-.9-1.92-2.13,0-1.5.93-2.69,3.08-2.69,1.8,0,2.61.72,2.61,1.57a1.09,1.09,0,0,1-.66,1,2.68,2.68,0,0,0-2.09-1c-.74,0-.93.29-.93.7s.33.63,2,1.11c1.35.38,1.89.92,1.89,2C42.7,12.37,41.94,13.55,39.68,13.55Z"/><path class="cls-1" d="M49,9.66c0,.85-.19,1.19-.61,1.19H45.19c0,.9.5,1.31,1.62,1.31a2.82,2.82,0,0,0,2-.81.75.75,0,0,1,.22.57c0,1-1.05,1.63-2.94,1.63S43,12.72,43,10.78a3,3,0,0,1,3.26-3.33C48,7.45,49,8.4,49,9.66ZM47,9.67a.86.86,0,0,0-1-.85c-.63,0-.8.43-.85,1.07H47A1.48,1.48,0,0,0,47,9.67Z"/><path class="cls-1" d="M49.92,11.88c0-1.18,0-3,0-3h-.75a.77.77,0,0,1-.11-.4,1,1,0,0,1,.92-1,1.5,1.5,0,0,1,1.51-1.6,2.77,2.77,0,0,1,.56.07A13.58,13.58,0,0,0,52,7.56h.22a2.8,2.8,0,0,0,1.32-.21.85.85,0,0,1,.17.54,1.14,1.14,0,0,1-1.24,1H52v2.65c0,.36.13.47.54.47a2.49,2.49,0,0,0,1.32-.42.8.8,0,0,1,.15.5c0,.79-.82,1.41-2.08,1.41S49.92,13.12,49.92,11.88Z"/><path class="cls-1" d="M60,9.66c0,.85-.19,1.19-.61,1.19H56.25c0,.9.51,1.31,1.62,1.31a2.84,2.84,0,0,0,2-.81.78.78,0,0,1,.21.57c0,1-1,1.63-2.94,1.63s-3.07-.83-3.07-2.77a3,3,0,0,1,3.27-3.33C59.11,7.45,60,8.4,60,9.66Zm-1.94,0a.86.86,0,0,0-1-.85c-.64,0-.81.43-.85,1.07h1.81A1.48,1.48,0,0,0,58.09,9.67Z"/><path class="cls-1" d="M8.16,1.72c.27.19.54.38.8.6,0,0,.93-.13,1.18-.14a2.46,2.46,0,0,1-.56,1,2.17,2.17,0,0,1,.09,1.13,4,4,0,0,0-1-.57A6.12,6.12,0,0,1,7.41,4c.11-.21.22-.43.32-.66,0,0-.61-.28-.83-.34C7.52,2.68,8.35,2.82,8.16,1.72Z"/><path class="cls-1" d="M6.62.26,7,.55S7.5.49,7.62.49A1.09,1.09,0,0,1,7.35,1a1.19,1.19,0,0,1,.05.56,2.46,2.46,0,0,0-.5-.28,3,3,0,0,1-.66.15c.06-.11.11-.23.16-.34A4.39,4.39,0,0,0,6,.89l.55-.2A.79.79,0,0,0,6.62.26Z"/><path class="cls-1" d="M9.67,0a4.29,4.29,0,0,1,.5.37s.58-.09.73-.09a1.42,1.42,0,0,1-.34.61,1.39,1.39,0,0,1,.06.7A2.32,2.32,0,0,0,10,1.24a4.92,4.92,0,0,1-.78.18A3.36,3.36,0,0,0,9.38,1S9,.82,8.87.78L9.53.53A.9.9,0,0,0,9.67,0Z"/><path class="cls-1" d="M12.2,1.41a3.43,3.43,0,0,1,.33.24s.37-.06.47-.06a1,1,0,0,1-.22.4,1,1,0,0,1,0,.45,2.38,2.38,0,0,0-.41-.23,2.36,2.36,0,0,1-.51.12A2.39,2.39,0,0,0,12,2.05s-.25-.11-.33-.13l.44-.17A.66.66,0,0,0,12.2,1.41Z"/><path class="cls-1" d="M6.71,4.74A2,2,0,0,1,7,5s.38-.06.48-.06a1,1,0,0,1-.23.41.79.79,0,0,1,0,.46,1.52,1.52,0,0,0-.41-.24,2.11,2.11,0,0,1-.51.12,1.43,1.43,0,0,0,.13-.28l-.33-.12.44-.16A.6.6,0,0,0,6.71,4.74Z"/><path class="cls-1" d="M59.49,3.11a14.09,14.09,0,0,1,1.32,1s1.55-.22,2-.23a3.84,3.84,0,0,1-.92,1.63,3.69,3.69,0,0,1,.22,1.89,6.49,6.49,0,0,0-1.68-1,9.45,9.45,0,0,1-2.09.48,11.44,11.44,0,0,0,.48-1.14s-1-.45-1.38-.58l1.83-.66A2.32,2.32,0,0,0,59.49,3.11Z"/><path class="cls-1" d="M11.45,3.67c.27.18.54.38.8.59,0,0,.92-.13,1.16-.13a2.26,2.26,0,0,1-.55,1A2.17,2.17,0,0,1,13,6.22a3.92,3.92,0,0,0-1-.57,5.53,5.53,0,0,1-1.25.29c.12-.22.22-.44.32-.66,0,0-.61-.27-.82-.34l1.09-.4A1.38,1.38,0,0,0,11.45,3.67Z"/></g></g></svg>