<svg width="104" height="43" viewBox="0 0 104 43" fill="none" xmlns="http://www.w3.org/2000/svg">
<path d="M47.3529 2.62354C47.3529 2.62354 48.2016 3.17316 48.5796 3.52004C48.5796 3.52004 49.9916 3.31973 50.3623 3.3124C50.3623 3.3124 50.2696 3.89134 49.5209 4.79762C49.5209 4.79762 49.877 5.70145 49.6746 6.5149C49.6746 6.5149 48.9259 5.91885 48.1455 5.64771C48.1455 5.64771 47.0188 6.04099 46.2384 6.08741C46.2384 6.08741 46.6018 5.41564 46.7237 5.05167C46.7237 5.05167 45.797 4.63395 45.4727 4.52647L47.1407 3.9231C47.1432 3.92066 47.4822 3.30263 47.3529 2.62354Z" fill="white"/>
<path d="M45.0165 0.393066C45.0165 0.393066 45.4384 0.666659 45.6287 0.840096C45.6287 0.840096 46.331 0.739942 46.5164 0.737499C46.5164 0.737499 46.47 1.02575 46.0969 1.47766C46.0969 1.47766 46.2725 1.92714 46.1749 2.33264C46.1749 2.33264 45.8018 2.03706 45.4141 1.90271C45.4141 1.90271 44.8532 2.09813 44.4654 2.12256C44.4654 2.12256 44.6459 1.7879 44.7068 1.60713C44.7068 1.60713 44.2459 1.39949 44.085 1.34575L44.9141 1.04529C44.9141 1.0404 45.0824 0.732614 45.0165 0.393066Z" fill="white"/>
<path d="M49.6061 0C49.6061 0 50.1329 0.34199 50.3695 0.556956C50.3695 0.556956 51.2474 0.432373 51.4766 0.427488C51.4766 0.427488 51.4181 0.78902 50.9547 1.35086C50.9547 1.35086 51.1742 1.9127 51.0498 2.41592C51.0498 2.41592 50.5841 2.04706 50.1012 1.8785C50.1012 1.8785 49.4013 2.12278 48.9184 2.1521C48.9184 2.1521 49.1428 1.73438 49.2208 1.50964C49.2208 1.50964 48.6453 1.25071 48.4453 1.18231L49.4818 0.808563C49.4793 0.80612 49.6891 0.422602 49.6061 0Z" fill="white"/>
<path d="M53.496 2.13965C53.496 2.13965 53.8398 2.36194 53.9935 2.50118C53.9935 2.50118 54.5641 2.42057 54.7153 2.41568C54.7153 2.41568 54.6788 2.65019 54.3739 3.01661C54.3739 3.01661 54.5178 3.38303 54.4373 3.71036C54.4373 3.71036 54.1349 3.46852 53.8179 3.36104C53.8179 3.36104 53.3619 3.51982 53.0473 3.53937C53.0473 3.53937 53.1936 3.26822 53.2448 3.11921C53.2448 3.11921 52.8692 2.95065 52.74 2.90668L53.4131 2.66241C53.4106 2.66485 53.5472 2.41568 53.496 2.13965Z" fill="white"/>
<path d="M45.1627 7.19873C45.1627 7.19873 45.509 7.42347 45.6651 7.56515C45.6651 7.56515 46.2406 7.48454 46.3918 7.47965C46.3918 7.47965 46.3552 7.7166 46.048 8.08546C46.048 8.08546 46.1918 8.45432 46.1114 8.78654C46.1114 8.78654 45.8065 8.54226 45.4871 8.43234C45.4871 8.43234 45.0261 8.59356 44.7091 8.61066C44.7091 8.61066 44.8579 8.33707 44.9067 8.18806C44.9067 8.18806 44.5287 8.01706 44.397 7.97309L45.0774 7.72637C45.0774 7.72882 45.2164 7.47721 45.1627 7.19873Z" fill="white"/>
<path d="M48.7282 7.28662C48.7282 7.28662 50.1451 8.20267 50.7767 8.78161C50.7767 8.78161 53.1325 8.44939 53.7495 8.43229C53.7495 8.43229 53.5959 9.40208 52.3473 10.9093C52.3473 10.9093 52.9399 12.4189 52.6033 13.7722C52.6033 13.7722 51.3547 12.778 50.0524 12.3285C50.0524 12.3285 48.1722 12.9856 46.8748 13.0614C46.8748 13.0614 47.4796 11.9401 47.6845 11.3319C47.6845 11.3319 46.1408 10.6381 45.5994 10.4549L48.3795 9.45093C48.3795 9.45337 48.9453 8.42007 48.7282 7.28662Z" fill="white"/>
<path d="M52.3546 5.58154C52.3546 5.58154 53.1984 6.12628 53.574 6.47316C53.574 6.47316 54.9762 6.27529 55.3445 6.26552C55.3445 6.26552 55.2542 6.84202 54.508 7.74097C54.508 7.74097 54.8592 8.63991 54.6616 9.44603C54.6616 9.44603 53.9178 8.85488 53.1423 8.58617C53.1423 8.58617 52.023 8.97702 51.2499 9.02343C51.2499 9.02343 51.6108 8.35655 51.7328 7.99257C51.7328 7.99257 50.8134 7.57974 50.4915 7.46982L52.1473 6.87133C52.1449 6.87378 52.4839 6.2582 52.3546 5.58154Z" fill="white"/>
<path d="M36.959 11.8452C41.4121 11.8452 42.9704 14.7643 42.9704 17.83C42.9704 22.4371 40.0025 23.7049 36.0908 23.7049C33.4302 23.7049 32.4157 23.5046 32.306 22.7987C32.2328 22.3272 32.1962 20.8029 32.1962 18.3381L32.2133 14.2025C32.2133 13.7677 31.9962 13.4941 31.0354 13.5869C31.0354 12.5707 31.867 11.8452 33.5521 11.8452H36.959ZM35.4568 13.9314V21.5846C35.7275 21.6017 36.2713 21.6384 36.6517 21.6384C38.788 21.6384 39.783 20.8396 39.783 18.2282C39.783 15.0917 38.0077 13.841 35.4568 13.9314Z" fill="white"/>
<path d="M52.2571 21.2401C52.2571 21.6749 52.5473 21.929 53.5057 21.8386C53.5057 22.8548 52.6741 23.7073 51.0987 23.7073C49.9403 23.7073 49.4696 23.2359 49.4696 22.2197V21.8581C49.1794 23.1626 48.1674 23.7073 46.5188 23.7073C44.5264 23.7073 43.4412 22.7107 43.4412 21.2401C43.4412 19.4276 44.7263 18.4847 47.4065 18.4847C48.021 18.4847 48.5844 18.5213 49.1819 18.5946V18.1598C49.1819 17.0898 48.5112 16.7625 47.426 16.7625C46.3213 16.7625 45.236 17.2169 44.5288 18.0498C44.0947 17.7591 43.9313 17.4147 43.9313 16.7991C43.9313 15.6022 45.3799 14.5322 48.3478 14.5322C51.1182 14.5322 52.2595 15.5484 52.2595 17.4709V21.2401H52.2571ZM47.8381 19.9528C46.8602 19.9528 46.4432 20.2606 46.4432 20.9494C46.4432 21.4746 46.7505 21.8386 47.6382 21.8386C48.5258 21.8386 49.1404 21.3134 49.1404 20.0627C48.6356 19.9699 48.4185 19.9528 47.8381 19.9528Z" fill="white"/>
<path d="M53.0522 16.4351C53.0522 15.4189 53.8668 14.5664 55.569 14.5664C56.8908 14.5664 57.398 15.0916 57.398 15.8904V23.4533C57.0371 23.6536 56.4737 23.6878 55.8421 23.6878C54.9008 23.6878 54.2862 23.4875 54.2496 22.7986C54.2131 22.1464 54.196 21.1668 54.196 19.535C54.196 17.7567 54.2155 17.1948 54.2155 17.0507C54.2131 16.6159 53.9936 16.3423 53.0522 16.4351Z" fill="white"/>
<path d="M58.5928 15.8168C58.5757 13.804 58.4831 13.0052 58.1953 12.2626C58.6489 11.8449 59.3732 11.6274 60.0243 11.6274C61.273 11.6274 61.8339 12.1722 61.8339 13.2055V21.2398C61.8339 21.6746 62.0509 21.9287 62.9922 21.8383C62.9922 22.8545 62.1777 23.707 60.4755 23.707C59.3342 23.707 58.6465 23.2527 58.6465 22.0752L58.5928 15.8168Z" fill="white"/>
<path d="M63.5166 17.1045C63.3166 16.506 63.2459 16.3619 62.5582 16.4327C62.5582 15.4165 63.3727 14.564 65.0749 14.564C65.8163 14.564 66.126 14.8718 66.3431 15.5435L67.9916 20.6025L68.6988 18.8804C69.1524 17.7738 69.3329 17.0483 69.3329 16.3423C69.3329 15.9246 69.2793 15.5264 69.1524 15.0721C69.4792 14.7643 69.9133 14.5835 70.5279 14.5835C71.596 14.5835 72.2301 15.1087 72.2301 16.1249C72.2301 16.9579 71.8131 18.0107 70.9815 19.8428C70.3474 21.2743 69.0817 23.6878 68.5184 24.6673C67.1429 27.0246 66.0016 27.733 64.4994 27.733C63.141 27.733 62.4167 27.1712 62.4167 26.0817C62.4167 25.537 62.6704 25.1021 63.0679 24.8115C63.3215 25.2658 63.9361 25.7006 64.6969 25.7006C65.2408 25.7006 65.4944 25.3391 66.543 23.6145C65.9821 23.5779 65.6553 23.2334 65.3846 22.4713L63.5166 17.1045Z" fill="white"/>
<path d="M24.1779 28.4804C24.1779 28.0456 23.9608 27.772 23 27.8648C23 26.8486 23.8511 25.9961 25.5338 25.9961C27.3092 25.9961 28.3042 26.6679 28.8821 27.9357L31.1087 32.9043L33.7693 27.3005C34.1302 26.5384 34.7106 26.0132 35.652 26.0132C37.0274 26.0132 37.7151 26.2477 38.2419 26.6483C37.9346 27.0831 37.8785 28.1726 37.8785 29.587V37.6751C37.5176 37.8754 36.7372 37.9291 36.1763 37.9291C35.1984 37.9291 34.8179 37.6751 34.7277 37.167C34.6545 36.6784 34.6375 35.0808 34.6375 32.616C34.6375 30.9647 34.657 29.9143 34.657 29.9143L31.8696 36.1166C31.6354 36.2802 31.1087 36.4244 30.6575 36.4244C29.8966 36.4244 29.4089 36.2436 29.1358 35.6256L26.6922 30.0755V32.7944C26.6922 35.8772 26.9092 36.7834 27.4336 37.2915C27.0726 37.6531 26.4386 37.9267 25.6777 37.9267C24.5193 37.9267 24.1755 37.2183 24.1755 35.7868V28.4804H24.1779Z" fill="white"/>
<path d="M38.4248 30.7109C38.4248 29.6947 39.2393 28.8421 40.9415 28.8421C42.2633 28.8421 42.7706 29.3673 42.7706 30.1661V37.729C42.4072 37.9293 41.8463 37.9635 41.2147 37.9635C40.2733 37.9635 39.6588 37.7632 39.6222 37.0743C39.5856 36.4221 39.5686 35.4425 39.5686 33.8108C39.5686 32.0324 39.5856 31.4706 39.5856 31.3264C39.5832 30.8916 39.3661 30.6205 38.4248 30.7109ZM41.0147 28.0091C39.8563 28.0091 39.3661 27.6281 39.3661 26.8659C39.3661 26.1233 39.8539 25.6689 41.122 25.6689C42.2804 25.6689 42.7706 26.1233 42.7706 26.8293C42.7706 27.501 42.4633 28.0091 41.0147 28.0091Z" fill="white"/>
<path d="M44.4166 30.0951C44.3995 28.0823 44.3068 27.2835 44.019 26.5409C44.4726 26.1232 45.1945 25.9058 45.8481 25.9058C47.0967 25.9058 47.6576 26.4505 47.6576 27.4838V35.5181C47.6576 35.9529 47.8746 36.207 48.816 36.1166C48.816 37.1328 48.0014 37.9853 46.2992 37.9853C45.1579 37.9853 44.4702 37.531 44.4702 36.3536L44.4166 30.0951Z" fill="white"/>
<path d="M49.3404 30.0951C49.3233 28.0823 49.2306 27.2835 48.9429 26.5409C49.3965 26.1232 50.1208 25.9058 50.7719 25.9058C52.0205 25.9058 52.5814 26.4505 52.5814 27.4838V35.5181C52.5814 35.9529 52.7985 36.207 53.7398 36.1166C53.7398 37.1328 52.9253 37.9853 51.2231 37.9853C50.0817 37.9853 49.394 37.531 49.394 36.3536L49.3404 30.0951Z" fill="white"/>
<path d="M53.3057 30.7107C53.3057 29.6945 54.1202 28.842 55.8224 28.842C57.1442 28.842 57.6514 29.3672 57.6514 30.166V37.7288C57.2881 37.9291 56.7272 37.9633 56.0955 37.9633C55.1542 37.9633 54.5397 37.763 54.5031 37.0742C54.4665 36.4219 54.4494 35.4424 54.4494 33.8106C54.4494 32.0323 54.4665 31.4704 54.4665 31.3263C54.464 30.8915 54.247 30.6203 53.3057 30.7107ZM55.8956 28.009C54.7372 28.009 54.247 27.6279 54.247 26.8658C54.247 26.1232 54.7347 25.6688 56.0029 25.6688C57.1613 25.6688 57.6514 26.1232 57.6514 26.8291C57.6514 27.5009 57.3442 28.009 55.8956 28.009ZM55.5127 13.5917C54.3543 13.5917 53.8641 13.2106 53.8641 12.4484C53.8641 11.7058 54.3519 11.2515 55.62 11.2515C56.7784 11.2515 57.2686 11.7058 57.2686 12.4118C57.2686 13.086 56.9613 13.5917 55.5127 13.5917Z" fill="white"/>
<path d="M63.68 37.9998C60.7829 37.9998 58.9368 36.7491 58.9368 33.7567C58.9368 30.6006 60.8024 28.7686 63.9507 28.7686C66.865 28.7686 68.6404 30.0754 68.6404 33.085C68.6404 36.4218 66.6114 37.9998 63.68 37.9998ZM63.7337 30.8913C62.5217 30.8913 62.1412 31.7439 62.1412 33.5564C62.1412 35.3519 62.5582 36.0041 63.8605 36.0041C64.9823 36.0041 65.5091 35.2957 65.5091 33.339C65.5091 31.7976 65.1286 30.8913 63.7337 30.8913Z" fill="white"/>
<path d="M73.0934 30.6006C73.4373 29.4037 74.3786 28.8052 75.8101 28.8052C77.783 28.8052 79.1414 29.5307 79.1414 31.6339C79.1414 32.4498 79.1048 34.3552 79.1048 35.5155C79.1048 35.9503 79.3219 36.2044 80.2632 36.114C80.2632 37.1302 79.4487 37.9827 77.7465 37.9827C76.6051 37.9827 75.954 37.5284 75.954 36.3509C75.954 35.5522 75.9906 33.2511 75.9906 32.6159C75.9906 31.5631 75.5199 31.0379 74.2884 31.0379C73.5104 31.0379 73.1471 31.3823 73.1471 32.1616V37.7287C72.7837 37.929 72.1862 37.9632 71.5912 37.9632C70.4864 37.9632 70.0158 37.6725 69.9987 37.074C69.945 36.4218 69.9451 35.6425 69.9451 34.6801C69.9451 32.9042 69.9987 31.3261 69.9987 31.3261C69.9987 30.8913 69.7817 30.6177 68.8232 30.7106C68.8232 29.6944 69.6378 28.8418 71.34 28.8418C72.5325 28.8418 73.0934 29.3499 73.0934 30.6006Z" fill="white"/>
</svg>
