<?xml version="1.0" encoding="utf-8"?>
<!-- Generator: Adobe Illustrator 27.3.1, SVG Export Plug-In . SVG Version: 6.00 Build 0)  -->
<svg version="1.1" id="Layer_1" xmlns="http://www.w3.org/2000/svg" xmlns:xlink="http://www.w3.org/1999/xlink" x="0px" y="0px"
	 viewBox="0 0 104 44" style="enable-background:new 0 0 104 44;" xml:space="preserve">
<style type="text/css">
	.st0{fill:#FFFFFF;}
</style>
<g>
	<path class="st0" d="M59.8,13.8l-3.4,1l1-3.4c0.3-1,1.4-1.6,2.4-1.3C61.6,10.6,61.6,13.3,59.8,13.8L59.8,13.8z"/>
	<path class="st0" d="M49.6,19.1l3.4-1l-1,3.4c-0.3,1-1.4,1.6-2.4,1.3C47.8,22.3,47.8,19.7,49.6,19.1L49.6,19.1z"/>
	<path class="st0" d="M53,21.8l0.8-3.5l2.5,2.6c0.7,0.8,0.7,2-0.1,2.8C54.8,25,52.6,23.7,53,21.8L53,21.8z"/>
	<path class="st0" d="M54.3,13.3l-0.8,3.5L51,14.2c-0.7-0.8-0.7-2,0.1-2.8C52.4,10.1,54.7,11.4,54.3,13.3L54.3,13.3z"/>
	<path class="st0" d="M57,20.2l-2.6-2.5l3.5-0.8c1-0.3,2.1,0.4,2.4,1.4C60.7,20.3,58.4,21.6,57,20.2L57,20.2z"/>
	<path class="st0" d="M50.3,14.9l2.6,2.5l-3.5,0.8c-1,0.3-2.1-0.4-2.4-1.4C46.6,14.8,48.9,13.5,50.3,14.9L50.3,14.9z"/>
	<path class="st0" d="M0,24.9h5.2c3.6,0,6.1,2.1,6.1,5.5s-2.5,5.5-6.1,5.5H0V24.9L0,24.9z M5,33.3c1.9,0,3.1-1.1,3.1-3s-1.2-3-3.1-3
		h-2v6H5L5,33.3z"/>
	<path class="st0" d="M17.7,32.9H16v2.9h-3.1V24.9h5c3,0,4.9,1.5,4.9,4c0,1.6-0.8,2.8-2.1,3.5l2.4,3.4h-3.3L17.7,32.9L17.7,32.9z
		 M17.7,27.3H16v3.2h1.7c1.3,0,1.9-0.6,1.9-1.6C19.6,27.9,19,27.3,17.7,27.3z"/>
	<path class="st0" d="M33.2,33.4v2.4h-8.8V24.9H33v2.4h-5.5v1.8h4.9v2.3h-4.9v2L33.2,33.4L33.2,33.4z"/>
	<path class="st0" d="M42.3,33.7h-4.6l-0.9,2.1h-3.2l4.8-10.9h3l4.8,10.9h-3.2L42.3,33.7L42.3,33.7z M41.4,31.4L40,27.9l-1.4,3.5
		H41.4L41.4,31.4z"/>
	<path class="st0" d="M57.1,35.8l0-5.8l-2.8,4.7h-1.4l-2.8-4.6v5.6h-2.9V24.9h2.5l3.8,6.3l3.7-6.3h2.5l0,10.9L57.1,35.8L57.1,35.8z"
		/>
	<path class="st0" d="M61.3,34.8l1-2.3c1,0.6,2.3,1.1,3.6,1.1c1.3,0,1.8-0.4,1.8-0.9c0-1.7-6.2-0.5-6.2-4.5c0-2,1.6-3.5,4.8-3.5
		c1.4,0,2.9,0.3,4,1l-1,2.3c-1-0.6-2.1-0.8-3-0.8c-1.3,0-1.8,0.4-1.8,1c0,1.7,6.2,0.4,6.2,4.5c0,1.9-1.6,3.5-4.8,3.5
		C64.1,36,62.4,35.5,61.3,34.8L61.3,34.8z"/>
	<path class="st0" d="M8.8,20.6V23H0V12.1h8.6v2.4H3.1v1.8h4.9v2.3H3.1v2H8.8L8.8,20.6z"/>
	<path class="st0" d="M10.4,18.1v-6.1h3.1v6c0,1.9,0.8,2.6,2.1,2.6c1.3,0,2.1-0.8,2.1-2.6v-6h3v6.1c0,3.3-1.9,5.1-5.1,5.1
		S10.4,21.4,10.4,18.1L10.4,18.1z"/>
	<path class="st0" d="M27.5,20.1h-1.7V23h-3.1V12.1h5c3,0,4.9,1.5,4.9,4c0,1.6-0.8,2.8-2.1,3.5l2.4,3.4h-3.3L27.5,20.1L27.5,20.1z
		 M27.6,14.5h-1.7v3.2h1.7c1.3,0,1.9-0.6,1.9-1.6C29.5,15.1,28.8,14.5,27.6,14.5L27.6,14.5z"/>
	<path class="st0" d="M33.8,17.5c0-3.3,2.6-5.7,6.1-5.7c3.5,0,6.1,2.4,6.1,5.7c0,3.3-2.6,5.7-6.1,5.7C36.3,23.2,33.8,20.8,33.8,17.5
		L33.8,17.5z M42.8,17.5c0-1.9-1.3-3.1-3-3.1c-1.7,0-3,1.2-3,3.1s1.3,3.1,3,3.1C41.5,20.7,42.8,19.4,42.8,17.5z"/>
</g>
</svg>
