<svg width="104" height="43" viewBox="0 0 104 43" fill="none" xmlns="http://www.w3.org/2000/svg">
<path d="M38.8963 2.61621C38.8963 2.61621 39.7439 3.16425 40.1214 3.51013C40.1214 3.51013 41.5318 3.3104 41.902 3.30309C41.902 3.30309 41.8094 3.88036 41.0616 4.78402C41.0616 4.78402 41.4173 5.68525 41.2151 6.49635C41.2151 6.49635 40.4673 5.90203 39.6879 5.63166C39.6879 5.63166 38.5626 6.02381 37.7831 6.07009C37.7831 6.07009 38.1461 5.40026 38.2678 5.03734C38.2678 5.03734 37.3423 4.62083 37.0183 4.51365L38.6844 3.91203C38.6868 3.91203 39.0254 3.29578 38.8963 2.61621Z" fill="#F2B11F"/>
<path d="M36.563 0.39209C36.563 0.39209 36.9844 0.664893 37.1744 0.837831C37.1744 0.837831 37.8759 0.737965 38.061 0.735529C38.061 0.735529 38.0147 1.02295 37.6421 1.47356C37.6421 1.47356 37.8174 1.92174 37.72 2.32607C37.72 2.32607 37.3473 2.03134 36.9601 1.89738C36.9601 1.89738 36.3998 2.09224 36.0125 2.11659C36.0125 2.11659 36.1928 1.7829 36.2537 1.60265C36.2537 1.60265 35.7933 1.39562 35.6326 1.34203L36.4607 1.04243C36.4607 1.03756 36.6288 0.730658 36.563 0.39209Z" fill="#F2B11F"/>
<path d="M41.147 0C41.147 0 41.6731 0.341004 41.9094 0.555349C41.9094 0.555349 42.7862 0.431126 43.0152 0.426255C43.0152 0.426255 42.9567 0.786744 42.4939 1.34696C42.4939 1.34696 42.7131 1.90719 42.5889 2.40895C42.5889 2.40895 42.1237 2.04115 41.6414 1.87309C41.6414 1.87309 40.9424 2.11666 40.4601 2.14589C40.4601 2.14589 40.6842 1.72938 40.7621 1.50529C40.7621 1.50529 40.1873 1.2471 39.9875 1.1789L41.0227 0.80623C41.0179 0.803795 41.2298 0.421383 41.147 0Z" fill="#F2B11F"/>
<path d="M45.0319 2.13623C45.0319 2.13623 45.3754 2.35788 45.5288 2.49672C45.5288 2.49672 46.0988 2.41634 46.2498 2.41147C46.2498 2.41147 46.2133 2.6453 45.9088 3.01066C45.9088 3.01066 46.0525 3.37602 45.9721 3.70241C45.9721 3.70241 45.6701 3.46127 45.3534 3.3541C45.3534 3.3541 44.898 3.51242 44.5837 3.53191C44.5837 3.53191 44.7299 3.26154 44.781 3.11296C44.781 3.11296 44.4059 2.9449 44.2769 2.90105L44.9491 2.65748C44.9467 2.65991 45.0831 2.40903 45.0319 2.13623Z" fill="#F2B11F"/>
<path d="M36.7092 7.17822C36.7092 7.17822 37.055 7.40231 37.2109 7.54358C37.2109 7.54358 37.7858 7.4632 37.9368 7.45833C37.9368 7.45833 37.9002 7.6946 37.5933 8.0624C37.5933 8.0624 37.737 8.43019 37.6567 8.76146C37.6567 8.76146 37.3522 8.51788 37.0331 8.40827C37.0331 8.40827 36.5727 8.56903 36.2561 8.58608C36.2561 8.58608 36.4047 8.31328 36.4534 8.1647C36.4534 8.1647 36.0759 7.9942 35.9443 7.95035L36.6239 7.70434C36.6239 7.70678 36.7627 7.4559 36.7092 7.17822Z" fill="#F2B11F"/>
<path d="M40.2701 7.26807C40.2701 7.26807 41.6852 8.18147 42.3161 8.75874C42.3161 8.75874 44.669 8.42748 45.2853 8.41043C45.2853 8.41043 45.1318 9.37742 43.8847 10.8803C43.8847 10.8803 44.4766 12.3856 44.1405 13.735C44.1405 13.735 42.8934 12.7436 41.5927 12.2954C41.5927 12.2954 39.7147 12.9507 38.4189 13.0262C38.4189 13.0262 39.023 11.9082 39.2276 11.3017C39.2276 11.3017 37.6858 10.6099 37.145 10.4272L39.9218 9.42613C39.9218 9.42613 40.4869 8.39825 40.2701 7.26807Z" fill="#F2B11F"/>
<path d="M43.8895 5.56787C43.8895 5.56787 44.7322 6.11104 45.1073 6.45692C45.1073 6.45692 46.5079 6.25962 46.8757 6.24988C46.8757 6.24988 46.7856 6.82471 46.0402 7.72107C46.0402 7.72107 46.391 8.61742 46.1937 9.42121C46.1937 9.42121 45.4508 8.83176 44.6762 8.56383C44.6762 8.56383 43.5582 8.95355 42.7861 8.99983C42.7861 8.99983 43.1466 8.33487 43.2684 7.97195C43.2684 7.97195 42.3501 7.56031 42.0286 7.4507L43.6824 6.85394C43.6824 6.85394 44.021 6.24014 43.8895 5.56787Z" fill="#F2B11F"/>
<path d="M19.7636 11.9962C21.722 11.9962 22.7011 11.7794 23.1177 11.4165C23.4806 11.7064 23.6243 12.0498 23.6243 12.5223C23.6243 13.2847 23.0446 14.1713 21.0132 14.1713H17.9125V16.819H20.3044C21.4833 16.819 22.2627 16.7094 22.6061 16.5462C22.7328 16.7094 22.8059 16.9456 22.8059 17.199C22.8059 18.1051 22.063 18.9576 20.5041 18.9576H17.9125V21.6052H19.5615C21.4833 21.6052 22.8984 21.2788 23.2955 20.8623C23.4952 21.0791 23.5683 21.3324 23.5683 21.6783C23.5683 22.8206 22.4454 23.7633 19.2887 23.7633C15.6448 23.7633 14.8118 23.6366 14.6827 22.8937C14.6096 22.4236 14.5926 20.9549 14.5926 18.4875L14.6096 14.354C14.6096 13.918 14.3928 13.6476 13.4502 13.7378C13.4502 12.7221 14.2662 11.9962 15.9712 11.9962H19.7636Z" fill="#F2B11F"/>
<path d="M34.836 21.9875C34.836 23.0032 34.02 23.8557 32.315 23.8557C31.119 23.8557 30.5564 23.3296 30.5564 22.08C30.2129 23.276 29.2873 23.8752 27.8356 23.8752C25.8773 23.8752 24.6083 23.1493 24.6083 21.0278C24.6083 20.2289 24.6813 18.3436 24.6813 17.2012C24.6813 16.7653 24.4646 16.4949 23.5024 16.585C23.5024 15.5693 24.3184 14.7168 26.0234 14.7168C27.1658 14.7168 27.7991 15.0237 27.7991 16.1855C27.7991 17.0015 27.7626 19.43 27.7626 20.0657C27.7626 21.1179 28.1255 21.644 29.358 21.644C30.1374 21.644 30.5003 21.3006 30.5003 20.5212V18.0148C30.5003 16.982 30.4467 15.7495 30.3201 15.0773C30.683 14.8605 31.2627 14.7144 31.8424 14.7144C33.2576 14.7144 33.7106 15.277 33.7106 17.1988C33.7106 18.9745 33.657 21.3859 33.657 21.3859C33.657 21.8243 33.8738 22.0776 34.836 21.9875Z" fill="#F2B11F"/>
<path d="M38.7015 16.4754C38.9378 15.2965 39.4274 14.7168 40.6063 14.7168C41.7487 14.7168 42.2918 15.3501 42.2918 16.2952C42.2918 16.7482 42.1652 17.2743 41.9118 17.837C41.1689 17.6372 40.6063 17.5471 40.1703 17.5471C39.1546 17.5471 38.9013 18.0903 38.9013 19.106V23.6194C38.5383 23.8192 37.7954 23.8362 37.3424 23.8362C36.3096 23.8362 35.7835 23.5999 35.747 22.9472C35.7104 22.2773 35.6934 21.5149 35.6934 20.5528C35.6934 18.7772 35.7104 17.1988 35.7104 17.1988C35.7104 16.7628 35.4937 16.4924 34.551 16.5826C34.551 15.5669 35.367 14.7144 37.072 14.7144C38.1949 14.7168 38.7576 15.2429 38.7015 16.4754Z" fill="#F2B11F"/>
<path d="M47.2509 23.8731C44.3499 23.8731 42.5012 22.6211 42.5012 19.63C42.5012 16.4757 44.3694 14.644 47.5237 14.644C50.4417 14.644 52.2198 15.9496 52.2198 18.9577C52.2198 22.2947 50.1884 23.8731 47.2509 23.8731ZM47.3069 16.7656C46.0915 16.7656 45.7115 17.6181 45.7115 19.4303C45.7115 21.2254 46.128 21.8782 47.4336 21.8782C48.5565 21.8782 49.0826 21.1718 49.0826 19.2135C49.0826 17.6717 48.7026 16.7656 47.3069 16.7656Z" fill="#F2B11F"/>
<path d="M1.1789 28.4815C1.1789 28.0455 0.962118 27.7752 0 27.8653C0 26.8496 0.852513 25.9971 2.53805 25.9971C4.3137 25.9971 5.31235 26.6669 5.89206 27.9359L8.1232 32.9024L10.7879 27.3002C11.1508 26.5378 11.7305 26.0117 12.6732 26.0117C14.0518 26.0117 14.7411 26.248 15.2648 26.6474C14.9555 27.0834 14.9019 28.1698 14.9019 29.5849V37.6716C14.5389 37.8713 13.7595 37.9249 13.1968 37.9249C12.2177 37.9249 11.8377 37.6716 11.7476 37.1625C11.6745 36.6729 11.6575 35.0775 11.6575 32.6125C11.6575 30.9635 11.6745 29.9113 11.6745 29.9113L8.88315 36.1127C8.64688 36.2759 8.12076 36.422 7.66772 36.422C6.90533 36.422 6.41575 36.2418 6.14538 35.6231L3.69745 30.0745V32.7952C3.69745 35.8764 3.91424 36.785 4.44036 37.2916C4.07743 37.6545 3.44414 37.9273 2.68175 37.9273C1.52234 37.9273 1.17646 37.221 1.17646 35.7887V28.4815H1.1789Z" fill="#F2B11F"/>
<path d="M15.5789 30.71C15.5789 29.6943 16.3948 28.8417 18.0999 28.8417C19.4225 28.8417 19.9315 29.3679 19.9315 30.1644V37.7249C19.5686 37.9246 19.0059 37.9612 18.3727 37.9612C17.43 37.9612 16.8138 37.7614 16.7772 37.0721C16.7407 36.4193 16.7237 35.4402 16.7237 33.8082C16.7237 32.0326 16.7407 31.4699 16.7407 31.3238C16.7383 30.8926 16.5215 30.6198 15.5789 30.71ZM18.1705 28.0087C17.0111 28.0087 16.5215 27.6287 16.5215 26.8664C16.5215 26.1235 17.0111 25.6704 18.2801 25.6704C19.4395 25.6704 19.9291 26.1235 19.9291 26.8298C19.9291 27.5021 19.6222 28.0087 18.1705 28.0087Z" fill="#F2B11F"/>
<path d="M21.4979 30.0938C21.4808 28.0819 21.3882 27.2829 21.0984 26.54C21.5514 26.1235 22.2773 25.9043 22.9301 25.9043C24.182 25.9043 24.7423 26.4475 24.7423 27.4827V35.5133C24.7423 35.9493 24.959 36.2026 25.9017 36.1125C25.9017 37.1282 25.0857 37.9807 23.3807 37.9807C22.2383 37.9807 21.549 37.5277 21.549 36.3488L21.4979 30.0938Z" fill="#F2B11F"/>
<path d="M26.4546 30.0938C26.4376 28.0819 26.345 27.2829 26.0552 26.54C26.5082 26.1235 27.2341 25.9043 27.8869 25.9043C29.1388 25.9043 29.699 26.4475 29.699 27.4827V35.5133C29.699 35.9493 29.9158 36.2026 30.8585 36.1125C30.8585 37.1282 30.0425 37.9807 28.3375 37.9807C27.1951 37.9807 26.5058 37.5277 26.5058 36.3488L26.4546 30.0938Z" fill="#F2B11F"/>
<path d="M30.5149 30.71C30.5149 29.6943 31.3309 28.8417 33.0359 28.8417C34.3585 28.8417 34.8676 29.3679 34.8676 30.1644V37.7249C34.5046 37.9246 33.942 37.9612 33.3087 37.9612C32.366 37.9612 31.7498 37.7614 31.7133 37.0721C31.6767 36.4193 31.6597 35.4402 31.6597 33.8082C31.6597 32.0326 31.6767 31.4699 31.6767 31.3238C31.6743 30.8926 31.4575 30.6198 30.5149 30.71ZM33.1065 28.0087C31.9471 28.0087 31.4575 27.6287 31.4575 26.8664C31.4575 26.1235 31.9471 25.6704 33.2161 25.6704C34.3755 25.6704 34.8651 26.1235 34.8651 26.8298C34.8651 27.5021 34.5582 28.0087 33.1065 28.0087Z" fill="#F2B11F"/>
<path d="M40.801 38C37.9 38 36.0513 36.748 36.0513 33.757C36.0513 30.6027 37.9195 28.771 41.0738 28.771C43.9918 28.771 45.7699 30.0766 45.7699 33.0847C45.7699 36.4217 43.7385 38 40.801 38ZM40.8545 30.8925C39.6391 30.8925 39.2591 31.745 39.2591 33.5572C39.2591 35.3524 39.6757 36.0051 40.9812 36.0051C42.1041 36.0051 42.6302 35.2988 42.6302 33.3404C42.6326 31.7986 42.2527 30.8925 40.8545 30.8925Z" fill="#F2B11F"/>
<path d="M50.2859 30.6028C50.6318 29.4068 51.5745 28.8076 53.0067 28.8076C54.9821 28.8076 56.3436 29.5335 56.3436 31.6355C56.3436 32.4515 56.3071 34.3562 56.3071 35.5156C56.3071 35.9516 56.5239 36.205 57.4665 36.1148C57.4665 37.1305 56.6505 37.9831 54.9455 37.9831C53.8032 37.9831 53.1504 37.53 53.1504 36.3511C53.1504 35.5522 53.1869 33.2504 53.1869 32.6171C53.1869 31.5649 52.7168 31.0388 51.4819 31.0388C50.7025 31.0388 50.3395 31.3822 50.3395 32.1641V37.7297C49.9766 37.9295 49.3774 37.966 48.7807 37.966C47.6748 37.966 47.2023 37.6762 47.1852 37.077C47.1317 36.4242 47.1317 35.6447 47.1317 34.6826C47.1317 32.907 47.1852 31.3286 47.1852 31.3286C47.1852 30.8926 46.9685 30.6222 46.0063 30.7124C46.0063 29.6967 46.8223 28.8442 48.5273 28.8442C49.7233 28.8442 50.2859 29.3508 50.2859 30.6028Z" fill="#F2B11F"/>
<path d="M62.7007 35.4791C62.7007 35.0991 62.5911 34.953 61.0322 34.6266C59.0008 34.2101 58.0777 33.5378 58.0777 32.0155C58.0777 30.2739 59.3832 28.8076 62.2282 28.8076C64.7126 28.8076 65.6188 29.9134 65.6188 30.9291C65.6188 31.4723 65.3118 32.0179 64.6591 32.2712C64.1329 31.5283 62.8639 31.0753 61.6314 31.0753C61.1613 31.0753 60.9787 31.3286 60.9787 31.5649C60.9787 31.9449 61.1419 32.0179 62.3573 32.2907C65.0415 32.9265 65.7283 33.4501 65.7283 35.0115C65.7283 36.7335 64.7321 37.9855 61.7386 37.9855C59.544 37.9855 57.7854 37.4594 57.7854 36.0272C57.7854 35.4645 58.0582 34.9749 58.6014 34.5949C59.0544 35.2307 60.5061 35.9541 62.1356 35.9541C62.557 35.9516 62.7007 35.6959 62.7007 35.4791Z" fill="#F2B11F"/>
</svg>
