<?xml version="1.0" encoding="utf-8"?>
<!-- Generator: Adobe Illustrator 27.3.1, SVG Export Plug-In . SVG Version: 6.00 Build 0)  -->
<svg version="1.1" id="Layer_1" xmlns="http://www.w3.org/2000/svg" xmlns:xlink="http://www.w3.org/1999/xlink" x="0px" y="0px"
	 viewBox="0 0 104 43" style="enable-background:new 0 0 104 43;" xml:space="preserve">
<style type="text/css">
	.st0{fill:#FFFFFF;}
</style>
<g>
	<path class="st0" d="M76.4,13.8l-3.4,1l1-3.4c0.3-1,1.4-1.6,2.4-1.3C78.3,10.6,78.2,13.3,76.4,13.8L76.4,13.8z"/>
	<path class="st0" d="M66.2,19.1l3.4-1l-1,3.4c-0.3,1-1.4,1.6-2.4,1.3C64.4,22.3,64.4,19.7,66.2,19.1L66.2,19.1z"/>
	<path class="st0" d="M69.6,21.8l0.8-3.5l2.5,2.6c0.7,0.8,0.7,2-0.1,2.8C71.5,25,69.2,23.7,69.6,21.8L69.6,21.8z"/>
	<path class="st0" d="M70.9,13.3L70,16.8l-2.5-2.6c-0.7-0.8-0.7-2,0.1-2.8C69,10.1,71.3,11.4,70.9,13.3L70.9,13.3z"/>
	<path class="st0" d="M73.6,20.2L71,17.8l3.5-0.8c1-0.3,2.1,0.4,2.4,1.4C77.3,20.3,75,21.6,73.6,20.2L73.6,20.2z"/>
	<path class="st0" d="M66.9,14.9l2.6,2.5L66,18.2c-1,0.3-2.1-0.4-2.4-1.4C63.2,14.8,65.5,13.5,66.9,14.9L66.9,14.9z"/>
	<path class="st0" d="M16.6,24.9h5.2c3.6,0,6.1,2.1,6.1,5.5s-2.5,5.5-6.1,5.5h-5.2V24.9L16.6,24.9z M21.7,33.3c1.9,0,3.1-1.1,3.1-3
		c0-1.9-1.2-3-3.1-3h-2v6H21.7L21.7,33.3z"/>
	<path class="st0" d="M34.3,32.9h-1.7v2.9h-3.1V24.9h5c3,0,4.9,1.5,4.9,4c0,1.6-0.8,2.8-2.1,3.5l2.4,3.4h-3.3L34.3,32.9L34.3,32.9z
		 M34.3,27.3h-1.7v3.2h1.7c1.3,0,1.9-0.6,1.9-1.6S35.6,27.3,34.3,27.3z"/>
	<path class="st0" d="M49.8,33.4v2.4h-8.8V24.9h8.6v2.4h-5.5v1.8H49v2.3h-4.9v2L49.8,33.4L49.8,33.4z"/>
	<path class="st0" d="M58.9,33.7h-4.6l-0.9,2.1h-3.2l4.8-10.9h3l4.8,10.9h-3.2L58.9,33.7L58.9,33.7z M58,31.4l-1.4-3.5l-1.4,3.5H58
		L58,31.4z"/>
	<path class="st0" d="M73.7,35.8l0-5.8l-2.8,4.7h-1.4l-2.8-4.6v5.6h-2.9V24.9h2.5l3.8,6.3l3.7-6.3h2.5l0,10.9L73.7,35.8L73.7,35.8z"
		/>
	<path class="st0" d="M77.9,34.8l1-2.3c1,0.6,2.3,1.1,3.6,1.1c1.3,0,1.8-0.4,1.8-0.9c0-1.7-6.2-0.5-6.2-4.5c0-2,1.6-3.5,4.8-3.5
		c1.4,0,2.9,0.3,4,1l-1,2.3c-1-0.6-2.1-0.8-3-0.8c-1.3,0-1.8,0.4-1.8,1c0,1.7,6.2,0.4,6.2,4.5c0,1.9-1.6,3.5-4.8,3.5
		C80.8,36,79,35.5,77.9,34.8L77.9,34.8z"/>
	<path class="st0" d="M25.4,20.6V23h-8.8V12.1h8.6v2.4h-5.5v1.8h4.9v2.3h-4.9v2H25.4L25.4,20.6z"/>
	<path class="st0" d="M27,18.1v-6.1h3.1v6c0,1.9,0.8,2.6,2.1,2.6c1.3,0,2.1-0.8,2.1-2.6v-6h3v6.1c0,3.3-1.9,5.1-5.1,5.1
		C28.9,23.2,27,21.4,27,18.1L27,18.1z"/>
	<path class="st0" d="M44.1,20.1h-1.7V23h-3.1V12.1h5c3,0,4.9,1.5,4.9,4c0,1.6-0.8,2.8-2.1,3.5l2.4,3.4h-3.3L44.1,20.1L44.1,20.1z
		 M44.2,14.5h-1.7v3.2h1.7c1.3,0,1.9-0.6,1.9-1.6C46.1,15.1,45.5,14.5,44.2,14.5L44.2,14.5z"/>
	<path class="st0" d="M50.4,17.5c0-3.3,2.6-5.7,6.1-5.7c3.5,0,6.1,2.4,6.1,5.7c0,3.3-2.6,5.7-6.1,5.7C52.9,23.2,50.4,20.8,50.4,17.5
		L50.4,17.5z M59.4,17.5c0-1.9-1.3-3.1-3-3.1c-1.7,0-3,1.2-3,3.1c0,1.9,1.3,3.1,3,3.1C58.1,20.7,59.4,19.4,59.4,17.5z"/>
</g>
</svg>
