<svg width="104" height="43" viewBox="0 0 104 43" fill="none" xmlns="http://www.w3.org/2000/svg">
<path d="M57.8963 2.61621C57.8963 2.61621 58.7439 3.16425 59.1214 3.51013C59.1214 3.51013 60.5318 3.3104 60.902 3.30309C60.902 3.30309 60.8094 3.88036 60.0616 4.78402C60.0616 4.78402 60.4173 5.68525 60.2151 6.49635C60.2151 6.49635 59.4673 5.90203 58.6879 5.63166C58.6879 5.63166 57.5626 6.02381 56.7831 6.07009C56.7831 6.07009 57.1461 5.40026 57.2678 5.03734C57.2678 5.03734 56.3423 4.62083 56.0183 4.51365L57.6844 3.91203C57.6868 3.91203 58.0254 3.29578 57.8963 2.61621Z" fill="white"/>
<path d="M55.563 0.39209C55.563 0.39209 55.9844 0.664893 56.1744 0.837831C56.1744 0.837831 56.8759 0.737965 57.061 0.735529C57.061 0.735529 57.0147 1.02295 56.6421 1.47356C56.6421 1.47356 56.8174 1.92174 56.72 2.32607C56.72 2.32607 56.3473 2.03134 55.9601 1.89738C55.9601 1.89738 55.3998 2.09224 55.0125 2.11659C55.0125 2.11659 55.1928 1.7829 55.2537 1.60265C55.2537 1.60265 54.7933 1.39562 54.6326 1.34203L55.4607 1.04243C55.4607 1.03756 55.6288 0.730658 55.563 0.39209Z" fill="white"/>
<path d="M60.147 0C60.147 0 60.6731 0.341004 60.9094 0.555349C60.9094 0.555349 61.7862 0.431126 62.0152 0.426255C62.0152 0.426255 61.9567 0.786744 61.4939 1.34696C61.4939 1.34696 61.7131 1.90719 61.5889 2.40895C61.5889 2.40895 61.1237 2.04115 60.6414 1.87309C60.6414 1.87309 59.9424 2.11666 59.4601 2.14589C59.4601 2.14589 59.6842 1.72938 59.7621 1.50529C59.7621 1.50529 59.1873 1.2471 58.9875 1.1789L60.0227 0.80623C60.0179 0.803795 60.2298 0.421383 60.147 0Z" fill="white"/>
<path d="M64.0319 2.13623C64.0319 2.13623 64.3754 2.35788 64.5288 2.49672C64.5288 2.49672 65.0988 2.41634 65.2498 2.41147C65.2498 2.41147 65.2133 2.6453 64.9088 3.01066C64.9088 3.01066 65.0525 3.37602 64.9721 3.70241C64.9721 3.70241 64.6701 3.46127 64.3534 3.3541C64.3534 3.3541 63.898 3.51242 63.5837 3.53191C63.5837 3.53191 63.7299 3.26154 63.781 3.11296C63.781 3.11296 63.4059 2.9449 63.2769 2.90105L63.9491 2.65748C63.9467 2.65991 64.0831 2.40903 64.0319 2.13623Z" fill="white"/>
<path d="M55.7092 7.17822C55.7092 7.17822 56.055 7.40231 56.2109 7.54358C56.2109 7.54358 56.7858 7.4632 56.9368 7.45833C56.9368 7.45833 56.9002 7.6946 56.5933 8.0624C56.5933 8.0624 56.737 8.43019 56.6567 8.76146C56.6567 8.76146 56.3522 8.51788 56.0331 8.40827C56.0331 8.40827 55.5727 8.56903 55.2561 8.58608C55.2561 8.58608 55.4047 8.31328 55.4534 8.1647C55.4534 8.1647 55.0759 7.9942 54.9443 7.95035L55.6239 7.70434C55.6239 7.70678 55.7627 7.4559 55.7092 7.17822Z" fill="white"/>
<path d="M59.2701 7.26807C59.2701 7.26807 60.6852 8.18147 61.3161 8.75874C61.3161 8.75874 63.669 8.42748 64.2853 8.41043C64.2853 8.41043 64.1318 9.37742 62.8847 10.8803C62.8847 10.8803 63.4766 12.3856 63.1405 13.735C63.1405 13.735 61.8934 12.7436 60.5927 12.2954C60.5927 12.2954 58.7147 12.9507 57.4189 13.0262C57.4189 13.0262 58.023 11.9082 58.2276 11.3017C58.2276 11.3017 56.6858 10.6099 56.145 10.4272L58.9218 9.42613C58.9218 9.42613 59.4869 8.39825 59.2701 7.26807Z" fill="white"/>
<path d="M62.8895 5.56787C62.8895 5.56787 63.7322 6.11104 64.1073 6.45692C64.1073 6.45692 65.5079 6.25962 65.8757 6.24988C65.8757 6.24988 65.7856 6.82471 65.0402 7.72107C65.0402 7.72107 65.391 8.61742 65.1937 9.42121C65.1937 9.42121 64.4508 8.83176 63.6762 8.56383C63.6762 8.56383 62.5582 8.95355 61.7861 8.99983C61.7861 8.99983 62.1466 8.33487 62.2684 7.97195C62.2684 7.97195 61.3501 7.56031 61.0286 7.4507L62.6824 6.85394C62.6824 6.85394 63.021 6.24014 62.8895 5.56787Z" fill="white"/>
<path d="M38.7636 11.9962C40.722 11.9962 41.7011 11.7794 42.1177 11.4165C42.4806 11.7064 42.6243 12.0498 42.6243 12.5223C42.6243 13.2847 42.0446 14.1713 40.0132 14.1713H36.9125V16.819H39.3044C40.4833 16.819 41.2627 16.7094 41.6061 16.5462C41.7328 16.7094 41.8059 16.9456 41.8059 17.199C41.8059 18.1051 41.063 18.9576 39.5041 18.9576H36.9125V21.6052H38.5615C40.4833 21.6052 41.8984 21.2788 42.2955 20.8623C42.4952 21.0791 42.5683 21.3324 42.5683 21.6783C42.5683 22.8206 41.4454 23.7633 38.2887 23.7633C34.6448 23.7633 33.8118 23.6366 33.6827 22.8937C33.6096 22.4236 33.5926 20.9549 33.5926 18.4875L33.6096 14.354C33.6096 13.918 33.3928 13.6476 32.4502 13.7378C32.4502 12.7221 33.2662 11.9962 34.9712 11.9962H38.7636Z" fill="white"/>
<path d="M53.836 21.9875C53.836 23.0032 53.02 23.8557 51.315 23.8557C50.119 23.8557 49.5564 23.3296 49.5564 22.08C49.2129 23.276 48.2873 23.8752 46.8356 23.8752C44.8773 23.8752 43.6083 23.1493 43.6083 21.0278C43.6083 20.2289 43.6813 18.3436 43.6813 17.2012C43.6813 16.7653 43.4646 16.4949 42.5024 16.585C42.5024 15.5693 43.3184 14.7168 45.0234 14.7168C46.1658 14.7168 46.7991 15.0237 46.7991 16.1855C46.7991 17.0015 46.7626 19.43 46.7626 20.0657C46.7626 21.1179 47.1255 21.644 48.358 21.644C49.1374 21.644 49.5003 21.3006 49.5003 20.5212V18.0148C49.5003 16.982 49.4467 15.7495 49.3201 15.0773C49.683 14.8605 50.2627 14.7144 50.8424 14.7144C52.2576 14.7144 52.7106 15.277 52.7106 17.1988C52.7106 18.9745 52.657 21.3859 52.657 21.3859C52.657 21.8243 52.8738 22.0776 53.836 21.9875Z" fill="white"/>
<path d="M57.7015 16.4754C57.9378 15.2965 58.4274 14.7168 59.6063 14.7168C60.7487 14.7168 61.2918 15.3501 61.2918 16.2952C61.2918 16.7482 61.1652 17.2743 60.9118 17.837C60.1689 17.6372 59.6063 17.5471 59.1703 17.5471C58.1546 17.5471 57.9013 18.0903 57.9013 19.106V23.6194C57.5383 23.8192 56.7954 23.8362 56.3424 23.8362C55.3096 23.8362 54.7835 23.5999 54.747 22.9472C54.7104 22.2773 54.6934 21.5149 54.6934 20.5528C54.6934 18.7772 54.7104 17.1988 54.7104 17.1988C54.7104 16.7628 54.4937 16.4924 53.551 16.5826C53.551 15.5669 54.367 14.7144 56.072 14.7144C57.1949 14.7168 57.7576 15.2429 57.7015 16.4754Z" fill="white"/>
<path d="M66.2509 23.8731C63.3499 23.8731 61.5012 22.6211 61.5012 19.63C61.5012 16.4757 63.3694 14.644 66.5237 14.644C69.4417 14.644 71.2198 15.9496 71.2198 18.9577C71.2198 22.2947 69.1884 23.8731 66.2509 23.8731ZM66.3069 16.7656C65.0915 16.7656 64.7115 17.6181 64.7115 19.4303C64.7115 21.2254 65.128 21.8782 66.4336 21.8782C67.5565 21.8782 68.0826 21.1718 68.0826 19.2135C68.0826 17.6717 67.7026 16.7656 66.3069 16.7656Z" fill="white"/>
<path d="M20.1789 28.4815C20.1789 28.0455 19.9621 27.7752 19 27.8653C19 26.8496 19.8525 25.9971 21.538 25.9971C23.3137 25.9971 24.3124 26.6669 24.8921 27.9359L27.1232 32.9024L29.7879 27.3002C30.1508 26.5378 30.7305 26.0117 31.6732 26.0117C33.0518 26.0117 33.7411 26.248 34.2648 26.6474C33.9555 27.0834 33.9019 28.1698 33.9019 29.5849V37.6716C33.5389 37.8713 32.7595 37.9249 32.1968 37.9249C31.2177 37.9249 30.8377 37.6716 30.7476 37.1625C30.6745 36.6729 30.6575 35.0775 30.6575 32.6125C30.6575 30.9635 30.6745 29.9113 30.6745 29.9113L27.8831 36.1127C27.6469 36.2759 27.1208 36.422 26.6677 36.422C25.9053 36.422 25.4157 36.2418 25.1454 35.6231L22.6975 30.0745V32.7952C22.6975 35.8764 22.9142 36.785 23.4404 37.2916C23.0774 37.6545 22.4441 37.9273 21.6818 37.9273C20.5223 37.9273 20.1765 37.221 20.1765 35.7887V28.4815H20.1789Z" fill="white"/>
<path d="M34.5789 30.71C34.5789 29.6943 35.3948 28.8417 37.0999 28.8417C38.4225 28.8417 38.9315 29.3679 38.9315 30.1644V37.7249C38.5686 37.9246 38.0059 37.9612 37.3727 37.9612C36.43 37.9612 35.8138 37.7614 35.7772 37.0721C35.7407 36.4193 35.7237 35.4402 35.7237 33.8082C35.7237 32.0326 35.7407 31.4699 35.7407 31.3238C35.7383 30.8926 35.5215 30.6198 34.5789 30.71ZM37.1705 28.0087C36.0111 28.0087 35.5215 27.6287 35.5215 26.8664C35.5215 26.1235 36.0111 25.6704 37.2801 25.6704C38.4395 25.6704 38.9291 26.1235 38.9291 26.8298C38.9291 27.5021 38.6222 28.0087 37.1705 28.0087Z" fill="white"/>
<path d="M40.4979 30.0938C40.4808 28.0819 40.3882 27.2829 40.0984 26.54C40.5514 26.1235 41.2773 25.9043 41.9301 25.9043C43.182 25.9043 43.7423 26.4475 43.7423 27.4827V35.5133C43.7423 35.9493 43.959 36.2026 44.9017 36.1125C44.9017 37.1282 44.0857 37.9807 42.3807 37.9807C41.2383 37.9807 40.549 37.5277 40.549 36.3488L40.4979 30.0938Z" fill="white"/>
<path d="M45.4546 30.0938C45.4376 28.0819 45.345 27.2829 45.0552 26.54C45.5082 26.1235 46.2341 25.9043 46.8869 25.9043C48.1388 25.9043 48.699 26.4475 48.699 27.4827V35.5133C48.699 35.9493 48.9158 36.2026 49.8585 36.1125C49.8585 37.1282 49.0425 37.9807 47.3375 37.9807C46.1951 37.9807 45.5058 37.5277 45.5058 36.3488L45.4546 30.0938Z" fill="white"/>
<path d="M49.5149 30.71C49.5149 29.6943 50.3309 28.8417 52.0359 28.8417C53.3585 28.8417 53.8676 29.3679 53.8676 30.1644V37.7249C53.5046 37.9246 52.942 37.9612 52.3087 37.9612C51.366 37.9612 50.7498 37.7614 50.7133 37.0721C50.6767 36.4193 50.6597 35.4402 50.6597 33.8082C50.6597 32.0326 50.6767 31.4699 50.6767 31.3238C50.6743 30.8926 50.4575 30.6198 49.5149 30.71ZM52.1065 28.0087C50.9471 28.0087 50.4575 27.6287 50.4575 26.8664C50.4575 26.1235 50.9471 25.6704 52.2161 25.6704C53.3755 25.6704 53.8651 26.1235 53.8651 26.8298C53.8651 27.5021 53.5582 28.0087 52.1065 28.0087Z" fill="white"/>
<path d="M59.801 38C56.9 38 55.0513 36.748 55.0513 33.757C55.0513 30.6027 56.9195 28.771 60.0738 28.771C62.9918 28.771 64.7699 30.0766 64.7699 33.0847C64.7699 36.4217 62.7385 38 59.801 38ZM59.8545 30.8925C58.6391 30.8925 58.2591 31.745 58.2591 33.5572C58.2591 35.3524 58.6757 36.0051 59.9812 36.0051C61.1041 36.0051 61.6302 35.2988 61.6302 33.3404C61.6326 31.7986 61.2527 30.8925 59.8545 30.8925Z" fill="white"/>
<path d="M69.2859 30.6028C69.6318 29.4068 70.5745 28.8076 72.0067 28.8076C73.9821 28.8076 75.3436 29.5335 75.3436 31.6355C75.3436 32.4515 75.3071 34.3562 75.3071 35.5156C75.3071 35.9516 75.5239 36.205 76.4665 36.1148C76.4665 37.1305 75.6505 37.9831 73.9455 37.9831C72.8032 37.9831 72.1504 37.53 72.1504 36.3511C72.1504 35.5522 72.1869 33.2504 72.1869 32.6171C72.1869 31.5649 71.7168 31.0388 70.4819 31.0388C69.7025 31.0388 69.3395 31.3822 69.3395 32.1641V37.7297C68.9766 37.9295 68.3774 37.966 67.7807 37.966C66.6748 37.966 66.2023 37.6762 66.1852 37.077C66.1317 36.4242 66.1317 35.6447 66.1317 34.6826C66.1317 32.907 66.1852 31.3286 66.1852 31.3286C66.1852 30.8926 65.9685 30.6222 65.0063 30.7124C65.0063 29.6967 65.8223 28.8442 67.5273 28.8442C68.7233 28.8442 69.2859 29.3508 69.2859 30.6028Z" fill="white"/>
<path d="M81.7007 35.4791C81.7007 35.0991 81.5911 34.953 80.0322 34.6266C78.0008 34.2101 77.0777 33.5378 77.0777 32.0155C77.0777 30.2739 78.3832 28.8076 81.2282 28.8076C83.7126 28.8076 84.6188 29.9134 84.6188 30.9291C84.6188 31.4723 84.3118 32.0179 83.6591 32.2712C83.1329 31.5283 81.8639 31.0753 80.6314 31.0753C80.1613 31.0753 79.9787 31.3286 79.9787 31.5649C79.9787 31.9449 80.1419 32.0179 81.3573 32.2907C84.0415 32.9265 84.7283 33.4501 84.7283 35.0115C84.7283 36.7335 83.7321 37.9855 80.7386 37.9855C78.544 37.9855 76.7854 37.4594 76.7854 36.0272C76.7854 35.4645 77.0582 34.9749 77.6014 34.5949C78.0544 35.2307 79.5061 35.9541 81.1356 35.9541C81.557 35.9516 81.7007 35.6959 81.7007 35.4791Z" fill="white"/>
</svg>
