<svg width="104" height="43" viewBox="0 0 104 43" fill="none" xmlns="http://www.w3.org/2000/svg">
<path d="M30.6653 14.5838L30.6433 24.2964H31.968C34.2849 24.2964 36.0079 23.9004 36.5163 23.3921C36.7582 23.656 36.8242 23.9664 36.8242 24.3843C36.8242 25.775 35.4556 26.9237 31.616 26.9237C27.3341 26.9237 26.8697 26.7257 26.6938 25.819C26.6278 25.2446 26.6058 23.502 26.6058 20.4983V15.4661C26.6058 14.9358 26.3418 14.6058 25.1711 14.7158C25.1711 13.4791 26.1634 12.4429 28.2384 12.4429C29.871 12.4429 30.6653 13.0612 30.6653 14.5838Z" fill="white"/>
<path d="M41.8785 27.056C38.3469 27.056 36.0959 25.5334 36.0959 21.8918C36.0959 18.0498 38.3689 15.8208 42.2109 15.8208C45.7645 15.8208 47.9274 17.4094 47.9274 21.0754C47.9274 25.135 45.4541 27.056 41.8785 27.056ZM41.9445 18.4017C40.4659 18.4017 40.0015 19.4404 40.0015 21.6474C40.0015 23.8323 40.5098 24.6266 42.0985 24.6266C43.4671 24.6266 44.1074 23.7663 44.1074 21.3809C44.1074 19.5064 43.6455 18.4017 41.9445 18.4017Z" fill="white"/>
<path d="M49.4208 23.9639C49.4208 21.8009 49.4648 18.5333 49.4648 18.5333H48.0742C47.9422 18.3353 47.8762 18.0469 47.8762 17.8049C47.8762 16.9446 48.3846 16.0379 49.5773 15.9499C49.6872 14.4053 50.4815 13.0146 52.3585 13.0146C52.6665 13.0146 53.0429 13.0587 53.3728 13.1466C53.2628 14.0729 53.2408 15.0676 53.2408 16.0159H53.6392C54.8319 16.0159 55.5822 15.9059 56.0661 15.6175C56.2861 15.9035 56.3741 16.2579 56.3741 16.6098C56.3741 17.9345 55.1154 18.5528 54.1011 18.5528H53.2408V23.4311C53.2408 24.0934 53.4828 24.2914 54.2331 24.2914C55.0934 24.2914 55.9317 23.9834 56.66 23.519C56.836 23.783 56.924 24.0494 56.924 24.4453C56.924 25.902 55.4233 27.0287 53.1064 27.0287C50.5451 27.0336 49.4208 26.2368 49.4208 23.9639Z" fill="white"/>
<path d="M58.0114 23.9639C58.0114 21.8009 58.0554 18.5333 58.0554 18.5333H56.6648C56.5328 18.3353 56.4668 18.0469 56.4668 17.8049C56.4668 16.9446 56.9752 16.0379 58.1678 15.9499C58.2778 14.4053 59.0721 13.0146 60.9491 13.0146C61.2571 13.0146 61.6335 13.0587 61.9634 13.1466C61.8534 14.0729 61.8314 15.0676 61.8314 16.0159H62.2298C63.4225 16.0159 64.1728 15.9059 64.6567 15.6175C64.8767 15.9035 64.9646 16.2579 64.9646 16.6098C64.9646 17.9345 63.706 18.5528 62.6917 18.5528H61.8314V23.4311C61.8314 24.0934 62.0734 24.2914 62.8237 24.2914C63.684 24.2914 64.5223 23.9834 65.2506 23.519C65.4266 23.783 65.5146 24.0494 65.5146 24.4453C65.5146 25.902 64.0139 27.0287 61.697 27.0287C59.1381 27.0336 58.0114 26.2368 58.0114 23.9639Z" fill="white"/>
<path d="M71.3558 27.056C67.8242 27.056 65.5732 25.5334 65.5732 21.8918C65.5732 18.0498 67.8462 15.8208 71.6882 15.8208C75.2418 15.8208 77.4047 17.4094 77.4047 21.0754C77.4047 25.135 74.9314 27.056 71.3558 27.056ZM71.4218 18.4017C69.9431 18.4017 69.4788 19.4404 69.4788 21.6474C69.4788 23.8323 69.9871 24.6266 71.5758 24.6266C72.9444 24.6266 73.5847 23.7663 73.5847 21.3809C73.5872 19.5064 73.1228 18.4017 71.4218 18.4017Z" fill="white"/>
<path d="M65.5902 3.62744C65.5902 3.62744 66.4407 4.17733 66.8195 4.52438C66.8195 4.52438 68.2346 4.32397 68.6061 4.31664C68.6061 4.31664 68.5132 4.89586 67.7629 5.80259C67.7629 5.80259 68.1197 6.70689 67.9169 7.52075C67.9169 7.52075 67.1665 6.92439 66.3845 6.65311C66.3845 6.65311 65.2553 7.04661 64.4732 7.09304C64.4732 7.09304 64.8374 6.42094 64.9596 6.05678C64.9596 6.05678 64.0309 5.63885 63.7058 5.53131L65.3775 4.92765C65.38 4.9252 65.7221 4.30688 65.5902 3.62744Z" fill="white"/>
<path d="M63.2488 1.396C63.2488 1.396 63.6716 1.66972 63.8622 1.84324C63.8622 1.84324 64.5661 1.74303 64.7519 1.74058C64.7519 1.74058 64.7054 2.02898 64.3315 2.48113C64.3315 2.48113 64.5075 2.93083 64.4097 3.33653C64.4097 3.33653 64.0358 3.0408 63.6472 2.90638C63.6472 2.90638 63.0851 3.10191 62.6965 3.12635C62.6965 3.12635 62.8773 2.79152 62.9384 2.61067C62.9384 2.61067 62.4765 2.40291 62.3152 2.34914L63.1462 2.04853C63.1462 2.0412 63.3148 1.73327 63.2488 1.396Z" fill="white"/>
<path d="M67.8509 1C67.8509 1 68.3788 1.34214 68.6158 1.55721C68.6158 1.55721 69.4957 1.43259 69.7254 1.4277C69.7254 1.4277 69.6668 1.7894 69.2024 2.35152C69.2024 2.35152 69.4224 2.91364 69.2977 3.41711C69.2977 3.41711 68.8309 3.04807 68.347 2.87944C68.347 2.87944 67.6456 3.12384 67.1616 3.15316C67.1616 3.15316 67.3865 2.73524 67.4647 2.51039C67.4647 2.51039 66.8879 2.25133 66.6875 2.1829L67.7262 1.80895C67.7213 1.80895 67.9315 1.42282 67.8509 1Z" fill="white"/>
<path d="M71.7467 3.14355C71.7467 3.14355 72.0913 3.36599 72.2452 3.50529C72.2452 3.50529 72.8171 3.42462 72.9687 3.41973C72.9687 3.41973 72.932 3.65438 72.6265 4.02098C72.6265 4.02098 72.7707 4.38757 72.6901 4.71507C72.6901 4.71507 72.387 4.4731 72.0693 4.36556C72.0693 4.36556 71.6122 4.52445 71.297 4.544C71.297 4.544 71.4436 4.27269 71.4949 4.12361C71.4949 4.12361 71.1185 3.95497 70.989 3.91098L71.6636 3.66658C71.6611 3.66902 71.8004 3.41728 71.7467 3.14355Z" fill="white"/>
<path d="M63.3956 8.20508C63.3956 8.20508 63.7426 8.42993 63.8991 8.57168C63.8991 8.57168 64.4758 8.491 64.6274 8.48612C64.6274 8.48612 64.5907 8.72321 64.2828 9.09226C64.2828 9.09226 64.427 9.4613 64.3463 9.79369C64.3463 9.79369 64.0408 9.54927 63.7206 9.43929C63.7206 9.43929 63.2587 9.60059 62.941 9.6177C62.941 9.6177 63.0901 9.34397 63.139 9.19489C63.139 9.19489 62.7602 9.02381 62.6282 8.97981L63.3101 8.73296C63.3101 8.73541 63.4494 8.48125 63.3956 8.20508Z" fill="white"/>
<path d="M66.9687 8.29297C66.9687 8.29297 68.3887 9.20947 69.0217 9.78871C69.0217 9.78871 71.3826 9.45631 72.0009 9.4392C72.0009 9.4392 71.8469 10.4095 70.5956 11.9174C70.5956 11.9174 71.1895 13.4278 70.8522 14.7818C70.8522 14.7818 69.6009 13.7871 68.2958 13.3374C68.2958 13.3374 66.4114 13.9949 65.1112 14.0706C65.1112 14.0706 65.7173 12.9488 65.9226 12.3402C65.9226 12.3402 64.3756 11.6462 63.833 11.4629L66.6192 10.4584C66.6192 10.4608 67.1862 9.42699 66.9687 8.29297Z" fill="white"/>
<path d="M70.6028 6.58691C70.6028 6.58691 71.4485 7.13191 71.8248 7.47896C71.8248 7.47896 73.2301 7.281 73.5992 7.27122C73.5992 7.27122 73.5088 7.84802 72.7609 8.74742C72.7609 8.74742 73.1128 9.64681 72.9149 10.4533C72.9149 10.4533 72.1694 9.86188 71.3922 9.59304C71.3922 9.59304 70.2704 9.98409 69.4957 10.0305C69.4957 10.0305 69.8574 9.36332 69.9796 8.99916C69.9796 8.99916 69.0582 8.58612 68.7356 8.47614L70.3951 7.87733C70.3951 7.87978 70.7324 7.26391 70.6028 6.58691Z" fill="white"/>
<path d="M28.7858 29.2382C30.2204 29.2382 30.9365 29.1063 31.2274 28.8276C31.506 29.0403 31.6135 29.292 31.6135 29.6366C31.6135 30.2745 31.1223 31.1226 29.409 31.1226C28.7589 31.1226 27.2583 31.0957 27.2583 31.0957V32.4888C27.3634 32.4619 27.923 32.435 28.4387 32.435C30.8681 32.435 31.7699 33.5641 31.7699 35.1161C31.7699 36.8416 30.4428 37.9169 27.8399 37.9169C25.7821 37.9169 25 37.1862 25 36.3894C25 35.991 25.1589 35.6318 25.4106 35.38C25.7821 35.9642 26.6448 36.3625 27.8546 36.3625C28.8762 36.3625 29.409 36.1377 29.409 35.4607C29.409 34.7959 29.0375 34.2118 27.3389 34.2118C27.0334 34.2118 26.0509 34.224 25.7454 34.2778C25.5988 34.1043 25.5719 33.7328 25.5719 33.3222V29.2333H28.7858V29.2382Z" fill="white"/>
<path d="M34.935 33.5124C35.4654 33.5124 35.7978 33.4318 36.0495 33.3267C36.1424 33.4318 36.2084 33.7128 36.2084 33.8986C36.2084 34.5365 35.81 35.0937 34.456 35.0937L32.623 35.0815C32.3444 34.3776 32.8209 33.5149 33.8303 33.5149H34.935V33.5124Z" fill="white"/>
<path d="M47.6587 33.5124C48.189 33.5124 48.5214 33.4318 48.7731 33.3267C48.866 33.4318 48.932 33.7128 48.932 33.8986C48.932 34.5365 48.5336 35.0937 47.1796 35.0937L45.3466 35.0815C45.068 34.3776 45.5446 33.5149 46.554 33.5149H47.6587V33.5124Z" fill="white"/>
<path d="M59.2334 33.5124C59.7637 33.5124 60.0961 33.4318 60.3478 33.3267C60.4407 33.4318 60.5067 33.7128 60.5067 33.8986C60.5067 34.5365 60.1083 35.0937 58.7543 35.0937L56.9213 35.0815C56.6427 34.3776 57.1193 33.5149 58.1287 33.5149H59.2334V33.5124Z" fill="white"/>
<path d="M70.3391 33.5124C70.8694 33.5124 71.2018 33.4318 71.4536 33.3267C71.5464 33.4318 71.6124 33.7128 71.6124 33.8986C71.6124 34.5365 71.214 35.0937 69.86 35.0937L68.027 35.0815C67.7484 34.3776 68.225 33.5149 69.2344 33.5149H70.3391V33.5124Z" fill="white"/>
<path d="M44.0268 34.642C44.1196 34.774 44.1734 34.9475 44.1734 35.1455C44.1734 35.8225 43.709 36.3529 42.8854 36.3944V37.0176C42.8854 37.7606 42.4748 38.0001 41.6903 38.0001C41.199 38.0001 40.7615 37.8804 40.4169 37.6555C40.5367 37.416 40.6027 36.9516 40.6027 36.4066H36.8731C36.6605 36.1549 36.5823 35.8225 36.5823 35.517C36.5823 35.2262 36.6214 34.9866 36.8609 34.6811L40.4707 29.3703C40.6565 29.2774 41.0939 29.1968 41.3872 29.1968C42.5017 29.1968 42.9001 29.6342 42.9001 30.8025C42.9001 31.3866 42.8732 34.8791 42.8732 34.8791C43.1909 34.8816 43.7481 34.84 44.0268 34.642ZM40.6149 31.5626L38.4373 34.8815H40.6149V31.5626Z" fill="white"/>
<path d="M54.1424 33.315C55.4695 33.5008 56.0928 34.3366 56.0928 35.2531C56.0928 36.9664 54.8048 37.922 52.0846 37.922C50.0145 37.922 49.2446 37.1912 49.2446 36.3945C49.2446 35.9961 49.4035 35.6368 49.6552 35.3851C50.0145 35.9692 50.8895 36.3676 52.0968 36.3676C53.2528 36.3676 53.6634 36.089 53.6634 35.4657C53.6634 34.7619 53.0671 34.4955 52.0161 34.4955C51.8035 34.4955 51.4589 34.5493 51.2194 34.6935C50.9408 34.4539 50.8088 34.0433 50.8088 33.7232C50.8088 33.2441 51.1265 32.9264 51.7253 32.9264C52.8544 32.9264 53.3726 32.6478 53.3726 31.8511C53.3726 31.3207 52.9473 30.8563 52.0039 30.8563C51.1021 30.8563 50.3982 31.3745 50.2247 31.9439C49.6943 31.7851 49.4939 31.3989 49.4939 30.8417C49.4939 30.018 50.3713 29.1431 52.588 29.1431C54.6459 29.1431 55.775 30.2576 55.775 31.5187C55.775 32.2665 55.3522 33.0095 54.1424 33.315Z" fill="white"/>
<path d="M66.8905 31.8021C66.8905 33.2637 66.1744 34.1924 63.4909 36.1965H65.2823C66.4237 36.1965 66.888 36.1305 67.1667 35.9301C67.2595 36.0621 67.3133 36.2356 67.3133 36.4336C67.3133 37.1106 66.7561 37.8267 65.5732 37.8267H61.3377C61.02 37.8267 60.7536 37.8267 60.6338 37.8389C60.4749 37.6409 60.3943 37.267 60.3943 37.003C60.3943 36.6047 60.514 36.4727 60.7804 36.2869C64.0065 33.9504 64.6029 33.2734 64.6029 32.1321C64.6029 31.3891 64.1239 30.9248 63.2489 30.9248C62.3202 30.9248 61.6285 31.5626 61.4574 32.1468C60.9002 31.9879 60.6998 31.6017 60.6998 31.0176C60.6998 30.1671 61.6701 29.1333 63.701 29.1333C65.908 29.1333 66.8905 30.4066 66.8905 31.8021Z" fill="white"/>
<path d="M71.7907 37.8291C71.71 37.6824 71.6587 37.4844 71.6587 37.2987C71.6587 36.6877 72.0962 36.2502 74.0343 36.2234V31.2449C73.4624 31.3255 72.932 31.9488 72.8123 32.3325C72.321 32.2127 72.0302 31.8021 72.0302 31.2962C72.0302 30.3406 73.5846 29.1992 75.2441 29.1992C76.119 29.1992 76.3194 29.4119 76.3194 29.8371V36.2087C77.4608 36.2087 77.9252 36.1427 78.2038 35.9569C78.2966 36.0767 78.3504 36.2478 78.3504 36.4482C78.3504 37.1252 77.7932 37.8291 76.6103 37.8291H71.7907Z" fill="white"/>
</svg>
