<svg width="104" height="43" viewBox="0 0 104 43" fill="none" xmlns="http://www.w3.org/2000/svg">
<path d="M28.3111 19.6386L28.2858 30.8225H29.8074C32.4688 30.8225 34.4481 30.3666 35.032 29.7812C35.3099 30.0851 35.3857 30.4426 35.3857 30.9238C35.3857 32.5251 33.8136 33.8478 29.4031 33.8478C24.4846 33.8478 23.9512 33.6199 23.749 32.5758C23.6732 31.9144 23.648 29.9079 23.648 26.4491V20.6546C23.648 20.0439 23.3448 19.664 22 19.7906C22 18.3666 23.1398 17.1733 25.5233 17.1733C27.3987 17.1733 28.3111 17.8853 28.3111 19.6386Z" fill="white"/>
<path d="M41.1919 33.9996C37.1352 33.9996 34.5496 32.2464 34.5496 28.0531C34.5496 23.6291 37.1605 21.0625 41.5737 21.0625C45.6557 21.0625 48.1402 22.8918 48.1402 27.1132C48.1402 31.7876 45.2991 33.9996 41.1919 33.9996ZM41.2677 24.0344C39.5692 24.0344 39.0358 25.2304 39.0358 27.7717C39.0358 30.2876 39.6197 31.2023 41.4446 31.2023C43.0167 31.2023 43.7523 30.2116 43.7523 27.4649C43.7523 25.3064 43.2217 24.0344 41.2677 24.0344Z" fill="white"/>
<path d="M49.8553 30.4399C49.8553 27.9493 49.9059 24.1866 49.9059 24.1866H48.3085C48.1569 23.9587 48.0811 23.6266 48.0811 23.348C48.0811 22.3574 48.665 21.3133 50.035 21.212C50.1613 19.4333 51.0738 17.832 53.2298 17.832C53.5836 17.832 54.0159 17.8827 54.3949 17.984C54.2686 19.0506 54.2433 20.196 54.2433 21.2879H54.7009C56.0709 21.2879 56.9328 21.1613 57.4887 20.8292C57.7414 21.1585 57.8424 21.5666 57.8424 21.9718C57.8424 23.4971 56.3966 24.2091 55.2315 24.2091H54.2433V29.8264C54.2433 30.5891 54.5213 30.817 55.3831 30.817C56.3713 30.817 57.3343 30.4624 58.1709 29.9277C58.373 30.2317 58.4741 30.5384 58.4741 30.9943C58.4741 32.6716 56.7503 33.969 54.0889 33.969C51.1467 33.9746 49.8553 33.06 49.8553 30.4399Z" fill="white"/>
<path d="M59.7235 30.4399C59.7235 27.9493 59.774 24.1866 59.774 24.1866H58.1766C58.025 23.9587 57.9492 23.6266 57.9492 23.348C57.9492 22.3574 58.5332 21.3133 59.9032 21.212C60.0295 19.4333 60.9419 17.832 63.098 17.832C63.4517 17.832 63.8841 17.8827 64.2631 17.984C64.1368 19.0506 64.1115 20.196 64.1115 21.2879H64.5691C65.9391 21.2879 66.801 21.1613 67.3569 20.8292C67.6095 21.1585 67.7106 21.5666 67.7106 21.9718C67.7106 23.4971 66.2648 24.2091 65.0997 24.2091H64.1115V29.8264C64.1115 30.5891 64.3894 30.817 65.2513 30.817C66.2395 30.817 67.2024 30.4624 68.0391 29.9277C68.2412 30.2317 68.3423 30.5384 68.3423 30.9943C68.3423 32.6716 66.6185 33.969 63.9571 33.969C61.0177 33.9746 59.7235 33.06 59.7235 30.4399Z" fill="white"/>
<path d="M75.0518 33.9996C70.9951 33.9996 68.4094 32.2464 68.4094 28.0531C68.4094 23.6291 71.0203 21.0625 75.4336 21.0625C79.5155 21.0625 82.0001 22.8918 82.0001 27.1132C82.0001 31.7876 79.159 33.9996 75.0518 33.9996ZM75.1276 24.0344C73.4291 24.0344 72.8957 25.2304 72.8957 27.7717C72.8957 30.2876 73.4796 31.2023 75.3044 31.2023C76.8766 31.2023 77.6121 30.2116 77.6121 27.4649C77.6149 25.3064 77.0815 24.0344 75.1276 24.0344Z" fill="white"/>
<path d="M68.4284 7.02246C68.4284 7.02246 69.4054 7.65567 69.8406 8.05529C69.8406 8.05529 71.4661 7.82452 71.8928 7.81608C71.8928 7.81608 71.7861 8.48306 70.9242 9.52715C70.9242 9.52715 71.3341 10.5684 71.1011 11.5056C71.1011 11.5056 70.2392 10.8189 69.3408 10.5065C69.3408 10.5065 68.0438 10.9596 67.1454 11.0131C67.1454 11.0131 67.5637 10.2392 67.7041 9.81983C67.7041 9.81983 66.6373 9.33859 66.2639 9.21477L68.1842 8.51965C68.187 8.51683 68.58 7.80482 68.4284 7.02246Z" fill="white"/>
<path d="M65.7397 4.45312C65.7397 4.45312 66.2254 4.76832 66.4443 4.96813C66.4443 4.96813 67.2529 4.85275 67.4662 4.84994C67.4662 4.84994 67.4129 5.18202 66.9834 5.70266C66.9834 5.70266 67.1855 6.22048 67.0732 6.68765C67.0732 6.68765 66.6437 6.34712 66.1973 6.19234C66.1973 6.19234 65.5516 6.41748 65.1052 6.44562C65.1052 6.44562 65.3129 6.06007 65.3831 5.85181C65.3831 5.85181 64.8525 5.6126 64.6672 5.55069L65.6218 5.20453C65.6218 5.1989 65.8155 4.84431 65.7397 4.45312Z" fill="white"/>
<path d="M71.026 4C71.026 4 71.6324 4.394 71.9047 4.64165C71.9047 4.64165 72.9154 4.49812 73.1793 4.49249C73.1793 4.49249 73.1119 4.90901 72.5785 5.55628C72.5785 5.55628 72.8312 6.20356 72.688 6.7833C72.688 6.7833 72.1518 6.35835 71.5959 6.16416C71.5959 6.16416 70.7902 6.44559 70.2343 6.47936C70.2343 6.47936 70.4926 5.99812 70.5825 5.73921C70.5825 5.73921 69.9199 5.4409 69.6897 5.3621L70.8828 4.93152C70.8772 4.92871 71.1187 4.48687 71.026 4Z" fill="white"/>
<path d="M75.5007 6.46533C75.5007 6.46533 75.8965 6.72143 76.0734 6.88184C76.0734 6.88184 76.7303 6.78897 76.9044 6.78334C76.9044 6.78334 76.8623 7.05351 76.5113 7.47565C76.5113 7.47565 76.677 7.89779 76.5843 8.2749C76.5843 8.2749 76.2362 7.99629 75.8712 7.87246C75.8712 7.87246 75.3463 8.05539 74.9841 8.0779C74.9841 8.0779 75.1526 7.76552 75.2115 7.59385C75.2115 7.59385 74.7792 7.39967 74.6304 7.34901L75.4052 7.06758C75.4024 7.0704 75.5624 6.78334 75.5007 6.46533Z" fill="white"/>
<path d="M65.9077 12.2935C65.9077 12.2935 66.3063 12.5524 66.486 12.7156C66.486 12.7156 67.1485 12.6227 67.3226 12.6171C67.3226 12.6171 67.2805 12.8901 66.9267 13.315C66.9267 13.315 67.0924 13.74 66.9997 14.1227C66.9997 14.1227 66.6488 13.8413 66.281 13.7147C66.281 13.7147 65.7504 13.9004 65.3855 13.9201C65.3855 13.9201 65.5567 13.6049 65.6129 13.4332C65.6129 13.4332 65.1777 13.2362 65.0261 13.1856L65.8094 12.9013C65.8094 12.9042 65.9694 12.6143 65.9077 12.2935Z" fill="white"/>
<path d="M70.0123 12.395C70.0123 12.395 71.6434 13.4504 72.3705 14.1173C72.3705 14.1173 75.0825 13.7346 75.7928 13.7149C75.7928 13.7149 75.6159 14.8322 74.1785 16.5686C74.1785 16.5686 74.8607 18.3078 74.4733 19.8669C74.4733 19.8669 73.0359 18.7215 71.5367 18.2036C71.5367 18.2036 69.3722 18.9607 67.8787 19.0479C67.8787 19.0479 68.5749 17.7562 68.8107 17.0554C68.8107 17.0554 67.0336 16.2562 66.4104 16.0451L69.6108 14.8885C69.6108 14.8913 70.2622 13.7008 70.0123 12.395Z" fill="white"/>
<path d="M74.1873 10.4307C74.1873 10.4307 75.1587 11.0582 75.591 11.4579C75.591 11.4579 77.2053 11.2299 77.6292 11.2187C77.6292 11.2187 77.5254 11.8828 76.6663 12.9185C76.6663 12.9185 77.0706 13.9541 76.8432 14.8828C76.8432 14.8828 75.9869 14.2018 75.0941 13.8922C75.0941 13.8922 73.8055 14.3425 72.9156 14.396C72.9156 14.396 73.3311 13.6277 73.4715 13.2083C73.4715 13.2083 72.4131 12.7327 72.0425 12.6061L73.9487 11.9166C73.9487 11.9194 74.3361 11.2102 74.1873 10.4307Z" fill="white"/>
</svg>
