<svg xmlns="http://www.w3.org/2000/svg" width="360" height="360" viewBox="0 0 360 360" fill="none">
<rect width="360" height="360" fill="url(#paint0_linear_17064_529841)"/>
<g opacity="0.4">
<path opacity="0.4" d="M239.766 252.06L247.402 258L258.34 255.29L253.077 264.252L258.134 272.172L247.299 271.755L239.457 279.363L238.012 270.088L228.209 266.857L238.012 261.647H238.115L239.766 252.06Z" fill="white"/>
<path opacity="0.3" d="M229.757 285.928L234.091 287.804L238.322 285.303L237.496 290.096L241.005 293.223L236.258 294.161L234.091 298.642L231.924 294.473L227.177 294.161L230.582 290.617V290.513L229.757 285.928Z" fill="white"/>
<path opacity="0.2" d="M208.706 263.002L210.873 264.774L214.175 264.044L212.318 266.441L213.659 268.733L210.46 268.525L207.881 270.505L207.674 268.004L204.888 267.066L207.881 265.711L207.984 265.607L208.706 263.002Z" fill="white"/>
<path opacity="0.5" d="M223.669 232.26L225.733 233.823L229.138 233.093L227.28 235.49L228.519 237.679L225.32 237.47L222.843 239.45L222.637 237.053L219.748 236.116L222.843 234.761L223.669 232.26Z" fill="white"/>
<path opacity="0.3" d="M268.453 291.555L272.58 296.14L280.32 295.723L275.366 300.517L277.533 305.831L270.31 304.268L263.913 307.916L264.428 302.184L258.34 299.058L265.77 297.182V297.078L268.453 291.555Z" fill="white"/>
<path opacity="0.2" d="M163.716 237.366L167.844 241.847L175.583 241.43L170.63 246.224L172.797 251.539L165.573 249.976L159.176 253.623L159.692 247.891L153.604 244.869L161.033 242.889L163.716 237.366Z" fill="white"/>
</g>
<defs>
<linearGradient id="paint0_linear_17064_529841" x1="92.25" y1="-58.3333" x2="233.198" y2="442.403" gradientUnits="userSpaceOnUse">
<stop stop-color="#783194"/>
<stop offset="1" stop-color="#532266"/>
</linearGradient>
</defs>
</svg>
