<svg width="104" height="43" viewBox="0 0 104 43" fill="none" xmlns="http://www.w3.org/2000/svg">
<path d="M62.1692 3.0957C62.1692 3.0957 63.0101 3.63945 63.3847 3.98262C63.3847 3.98262 64.784 3.78445 65.1513 3.7772C65.1513 3.7772 65.0595 4.34995 64.3176 5.24653C64.3176 5.24653 64.6704 6.14069 64.4698 6.94543C64.4698 6.94543 63.7279 6.35577 62.9546 6.08752C62.9546 6.08752 61.8381 6.4766 61.0647 6.52252C61.0647 6.52252 61.4248 5.85794 61.5457 5.49786C61.5457 5.49786 60.6273 5.08461 60.3059 4.97828L61.9589 4.38136C61.9638 4.38136 62.2997 3.76995 62.1692 3.0957Z" fill="white"/>
<path d="M59.8565 0.88916C59.8565 0.88916 60.2746 1.15983 60.4631 1.33141C60.4631 1.33141 61.1591 1.23233 61.3427 1.22991C61.3427 1.22991 61.2968 1.51507 60.9271 1.96215C60.9271 1.96215 61.1011 2.40682 61.0044 2.80798C61.0044 2.80798 60.6347 2.51557 60.2504 2.38265C60.2504 2.38265 59.6946 2.57599 59.3103 2.60015C59.3103 2.60015 59.4892 2.26907 59.5496 2.09024C59.5496 2.09024 59.0928 1.88482 58.9333 1.83166L59.755 1.53441C59.755 1.52957 59.9217 1.22508 59.8565 0.88916Z" fill="white"/>
<path d="M64.4045 0.5C64.4045 0.5 64.9265 0.838332 65.1609 1.051C65.1609 1.051 66.0309 0.927748 66.258 0.922915C66.258 0.922915 66.2 1.28058 65.7409 1.83641C65.7409 1.83641 65.9584 2.39224 65.8351 2.89007C65.8351 2.89007 65.3735 2.52516 64.895 2.35841C64.895 2.35841 64.2015 2.60007 63.723 2.62907C63.723 2.62907 63.9453 2.21582 64.0226 1.99349C64.0226 1.99349 63.4523 1.73733 63.2542 1.66966L64.2812 1.29991C64.2764 1.2975 64.4866 0.918081 64.4045 0.5Z" fill="white"/>
<path d="M68.2567 2.61914C68.2567 2.61914 68.5975 2.83906 68.7497 2.97681C68.7497 2.97681 69.3152 2.89706 69.4651 2.89222C69.4651 2.89222 69.4288 3.12422 69.1267 3.48672C69.1267 3.48672 69.2693 3.84922 69.1896 4.17305C69.1896 4.17305 68.8899 3.9338 68.5757 3.82747C68.5757 3.82747 68.1238 3.98455 67.8121 4.00388C67.8121 4.00388 67.9571 3.73564 68.0078 3.58822C68.0078 3.58822 67.6357 3.42147 67.5076 3.37797L68.1746 3.1363C68.1746 3.13872 68.3099 2.88981 68.2567 2.61914Z" fill="white"/>
<path d="M60.0012 7.62207C60.0012 7.62207 60.3444 7.8444 60.4991 7.98457C60.4991 7.98457 61.0694 7.90482 61.2192 7.89999C61.2192 7.89999 61.183 8.1344 60.8785 8.49932C60.8785 8.49932 61.0211 8.86423 60.9413 9.1929C60.9413 9.1929 60.6393 8.95123 60.3227 8.84248C60.3227 8.84248 59.8659 9.00198 59.5517 9.0189C59.5517 9.0189 59.6992 8.74823 59.7475 8.60082C59.7475 8.60082 59.3729 8.43165 59.2424 8.38815L59.9167 8.14407C59.9167 8.14648 60.0544 7.89757 60.0012 7.62207Z" fill="white"/>
<path d="M63.5322 7.71143C63.5322 7.71143 64.9363 8.61767 65.5622 9.19042C65.5622 9.19042 67.8967 8.86175 68.5081 8.84484C68.5081 8.84484 68.3559 9.80425 67.1185 11.2953C67.1185 11.2953 67.7058 12.7888 67.3723 14.1276C67.3723 14.1276 66.1349 13.1441 64.8445 12.6994C64.8445 12.6994 62.9812 13.3495 61.6955 13.4244C61.6955 13.4244 62.2949 12.3152 62.4979 11.7134C62.4979 11.7134 60.9681 11.0271 60.4316 10.8458L63.1866 9.85258C63.189 9.85258 63.7497 8.83275 63.5322 7.71143Z" fill="white"/>
<path d="M67.1256 6.02441C67.1256 6.02441 67.9618 6.56333 68.334 6.90649C68.334 6.90649 69.7235 6.71074 70.0884 6.70108C70.0884 6.70108 69.999 7.27141 69.2595 8.16074C69.2595 8.16074 69.6075 9.05007 69.4118 9.84756C69.4118 9.84756 68.6747 9.26273 67.9062 8.9969C67.9062 8.9969 66.797 9.38356 66.0309 9.42948C66.0309 9.42948 66.3885 8.76973 66.5094 8.40965C66.5094 8.40965 65.5983 8.00124 65.2793 7.89249L66.9202 7.30041C66.9202 7.30041 67.2537 6.69141 67.1256 6.02441Z" fill="white"/>
<path d="M39.9503 12.3659C41.5501 12.3659 42.4878 12.1677 42.8285 11.9526C43.1523 12.1871 43.2973 12.4916 43.2973 12.9072C43.2973 13.6636 42.7029 14.5433 40.6898 14.5433H39.6289L39.6119 23.8982C39.2881 24.077 38.4979 24.1495 37.9203 24.1495C36.9657 24.1495 36.48 23.8619 36.3905 23.3762C36.3374 22.9073 36.318 21.2906 36.318 18.8425C36.318 17.2064 36.335 14.5433 36.335 14.5433H35.8492C34.6796 14.5433 33.87 14.7052 33.4398 15.0097C33.1522 14.7946 32.9734 14.4345 32.9734 14.0382C32.9734 13.0135 33.8192 12.3659 35.3828 12.3659H39.9503Z" fill="white"/>
<path d="M50.8156 18.3396C50.8156 19.6156 50.528 20.1207 49.8973 20.1207H45.1485C45.1655 21.4692 45.905 22.0806 47.5773 22.0806C48.6575 22.0806 49.7909 21.6843 50.5812 20.8747C50.8325 21.1091 50.905 21.4329 50.905 21.7205C50.905 23.1778 49.339 24.1662 46.497 24.1662C43.6188 24.1662 41.8933 22.924 41.8933 20.012C41.8933 16.9911 43.4931 15.0288 46.787 15.0288C49.4309 15.0288 50.8156 16.4498 50.8156 18.3396ZM47.9011 18.3565C47.9011 17.6001 47.3429 17.0805 46.4439 17.0805C45.4893 17.0805 45.238 17.7282 45.1655 18.6804H47.8818C47.9011 18.5716 47.9011 18.4822 47.9011 18.3565Z" fill="white"/>
<path d="M52.0143 16.3412C51.9973 14.3451 51.9055 13.5524 51.6179 12.8153C52.0674 12.4021 52.7876 12.1846 53.4352 12.1846C54.6774 12.1846 55.2332 12.7235 55.2332 13.7506V21.7183C55.2332 22.1509 55.4483 22.4022 56.3836 22.3128C56.3836 23.3205 55.574 24.1663 53.8823 24.1663C52.7489 24.1663 52.065 23.7168 52.065 22.5472L52.0143 16.3412Z" fill="white"/>
<path d="M56.9344 16.3412C56.9151 14.3451 56.8257 13.5524 56.5381 12.8153C56.9876 12.4021 57.7078 12.1846 58.3554 12.1846C59.5976 12.1846 60.1534 12.7235 60.1534 13.7506V21.7183C60.1534 22.1509 60.3685 22.4022 61.3037 22.3128C61.3037 23.3205 60.4941 24.1663 58.8025 24.1663C57.6691 24.1663 56.9852 23.7168 56.9852 22.5472L56.9344 16.3412Z" fill="white"/>
<path d="M61.763 17.6197C61.5648 17.0252 61.4923 16.8826 60.8108 16.9551C60.8108 15.9474 61.6204 15.1016 63.3121 15.1016C64.0492 15.1016 64.3561 15.4061 64.5711 16.0731L66.2072 21.0924L66.9081 19.3839C67.3576 18.2867 67.5388 17.5666 67.5388 16.8657C67.5388 16.4525 67.4856 16.0561 67.36 15.6066C67.6838 15.2997 68.1164 15.1209 68.7278 15.1209C69.7887 15.1209 70.4195 15.6429 70.4195 16.6506C70.4195 17.4771 70.0062 18.5211 69.1773 20.3385C68.5466 21.7594 67.2875 24.1519 66.7316 25.1234C65.3638 27.4628 64.2304 28.1636 62.7393 28.1636C61.3908 28.1636 60.6707 27.6053 60.6707 26.5275C60.6707 25.9886 60.922 25.556 61.3183 25.2684C61.5697 25.7179 62.1811 26.1505 62.9375 26.1505C63.4764 26.1505 63.7277 25.7904 64.7717 24.0819C64.2135 24.0456 63.8897 23.7049 63.6214 22.9484L61.763 17.6197Z" fill="white"/>
<path d="M34.0102 26.4189C37.176 26.4189 38.4883 27.4992 38.4883 29.476C38.4883 30.3943 38.0025 31.3658 37.1398 31.7791C38.4351 32.2479 38.974 33.217 38.974 34.3335C38.974 37.0329 37.0673 38.1832 33.5051 38.1832C30.61 38.1832 29.3316 38.0213 29.2252 37.3205C29.1527 36.8541 29.1527 35.305 29.1527 32.8593L29.1697 28.7583C29.1697 28.3257 28.9546 28.0574 28 28.1469C28 27.1391 28.8265 26.4189 30.5012 26.4189H34.0102ZM32.4442 28.3619V31.3296C32.8768 31.3658 33.6501 31.3828 33.9909 31.3828C35.088 31.3828 35.6269 30.8608 35.6269 30.0874C35.6294 28.4344 33.6671 28.2894 32.4442 28.3619ZM32.4442 33.1469V36.1677C32.7149 36.204 33.4689 36.2402 33.9546 36.2402C35.4119 36.2402 35.8445 35.7907 35.8445 34.8724C35.8445 33.0744 33.7202 33.0744 32.4442 33.1469Z" fill="white"/>
<path d="M39.1216 30.9693C39.1216 29.9616 39.9312 29.1157 41.6228 29.1157C42.9351 29.1157 43.4401 29.6377 43.4401 30.428V37.9293C43.0801 38.1274 42.5218 38.1637 41.8935 38.1637C40.9582 38.1637 40.3468 37.9655 40.3106 37.2816C40.2743 36.6339 40.2574 35.6624 40.2574 34.0433C40.2574 32.2815 40.2767 31.7233 40.2767 31.5783C40.2719 31.1505 40.0568 30.8799 39.1216 30.9693ZM41.6929 28.2892C40.5425 28.2892 40.0568 27.9122 40.0568 27.1558C40.0568 26.4187 40.5426 25.9692 41.8016 25.9692C42.952 25.9692 43.4377 26.4187 43.4377 27.1196C43.4377 27.7866 43.1332 28.2892 41.6929 28.2892Z" fill="white"/>
<path d="M48.4013 30.8631C48.7421 29.6765 49.6797 29.082 51.1007 29.082C53.0606 29.082 54.4115 29.8022 54.4115 31.8878C54.4115 32.6973 54.3753 34.5872 54.3753 35.7375C54.3753 36.1701 54.5904 36.4214 55.5256 36.332C55.5256 37.3397 54.716 38.1856 53.0244 38.1856C51.891 38.1856 51.2433 37.7361 51.2433 36.5664C51.2433 35.7738 51.2796 33.49 51.2796 32.8617C51.2796 31.8177 50.8107 31.2957 49.5879 31.2957C48.8146 31.2957 48.4545 31.6364 48.4545 32.4122V37.9342C48.0944 38.1324 47.4999 38.1687 46.9078 38.1687C45.8107 38.1687 45.3418 37.8811 45.3249 37.2866C45.2718 36.6389 45.2718 35.8656 45.2718 34.911C45.2718 33.1493 45.3249 31.5833 45.3249 31.5833C45.3249 31.1507 45.1099 30.8824 44.1553 30.9719C44.1553 29.9641 44.9648 29.1183 46.6565 29.1183C47.8431 29.1183 48.4013 29.6209 48.4013 30.8631Z" fill="white"/>
<path d="M60.1464 36.2233C59.8226 36.2233 59.0492 36.2063 58.7423 36.1701C58.6891 36.5108 58.9042 36.6558 59.3368 36.709L63.1865 37.1778C64.5906 37.3398 65.0401 37.9874 65.0401 38.9758C65.0401 40.9357 63.636 42.5742 59.9144 42.5742C56.8573 42.5742 55.2019 42.0716 55.2019 40.3437C55.2019 39.4447 55.7408 38.9057 56.7848 38.5819C56.4078 38.4007 56.2266 38.1687 56.2266 37.6998C56.2266 37.1778 56.5504 36.6196 57.5751 35.8825C56.2435 35.5224 55.5596 34.5509 55.5596 33.113C55.5596 30.648 56.9274 29.0289 60.1295 29.0289C60.8665 29.0289 62.3238 29.2101 63.1865 29.2101C64.1218 29.2101 64.68 29.1014 65.1102 28.7969C65.2721 29.0845 65.3253 29.3189 65.3253 29.6596C65.3253 30.578 64.6607 31.2063 63.5273 31.2594C64.2475 31.5108 64.697 32.3204 64.697 33.0574C64.697 35.1986 63.1141 36.2233 60.1464 36.2233ZM62.377 40.0367C62.377 39.7322 62.2682 39.5147 60.9729 39.3528L58.0415 38.9565C57.969 39.1353 57.9327 39.3166 57.9327 39.4785C57.9327 40.2687 58.7955 40.8101 60.3784 40.8101C62.0531 40.8101 62.377 40.3243 62.377 40.0367ZM60.1633 34.5509C61.2798 34.5509 61.7631 34.0289 61.7631 32.823C61.7631 31.779 61.2411 30.9888 60.1077 30.9888C58.9211 30.9888 58.6142 31.7452 58.6142 32.823C58.6166 34.0289 59.1386 34.5509 60.1633 34.5509Z" fill="white"/>
<path d="M70.19 38.2021C67.3118 38.2021 65.4775 36.96 65.4775 33.9923C65.4775 30.8627 67.3311 29.0454 70.4607 29.0454C73.3558 29.0454 75.12 30.3407 75.12 33.3253C75.1176 36.6361 73.1021 38.2021 70.19 38.2021ZM70.2432 31.1503C69.0373 31.1503 68.6603 31.9961 68.6603 33.7941C68.6603 35.5752 69.0735 36.2229 70.3688 36.2229C71.4829 36.2229 72.0049 35.522 72.0049 33.5791C72.0049 32.0493 71.6279 31.1503 70.2432 31.1503Z" fill="white"/>
</svg>
