<svg width="104" height="43" viewBox="0 0 104 43" fill="none" xmlns="http://www.w3.org/2000/svg">
<path d="M24.5267 2.62354C24.5267 2.62354 25.3754 3.17316 25.7534 3.52004C25.7534 3.52004 27.1654 3.31973 27.5361 3.3124C27.5361 3.3124 27.4434 3.89134 26.6947 4.79762C26.6947 4.79762 27.0508 5.70145 26.8484 6.5149C26.8484 6.5149 26.0997 5.91886 25.3193 5.64771C25.3193 5.64771 24.1926 6.04099 23.4122 6.08741C23.4122 6.08741 23.7756 5.41564 23.8975 5.05167C23.8975 5.05167 22.9708 4.63395 22.6465 4.52647L24.3146 3.9231C24.317 3.92066 24.656 3.30263 24.5267 2.62354Z" fill="white"/>
<path d="M22.1904 0.393066C22.1904 0.393066 22.6123 0.666659 22.8025 0.840096C22.8025 0.840096 23.5048 0.739942 23.6902 0.737499C23.6902 0.737499 23.6438 1.02575 23.2707 1.47766C23.2707 1.47766 23.4463 1.92714 23.3488 2.33264C23.3488 2.33264 22.9756 2.03706 22.5879 1.90271C22.5879 1.90271 22.027 2.09813 21.6392 2.12256C21.6392 2.12256 21.8197 1.7879 21.8807 1.60713C21.8807 1.60713 21.4197 1.39949 21.2588 1.34575L22.088 1.04529C22.088 1.0404 22.2562 0.732614 22.1904 0.393066Z" fill="white"/>
<path d="M26.78 0C26.78 0 27.3067 0.34199 27.5433 0.556956C27.5433 0.556956 28.4212 0.432373 28.6504 0.427488C28.6504 0.427488 28.5919 0.78902 28.1286 1.35086C28.1286 1.35086 28.348 1.9127 28.2237 2.41592C28.2237 2.41592 27.7579 2.04706 27.275 1.8785C27.275 1.8785 26.5751 2.12278 26.0922 2.1521C26.0922 2.1521 26.3166 1.73438 26.3946 1.50964C26.3946 1.50964 25.8191 1.25071 25.6191 1.18231L26.6556 0.808563C26.6532 0.80612 26.8629 0.422602 26.78 0Z" fill="white"/>
<path d="M30.6698 2.13965C30.6698 2.13965 31.0137 2.36194 31.1673 2.50118C31.1673 2.50118 31.738 2.42057 31.8892 2.41568C31.8892 2.41568 31.8526 2.65019 31.5477 3.01661C31.5477 3.01661 31.6916 3.38303 31.6112 3.71036C31.6112 3.71036 31.3088 3.46852 30.9917 3.36104C30.9917 3.36104 30.5357 3.51982 30.2211 3.53937C30.2211 3.53937 30.3674 3.26822 30.4186 3.11921C30.4186 3.11921 30.0431 2.95065 29.9138 2.90668L30.5869 2.66241C30.5845 2.66485 30.721 2.41568 30.6698 2.13965Z" fill="white"/>
<path d="M22.3366 7.19873C22.3366 7.19873 22.6829 7.42347 22.8389 7.56515C22.8389 7.56515 23.4145 7.48454 23.5657 7.47965C23.5657 7.47965 23.5291 7.7166 23.2218 8.08546C23.2218 8.08546 23.3657 8.45432 23.2852 8.78654C23.2852 8.78654 22.9804 8.54226 22.6609 8.43234C22.6609 8.43234 22.2 8.59356 21.8829 8.61066C21.8829 8.61066 22.0317 8.33707 22.0805 8.18806C22.0805 8.18806 21.7025 8.01706 21.5708 7.97309L22.2512 7.72637C22.2512 7.72882 22.3902 7.47721 22.3366 7.19873Z" fill="white"/>
<path d="M25.9021 7.28662C25.9021 7.28662 27.3189 8.20267 27.9506 8.78161C27.9506 8.78161 30.3063 8.44939 30.9233 8.43229C30.9233 8.43229 30.7697 9.40207 29.5211 10.9093C29.5211 10.9093 30.1137 12.4189 29.7771 13.7722C29.7771 13.7722 28.5285 12.778 27.2263 12.3285C27.2263 12.3285 25.346 12.9856 24.0486 13.0614C24.0486 13.0614 24.6534 11.9401 24.8583 11.3319C24.8583 11.3319 23.3146 10.6381 22.7732 10.4549L25.5533 9.45093C25.5533 9.45337 26.1191 8.42007 25.9021 7.28662Z" fill="white"/>
<path d="M29.5285 5.58154C29.5285 5.58154 30.3722 6.12628 30.7478 6.47316C30.7478 6.47316 32.1501 6.27529 32.5183 6.26552C32.5183 6.26552 32.4281 6.84202 31.6818 7.74097C31.6818 7.74097 32.033 8.63991 31.8355 9.44603C31.8355 9.44603 31.0917 8.85488 30.3162 8.58617C30.3162 8.58617 29.1968 8.97702 28.4237 9.02343C28.4237 9.02343 28.7847 8.35655 28.9066 7.99257C28.9066 7.99257 27.9872 7.57974 27.6653 7.46982L29.3212 6.87133C29.3187 6.87378 29.6577 6.2582 29.5285 5.58154Z" fill="white"/>
<path d="M14.1328 11.8452C18.5859 11.8452 20.1442 14.7643 20.1442 17.83C20.1442 22.4371 17.1763 23.7049 13.2647 23.7049C10.604 23.7049 9.58954 23.5046 9.4798 22.7987C9.40664 22.3272 9.37005 20.8029 9.37005 18.3381L9.38713 14.2025C9.38713 13.7677 9.17008 13.4941 8.20923 13.5869C8.20923 12.5707 9.04083 11.8452 10.726 11.8452H14.1328V11.8452ZM12.6306 13.9314V21.5846C12.9013 21.6017 13.4451 21.6384 13.8256 21.6384C15.9619 21.6384 16.9569 20.8396 16.9569 18.2282C16.9569 15.0917 15.1815 13.841 12.6306 13.9314Z" fill="white"/>
<path d="M29.4309 21.2401C29.4309 21.6749 29.7211 21.929 30.6795 21.8386C30.6795 22.8548 29.8479 23.7073 28.2725 23.7073C27.1141 23.7073 26.6435 23.2359 26.6435 22.2197V21.8581C26.3532 23.1626 25.3412 23.7073 23.6926 23.7073C21.7002 23.7073 20.615 22.7107 20.615 21.2401C20.615 19.4276 21.9002 18.4847 24.5803 18.4847C25.1949 18.4847 25.7582 18.5213 26.3557 18.5946V18.1598C26.3557 17.0898 25.685 16.7625 24.5998 16.7625C23.4951 16.7625 22.4099 17.2168 21.7026 18.0498C21.2686 17.7591 21.1052 17.4147 21.1052 16.7991C21.1052 15.6022 22.5538 14.5322 25.5217 14.5322C28.292 14.5322 29.4333 15.5484 29.4333 17.4709V21.2401H29.4309ZM25.012 19.9528C24.034 19.9528 23.617 20.2606 23.617 20.9494C23.617 21.4746 23.9243 21.8386 24.812 21.8386C25.6997 21.8386 26.3142 21.3134 26.3142 20.0627C25.8094 19.9699 25.5924 19.9528 25.012 19.9528Z" fill="white"/>
<path d="M30.2261 16.4351C30.2261 15.4189 31.0406 14.5664 32.7428 14.5664C34.0646 14.5664 34.5718 15.0916 34.5718 15.8904V23.4533C34.2109 23.6536 33.6476 23.6878 33.016 23.6878C32.0746 23.6878 31.4601 23.4875 31.4235 22.7986C31.3869 22.1464 31.3698 21.1668 31.3698 19.535C31.3698 17.7567 31.3893 17.1948 31.3893 17.0507C31.3869 16.6159 31.1674 16.3423 30.2261 16.4351Z" fill="white"/>
<path d="M35.7666 15.8168C35.7496 13.804 35.6569 13.0052 35.3691 12.2626C35.8227 11.8449 36.547 11.6274 37.1982 11.6274C38.4468 11.6274 39.0077 12.1722 39.0077 13.2055V21.2398C39.0077 21.6746 39.2247 21.9287 40.1661 21.8383C40.1661 22.8545 39.3515 23.707 37.6493 23.707C36.508 23.707 35.8203 23.2527 35.8203 22.0752L35.7666 15.8168Z" fill="white"/>
<path d="M40.6904 17.1045C40.4904 16.506 40.4197 16.3619 39.732 16.4327C39.732 15.4165 40.5465 14.564 42.2488 14.564C42.9901 14.564 43.2998 14.8718 43.5169 15.5435L45.1654 20.6025L45.8727 18.8804C46.3263 17.7738 46.5067 17.0483 46.5067 16.3423C46.5067 15.9246 46.4531 15.5264 46.3263 15.0721C46.6531 14.7643 47.0871 14.5835 47.7017 14.5835C48.7698 14.5835 49.4039 15.1087 49.4039 16.1249C49.4039 16.9579 48.9869 18.0107 48.1553 19.8428C47.5212 21.2743 46.2555 23.6878 45.6922 24.6673C44.3168 27.0246 43.1755 27.733 41.6732 27.733C40.3149 27.733 39.5906 27.1712 39.5906 26.0817C39.5906 25.537 39.8442 25.1022 40.2417 24.8115C40.4953 25.2658 41.1099 25.7006 41.8708 25.7006C42.4146 25.7006 42.6682 25.3391 43.7169 23.6145C43.156 23.5779 42.8292 23.2334 42.5585 22.4713L40.6904 17.1045Z" fill="white"/>
<path d="M1.35171 28.4804C1.35171 28.0456 1.13468 27.772 0.173828 27.8648C0.173828 26.8486 1.02492 25.9961 2.70763 25.9961C4.483 25.9961 5.478 26.6679 6.05598 27.9357L8.28251 32.9043L10.9431 27.3005C11.3041 26.5384 11.8845 26.0132 12.8258 26.0132C14.2012 26.0132 14.889 26.2477 15.4157 26.6483C15.1084 27.0831 15.0523 28.1726 15.0523 29.587V37.6751C14.6914 37.8754 13.911 37.9291 13.3501 37.9291C12.3722 37.9291 11.9918 37.6751 11.9015 37.167C11.8284 36.6784 11.8113 35.0808 11.8113 32.616C11.8113 30.9647 11.8308 29.9143 11.8308 29.9143L9.04339 36.1166C8.80927 36.2802 8.2825 36.4244 7.83134 36.4244C7.07047 36.4244 6.58273 36.2436 6.3096 35.6256L3.86601 30.0755V32.7944C3.86601 35.8772 4.08307 36.7834 4.60739 37.2915C4.24646 37.6531 3.61239 37.9267 2.85152 37.9267C1.69313 37.9267 1.34928 37.2183 1.34928 35.7868V28.4804H1.35171Z" fill="white"/>
<path d="M15.5986 30.7109C15.5986 29.6947 16.4132 28.8421 18.1154 28.8421C19.4372 28.8421 19.9444 29.3673 19.9444 30.1661V37.729C19.581 37.9293 19.0201 37.9635 18.3885 37.9635C17.4472 37.9635 16.8326 37.7632 16.796 37.0743C16.7594 36.4221 16.7424 35.4425 16.7424 33.8108C16.7424 32.0324 16.7594 31.4706 16.7594 31.3264C16.757 30.8916 16.54 30.6205 15.5986 30.7109ZM18.1885 28.0091C17.0301 28.0091 16.54 27.6281 16.54 26.8659C16.54 26.1233 17.0277 25.6689 18.2958 25.6689C19.4542 25.6689 19.9444 26.1233 19.9444 26.8293C19.9444 27.501 19.6371 28.0091 18.1885 28.0091Z" fill="white"/>
<path d="M21.5904 30.0951C21.5733 28.0823 21.4806 27.2835 21.1929 26.5409C21.6465 26.1232 22.3683 25.9058 23.0219 25.9058C24.2705 25.9058 24.8314 26.4505 24.8314 27.4838V35.5181C24.8314 35.9529 25.0485 36.207 25.9898 36.1166C25.9898 37.1328 25.1753 37.9853 23.4731 37.9853C22.3317 37.9853 21.644 37.531 21.644 36.3536L21.5904 30.0951Z" fill="white"/>
<path d="M26.5142 30.0951C26.4971 28.0823 26.4045 27.2835 26.1167 26.5409C26.5703 26.1232 27.2946 25.9058 27.9457 25.9058C29.1943 25.9058 29.7552 26.4505 29.7552 27.4838V35.5181C29.7552 35.9529 29.9723 36.207 30.9136 36.1166C30.9136 37.1328 30.0991 37.9853 28.3969 37.9853C27.2556 37.9853 26.5679 37.531 26.5679 36.3536L26.5142 30.0951Z" fill="white"/>
<path d="M30.4795 30.7107C30.4795 29.6945 31.294 28.842 32.9962 28.842C34.318 28.842 34.8253 29.3672 34.8253 30.166V37.7288C34.4619 37.9291 33.901 37.9633 33.2694 37.9633C32.328 37.9633 31.7135 37.763 31.6769 37.0742C31.6403 36.4219 31.6232 35.4424 31.6232 33.8106C31.6232 32.0323 31.6403 31.4704 31.6403 31.3263C31.6379 30.8915 31.4208 30.6203 30.4795 30.7107ZM33.0694 28.009C31.911 28.009 31.4208 27.6279 31.4208 26.8658C31.4208 26.1232 31.9086 25.6688 33.1767 25.6688C34.3351 25.6688 34.8253 26.1232 34.8253 26.8291C34.8253 27.5009 34.518 28.009 33.0694 28.009ZM32.6865 13.5917C31.5281 13.5917 31.038 13.2106 31.038 12.4484C31.038 11.7058 31.5257 11.2515 32.7938 11.2515C33.9522 11.2515 34.4424 11.7058 34.4424 12.4118C34.4424 13.086 34.1351 13.5917 32.6865 13.5917Z" fill="white"/>
<path d="M40.8539 37.9998C37.9567 37.9998 36.1106 36.7491 36.1106 33.7567C36.1106 30.6006 37.9762 28.7686 41.1246 28.7686C44.0388 28.7686 45.8142 30.0754 45.8142 33.085C45.8142 36.4218 43.7852 37.9998 40.8539 37.9998ZM40.9075 30.8913C39.6955 30.8913 39.3151 31.7439 39.3151 33.5564C39.3151 35.3519 39.7321 36.0041 41.0343 36.0041C42.1561 36.0041 42.6829 35.2957 42.6829 33.339C42.6829 31.7976 42.3025 30.8913 40.9075 30.8913Z" fill="white"/>
<path d="M50.2672 30.6006C50.6111 29.4037 51.5524 28.8052 52.984 28.8052C54.9569 28.8052 56.3152 29.5307 56.3152 31.6339C56.3152 32.4498 56.2786 34.3552 56.2786 35.5155C56.2786 35.9503 56.4957 36.2044 57.437 36.114C57.437 37.1302 56.6225 37.9827 54.9203 37.9827C53.779 37.9827 53.1278 37.5284 53.1278 36.3509C53.1278 35.5522 53.1644 33.2511 53.1644 32.6159C53.1644 31.5631 52.6938 31.0379 51.4622 31.0379C50.6843 31.0379 50.3209 31.3823 50.3209 32.1616V37.7287C49.9575 37.929 49.36 37.9632 48.765 37.9632C47.6603 37.9632 47.1896 37.6725 47.1725 37.074C47.1189 36.4218 47.1189 35.6425 47.1189 34.6801C47.1189 32.9042 47.1725 31.3261 47.1725 31.3261C47.1725 30.8913 46.9555 30.6177 45.9971 30.7106C45.9971 29.6944 46.8116 28.8418 48.5138 28.8418C49.7063 28.8418 50.2672 29.3499 50.2672 30.6006Z" fill="white"/>
</svg>
