<svg width="104" height="43" viewBox="0 0 104 43" fill="none" xmlns="http://www.w3.org/2000/svg">
<path d="M50.4793 3.50537C50.4793 3.50537 51.2913 4.02907 51.6516 4.36058C51.6516 4.36058 53.0017 4.1684 53.3549 4.1612C53.3549 4.1612 53.266 4.71372 52.5501 5.57854C52.5501 5.57854 52.8888 6.44096 52.6966 7.2169C52.6966 7.2169 51.9807 6.64996 51.236 6.39052C51.236 6.39052 50.1598 6.76768 49.4151 6.81092C49.4151 6.81092 49.761 6.16951 49.8787 5.82358C49.8787 5.82358 48.9947 5.4248 48.6848 5.3215L50.2775 4.74735C50.2823 4.74255 50.6066 4.15399 50.4793 3.50537Z" fill="white"/>
<path d="M48.2498 1.37695C48.2498 1.37695 48.6534 1.6388 48.8336 1.80216C48.8336 1.80216 49.5062 1.70607 49.6816 1.70366C49.6816 1.70366 49.6383 1.97993 49.2804 2.40994C49.2804 2.40994 49.4486 2.83995 49.3549 3.22431C49.3549 3.22431 48.9993 2.94084 48.627 2.81352C48.627 2.81352 48.0913 3.0009 47.7189 3.02252C47.7189 3.02252 47.8919 2.70301 47.9496 2.53005C47.9496 2.53005 47.5099 2.33066 47.3538 2.28021L48.1465 1.99434C48.1489 1.99434 48.3123 1.69886 48.2498 1.37695Z" fill="white"/>
<path d="M52.6364 1C52.6364 1 53.1409 1.32671 53.3643 1.53091C53.3643 1.53091 54.2027 1.41319 54.4237 1.40839C54.4237 1.40839 54.3684 1.75192 53.924 2.28762C53.924 2.28762 54.1354 2.82333 54.0153 3.30379C54.0153 3.30379 53.5709 2.95066 53.1072 2.7897C53.1072 2.7897 52.437 3.02272 51.9757 3.05155C51.9757 3.05155 52.192 2.65277 52.264 2.43657C52.264 2.43657 51.7139 2.18913 51.5217 2.12427L52.5115 1.76633C52.5115 1.77113 52.7132 1.40358 52.6364 1Z" fill="white"/>
<path d="M56.3529 3.04443C56.3529 3.04443 56.682 3.25583 56.8262 3.39036C56.8262 3.39036 57.3715 3.31349 57.5156 3.30868C57.5156 3.30868 57.4796 3.5321 57.1913 3.88283C57.1913 3.88283 57.3283 4.23116 57.2514 4.54586C57.2514 4.54586 56.9607 4.31524 56.6604 4.21194C56.6604 4.21194 56.2256 4.36329 55.9229 4.38251C55.9229 4.38251 56.0623 4.12306 56.1103 3.98132C56.1103 3.98132 55.7524 3.82037 55.6274 3.77953L56.2712 3.54651C56.2712 3.54411 56.4034 3.30628 56.3529 3.04443Z" fill="white"/>
<path d="M48.3868 7.87061C48.3868 7.87061 48.7184 8.08441 48.8673 8.21894C48.8673 8.21894 49.4174 8.14206 49.564 8.13726C49.564 8.13726 49.5279 8.36307 49.2348 8.71621C49.2348 8.71621 49.3742 9.06935 49.2949 9.38405C49.2949 9.38405 49.0018 9.15102 48.6991 9.04772C48.6991 9.04772 48.2595 9.20147 47.9568 9.21829C47.9568 9.21829 48.0986 8.95644 48.1466 8.8147C48.1466 8.8147 47.7863 8.65375 47.6589 8.61051L48.31 8.37509C48.3076 8.37749 48.4397 8.13486 48.3868 7.87061Z" fill="white"/>
<path d="M51.7957 7.95459C51.7957 7.95459 53.1506 8.82902 53.7536 9.38155C53.7536 9.38155 56.0046 9.06445 56.5955 9.05003C56.5955 9.05003 56.449 9.97491 55.255 11.4139C55.255 11.4139 55.8196 12.8553 55.5001 14.1453C55.5001 14.1453 54.3061 13.1988 53.0617 12.7688C53.0617 12.7688 51.2649 13.3958 50.0229 13.4678C50.0229 13.4678 50.6018 12.3988 50.7964 11.8175C50.7964 11.8175 49.319 11.1544 48.8025 10.9791L51.4594 10.0206C51.4618 10.023 52.0047 9.03802 51.7957 7.95459Z" fill="white"/>
<path d="M55.2596 6.32812C55.2596 6.32812 56.0668 6.84942 56.4247 7.17853C56.4247 7.17853 57.7652 6.98875 58.1184 6.97914C58.1184 6.97914 58.0319 7.52927 57.3208 8.38688C57.3208 8.38688 57.6571 9.2445 57.4673 10.0132C57.4673 10.0132 56.7563 9.44869 56.0164 9.19405C56.0164 9.19405 54.9449 9.56641 54.2074 9.60965C54.2074 9.60965 54.551 8.97304 54.6687 8.62711C54.6687 8.62711 53.7894 8.23314 53.4819 8.12744L55.0651 7.55569C55.0627 7.5605 55.3845 6.97434 55.2596 6.32812Z" fill="white"/>
<path d="M1.14109 14.8807C1.14109 14.4603 0.929684 14.1961 0 14.2826C0 13.3 0.826411 12.4736 2.45756 12.4736C4.1776 12.4736 5.14329 13.1222 5.70543 14.3522L7.86508 19.164L10.4452 13.7396C10.7959 13.0021 11.358 12.4929 12.2709 12.4929C13.6042 12.4929 14.272 12.7211 14.7813 13.1078C14.4834 13.5282 14.4305 14.5828 14.4305 15.9521V23.7836C14.0798 23.9758 13.3255 24.0286 12.7802 24.0286C11.8313 24.0286 11.4637 23.7836 11.3748 23.2911C11.3052 22.8179 11.286 21.2732 11.286 18.8829C11.286 17.2854 11.3028 16.2668 11.3028 16.2668L8.59779 22.2726C8.36957 22.4311 7.86028 22.5704 7.42066 22.5704C6.68316 22.5704 6.20991 22.3951 5.94566 21.7969L3.5746 16.4254V19.0583C3.5746 22.0419 3.786 22.9212 4.29529 23.4136C3.94455 23.7644 3.32958 24.0286 2.59208 24.0286C1.46781 24.0286 1.1339 23.344 1.1339 21.9579V14.8807H1.14109Z" fill="white"/>
<path d="M15.1536 17.0402C15.1536 16.0576 15.9439 15.2313 17.5943 15.2313C18.8747 15.2313 19.3672 15.7405 19.3672 16.5141V23.8362C19.0164 24.0284 18.4711 24.0645 17.8561 24.0645C16.9433 24.0645 16.3451 23.8723 16.3115 23.2044C16.2754 22.5726 16.2586 21.6237 16.2586 20.043C16.2586 18.323 16.2754 17.7777 16.2754 17.6383C16.2754 17.2155 16.0664 16.9537 15.1536 17.0402ZM17.6639 14.4241C16.5397 14.4241 16.0664 14.0565 16.0664 13.319C16.0664 12.5983 16.5397 12.1611 17.7697 12.1611C18.8939 12.1611 19.3672 12.6008 19.3672 13.2854C19.3672 13.9316 19.0669 14.4241 17.6639 14.4241Z" fill="white"/>
<path d="M20.9983 16.4442C20.9815 14.4959 20.8926 13.7224 20.6116 13.0017C21.0512 12.5981 21.7527 12.3867 22.3845 12.3867C23.5952 12.3867 24.1405 12.9128 24.1405 13.9146V21.6932C24.1405 22.1136 24.3519 22.361 25.2648 22.2721C25.2648 23.2547 24.4744 24.081 22.8241 24.081C21.719 24.081 21.0512 23.6414 21.0512 22.5003L20.9983 16.4442Z" fill="white"/>
<path d="M25.9495 16.4442C25.9327 14.4959 25.8438 13.7224 25.5627 13.0017C26.0024 12.5981 26.7038 12.3867 27.3356 12.3867C28.5464 12.3867 29.0917 12.9128 29.0917 13.9146V21.6932C29.0917 22.1136 29.3031 22.361 30.216 22.2721C30.216 23.2547 29.4256 24.081 27.7752 24.081C26.6702 24.081 26.0024 23.6414 26.0024 22.5003L25.9495 16.4442Z" fill="white"/>
<path d="M29.9854 17.0402C29.9854 16.0576 30.7757 15.2313 32.4261 15.2313C33.7089 15.2313 34.1989 15.7405 34.1989 16.5141V23.8362C33.8482 24.0284 33.3029 24.0645 32.6879 24.0645C31.7751 24.0645 31.1769 23.8723 31.1432 23.2044C31.1072 22.5726 31.0904 21.6237 31.0904 20.043C31.0904 18.323 31.1072 17.7777 31.1072 17.6383C31.1096 17.2155 30.8982 16.9537 29.9854 17.0402ZM32.4957 14.4241C31.3715 14.4241 30.8982 14.0565 30.8982 13.319C30.8982 12.5983 31.3715 12.1611 32.6014 12.1611C33.7257 12.1611 34.1989 12.6008 34.1989 13.2854C34.1989 13.9316 33.9011 14.4241 32.4957 14.4241Z" fill="white"/>
<path d="M39.6233 24.0981C36.8151 24.0981 35.0229 22.8874 35.0229 19.9902C35.0229 16.9345 36.8319 15.1616 39.8852 15.1616C42.7127 15.1616 44.4327 16.4252 44.4327 19.3416C44.4327 22.5703 42.4676 24.0981 39.6233 24.0981ZM39.6762 17.2156C38.4991 17.2156 38.1315 18.0396 38.1315 19.7956C38.1315 21.5349 38.5351 22.1667 39.7987 22.1667C40.8869 22.1667 41.3962 21.482 41.3962 19.5866C41.3962 18.0948 41.0263 17.2156 39.6762 17.2156Z" fill="white"/>
<path d="M48.8913 16.9346C49.2252 15.7767 50.1381 15.1953 51.5242 15.1953C53.4388 15.1953 54.7552 15.8968 54.7552 17.9339C54.7552 18.7243 54.7192 20.5668 54.7192 21.6911C54.7192 22.1115 54.9306 22.3589 55.8435 22.27C55.8435 23.2526 55.0531 24.079 53.4028 24.079C52.2977 24.079 51.6635 23.6393 51.6635 22.4983C51.6635 21.7247 51.6995 19.4954 51.6995 18.8804C51.6995 17.8619 51.2431 17.3526 50.0492 17.3526C49.2949 17.3526 48.9441 17.6865 48.9441 18.4408V23.8315C48.5934 24.0237 48.0144 24.0597 47.4331 24.0597C46.3617 24.0597 45.9052 23.7787 45.8884 23.1997C45.8355 22.5679 45.8356 21.8136 45.8356 20.8815C45.8356 19.1615 45.8884 17.6336 45.8884 17.6336C45.8884 17.2132 45.677 16.949 44.7473 17.0355C44.7473 16.0529 45.5377 15.2265 47.188 15.2265C48.3459 15.2313 48.8913 15.7238 48.8913 16.9346Z" fill="white"/>
<path d="M64.7897 21.6935C64.7897 22.1139 65.0707 22.3614 66.0004 22.2725C66.0004 23.255 65.1933 24.0814 63.6654 24.0814C62.5411 24.0814 62.0847 23.625 62.0847 22.6424V22.2917C61.8036 23.5553 60.8211 24.0814 59.2236 24.0814C57.2921 24.0814 56.2375 23.1157 56.2375 21.6935C56.2375 19.9375 57.4843 19.0246 60.0836 19.0246C60.6793 19.0246 61.2247 19.0606 61.8036 19.1303V18.7099C61.8036 17.6745 61.155 17.3574 60.1004 17.3574C59.029 17.3574 57.9768 17.797 57.2921 18.6042C56.8717 18.3231 56.7132 17.9892 56.7132 17.3934C56.7132 16.2355 58.1185 15.1978 60.9965 15.1978C63.6822 15.1978 64.7897 16.1803 64.7897 18.0421V21.6935V21.6935ZM60.5064 20.4467C59.5575 20.4467 59.1539 20.7446 59.1539 21.4125C59.1539 21.9218 59.4518 22.2725 60.3118 22.2725C61.1718 22.2725 61.77 21.7632 61.77 20.5524C61.2775 20.4636 61.0685 20.4467 60.5064 20.4467Z" fill="white"/>
<path d="M65.6353 17.0402C65.6353 16.0576 66.4256 15.2313 68.076 15.2313C69.3588 15.2313 69.8488 15.7405 69.8488 16.5141V23.8362C69.4981 24.0284 68.9528 24.0645 68.3378 24.0645C67.425 24.0645 66.8268 23.8723 66.7931 23.2044C66.7571 22.5726 66.7403 21.6237 66.7403 20.043C66.7403 18.323 66.7571 17.7777 66.7571 17.6383C66.7595 17.2155 66.5481 16.9537 65.6353 17.0402ZM68.1456 14.4241C67.0214 14.4241 66.5481 14.0565 66.5481 13.319C66.5481 12.5983 67.0213 12.1611 68.2513 12.1611C69.3756 12.1611 69.8488 12.6008 69.8488 13.2854C69.8488 13.9316 69.551 14.4241 68.1456 14.4241Z" fill="white"/>
<path d="M74.6823 16.9347C74.9105 15.7936 75.3838 15.2314 76.5248 15.2314C77.6299 15.2314 78.1584 15.8464 78.1584 16.7593C78.1584 17.1989 78.0359 17.7082 77.7908 18.2511C77.0702 18.0589 76.5272 17.9701 76.1044 17.9701C75.1219 17.9701 74.8745 18.4962 74.8745 19.4811V23.8532C74.5237 24.0454 73.803 24.0646 73.3634 24.0646C72.3617 24.0646 71.8524 23.8364 71.8188 23.2046C71.7827 22.556 71.7659 21.8185 71.7659 20.8864C71.7659 19.1664 71.7827 17.6385 71.7827 17.6385C71.7827 17.2181 71.5713 16.9539 70.6584 17.0404C70.6584 16.0578 71.4488 15.2314 73.0992 15.2314C74.1922 15.2314 74.7351 15.7407 74.6823 16.9347Z" fill="white"/>
<path d="M87.1741 18.3927C87.1741 19.6395 86.8931 20.132 86.2781 20.132H81.6441C81.6609 21.4484 82.3816 22.0466 84.0152 22.0466C85.0698 22.0466 86.1748 21.6598 86.9483 20.8695C87.1934 21.0977 87.2654 21.4148 87.2654 21.6934C87.2654 23.1156 85.7376 24.0813 82.963 24.0813C80.1547 24.0813 78.4683 22.8706 78.4683 20.0262C78.4683 17.0762 80.0297 15.1616 83.244 15.1616C85.8241 15.1616 87.1741 16.5477 87.1741 18.3927ZM84.3298 18.4095C84.3298 17.672 83.7845 17.1627 82.9077 17.1627C81.978 17.1627 81.7306 17.7945 81.6609 18.7266H84.313C84.3299 18.6209 84.3298 18.532 84.3298 18.4095Z" fill="white"/>
<path d="M31.2993 35.7711C31.5444 36.1051 31.9143 36.2276 32.7743 36.1387C32.7743 37.1212 32.02 38.0005 30.3696 38.0005C29.315 38.0005 28.9835 37.8083 28.2628 36.5783L26.8239 34.1208C26.4203 34.1208 25.8221 34.0847 25.666 34.0679V37.6329C25.666 37.6329 24.8588 37.8611 24.0156 37.8611C23.0859 37.8611 22.6102 37.544 22.5238 37.0708C22.4709 36.6143 22.4541 35.1393 22.4541 32.7515C22.4541 31.1539 22.4709 28.7493 22.4709 28.7493C22.4709 28.3289 22.2595 28.0646 21.3298 28.1511C21.3298 27.1686 22.137 26.4647 23.7706 26.4647L26.9488 26.4479C30.5474 26.4311 31.847 28.2376 31.847 30.169C31.847 31.889 31.1096 33.0662 29.8099 33.6812L31.2993 35.7711ZM25.6612 28.4322V32.2782C26.0647 32.3143 26.4515 32.3311 27.0833 32.3311C28.294 32.3311 28.9091 31.8578 28.9091 30.5918C28.9115 29.064 27.5926 28.2928 25.6612 28.4322Z" fill="white"/>
<path d="M41.7997 35.5597C41.7997 35.9801 42.0808 36.2276 43.0105 36.1387C43.0105 37.1212 42.2033 37.9476 40.6754 37.9476C39.5512 37.9476 39.0947 37.4912 39.0947 36.5086V36.1579C38.8136 37.4215 37.8311 37.9476 36.2336 37.9476C34.3022 37.9476 33.2476 36.9819 33.2476 35.5597C33.2476 33.8037 34.4943 32.8908 37.0936 32.8908C37.6894 32.8908 38.2347 32.9268 38.8137 32.9965V32.5761C38.8137 31.5407 38.1651 31.2236 37.1105 31.2236C36.039 31.2236 34.9868 31.6632 34.3022 32.4704C33.8818 32.1893 33.7232 31.8554 33.7232 31.2597C33.7232 30.1018 35.1286 29.064 38.0065 29.064C40.6923 29.064 41.7997 30.0465 41.7997 31.9083V35.5597V35.5597ZM37.5164 34.3154C36.5675 34.3154 36.1639 34.6132 36.1639 35.2811C36.1639 35.7904 36.4618 36.1411 37.3218 36.1411C38.1818 36.1411 38.78 35.6318 38.78 34.4211C38.2876 34.3322 38.0762 34.3154 37.5164 34.3154Z" fill="white"/>
<path d="M47.0944 26.0801C48.2186 26.0801 49.1123 26.4837 49.1123 27.5719C49.1123 27.7112 49.0955 27.8698 49.0595 28.0451C48.3388 27.9394 47.8295 27.8866 47.4787 27.8866C46.7412 27.8866 46.6355 28.098 46.6355 28.3791C46.6355 28.6073 46.6884 28.9052 46.758 29.2223C47.6541 29.2223 48.3388 29.2055 48.9009 29.1166C48.9898 29.328 49.0234 29.537 49.0234 29.7316C49.0234 30.5916 48.2499 31.2426 47.1448 31.2426H46.8998V37.6855C46.5491 37.8609 46.0398 37.9306 45.4248 37.9306C44.5119 37.9306 43.9858 37.7192 43.933 37.0537C43.9161 36.4219 43.8969 35.6844 43.8969 34.7547C43.8969 33.0347 43.9138 31.1897 43.9138 31.1897H42.8087C42.703 31.0312 42.6501 30.803 42.6501 30.6108C42.6501 29.9261 43.0537 29.2055 44.0026 29.1358C44.1444 27.4302 44.9347 26.0801 47.0944 26.0801Z" fill="white"/>
<path d="M53.8495 26.0801C55.1323 26.0801 56.0981 26.5894 55.817 28.0475C53.6213 27.6968 53.3931 27.9587 53.3931 28.3815C53.3931 28.6097 53.4459 28.9076 53.5156 29.2247C54.4116 29.2247 55.0963 29.2079 55.6584 29.119C56.1149 30.2769 55.2548 31.2426 53.9023 31.2426H53.6573V37.6855C53.3066 37.8609 52.7973 37.9306 52.1823 37.9306C51.2695 37.9306 50.7433 37.7191 50.6905 37.0537C50.6737 36.4219 50.6545 35.6844 50.6545 34.7547C50.6545 33.0347 50.6713 31.1897 50.6713 31.1897H49.5638C49.4581 31.0312 49.4053 30.803 49.4053 30.6108C49.4053 29.9261 49.8089 29.2055 50.7578 29.1358C50.8995 27.4302 51.6898 26.0801 53.8495 26.0801ZM56.7995 30.3105C56.7635 28.3622 56.6938 27.5887 56.3959 26.868C56.8355 26.4644 57.5538 26.253 58.1856 26.253C59.3796 26.253 59.9249 26.7791 59.9249 27.7809V35.5595C59.9249 35.9799 60.1363 36.2273 61.066 36.1384C61.066 37.121 60.2588 37.9474 58.6252 37.9474C57.501 37.9474 56.8356 37.5077 56.8356 36.3667L56.7995 30.3105Z" fill="white"/>
<path d="M70.1082 32.2589C70.1082 33.5057 69.8271 33.9982 69.2121 33.9982H64.5757C64.5925 35.3146 65.3132 35.9128 66.9468 35.9128C68.0014 35.9128 69.1064 35.526 69.88 34.7357C70.125 34.9639 70.1971 35.281 70.1971 35.5596C70.1971 36.9818 68.6692 37.9475 65.8946 37.9475C63.0863 37.9475 61.3999 36.7368 61.3999 33.8925C61.3999 30.9425 62.9614 29.0278 66.1756 29.0278C68.7581 29.0302 70.1082 30.4164 70.1082 32.2589ZM67.2639 32.2781C67.2639 31.5406 66.7186 31.0313 65.8417 31.0313C64.912 31.0313 64.6646 31.6631 64.5949 32.5952H67.2471C67.2639 32.4871 67.2639 32.4006 67.2639 32.2781Z" fill="white"/>
</svg>
