<svg width="104" height="43" viewBox="0 0 104 43" fill="none" xmlns="http://www.w3.org/2000/svg">
<path d="M5.6653 14.5838L5.6433 24.2964H6.96796C9.28489 24.2964 11.0079 23.9004 11.5163 23.3921C11.7582 23.656 11.8242 23.9664 11.8242 24.3843C11.8242 25.775 10.4556 26.9237 6.61602 26.9237C2.3341 26.9237 1.86974 26.7257 1.69377 25.819C1.62778 25.2446 1.60578 23.502 1.60578 20.4983V15.4661C1.60578 14.9358 1.34183 14.6058 0.171143 14.7158C0.171143 13.4791 1.16341 12.4429 3.23839 12.4429C4.87099 12.4429 5.6653 13.0612 5.6653 14.5838Z" fill="white"/>
<path d="M16.8785 27.056C13.3469 27.056 11.0959 25.5334 11.0959 21.8918C11.0959 18.0498 13.3689 15.8208 17.2109 15.8208C20.7645 15.8208 22.9274 17.4094 22.9274 21.0754C22.9274 25.135 20.4541 27.056 16.8785 27.056ZM16.9445 18.4017C15.4659 18.4017 15.0015 19.4404 15.0015 21.6474C15.0015 23.8323 15.5098 24.6266 17.0985 24.6266C18.4671 24.6266 19.1074 23.7663 19.1074 21.3809C19.1074 19.5064 18.6455 18.4017 16.9445 18.4017Z" fill="white"/>
<path d="M24.4208 23.9639C24.4208 21.8009 24.4648 18.5333 24.4648 18.5333H23.0742C22.9422 18.3353 22.8762 18.0469 22.8762 17.8049C22.8762 16.9446 23.3846 16.0379 24.5773 15.9499C24.6872 14.4053 25.4815 13.0146 27.3585 13.0146C27.6665 13.0146 28.0429 13.0587 28.3728 13.1466C28.2628 14.0729 28.2408 15.0676 28.2408 16.0159H28.6392C29.8319 16.0159 30.5822 15.9059 31.0661 15.6175C31.2861 15.9035 31.3741 16.2579 31.3741 16.6098C31.3741 17.9345 30.1154 18.5528 29.1011 18.5528H28.2408V23.4311C28.2408 24.0934 28.4828 24.2914 29.2331 24.2914C30.0934 24.2914 30.9317 23.9834 31.66 23.519C31.836 23.783 31.924 24.0494 31.924 24.4453C31.924 25.902 30.4233 27.0287 28.1064 27.0287C25.5451 27.0336 24.4208 26.2368 24.4208 23.9639Z" fill="white"/>
<path d="M33.0114 23.9639C33.0114 21.8009 33.0554 18.5333 33.0554 18.5333H31.6648C31.5328 18.3353 31.4668 18.0469 31.4668 17.8049C31.4668 16.9446 31.9752 16.0379 33.1678 15.9499C33.2778 14.4053 34.0721 13.0146 35.9491 13.0146C36.2571 13.0146 36.6335 13.0587 36.9634 13.1466C36.8534 14.0729 36.8314 15.0676 36.8314 16.0159H37.2298C38.4225 16.0159 39.1728 15.9059 39.6567 15.6175C39.8767 15.9035 39.9646 16.2579 39.9646 16.6098C39.9646 17.9345 38.706 18.5528 37.6917 18.5528H36.8314V23.4311C36.8314 24.0934 37.0734 24.2914 37.8237 24.2914C38.684 24.2914 39.5223 23.9834 40.2506 23.519C40.4266 23.783 40.5146 24.0494 40.5146 24.4453C40.5146 25.902 39.0139 27.0287 36.697 27.0287C34.1381 27.0336 33.0114 26.2368 33.0114 23.9639Z" fill="white"/>
<path d="M46.3558 27.056C42.8242 27.056 40.5732 25.5334 40.5732 21.8918C40.5732 18.0498 42.8462 15.8208 46.6882 15.8208C50.2418 15.8208 52.4047 17.4094 52.4047 21.0754C52.4047 25.135 49.9314 27.056 46.3558 27.056ZM46.4218 18.4017C44.9431 18.4017 44.4788 19.4404 44.4788 21.6474C44.4788 23.8323 44.9871 24.6266 46.5758 24.6266C47.9444 24.6266 48.5847 23.7663 48.5847 21.3809C48.5872 19.5064 48.1228 18.4017 46.4218 18.4017Z" fill="white"/>
<path d="M40.5902 3.62744C40.5902 3.62744 41.4407 4.17733 41.8195 4.52438C41.8195 4.52438 43.2346 4.32397 43.6061 4.31664C43.6061 4.31664 43.5132 4.89586 42.7629 5.80259C42.7629 5.80259 43.1197 6.70689 42.9169 7.52075C42.9169 7.52075 42.1665 6.92439 41.3845 6.65311C41.3845 6.65311 40.2553 7.04661 39.4732 7.09304C39.4732 7.09304 39.8374 6.42094 39.9596 6.05678C39.9596 6.05678 39.0309 5.63885 38.7058 5.53131L40.3775 4.92765C40.38 4.9252 40.7221 4.30688 40.5902 3.62744Z" fill="white"/>
<path d="M38.2488 1.396C38.2488 1.396 38.6716 1.66972 38.8622 1.84324C38.8622 1.84324 39.5661 1.74303 39.7519 1.74058C39.7519 1.74058 39.7054 2.02898 39.3315 2.48113C39.3315 2.48113 39.5075 2.93083 39.4097 3.33653C39.4097 3.33653 39.0358 3.0408 38.6472 2.90638C38.6472 2.90638 38.0851 3.10191 37.6965 3.12635C37.6965 3.12635 37.8773 2.79152 37.9384 2.61067C37.9384 2.61067 37.4765 2.40291 37.3152 2.34914L38.1462 2.04853C38.1462 2.0412 38.3148 1.73327 38.2488 1.396Z" fill="white"/>
<path d="M42.8509 1C42.8509 1 43.3788 1.34214 43.6158 1.55721C43.6158 1.55721 44.4957 1.43259 44.7254 1.4277C44.7254 1.4277 44.6668 1.7894 44.2024 2.35152C44.2024 2.35152 44.4224 2.91364 44.2977 3.41711C44.2977 3.41711 43.8309 3.04807 43.347 2.87944C43.347 2.87944 42.6456 3.12384 42.1616 3.15316C42.1616 3.15316 42.3865 2.73524 42.4647 2.51039C42.4647 2.51039 41.8879 2.25133 41.6875 2.1829L42.7262 1.80895C42.7213 1.80895 42.9315 1.42282 42.8509 1Z" fill="white"/>
<path d="M46.7467 3.14355C46.7467 3.14355 47.0913 3.36599 47.2452 3.50529C47.2452 3.50529 47.8171 3.42462 47.9687 3.41973C47.9687 3.41973 47.932 3.65438 47.6265 4.02098C47.6265 4.02098 47.7707 4.38757 47.6901 4.71507C47.6901 4.71507 47.387 4.4731 47.0693 4.36556C47.0693 4.36556 46.6122 4.52445 46.297 4.544C46.297 4.544 46.4436 4.27269 46.4949 4.12361C46.4949 4.12361 46.1185 3.95497 45.989 3.91098L46.6636 3.66658C46.6611 3.66902 46.8004 3.41728 46.7467 3.14355Z" fill="white"/>
<path d="M38.3956 8.20508C38.3956 8.20508 38.7426 8.42993 38.8991 8.57168C38.8991 8.57168 39.4758 8.491 39.6274 8.48612C39.6274 8.48612 39.5907 8.72321 39.2828 9.09226C39.2828 9.09226 39.427 9.4613 39.3463 9.79369C39.3463 9.79369 39.0408 9.54927 38.7206 9.43929C38.7206 9.43929 38.2587 9.60059 37.941 9.6177C37.941 9.6177 38.0901 9.34397 38.139 9.19489C38.139 9.19489 37.7602 9.02381 37.6282 8.97981L38.3101 8.73296C38.3101 8.73541 38.4494 8.48125 38.3956 8.20508Z" fill="white"/>
<path d="M41.9687 8.29297C41.9687 8.29297 43.3887 9.20947 44.0217 9.78871C44.0217 9.78871 46.3826 9.45631 47.0009 9.4392C47.0009 9.4392 46.8469 10.4095 45.5956 11.9174C45.5956 11.9174 46.1895 13.4278 45.8522 14.7818C45.8522 14.7818 44.6009 13.7871 43.2958 13.3374C43.2958 13.3374 41.4114 13.9949 40.1112 14.0706C40.1112 14.0706 40.7173 12.9488 40.9226 12.3402C40.9226 12.3402 39.3756 11.6462 38.833 11.4629L41.6192 10.4584C41.6192 10.4608 42.1862 9.42699 41.9687 8.29297Z" fill="white"/>
<path d="M45.6028 6.58691C45.6028 6.58691 46.4485 7.13191 46.8248 7.47896C46.8248 7.47896 48.2301 7.281 48.5992 7.27122C48.5992 7.27122 48.5088 7.84802 47.7609 8.74742C47.7609 8.74742 48.1128 9.64681 47.9149 10.4533C47.9149 10.4533 47.1694 9.86188 46.3922 9.59304C46.3922 9.59304 45.2704 9.98409 44.4957 10.0305C44.4957 10.0305 44.8574 9.36332 44.9796 8.99916C44.9796 8.99916 44.0582 8.58612 43.7356 8.47614L45.3951 7.87733C45.3951 7.87978 45.7324 7.26391 45.6028 6.58691Z" fill="white"/>
<path d="M3.78578 29.2382C5.22042 29.2382 5.93652 29.1063 6.22736 28.8276C6.50598 29.0403 6.61351 29.292 6.61351 29.6366C6.61351 30.2745 6.12227 31.1226 4.40901 31.1226C3.7589 31.1226 2.25827 31.0957 2.25827 31.0957V32.4888C2.36337 32.4619 2.92305 32.435 3.43873 32.435C5.86809 32.435 6.76993 33.5641 6.76993 35.1161C6.76993 36.8416 5.44283 37.9169 2.83995 37.9169C0.782086 37.9169 0 37.1862 0 36.3894C0 35.991 0.158861 35.6318 0.410595 35.38C0.782086 35.9642 1.64482 36.3625 2.85461 36.3625C3.87621 36.3625 4.40901 36.1377 4.40901 35.4607C4.40901 34.7959 4.03752 34.2118 2.33893 34.2118C2.03342 34.2118 1.05093 34.224 0.745425 34.2778C0.598784 34.1043 0.5719 33.7328 0.5719 33.3222V29.2333H3.78578V29.2382Z" fill="white"/>
<path d="M9.93502 33.5124C10.4654 33.5124 10.7978 33.4318 11.0495 33.3267C11.1424 33.4318 11.2084 33.7128 11.2084 33.8986C11.2084 34.5365 10.81 35.0937 9.456 35.0937L7.62298 35.0815C7.34437 34.3776 7.82095 33.5149 8.83033 33.5149H9.93502V33.5124Z" fill="white"/>
<path d="M22.6587 33.5124C23.189 33.5124 23.5214 33.4318 23.7731 33.3267C23.866 33.4318 23.932 33.7128 23.932 33.8986C23.932 34.5365 23.5336 35.0937 22.1796 35.0937L20.3466 35.0815C20.068 34.3776 20.5446 33.5149 21.554 33.5149H22.6587V33.5124Z" fill="white"/>
<path d="M34.2334 33.5124C34.7637 33.5124 35.0961 33.4318 35.3478 33.3267C35.4407 33.4318 35.5067 33.7128 35.5067 33.8986C35.5067 34.5365 35.1083 35.0937 33.7543 35.0937L31.9213 35.0815C31.6427 34.3776 32.1193 33.5149 33.1287 33.5149H34.2334V33.5124Z" fill="white"/>
<path d="M45.3391 33.5124C45.8694 33.5124 46.2018 33.4318 46.4536 33.3267C46.5464 33.4318 46.6124 33.7128 46.6124 33.8986C46.6124 34.5365 46.214 35.0937 44.86 35.0937L43.027 35.0815C42.7484 34.3776 43.225 33.5149 44.2344 33.5149H45.3391V33.5124Z" fill="white"/>
<path d="M19.0268 34.642C19.1196 34.774 19.1734 34.9475 19.1734 35.1455C19.1734 35.8225 18.709 36.3529 17.8854 36.3944V37.0176C17.8854 37.7606 17.4748 38.0001 16.6903 38.0001C16.199 38.0001 15.7615 37.8804 15.4169 37.6555C15.5367 37.416 15.6027 36.9516 15.6027 36.4066H11.8731C11.6605 36.1549 11.5823 35.8225 11.5823 35.517C11.5823 35.2262 11.6214 34.9866 11.8609 34.6811L15.4707 29.3703C15.6565 29.2774 16.0939 29.1968 16.3872 29.1968C17.5017 29.1968 17.9001 29.6342 17.9001 30.8025C17.9001 31.3866 17.8732 34.8791 17.8732 34.8791C18.1909 34.8816 18.7481 34.84 19.0268 34.642ZM15.6149 31.5626L13.4373 34.8815H15.6149V31.5626Z" fill="white"/>
<path d="M29.1424 33.315C30.4695 33.5008 31.0928 34.3366 31.0928 35.2531C31.0928 36.9664 29.8048 37.922 27.0846 37.922C25.0145 37.922 24.2446 37.1912 24.2446 36.3945C24.2446 35.9961 24.4035 35.6368 24.6552 35.3851C25.0145 35.9692 25.8895 36.3676 27.0968 36.3676C28.2528 36.3676 28.6634 36.089 28.6634 35.4657C28.6634 34.7619 28.0671 34.4955 27.0161 34.4955C26.8035 34.4955 26.4589 34.5493 26.2194 34.6935C25.9408 34.4539 25.8088 34.0433 25.8088 33.7232C25.8088 33.2441 26.1265 32.9264 26.7253 32.9264C27.8544 32.9264 28.3726 32.6478 28.3726 31.8511C28.3726 31.3207 27.9473 30.8563 27.0039 30.8563C26.1021 30.8563 25.3982 31.3745 25.2247 31.9439C24.6943 31.7851 24.4939 31.3989 24.4939 30.8417C24.4939 30.018 25.3713 29.1431 27.588 29.1431C29.6459 29.1431 30.775 30.2576 30.775 31.5187C30.775 32.2665 30.3522 33.0095 29.1424 33.315Z" fill="white"/>
<path d="M41.8905 31.8021C41.8905 33.2637 41.1744 34.1924 38.4909 36.1965H40.2823C41.4237 36.1965 41.888 36.1305 42.1667 35.9301C42.2595 36.0621 42.3133 36.2356 42.3133 36.4336C42.3133 37.1106 41.7561 37.8267 40.5732 37.8267H36.3377C36.02 37.8267 35.7536 37.8267 35.6338 37.8389C35.4749 37.6409 35.3943 37.267 35.3943 37.003C35.3943 36.6047 35.514 36.4727 35.7804 36.2869C39.0065 33.9504 39.6029 33.2734 39.6029 32.1321C39.6029 31.3891 39.1239 30.9248 38.2489 30.9248C37.3202 30.9248 36.6285 31.5626 36.4574 32.1468C35.9002 31.9879 35.6998 31.6017 35.6998 31.0176C35.6998 30.1671 36.6701 29.1333 38.701 29.1333C40.908 29.1333 41.8905 30.4066 41.8905 31.8021Z" fill="white"/>
<path d="M46.7907 37.8291C46.71 37.6824 46.6587 37.4844 46.6587 37.2987C46.6587 36.6877 47.0962 36.2502 49.0343 36.2234V31.2449C48.4624 31.3255 47.932 31.9488 47.8123 32.3325C47.321 32.2127 47.0302 31.8021 47.0302 31.2962C47.0302 30.3406 48.5846 29.1992 50.2441 29.1992C51.119 29.1992 51.3194 29.4119 51.3194 29.8371V36.2087C52.4608 36.2087 52.9252 36.1427 53.2038 35.9569C53.2966 36.0767 53.3504 36.2478 53.3504 36.4482C53.3504 37.1252 52.7932 37.8291 51.6103 37.8291H46.7907Z" fill="white"/>
</svg>
