<svg width="104" height="43" viewBox="0 0 104 43" fill="none" xmlns="http://www.w3.org/2000/svg">
<path d="M6.31106 19.6386L6.28579 30.8225H7.80741C10.4688 30.8225 12.4481 30.3666 13.032 29.7812C13.3099 30.0851 13.3857 30.4426 13.3857 30.9238C13.3857 32.5251 11.8136 33.8478 7.40314 33.8478C2.48456 33.8478 1.95115 33.6199 1.74902 32.5758C1.67322 31.9144 1.64795 29.9079 1.64795 26.4491V20.6546C1.64795 20.0439 1.34475 19.664 0 19.7906C0 18.3666 1.13981 17.1733 3.5233 17.1733C5.39865 17.1733 6.31106 17.8853 6.31106 19.6386Z" fill="white"/>
<path d="M19.1919 33.9996C15.1352 33.9996 12.5496 32.2464 12.5496 28.0531C12.5496 23.6291 15.1605 21.0625 19.5737 21.0625C23.6557 21.0625 26.1402 22.8918 26.1402 27.1132C26.1402 31.7876 23.2991 33.9996 19.1919 33.9996ZM19.2677 24.0344C17.5692 24.0344 17.0358 25.2304 17.0358 27.7717C17.0358 30.2876 17.6197 31.2023 19.4446 31.2023C21.0167 31.2023 21.7523 30.2117 21.7523 27.4649C21.7523 25.3064 21.2217 24.0344 19.2677 24.0344Z" fill="white"/>
<path d="M27.8553 30.4399C27.8553 27.9493 27.9059 24.1866 27.9059 24.1866H26.3085C26.1569 23.9587 26.0811 23.6266 26.0811 23.348C26.0811 22.3574 26.665 21.3133 28.035 21.212C28.1613 19.4333 29.0738 17.832 31.2298 17.832C31.5836 17.832 32.0159 17.8827 32.3949 17.984C32.2686 19.0506 32.2433 20.196 32.2433 21.2879H32.7009C34.0709 21.2879 34.9328 21.1613 35.4887 20.8292C35.7414 21.1585 35.8424 21.5666 35.8424 21.9718C35.8424 23.4971 34.3966 24.2091 33.2315 24.2091H32.2433V29.8264C32.2433 30.5891 32.5213 30.817 33.3831 30.817C34.3713 30.817 35.3343 30.4624 36.1709 29.9277C36.373 30.2317 36.4741 30.5384 36.4741 30.9943C36.4741 32.6716 34.7503 33.969 32.0889 33.969C29.1467 33.9746 27.8553 33.06 27.8553 30.4399Z" fill="white"/>
<path d="M37.7235 30.4399C37.7235 27.9493 37.774 24.1866 37.774 24.1866H36.1766C36.025 23.9587 35.9492 23.6266 35.9492 23.348C35.9492 22.3574 36.5332 21.3133 37.9032 21.212C38.0295 19.4333 38.9419 17.832 41.098 17.832C41.4517 17.832 41.8841 17.8827 42.2631 17.984C42.1368 19.0506 42.1115 20.196 42.1115 21.2879H42.5691C43.9391 21.2879 44.801 21.1613 45.3569 20.8292C45.6095 21.1585 45.7106 21.5666 45.7106 21.9718C45.7106 23.4971 44.2648 24.2091 43.0997 24.2091H42.1115V29.8264C42.1115 30.5891 42.3894 30.817 43.2513 30.817C44.2395 30.817 45.2024 30.4624 46.0391 29.9277C46.2412 30.2317 46.3423 30.5384 46.3423 30.9943C46.3423 32.6716 44.6185 33.969 41.9571 33.969C39.0177 33.9746 37.7235 33.06 37.7235 30.4399Z" fill="white"/>
<path d="M53.0518 33.9996C48.9951 33.9996 46.4094 32.2464 46.4094 28.0531C46.4094 23.6291 49.0203 21.0625 53.4336 21.0625C57.5155 21.0625 60.0001 22.8918 60.0001 27.1132C60.0001 31.7876 57.159 33.9996 53.0518 33.9996ZM53.1276 24.0344C51.4291 24.0344 50.8957 25.2304 50.8957 27.7717C50.8957 30.2876 51.4796 31.2023 53.3044 31.2023C54.8766 31.2023 55.6121 30.2117 55.6121 27.4649C55.6149 25.3064 55.0815 24.0344 53.1276 24.0344Z" fill="white"/>
<path d="M46.4284 7.02246C46.4284 7.02246 47.4054 7.65567 47.8406 8.05529C47.8406 8.05529 49.4661 7.82452 49.8928 7.81608C49.8928 7.81608 49.7861 8.48306 48.9242 9.52715C48.9242 9.52715 49.3341 10.5684 49.1011 11.5056C49.1011 11.5056 48.2392 10.8189 47.3408 10.5065C47.3408 10.5065 46.0438 10.9596 45.1454 11.0131C45.1454 11.0131 45.5637 10.2392 45.7041 9.81983C45.7041 9.81983 44.6373 9.33859 44.2639 9.21477L46.1842 8.51965C46.187 8.51683 46.58 7.80482 46.4284 7.02246Z" fill="white"/>
<path d="M43.7397 4.45312C43.7397 4.45312 44.2254 4.76832 44.4443 4.96813C44.4443 4.96813 45.2529 4.85275 45.4662 4.84994C45.4662 4.84994 45.4129 5.18202 44.9834 5.70266C44.9834 5.70266 45.1855 6.22048 45.0732 6.68765C45.0732 6.68765 44.6437 6.34712 44.1973 6.19234C44.1973 6.19234 43.5516 6.41748 43.1052 6.44562C43.1052 6.44562 43.3129 6.06007 43.3831 5.85181C43.3831 5.85181 42.8525 5.6126 42.6672 5.55069L43.6218 5.20453C43.6218 5.1989 43.8155 4.84431 43.7397 4.45312Z" fill="white"/>
<path d="M49.026 4C49.026 4 49.6324 4.394 49.9047 4.64165C49.9047 4.64165 50.9154 4.49812 51.1793 4.49249C51.1793 4.49249 51.1119 4.90901 50.5785 5.55628C50.5785 5.55628 50.8312 6.20356 50.688 6.7833C50.688 6.7833 50.1518 6.35835 49.5959 6.16416C49.5959 6.16416 48.7902 6.44559 48.2343 6.47936C48.2343 6.47936 48.4926 5.99812 48.5825 5.73921C48.5825 5.73921 47.9199 5.4409 47.6897 5.3621L48.8828 4.93152C48.8772 4.92871 49.1187 4.48687 49.026 4Z" fill="white"/>
<path d="M53.5007 6.46533C53.5007 6.46533 53.8965 6.72143 54.0734 6.88184C54.0734 6.88184 54.7303 6.78897 54.9044 6.78334C54.9044 6.78334 54.8623 7.05351 54.5113 7.47565C54.5113 7.47565 54.677 7.89779 54.5843 8.2749C54.5843 8.2749 54.2362 7.99629 53.8712 7.87246C53.8712 7.87246 53.3463 8.05539 52.9841 8.0779C52.9841 8.0779 53.1526 7.76552 53.2115 7.59385C53.2115 7.59385 52.7792 7.39967 52.6304 7.34901L53.4052 7.06758C53.4024 7.0704 53.5624 6.78334 53.5007 6.46533Z" fill="white"/>
<path d="M43.9077 12.2935C43.9077 12.2935 44.3063 12.5524 44.486 12.7156C44.486 12.7156 45.1485 12.6227 45.3226 12.6171C45.3226 12.6171 45.2805 12.8901 44.9267 13.315C44.9267 13.315 45.0924 13.74 44.9997 14.1227C44.9997 14.1227 44.6488 13.8413 44.281 13.7147C44.281 13.7147 43.7504 13.9004 43.3855 13.9201C43.3855 13.9201 43.5567 13.6049 43.6129 13.4332C43.6129 13.4332 43.1777 13.2362 43.0261 13.1856L43.8094 12.9013C43.8094 12.9042 43.9694 12.6143 43.9077 12.2935Z" fill="white"/>
<path d="M48.0123 12.395C48.0123 12.395 49.6434 13.4504 50.3705 14.1173C50.3705 14.1173 53.0825 13.7346 53.7928 13.7149C53.7928 13.7149 53.6159 14.8322 52.1785 16.5686C52.1785 16.5686 52.8607 18.3078 52.4733 19.8669C52.4733 19.8669 51.0359 18.7215 49.5367 18.2036C49.5367 18.2036 47.3722 18.9607 45.8787 19.0479C45.8787 19.0479 46.5749 17.7562 46.8107 17.0554C46.8107 17.0554 45.0336 16.2562 44.4104 16.0451L47.6108 14.8885C47.6108 14.8913 48.2622 13.7008 48.0123 12.395Z" fill="white"/>
<path d="M52.1873 10.4307C52.1873 10.4307 53.1587 11.0582 53.591 11.4579C53.591 11.4579 55.2053 11.2299 55.6292 11.2187C55.6292 11.2187 55.5254 11.8828 54.6663 12.9185C54.6663 12.9185 55.0706 13.9541 54.8432 14.8828C54.8432 14.8828 53.9869 14.2018 53.0941 13.8922C53.0941 13.8922 51.8055 14.3425 50.9156 14.396C50.9156 14.396 51.3311 13.6277 51.4715 13.2083C51.4715 13.2083 50.4131 12.7327 50.0425 12.6061L51.9487 11.9166C51.9487 11.9194 52.3361 11.2102 52.1873 10.4307Z" fill="white"/>
</svg>
