<svg xmlns="http://www.w3.org/2000/svg" viewBox="0 0 79.15 29.83"><defs><style>.cls-1{fill:#fff;}</style></defs><g id="Layer_2" data-name="Layer 2"><g id="Layer_1-2" data-name="Layer 1"><path class="cls-1" d="M19.05,5.27c0-.43-.22-.71-1.19-.62,0-1,.86-1.87,2.55-1.87a3.26,3.26,0,0,1,3.37,2l2.24,5L28.7,4.09A2,2,0,0,1,30.59,2.8a4,4,0,0,1,2.6.63,6.61,6.61,0,0,0-.36,2.95V14.5a4.43,4.43,0,0,1-1.71.26c-1,0-1.37-.26-1.46-.77s-.09-2.09-.09-4.57c0-1.65,0-2.71,0-2.71l-2.81,6.23a2.49,2.49,0,0,1-1.21.31c-.77,0-1.26-.19-1.53-.81L21.58,6.87V9.6c0,3.1.22,4,.74,4.52a2.53,2.53,0,0,1-1.76.64c-1.17,0-1.51-.71-1.51-2.15Z"/><path class="cls-1" d="M43,8.91c0,1.3-.29,1.81-.92,1.81H37.23c0,1.36.76,2,2.46,2a4.28,4.28,0,0,0,3-1.22,1.16,1.16,0,0,1,.33.86c0,1.47-1.59,2.47-4.46,2.47s-4.66-1.25-4.66-4.2,1.62-5,5-5C41.56,5.56,43,7,43,8.91ZM40,8.93a1.31,1.31,0,0,0-1.48-1.29c-1,0-1.22.65-1.29,1.62H40A1.72,1.72,0,0,0,40,8.93Z"/><path class="cls-1" d="M48.2,12.83c-.32,0-1.11,0-1.41-.06-.06.35.16.49.6.55l3.89.47c1.42.17,1.88.82,1.88,1.82,0,2-1.42,3.64-5.19,3.64-3.1,0-4.77-.51-4.77-2.25,0-.91.55-1.46,1.6-1.79a.86.86,0,0,1-.56-.89c0-.53.32-1.09,1.36-1.84a2.63,2.63,0,0,1-2-2.8c0-2.5,1.39-4.13,4.63-4.13.74,0,2.22.18,3.09.18a3.23,3.23,0,0,0,1.95-.42,1.64,1.64,0,0,1,.22.87c0,.93-.68,1.57-1.82,1.62a2,2,0,0,1,1.18,1.82C52.81,11.79,51.21,12.83,48.2,12.83Zm2.26,3.86c0-.31-.11-.53-1.42-.7l-3-.4a1.36,1.36,0,0,0-.11.53c0,.8.87,1.35,2.47,1.35S50.46,17,50.46,16.69Zm-2.24-5.56c1.13,0,1.62-.52,1.62-1.74,0-1.06-.52-1.86-1.67-1.86s-1.51.76-1.51,1.86S47.19,11.13,48.22,11.13Z"/><path class="cls-1" d="M62.26,12.34c0,.43.29.69,1.25.6,0,1-.83,1.87-2.42,1.87-1.16,0-1.64-.47-1.64-1.49V13c-.29,1.32-1.31,1.86-3,1.86-2,0-3.1-1-3.1-2.47,0-1.82,1.29-2.77,4-2.77a13.09,13.09,0,0,1,1.78.11V9.24c0-1.07-.67-1.4-1.76-1.4a3.83,3.83,0,0,0-2.92,1.29,1.31,1.31,0,0,1-.6-1.25c0-1.21,1.46-2.28,4.44-2.28,2.79,0,3.94,1,3.94,3ZM57.82,11c-1,0-1.41.31-1.41,1,0,.53.31.9,1.2.9s1.52-.53,1.52-1.79A6,6,0,0,0,57.82,11Z"/><path class="cls-1" d="M12.18,27.34c0,.43.22.69,1.18.6,0,1-.83,1.87-2.53,1.87-1.2,0-1.74-.53-1.74-1.78a2.53,2.53,0,0,1-2.74,1.8c-2.47,0-3.78-1.07-3.78-4.19,0-3.37,1.75-5.08,4.84-5.08.46,0,1.13.06,1.6.11a6.16,6.16,0,0,0-.43-2.35,2.94,2.94,0,0,1,1.85-.63c1.26,0,1.75.54,1.75,1.58ZM9,26.46V22.73a4.92,4.92,0,0,0-1.38-.18c-1.22,0-1.86.87-1.86,2.75s.48,2.44,1.71,2.44C8.38,27.74,9,27.24,9,26.46Z"/><path class="cls-1" d="M22.1,27.34c0,.43.29.69,1.25.6,0,1-.83,1.87-2.42,1.87-1.16,0-1.64-.47-1.64-1.49V28c-.29,1.32-1.31,1.86-3,1.86-2,0-3.1-1-3.1-2.47,0-1.82,1.3-2.77,4-2.77a13.09,13.09,0,0,1,1.78.11v-.44c0-1.07-.67-1.4-1.76-1.4a3.81,3.81,0,0,0-2.91,1.29,1.3,1.3,0,0,1-.61-1.25c0-1.21,1.46-2.28,4.45-2.28,2.78,0,3.93,1,3.93,2.95ZM17.66,26c-1,0-1.41.31-1.41,1,0,.53.31.9,1.21.9S19,27.41,19,26.15A6,6,0,0,0,17.66,26Z"/><path class="cls-1" d="M33.09,29.48a4.15,4.15,0,0,1-1.71.31c-1.38,0-1.75-.29-2.09-1.22l-2-5.38c-.22-.61-.27-.75-1-.68,0-1,.81-1.87,2.53-1.87a1.17,1.17,0,0,1,1.27,1l1.62,5.08L32.45,25a7.1,7.1,0,0,0,.64-2.57,4.39,4.39,0,0,0-.18-1.25,1.92,1.92,0,0,1,1.4-.5c1.06,0,1.69.53,1.69,1.55a10.71,10.71,0,0,1-1.23,3.73C34.11,27.37,33.58,28.48,33.09,29.48Z"/><path class="cls-1" d="M35.56,22.51c0-1,.82-1.87,2.53-1.87,1.33,0,1.84.52,1.84,1.33v7.59a3.49,3.49,0,0,1-1.56.23c-.95,0-1.57-.2-1.6-.89s-.06-1.64-.06-3.28,0-2.34,0-2.49C36.73,22.69,36.51,22.42,35.56,22.51Zm2.61-2.71c-1.17,0-1.66-.38-1.66-1.15s.49-1.2,1.77-1.2,1.65.46,1.65,1.17S39.62,19.8,38.17,19.8Z"/><path class="cls-1" d="M44.83,22.4c.24-1.18.73-1.76,1.91-1.76a1.48,1.48,0,0,1,1.69,1.58,3.77,3.77,0,0,1-.38,1.55,7,7,0,0,0-1.75-.29c-1,0-1.27.54-1.27,1.56v4.53a4,4,0,0,1-1.57.22c-1,0-1.56-.23-1.6-.89s0-1.44,0-2.4c0-1.79,0-3.37,0-3.37,0-.44-.21-.71-1.16-.62,0-1,.82-1.87,2.53-1.87C44.32,20.64,44.88,21.16,44.83,22.4Z"/><path class="cls-1" d="M57,27.34c0,.43.29.69,1.25.6,0,1-.84,1.87-2.42,1.87-1.16,0-1.64-.47-1.64-1.49V28c-.29,1.32-1.31,1.86-3,1.86-2,0-3.1-1-3.1-2.47,0-1.82,1.29-2.77,4-2.77a13.09,13.09,0,0,1,1.78.11v-.44c0-1.07-.67-1.4-1.76-1.4a3.81,3.81,0,0,0-2.92,1.29,1.31,1.31,0,0,1-.6-1.25c0-1.21,1.46-2.28,4.44-2.28,2.79,0,3.94,1,3.94,2.95ZM52.56,26c-1,0-1.4.31-1.4,1,0,.53.31.9,1.2.9s1.51-.53,1.51-1.79A6,6,0,0,0,52.56,26Z"/><path class="cls-1" d="M68,27.34c0,.43.22.69,1.18.6,0,1-.83,1.87-2.53,1.87-1.2,0-1.74-.53-1.74-1.78a2.53,2.53,0,0,1-2.74,1.8c-2.47,0-3.78-1.07-3.78-4.19,0-3.37,1.75-5.08,4.84-5.08.46,0,1.13.06,1.6.11a6,6,0,0,0-.43-2.35,2.94,2.94,0,0,1,1.85-.63c1.26,0,1.75.54,1.75,1.58Zm-3.19-.88V22.73a4.92,4.92,0,0,0-1.38-.18c-1.22,0-1.86.87-1.86,2.75s.48,2.44,1.72,2.44C64.18,27.74,64.79,27.24,64.79,26.46Z"/><path class="cls-1" d="M77.9,27.34c0,.43.29.69,1.25.6,0,1-.83,1.87-2.42,1.87-1.16,0-1.63-.47-1.63-1.49V28c-.3,1.32-1.32,1.86-3,1.86-2,0-3.1-1-3.1-2.47,0-1.82,1.3-2.77,4-2.77a13.09,13.09,0,0,1,1.78.11v-.44c0-1.07-.67-1.4-1.76-1.4a3.81,3.81,0,0,0-2.91,1.29,1.29,1.29,0,0,1-.6-1.25c0-1.21,1.45-2.28,4.44-2.28,2.78,0,3.93,1,3.93,2.95ZM73.46,26c-1,0-1.4.31-1.4,1,0,.53.3.9,1.2.9s1.51-.53,1.51-1.79A6,6,0,0,0,73.46,26Z"/><path class="cls-1" d="M14.16,9.62l-1.64.82-1.8-1.11a1.49,1.49,0,0,0-.35-1.05.17.17,0,0,1,0-.23A1.2,1.2,0,0,0,10.72,7l1.86-1,1.64.81c0,.06.17.06.23.06A.54.54,0,0,0,15,6.47a.58.58,0,0,0-.29-.76l-.93-.46.58-.35a.66.66,0,0,0,.24-.82.65.65,0,0,0-.82-.23l-.58.35.05-1a.62.62,0,0,0-.52-.64.68.68,0,0,0-.64.52L11.94,4.9,10.08,6A1.23,1.23,0,0,0,9,5.77a.34.34,0,0,1-.24-.11,1.12,1.12,0,0,0-.64-.88V2.62l1.52-1A.56.56,0,0,0,9.78.82.56.56,0,0,0,9,.64l-.82.58V.58A.55.55,0,0,0,7.57,0,.55.55,0,0,0,7,.58v.64L6.17.64a.58.58,0,0,0-.82.18.56.56,0,0,0,.18.81l1.4,1V4.78a1.33,1.33,0,0,0-.7.88c0,.11-.12.17-.24.11A1.48,1.48,0,0,0,4.88,6L3,4.9,2.9,3.09a.52.52,0,0,0-.64-.52.52.52,0,0,0-.52.64l.05,1-.58-.35a.59.59,0,0,0-.76.23.6.6,0,0,0,.24.82l.58.35-.93.46a.5.5,0,0,0-.3.7.56.56,0,0,0,.53.35.39.39,0,0,0,.23,0l1.64-.82L4.3,6.94a1.44,1.44,0,0,0,.35,1,.17.17,0,0,1,0,.23,1.17,1.17,0,0,0-.35,1L2.44,10.32.8,9.51A.58.58,0,0,0,0,9.8a.58.58,0,0,0,.3.76l.93.46-.58.35a.65.65,0,0,0-.24.82.63.63,0,0,0,.53.29.52.52,0,0,0,.29-.06l.58-.35-.06,1a.63.63,0,0,0,.53.64h.06A.57.57,0,0,0,3,13.18l.12-1.81,1.86-1a1.22,1.22,0,0,0,1.11.18.3.3,0,0,1,.23.11h0a1.36,1.36,0,0,0,.7.88v2.16l-1.51,1a.59.59,0,1,0,.64,1l.82-.58v.7a.58.58,0,0,0,1.16,0V15.1l.82.59a.79.79,0,0,0,.35.11.73.73,0,0,0,.47-.23.59.59,0,0,0-.18-.82L8.09,13.7V11.55a1.33,1.33,0,0,0,.7-.88c0-.11.12-.17.24-.11a1.46,1.46,0,0,0,1.1-.18l1.87,1,.12,1.81a.57.57,0,0,0,.58.52h.06a.52.52,0,0,0,.52-.64l-.06-1,.59.35a.49.49,0,0,0,.29.06.7.7,0,0,0,.52-.29.59.59,0,0,0-.23-.82l-.58-.35.93-.47A.57.57,0,0,0,15,9.86.83.83,0,0,0,14.16,9.62Z"/><path class="cls-1" d="M2.84,8.75a.56.56,0,0,0,.59-.59.55.55,0,0,0-.59-.58H2.26a.55.55,0,0,0-.58.58.55.55,0,0,0,.58.59Z"/><path class="cls-1" d="M5.41,13l.29-.52a.6.6,0,1,0-1-.58l-.29.52a.6.6,0,0,0,.23.82.52.52,0,0,0,.29.06A.7.7,0,0,0,5.41,13Z"/><path class="cls-1" d="M10.37,11.9a.6.6,0,1,0-1,.58l.29.52a.61.61,0,0,0,.52.3.49.49,0,0,0,.29-.06.65.65,0,0,0,.24-.82Z"/><path class="cls-1" d="M12.17,7.58a.55.55,0,0,0-.58.58.55.55,0,0,0,.58.59h.59a.55.55,0,0,0,.58-.59.55.55,0,0,0-.58-.58Z"/><path class="cls-1" d="M9.61,3.32l-.29.53a.59.59,0,0,0,.23.82.61.61,0,0,0,.29,0,.69.69,0,0,0,.53-.29l.29-.52a.6.6,0,0,0-.24-.82A.63.63,0,0,0,9.61,3.32Z"/><path class="cls-1" d="M4.65,4.43a.6.6,0,0,0,.53.29.61.61,0,0,0,.29,0,.65.65,0,0,0,.23-.82l-.29-.53a.65.65,0,0,0-.82-.23.65.65,0,0,0-.23.82Z"/></g></g></svg>