<svg xmlns="http://www.w3.org/2000/svg" viewBox="0 0 72.29 25.38"><defs><style>.cls-1{fill:#fff;}</style></defs><g id="Layer_2" data-name="Layer 2"><g id="Layer_1-2" data-name="Layer 1"><path class="cls-1" d="M54.94,2.62a12.5,12.5,0,0,1,1.23.9s1.41-.2,1.78-.21a3.57,3.57,0,0,1-.84,1.49,3.27,3.27,0,0,1,.15,1.71,6.19,6.19,0,0,0-1.53-.86,9.11,9.11,0,0,1-1.9.44,8.89,8.89,0,0,0,.48-1s-.93-.42-1.25-.52C54,4.07,55.23,4.29,54.94,2.62Z"/><path class="cls-1" d="M52.6.39a7.07,7.07,0,0,1,.62.45s.7-.1.88-.1a1.68,1.68,0,0,1-.42.74,1.6,1.6,0,0,1,.08.85A3.19,3.19,0,0,0,53,1.9a4.24,4.24,0,0,1-1,.22,4.44,4.44,0,0,0,.24-.51s-.46-.21-.62-.26l.83-.3A1.12,1.12,0,0,0,52.6.39Z"/><path class="cls-1" d="M57.19,0A7.69,7.69,0,0,1,58,.56s.87-.13,1.1-.13a2.1,2.1,0,0,1-.52.92,2.07,2.07,0,0,1,.1,1.07,4,4,0,0,0-1-.54,5.75,5.75,0,0,1-1.18.27s.22-.42.3-.64c0,0-.58-.26-.78-.33l1-.37A1.32,1.32,0,0,0,57.19,0Z"/><path class="cls-1" d="M61.08,2.14a4.58,4.58,0,0,1,.5.36s.57-.08.72-.08A1.36,1.36,0,0,1,62,3a1.22,1.22,0,0,1,.06.69,2.48,2.48,0,0,0-.61-.35,3.73,3.73,0,0,1-.78.18,3.49,3.49,0,0,0,.2-.42s-.37-.17-.5-.21L61,2.66A.88.88,0,0,0,61.08,2.14Z"/><path class="cls-1" d="M52.75,7.2a3.86,3.86,0,0,1,.5.37s.58-.09.73-.09a1.51,1.51,0,0,1-.34.61,1.35,1.35,0,0,1,.06.7,2.46,2.46,0,0,0-.63-.36,3.75,3.75,0,0,1-.77.18,2.62,2.62,0,0,0,.19-.42S52.12,8,52,8l.68-.24A.89.89,0,0,0,52.75,7.2Z"/><path class="cls-1" d="M56.32,7.29a20.6,20.6,0,0,1,2,1.49s2.36-.33,3-.35a6,6,0,0,1-1.41,2.48,5.37,5.37,0,0,1,.26,2.86,10.23,10.23,0,0,0-2.55-1.44,14.6,14.6,0,0,1-3.18.73,14.72,14.72,0,0,0,.81-1.73s-1.54-.69-2.08-.88l2.78-1A3.64,3.64,0,0,0,56.32,7.29Z"/><path class="cls-1" d="M59.94,5.58a12.61,12.61,0,0,1,1.22.89s1.4-.19,1.77-.2a3.55,3.55,0,0,1-.83,1.47,3.27,3.27,0,0,1,.15,1.71,5.71,5.71,0,0,0-1.52-.86A8.71,8.71,0,0,1,58.84,9a8.48,8.48,0,0,0,.48-1s-.92-.41-1.24-.52l1.65-.6A2.12,2.12,0,0,0,59.94,5.58Z"/><path class="cls-1" d="M4.53,15.09l0,8h1.1c1.91,0,3.33-.33,3.75-.74a1.08,1.08,0,0,1,.25.81c0,1.15-1.13,2.1-4.29,2.1-3.54,0-3.92-.17-4.06-.91-.06-.48-.08-1.91-.08-4.39V15.82c0-.44-.22-.71-1.18-.62,0-1,.82-1.87,2.53-1.87C3.88,13.33,4.53,13.84,4.53,15.09Z"/><path class="cls-1" d="M14.52,25.38c-2.91,0-4.77-1.26-4.77-4.26,0-3.17,1.88-5,5.05-5,2.93,0,4.71,1.31,4.71,4.33C19.51,23.79,17.47,25.38,14.52,25.38Zm.06-7.14c-1.22,0-1.6.86-1.6,2.68s.42,2.45,1.73,2.45c1.12,0,1.65-.7,1.65-2.67C16.36,19.15,16,18.24,14.58,18.24Z"/><path class="cls-1" d="M20.91,22.83c0-1.79,0-4.48,0-4.48H19.8a1.12,1.12,0,0,1-.16-.6A1.45,1.45,0,0,1,21,16.22a2.28,2.28,0,0,1,2.29-2.42,3.52,3.52,0,0,1,.84.11,20.57,20.57,0,0,0-.11,2.37h.33a4.16,4.16,0,0,0,2-.33,1.34,1.34,0,0,1,.26.82,1.74,1.74,0,0,1-1.88,1.6h-.71v4c0,.55.2.71.82.71a3.71,3.71,0,0,0,2-.64,1.25,1.25,0,0,1,.22.77c0,1.2-1.24,2.13-3.15,2.13C21.84,25.36,20.91,24.7,20.91,22.83Z"/><path class="cls-1" d="M32,25.38c-2.92,0-4.77-1.26-4.77-4.26,0-3.17,1.87-5,5-5,2.93,0,4.71,1.31,4.71,4.33C37,23.79,35,25.38,32,25.38Zm0-7.14c-1.22,0-1.6.86-1.6,2.68s.42,2.45,1.73,2.45c1.13,0,1.65-.7,1.65-2.67C33.83,19.15,33.45,18.24,32.05,18.24Z"/><path class="cls-1" d="M41.68,13.05c1.16,0,2.09.42,2.09,1.55a3,3,0,0,1-.05.49,12.24,12.24,0,0,0-1.64-.16c-.77,0-.88.22-.88.51a4.71,4.71,0,0,0,.13.87,15.17,15.17,0,0,0,2.22-.11,1.7,1.7,0,0,1,.13.64c0,.89-.8,1.57-2,1.57h-.25v6.68a3.62,3.62,0,0,1-1.53.25c-1,0-1.49-.22-1.55-.91s0-1.42,0-2.38c0-1.79,0-3.7,0-3.7H37.24a1.13,1.13,0,0,1-.17-.6,1.45,1.45,0,0,1,1.4-1.53C38.62,14.46,39.44,13.05,41.68,13.05Z"/><path class="cls-1" d="M52.33,22.88c0,.44.29.7,1.25.6,0,1-.84,1.88-2.42,1.88-1.16,0-1.64-.47-1.64-1.49V23.5c-.29,1.31-1.31,1.86-3,1.86-2,0-3.1-1-3.1-2.48,0-1.82,1.29-2.76,4-2.76a13.09,13.09,0,0,1,1.78.11v-.44c0-1.08-.67-1.4-1.76-1.4a3.81,3.81,0,0,0-2.92,1.29,1.32,1.32,0,0,1-.6-1.26c0-1.2,1.46-2.27,4.44-2.27,2.79,0,3.94,1,3.94,3Zm-4.45-1.29c-1,0-1.4.31-1.4,1,0,.53.31.89,1.2.89s1.51-.52,1.51-1.78A6,6,0,0,0,47.88,21.59Z"/><path class="cls-1" d="M58.79,18.41c-1.21,0-1.82.56-1.82,2.34s.54,2.37,1.94,2.37a3.34,3.34,0,0,0,2.72-1.22A1.22,1.22,0,0,1,62.08,23c0,1.38-1.44,2.35-3.71,2.35-3,0-4.68-1.31-4.68-4.21,0-3.24,1.73-5,5-5,1.73,0,3,.78,3,1.89a1.4,1.4,0,0,1-.87,1.28A2.48,2.48,0,0,0,58.79,18.41Z"/><path class="cls-1" d="M61.88,18.06c0-1,.82-1.88,2.53-1.88,1.33,0,1.84.53,1.84,1.33V25.1a3.53,3.53,0,0,1-1.57.24c-.94,0-1.56-.2-1.6-.89s0-1.64,0-3.28,0-2.35,0-2.49C63,18.24,62.83,18,61.88,18.06Zm2.6-2.71c-1.16,0-1.65-.39-1.65-1.15s.49-1.2,1.76-1.2,1.66.45,1.66,1.16S65.94,15.35,64.48,15.35Z"/><path class="cls-1" d="M67.87,17.44a9.89,9.89,0,0,0-.4-3.57,2.79,2.79,0,0,1,1.83-.63c1.26,0,1.82.54,1.82,1.58v8.06c0,.44.22.7,1.17.6,0,1-.82,1.88-2.53,1.88-1.15,0-1.84-.46-1.84-1.64Z"/></g></g></svg>