<svg xmlns="http://www.w3.org/2000/svg" viewBox="0 0 49.63 35.29"><defs><style>.cls-1{fill:#fff;}</style></defs><g id="Layer_2" data-name="Layer 2"><g id="Layer_1-2" data-name="Layer 1"><path class="cls-1" d="M34.89,2.62a12.5,12.5,0,0,1,1.23.9s1.41-.2,1.78-.21a3.57,3.57,0,0,1-.84,1.49,3.27,3.27,0,0,1,.15,1.71,6.19,6.19,0,0,0-1.53-.86,9.28,9.28,0,0,1-1.91.44,8.41,8.41,0,0,0,.49-1s-.93-.42-1.25-.52C33.93,4.07,35.18,4.29,34.89,2.62Z"/><path class="cls-1" d="M32.55.39a7.48,7.48,0,0,1,.61.45s.71-.1.89-.1a1.68,1.68,0,0,1-.42.74,1.6,1.6,0,0,1,.08.85A3.19,3.19,0,0,0,33,1.9a4.24,4.24,0,0,1-1,.22,4.44,4.44,0,0,0,.24-.51s-.46-.21-.62-.26l.83-.3A1.12,1.12,0,0,0,32.55.39Z"/><path class="cls-1" d="M37.14,0a6.85,6.85,0,0,1,.76.56S38.78.43,39,.43a2.25,2.25,0,0,1-.52.92,2.07,2.07,0,0,1,.1,1.07,4,4,0,0,0-1-.54,5.73,5.73,0,0,1-1.19.27,6.63,6.63,0,0,0,.31-.64s-.58-.26-.78-.33l1-.37A1.51,1.51,0,0,0,37.14,0Z"/><path class="cls-1" d="M41,2.14a4.58,4.58,0,0,1,.5.36s.57-.08.72-.08a1.52,1.52,0,0,1-.34.6,1.32,1.32,0,0,1,.06.69,2.42,2.42,0,0,0-.62-.35,3.57,3.57,0,0,1-.77.18,3.49,3.49,0,0,0,.2-.42s-.38-.17-.5-.21L41,2.66A.88.88,0,0,0,41,2.14Z"/><path class="cls-1" d="M32.7,7.2a4.73,4.73,0,0,1,.5.37s.58-.09.73-.09a1.47,1.47,0,0,1-.35.61,1.3,1.3,0,0,1,.07.7A2.46,2.46,0,0,0,33,8.43a3.73,3.73,0,0,1-.78.18,3.49,3.49,0,0,0,.2-.42L31.93,8l.68-.24A.89.89,0,0,0,32.7,7.2Z"/><path class="cls-1" d="M36.26,7.29a20.32,20.32,0,0,1,2.05,1.49s2.36-.33,3-.35a5.9,5.9,0,0,1-1.4,2.48,5.37,5.37,0,0,1,.26,2.86,10.23,10.23,0,0,0-2.55-1.44,14.6,14.6,0,0,1-3.18.73,14.72,14.72,0,0,0,.81-1.73s-1.54-.69-2.09-.88l2.78-1A3.56,3.56,0,0,0,36.26,7.29Z"/><path class="cls-1" d="M39.89,5.58a14,14,0,0,1,1.22.89s1.4-.19,1.77-.2A3.51,3.51,0,0,1,42,7.74a3.34,3.34,0,0,1,.16,1.71,5.9,5.9,0,0,0-1.52-.86A8.71,8.71,0,0,1,38.79,9a8.48,8.48,0,0,0,.48-1s-.92-.41-1.24-.52l1.65-.6A2.12,2.12,0,0,0,39.89,5.58Z"/><path class="cls-1" d="M8.59,23.09c.77,1.26,1.15,1.5,1.77,1.5a2.47,2.47,0,0,0,1.55-.46,1.55,1.55,0,0,1,.23.82c0,.95-1,1.88-2.73,1.88s-2.66-1.06-3.73-3.35C2.09,23.4,0,21.93,0,18s2-6.63,6.06-6.63,5.88,2,5.88,5.68C11.94,20.13,10.92,22.24,8.59,23.09ZM5.88,13.81c-2.08,0-2.59,1.4-2.59,3.86s.9,3.59,2.84,3.59S8.76,20,8.76,17.41C8.76,15.16,8,13.81,5.88,13.81Z"/><path class="cls-1" d="M23.46,21.58c0,1-.82,1.88-2.53,1.88-1.2,0-1.76-.53-1.76-1.79a2.51,2.51,0,0,1-2.73,1.81c-2,0-3.25-.73-3.25-2.86,0-.8.08-2.7.08-3.84,0-.44-.22-.71-1.19-.62,0-1,.82-1.88,2.53-1.88,1.15,0,1.79.31,1.79,1.48,0,.82,0,3.26,0,3.89,0,1.06.37,1.59,1.6,1.59.79,0,1.15-.35,1.15-1.13V17.6a19,19,0,0,0-.18-3,3.14,3.14,0,0,1,1.53-.37c1.42,0,1.87.57,1.87,2.5,0,1.78,0,4.2,0,4.2C22.28,21.42,22.5,21.67,23.46,21.58Z"/><path class="cls-1" d="M23,16.16c0-1,.82-1.88,2.53-1.88,1.33,0,1.84.53,1.84,1.33V23.2a3.48,3.48,0,0,1-1.56.24c-.95,0-1.57-.2-1.6-.89s-.06-1.64-.06-3.28,0-2.35,0-2.49C24.17,16.34,24,16.07,23,16.16Zm2.61-2.71c-1.17,0-1.66-.39-1.66-1.15s.49-1.2,1.77-1.2,1.65.45,1.65,1.16S27.06,13.45,25.61,13.45Z"/><path class="cls-1" d="M32.4,16.05a2.51,2.51,0,0,1,2.73-1.8c2,0,3.35.73,3.35,2.84,0,.82,0,2.73,0,3.89,0,.44.22.69,1.16.6,0,1-.81,1.88-2.53,1.88-1.14,0-1.8-.46-1.8-1.64,0-.8,0-3.11,0-3.75,0-1.06-.47-1.58-1.71-1.58-.79,0-1.15.34-1.15,1.13V23.2a3.56,3.56,0,0,1-1.56.24c-1.12,0-1.59-.29-1.61-.89s-.05-1.44-.05-2.4c0-1.79.05-3.37.05-3.37,0-.44-.22-.71-1.18-.62,0-1,.82-1.88,2.53-1.88C31.83,14.28,32.4,14.79,32.4,16.05Z"/><path class="cls-1" d="M48.38,21c0,.44.29.69,1.25.6,0,1-.83,1.88-2.42,1.88-1.16,0-1.64-.47-1.64-1.49V21.6c-.29,1.31-1.31,1.86-3,1.86-2,0-3.1-1-3.1-2.48,0-1.82,1.29-2.76,4-2.76a13.09,13.09,0,0,1,1.78.11v-.44c0-1.08-.67-1.4-1.76-1.4a3.83,3.83,0,0,0-2.92,1.29,1.32,1.32,0,0,1-.6-1.26c0-1.2,1.46-2.27,4.44-2.27,2.79,0,3.94,1,3.94,2.95Zm-4.44-1.29c-1,0-1.41.31-1.41,1,0,.53.31.89,1.2.89s1.52-.52,1.52-1.78A6,6,0,0,0,43.94,19.69Z"/><path class="cls-1" d="M3.85,27.2c1.33,0,2-.12,2.26-.38a.88.88,0,0,1,.35.75c0,.59-.45,1.37-2,1.37l-2,0V30.2a9.9,9.9,0,0,1,1.09-.05c2.24,0,3.08,1.05,3.08,2.48,0,1.59-1.23,2.59-3.63,2.59-1.9,0-2.63-.68-2.63-1.41a1.36,1.36,0,0,1,.38-.94A2.6,2.6,0,0,0,3,33.78c.94,0,1.44-.21,1.44-.83S4.08,31.8,2.52,31.8A14.65,14.65,0,0,0,1,31.86,1.62,1.62,0,0,1,.88,31V27.2Z"/><path class="cls-1" d="M9.53,31.15a2.53,2.53,0,0,0,1-.17,1,1,0,0,1,.15.53c0,.59-.37,1.1-1.62,1.1H7.4a1.08,1.08,0,0,1,1.11-1.45Z"/><path class="cls-1" d="M21.28,31.15a2.53,2.53,0,0,0,1-.17,1,1,0,0,1,.15.53c0,.59-.37,1.1-1.62,1.1H19.15a1.08,1.08,0,0,1,1.11-1.45Z"/><path class="cls-1" d="M32,31.15A2.53,2.53,0,0,0,33,31a1,1,0,0,1,.15.53c0,.59-.37,1.1-1.62,1.1H29.84A1.08,1.08,0,0,1,31,31.15Z"/><path class="cls-1" d="M42.23,31.15a2.53,2.53,0,0,0,1-.17,1,1,0,0,1,.15.53c0,.59-.37,1.1-1.62,1.1H40.1a1.08,1.08,0,0,1,1.11-1.45Z"/><path class="cls-1" d="M17.93,32.19a.87.87,0,0,1,.13.47,1.14,1.14,0,0,1-1.19,1.15v.58c0,.68-.38.9-1.1.9A2.23,2.23,0,0,1,14.59,35a2.94,2.94,0,0,0,.18-1.16H11.32a1.25,1.25,0,0,1-.27-.82,1.11,1.11,0,0,1,.26-.77l3.33-4.91a2.62,2.62,0,0,1,.85-.16c1,0,1.4.41,1.4,1.49,0,.54,0,3.76,0,3.76A2.09,2.09,0,0,0,17.93,32.19Zm-3.15-2.84-2,3.06h2Z"/><path class="cls-1" d="M27.27,31a1.83,1.83,0,0,1,1.8,1.79c0,1.58-1.19,2.46-3.7,2.46-1.91,0-2.62-.67-2.62-1.41a1.27,1.27,0,0,1,.38-.93,2.57,2.57,0,0,0,2.25.91c1.07,0,1.45-.26,1.45-.84s-.55-.89-1.52-.89a1.61,1.61,0,0,0-.74.18,1.23,1.23,0,0,1-.38-.9c0-.44.3-.73.85-.73,1,0,1.52-.26,1.52-1,0-.49-.39-.92-1.26-.92a1.69,1.69,0,0,0-1.65,1,.92.92,0,0,1-.67-1c0-.76.81-1.57,2.86-1.57,1.9,0,2.94,1,2.94,2.2A1.7,1.7,0,0,1,27.27,31Z"/><path class="cls-1" d="M39.05,29.57c0,1.35-.67,2.21-3.14,4.06h1.65c1,0,1.48-.06,1.74-.25a.77.77,0,0,1,.14.47c0,.62-.52,1.28-1.61,1.28H33.92a5.2,5.2,0,0,0-.65,0,1.39,1.39,0,0,1-.22-.78.67.67,0,0,1,.35-.66c3-2.16,3.53-2.78,3.53-3.84,0-.68-.44-1.11-1.25-1.11A1.73,1.73,0,0,0,34,29.89a.93.93,0,0,1-.7-1c0-.79.89-1.74,2.77-1.74C38.14,27.11,39.05,28.28,39.05,29.57Z"/><path class="cls-1" d="M43.57,35.14a1.14,1.14,0,0,1-.12-.49c0-.57.4-1,2.19-1V29.06a1.64,1.64,0,0,0-1.12,1,.94.94,0,0,1-.73-1c0-.88,1.44-1.93,3-1.93.81,0,1,.19,1,.59v5.88a3.39,3.39,0,0,0,1.74-.23.71.71,0,0,1,.14.45c0,.63-.51,1.28-1.61,1.28Z"/></g></g></svg>