<svg xmlns="http://www.w3.org/2000/svg" viewBox="0 0 45.65 39.78"><defs><style>.cls-1{fill:#fff;}</style></defs><g id="Layer_2" data-name="Layer 2"><g id="Layer_1-2" data-name="Layer 1"><path class="cls-1" d="M24.2,2.62a12.5,12.5,0,0,1,1.23.9s1.41-.2,1.78-.21a3.57,3.57,0,0,1-.84,1.49,3.27,3.27,0,0,1,.15,1.71A6.19,6.19,0,0,0,25,5.65a9.28,9.28,0,0,1-1.91.44,8.41,8.41,0,0,0,.49-1s-.93-.42-1.25-.52C23.24,4.07,24.49,4.29,24.2,2.62Z"/><path class="cls-1" d="M21.86.39a7.48,7.48,0,0,1,.61.45s.71-.1.89-.1a1.68,1.68,0,0,1-.42.74,1.6,1.6,0,0,1,.08.85,3.19,3.19,0,0,0-.76-.43,4.24,4.24,0,0,1-1,.22,4.44,4.44,0,0,0,.24-.51s-.46-.21-.62-.26l.83-.3A1.12,1.12,0,0,0,21.86.39Z"/><path class="cls-1" d="M26.45,0a7.69,7.69,0,0,1,.77.56s.87-.13,1.1-.13a2.25,2.25,0,0,1-.52.92,2.07,2.07,0,0,1,.1,1.07A4,4,0,0,0,27,1.88a5.73,5.73,0,0,1-1.19.27,6.63,6.63,0,0,0,.31-.64s-.58-.26-.78-.33l1-.37A1.32,1.32,0,0,0,26.45,0Z"/><path class="cls-1" d="M30.34,2.14a4.58,4.58,0,0,1,.5.36s.57-.08.72-.08a1.52,1.52,0,0,1-.34.6,1.32,1.32,0,0,1,.06.69,2.42,2.42,0,0,0-.62-.35,3.57,3.57,0,0,1-.77.18,3.49,3.49,0,0,0,.2-.42s-.37-.17-.5-.21l.67-.25A.88.88,0,0,0,30.34,2.14Z"/><path class="cls-1" d="M22,7.2a3.86,3.86,0,0,1,.5.37s.58-.09.73-.09a1.47,1.47,0,0,1-.35.61,1.3,1.3,0,0,1,.07.7,2.46,2.46,0,0,0-.63-.36,3.75,3.75,0,0,1-.77.18,4.07,4.07,0,0,0,.19-.42L21.24,8l.68-.24A.89.89,0,0,0,22,7.2Z"/><path class="cls-1" d="M25.57,7.29a20.32,20.32,0,0,1,2.05,1.49s2.36-.33,3-.35a6,6,0,0,1-1.41,2.48,5.37,5.37,0,0,1,.26,2.86,10.23,10.23,0,0,0-2.55-1.44,14.6,14.6,0,0,1-3.18.73,14.72,14.72,0,0,0,.81-1.73s-1.54-.69-2.08-.88l2.78-1A3.59,3.59,0,0,0,25.57,7.29Z"/><path class="cls-1" d="M29.2,5.58a14,14,0,0,1,1.22.89s1.4-.19,1.77-.2a3.51,3.51,0,0,1-.84,1.47,3.22,3.22,0,0,1,.16,1.71A5.9,5.9,0,0,0,30,8.59,8.71,8.71,0,0,1,28.1,9a8.48,8.48,0,0,0,.48-1s-.92-.41-1.24-.52L29,6.87A2.12,2.12,0,0,0,29.2,5.58Z"/><path class="cls-1" d="M1.18,15.24c0-.44-.22-.71-1.18-.62,0-1,.86-1.87,2.55-1.87a3.28,3.28,0,0,1,3.37,1.94l2.24,5,2.67-5.62a2,2,0,0,1,1.89-1.3,4,4,0,0,1,2.61.64,6.57,6.57,0,0,0-.37,3v8.12a4.38,4.38,0,0,1-1.71.25c-1,0-1.36-.25-1.45-.76s-.09-2.09-.09-4.57c0-1.66,0-2.71,0-2.71L8.92,22.9a2.43,2.43,0,0,1-1.22.31c-.76,0-1.26-.18-1.53-.8L3.71,16.84v2.73c0,3.1.22,4,.75,4.52a2.53,2.53,0,0,1-1.77.63c-1.16,0-1.51-.71-1.51-2.14Z"/><path class="cls-1" d="M25.1,18.88c0,1.29-.29,1.8-.93,1.8h-4.8c0,1.37.76,2,2.45,2a4.26,4.26,0,0,0,3-1.22,1.1,1.1,0,0,1,.33.85c0,1.48-1.58,2.48-4.46,2.48s-4.66-1.26-4.66-4.21,1.62-5,4.95-5C23.7,15.53,25.1,17,25.1,18.88Zm-3,0a1.3,1.3,0,0,0-1.47-1.29c-1,0-1.22.65-1.3,1.62h2.75A1.72,1.72,0,0,0,22.15,18.9Z"/><path class="cls-1" d="M30.34,22.79c-.33,0-1.11,0-1.42-.05-.05.35.16.49.6.55l3.9.47c1.42.16,1.87.82,1.87,1.82,0,2-1.42,3.64-5.19,3.64-3.09,0-4.77-.51-4.77-2.26,0-.91.55-1.45,1.61-1.78a.86.86,0,0,1-.57-.89c0-.53.33-1.1,1.37-1.84a2.64,2.64,0,0,1-2-2.81c0-2.49,1.38-4.13,4.62-4.13.75,0,2.22.18,3.1.18a3.2,3.2,0,0,0,1.94-.41,1.53,1.53,0,0,1,.22.87c0,.93-.67,1.57-1.82,1.62A2,2,0,0,1,35,19.59C35,21.76,33.34,22.79,30.34,22.79Zm2.26,3.86c0-.31-.11-.52-1.42-.69l-3-.4a1.48,1.48,0,0,0-.11.53c0,.8.87,1.35,2.48,1.35S32.6,26.94,32.6,26.65ZM30.36,21.1c1.13,0,1.62-.53,1.62-1.75A1.63,1.63,0,0,0,30.3,17.5c-1.2,0-1.51.76-1.51,1.85S29.32,21.1,30.36,21.1Z"/><path class="cls-1" d="M44.39,22.3c0,.44.29.69,1.26.6,0,1-.84,1.88-2.42,1.88-1.17,0-1.64-.48-1.64-1.49v-.37c-.29,1.31-1.31,1.86-3,1.86-2,0-3.09-1-3.09-2.48,0-1.82,1.29-2.76,4-2.76a15.1,15.1,0,0,1,1.79.1v-.43c0-1.08-.68-1.4-1.77-1.4a3.81,3.81,0,0,0-2.91,1.29,1.3,1.3,0,0,1-.6-1.26c0-1.2,1.45-2.27,4.44-2.27,2.78,0,3.93,1,3.93,2.95ZM40,21c-1,0-1.4.31-1.4,1,0,.53.31.89,1.2.89s1.51-.52,1.51-1.78A6,6,0,0,0,40,21Z"/><path class="cls-1" d="M4.88,39.78c-3.26,0-4.66-.78-4.66-2.2a2,2,0,0,1,1-1.75c.33.8,1.84,1.71,3.62,1.71,1,0,1.35-.33,1.35-1.07,0-.59-.59-.75-2.75-1.39C1.86,34.61.55,33.72.55,31.84c0-2.27,1.42-4.08,4.67-4.08,2.74,0,4,1.1,4,2.39a1.68,1.68,0,0,1-1,1.53A4.08,4.08,0,0,0,5,30.13c-1.11,0-1.41.44-1.41,1.06s.5,1,3,1.69c2.06.58,2.88,1.4,2.88,3C9.47,38,8.3,39.78,4.88,39.78Z"/><path class="cls-1" d="M19,33.88c0,1.29-.3,1.8-.93,1.8H13.23c0,1.37.77,2,2.46,2a4.28,4.28,0,0,0,3-1.22,1.13,1.13,0,0,1,.33.85c0,1.48-1.59,2.48-4.46,2.48s-4.66-1.26-4.66-4.21,1.62-5,5-5C17.56,30.53,19,32,19,33.88ZM16,33.9a1.31,1.31,0,0,0-1.48-1.29c-1,0-1.22.65-1.29,1.62H16A1.72,1.72,0,0,0,16,33.9Z"/><path class="cls-1" d="M23.44,32.37a2.52,2.52,0,0,1,2.73-1.8c2,0,3.35.73,3.35,2.84,0,.82,0,2.73,0,3.89,0,.44.21.69,1.16.6,0,1-.82,1.88-2.53,1.88-1.15,0-1.8-.46-1.8-1.64,0-.8,0-3.11,0-3.75,0-1.06-.47-1.58-1.71-1.58-.78,0-1.14.34-1.14,1.12v5.59a3.63,3.63,0,0,1-1.57.24c-1.11,0-1.58-.29-1.6-.89s-.06-1.44-.06-2.4c0-1.79.06-3.37.06-3.37,0-.44-.22-.71-1.18-.62,0-1,.82-1.88,2.53-1.88C22.88,30.6,23.44,31.11,23.44,32.37Z"/><path class="cls-1" d="M39.42,37.3c0,.44.29.69,1.26.6,0,1-.84,1.88-2.42,1.88-1.17,0-1.64-.48-1.64-1.49v-.37c-.29,1.31-1.31,1.86-3,1.86-2,0-3.09-1-3.09-2.48,0-1.82,1.29-2.76,4-2.76a15.1,15.1,0,0,1,1.79.1v-.43c0-1.08-.68-1.4-1.77-1.4a3.81,3.81,0,0,0-2.91,1.29,1.3,1.3,0,0,1-.6-1.26c0-1.2,1.46-2.27,4.44-2.27,2.79,0,3.93,1,3.93,3ZM35,36c-1,0-1.4.31-1.4,1,0,.53.31.89,1.2.89s1.51-.52,1.51-1.78A6,6,0,0,0,35,36Z"/></g></g></svg>