<svg xmlns="http://www.w3.org/2000/svg" viewBox="0 0 84.94 26.48"><defs><style>.cls-1{fill:#fff;}</style></defs><g id="Layer_2" data-name="Layer 2"><g id="Layer_1-2" data-name="Layer 1"><path class="cls-1" d="M4.66,2.62a12.5,12.5,0,0,1,1.23.9s1.41-.2,1.78-.21A3.57,3.57,0,0,1,6.83,4.8,3.16,3.16,0,0,1,7,6.51a6.19,6.19,0,0,0-1.53-.86,9.11,9.11,0,0,1-1.9.44,8.89,8.89,0,0,0,.48-1s-.92-.42-1.25-.52C3.7,4.07,5,4.29,4.66,2.62Z"/><path class="cls-1" d="M2.33.39a7.48,7.48,0,0,1,.61.45s.7-.1.88-.1a1.71,1.71,0,0,1-.41.74,1.65,1.65,0,0,1,.07.85,3.19,3.19,0,0,0-.76-.43,4.24,4.24,0,0,1-1,.22S2,1.79,2,1.61c0,0-.47-.21-.63-.26l.83-.3A1.18,1.18,0,0,0,2.33.39Z"/><path class="cls-1" d="M6.91,0a7.69,7.69,0,0,1,.77.56S8.56.43,8.79.43a2.22,2.22,0,0,1-.53.92,2.07,2.07,0,0,1,.1,1.07,4,4,0,0,0-.95-.54,5.75,5.75,0,0,1-1.18.27s.22-.42.3-.64c0,0-.58-.26-.78-.33l1-.37A1.32,1.32,0,0,0,6.91,0Z"/><path class="cls-1" d="M10.8,2.14a4.58,4.58,0,0,1,.5.36s.57-.08.72-.08a1.36,1.36,0,0,1-.34.6,1.28,1.28,0,0,1,.07.69,2.65,2.65,0,0,0-.62-.35,3.75,3.75,0,0,1-.77.18,4.07,4.07,0,0,0,.19-.42s-.37-.17-.5-.21l.67-.25A.8.8,0,0,0,10.8,2.14Z"/><path class="cls-1" d="M2.47,7.2a3.86,3.86,0,0,1,.5.37s.58-.09.73-.09a1.51,1.51,0,0,1-.34.61,1.35,1.35,0,0,1,.06.7,2.31,2.31,0,0,0-.62-.36A3.91,3.91,0,0,1,2,8.61a3.49,3.49,0,0,0,.2-.42L1.71,8l.68-.24A.92.92,0,0,0,2.47,7.2Z"/><path class="cls-1" d="M6,7.29A21.58,21.58,0,0,1,8.09,8.78s2.35-.33,3-.35a6.06,6.06,0,0,1-1.4,2.48,5.42,5.42,0,0,1,.25,2.86,10.23,10.23,0,0,0-2.55-1.44,14.6,14.6,0,0,1-3.18.73A14.72,14.72,0,0,0,5,11.33s-1.54-.69-2.08-.88l2.78-1A3.64,3.64,0,0,0,6,7.29Z"/><path class="cls-1" d="M9.66,5.58a12.61,12.61,0,0,1,1.22.89s1.4-.19,1.77-.2a3.55,3.55,0,0,1-.83,1.47A3.27,3.27,0,0,1,12,9.45a5.71,5.71,0,0,0-1.52-.86A8.71,8.71,0,0,1,8.56,9,8.48,8.48,0,0,0,9,8s-.92-.41-1.24-.52l1.66-.6A2.25,2.25,0,0,0,9.66,5.58Z"/><path class="cls-1" d="M1.18,16.93c0-.44-.22-.71-1.18-.62,0-1,.86-1.88,2.55-1.88a3.28,3.28,0,0,1,3.37,1.95l2.24,5,2.67-5.63a2,2,0,0,1,1.89-1.29,4,4,0,0,1,2.61.64A6.54,6.54,0,0,0,15,18v8.12a4.38,4.38,0,0,1-1.71.25c-1,0-1.36-.25-1.45-.76s-.09-2.1-.09-4.57c0-1.66,0-2.72,0-2.72l-2.8,6.23a2.54,2.54,0,0,1-1.22.31c-.76,0-1.26-.18-1.53-.8L3.71,18.53v2.73c0,3.09.22,4,.75,4.51a2.49,2.49,0,0,1-1.77.64c-1.16,0-1.51-.71-1.51-2.15Z"/><path class="cls-1" d="M15.47,19.17c0-1,.82-1.88,2.53-1.88,1.33,0,1.84.53,1.84,1.33v7.59a3.53,3.53,0,0,1-1.57.24c-.94,0-1.56-.2-1.6-.9s-.05-1.63-.05-3.27c0-1.79,0-2.35,0-2.5C16.63,19.35,16.42,19.07,15.47,19.17Zm2.6-2.72c-1.16,0-1.65-.38-1.65-1.14s.49-1.21,1.76-1.21,1.66.46,1.66,1.17S19.53,16.45,18.07,16.45Z"/><path class="cls-1" d="M21.46,18.55a9.89,9.89,0,0,0-.4-3.57,2.8,2.8,0,0,1,1.84-.64c1.25,0,1.82.55,1.82,1.59V24c0,.44.21.69,1.16.6,0,1-.82,1.87-2.53,1.87-1.15,0-1.84-.45-1.84-1.63Z"/><path class="cls-1" d="M25.41,19.17c0-1,.82-1.88,2.53-1.88,1.33,0,1.84.53,1.84,1.33v7.59a3.53,3.53,0,0,1-1.57.24c-.95,0-1.57-.2-1.6-.9s-.06-1.63-.06-3.27c0-1.79,0-2.35,0-2.5C26.57,19.35,26.35,19.07,25.41,19.17ZM28,16.45c-1.17,0-1.66-.38-1.66-1.14s.49-1.21,1.77-1.21,1.66.46,1.66,1.17S29.47,16.45,28,16.45Z"/><path class="cls-1" d="M35.8,26.48c-2.91,0-4.77-1.25-4.77-4.26s1.88-5,5-5c2.93,0,4.72,1.31,4.72,4.33C40.79,24.9,38.75,26.48,35.8,26.48Zm.05-7.13c-1.22,0-1.6.85-1.6,2.67s.42,2.46,1.73,2.46c1.13,0,1.66-.71,1.66-2.68C37.64,20.26,37.26,19.35,35.85,19.35Z"/><path class="cls-1" d="M45.23,19.06A2.51,2.51,0,0,1,48,17.25c2,0,3.35.73,3.35,2.84,0,.82,0,2.73,0,3.9,0,.44.22.69,1.17.6,0,1-.82,1.87-2.54,1.87-1.14,0-1.8-.45-1.8-1.63,0-.8,0-3.12,0-3.75,0-1.06-.47-1.59-1.71-1.59-.78,0-1.15.35-1.15,1.13v5.59a3.56,3.56,0,0,1-1.56.24c-1.11,0-1.59-.29-1.61-.9s0-1.43,0-2.4c0-1.78,0-3.37,0-3.37,0-.43-.21-.71-1.18-.61,0-1,.82-1.88,2.53-1.88C44.66,17.29,45.23,17.8,45.23,19.06Z"/><path class="cls-1" d="M61.21,24c0,.44.29.69,1.25.6,0,1-.83,1.87-2.42,1.87-1.16,0-1.64-.47-1.64-1.49v-.36c-.29,1.31-1.31,1.85-3,1.85-2,0-3.1-1-3.1-2.47,0-1.82,1.29-2.77,4-2.77a14.92,14.92,0,0,1,1.78.11v-.44c0-1.07-.67-1.4-1.76-1.4a3.84,3.84,0,0,0-2.92,1.3,1.33,1.33,0,0,1-.6-1.26c0-1.2,1.46-2.28,4.44-2.28,2.79,0,3.94,1,3.94,2.95ZM56.77,22.7c-1,0-1.41.31-1.41,1,0,.53.31.89,1.2.89s1.52-.53,1.52-1.78A6,6,0,0,0,56.77,22.7Z"/><path class="cls-1" d="M66.21,19.06c.24-1.19.73-1.77,1.91-1.77a1.49,1.49,0,0,1,1.7,1.58,3.76,3.76,0,0,1-.39,1.55,7,7,0,0,0-1.74-.29c-1,0-1.28.55-1.28,1.57v4.53a4,4,0,0,1-1.56.22c-1,0-1.57-.24-1.61-.9s-.05-1.43-.05-2.4c0-1.78,0-3.37,0-3.37,0-.43-.22-.71-1.17-.61,0-1,.82-1.88,2.53-1.88C65.7,17.29,66.27,17.82,66.21,19.06Z"/><path class="cls-1" d="M69.43,19.17c0-1,.82-1.88,2.53-1.88,1.33,0,1.84.53,1.84,1.33v7.59a3.5,3.5,0,0,1-1.57.24c-.94,0-1.56-.2-1.6-.9s0-1.63,0-3.27c0-1.79,0-2.35,0-2.5C70.6,19.35,70.38,19.07,69.43,19.17ZM72,16.45c-1.16,0-1.65-.38-1.65-1.14s.49-1.21,1.76-1.21,1.66.46,1.66,1.17S73.49,16.45,72,16.45Z"/><path class="cls-1" d="M83.68,24c0,.44.3.69,1.26.6,0,1-.84,1.87-2.42,1.87-1.17,0-1.64-.47-1.64-1.49v-.36c-.29,1.31-1.31,1.85-3,1.85-2,0-3.09-1-3.09-2.47,0-1.82,1.29-2.77,4-2.77a15.05,15.05,0,0,1,1.78.11v-.44c0-1.07-.67-1.4-1.77-1.4a3.81,3.81,0,0,0-2.91,1.3,1.31,1.31,0,0,1-.6-1.26c0-1.2,1.46-2.28,4.44-2.28,2.79,0,3.93,1,3.93,2.95ZM79.24,22.7c-1,0-1.4.31-1.4,1,0,.53.31.89,1.2.89s1.51-.53,1.51-1.78A6,6,0,0,0,79.24,22.7Z"/></g></g></svg>