<svg xmlns="http://www.w3.org/2000/svg" viewBox="0 0 51.27 39.9"><defs><style>.cls-1{fill:#fff;}</style></defs><g id="Layer_2" data-name="Layer 2"><g id="Layer_1-2" data-name="Layer 1"><path class="cls-1" d="M6,13C10.43,13,12,15.93,12,19c0,4.63-3,5.9-6.92,5.9-2.68,0-3.7-.2-3.81-.91-.07-.47-.1-2-.1-4.48V15.36c0-.44-.22-.71-1.18-.62C0,13.72.84,13,2.53,13ZM4.44,15.09v7.68c.27,0,.82.05,1.2.05,2.15,0,3.15-.8,3.15-3.42C8.79,16.25,7,15,4.44,15.09Z"/><path class="cls-1" d="M23.52,23c0,1-.82,1.87-2.53,1.87-1.21,0-1.77-.53-1.77-1.78a2.51,2.51,0,0,1-2.73,1.8c-2,0-3.24-.73-3.24-2.86,0-.8.07-2.69.07-3.84,0-.44-.22-.71-1.18-.62,0-1,.82-1.87,2.53-1.87,1.15,0,1.78.31,1.78,1.47,0,.82,0,3.26,0,3.9,0,1,.36,1.58,1.6,1.58.78,0,1.15-.35,1.15-1.13V19A18.84,18.84,0,0,0,19,16.09a3.17,3.17,0,0,1,1.53-.36c1.42,0,1.88.56,1.88,2.49s-.06,4.2-.06,4.2C22.33,22.86,22.55,23.12,23.52,23Z"/><path class="cls-1" d="M30.16,15.69c2.42,0,3.77,1.26,3.77,4.3,0,3.24-1.77,4.93-4.72,4.93a7.52,7.52,0,0,1-1.73-.17,10,10,0,0,0,.42,3.81A2.86,2.86,0,0,1,26,29.2c-1.23,0-1.76-.55-1.76-1.57l0-9.41c0-.44-.22-.71-1.19-.62,0-1,.82-1.87,2.53-1.87,1.2,0,1.77.51,1.77,1.76A2.51,2.51,0,0,1,30.16,15.69Zm-2.68,3.37v3.75a5.05,5.05,0,0,0,1.37.16c1.36,0,2-.87,2-2.64,0-1.55-.71-2.4-2.18-2.4C27.85,17.93,27.48,18.27,27.48,19.06Z"/><path class="cls-1" d="M35,17a9.89,9.89,0,0,0-.4-3.57,2.87,2.87,0,0,1,1.84-.63c1.26,0,1.82.54,1.82,1.58v8.06c0,.44.22.7,1.17.61,0,1-.82,1.87-2.54,1.87-1.14,0-1.83-.46-1.83-1.64Z"/><path class="cls-1" d="M48.14,22.42c0,.44.29.7,1.26.61,0,1-.84,1.87-2.42,1.87-1.17,0-1.64-.47-1.64-1.49V23c-.29,1.31-1.31,1.86-3,1.86-2,0-3.09-1-3.09-2.48,0-1.82,1.29-2.76,4-2.76a13.24,13.24,0,0,1,1.79.11v-.44c0-1.07-.68-1.4-1.77-1.4a3.81,3.81,0,0,0-2.91,1.29,1.3,1.3,0,0,1-.6-1.26c0-1.2,1.45-2.27,4.44-2.27,2.78,0,3.93,1,3.93,3ZM43.7,21.13c-1,0-1.4.31-1.4,1,0,.53.31.9,1.2.9S45,22.5,45,21.24A6,6,0,0,0,43.7,21.13Z"/><path class="cls-1" d="M9.23,39.9c-3.26,0-4.66-.78-4.66-2.2a2,2,0,0,1,1-1.75c.33.8,1.84,1.71,3.62,1.71,1,0,1.35-.33,1.35-1.07S10,35.84,7.81,35.2C6.21,34.73,4.9,33.84,4.9,32c0-2.27,1.42-4.07,4.67-4.07,2.73,0,4,1.09,4,2.38a1.68,1.68,0,0,1-1,1.53,4.08,4.08,0,0,0-3.18-1.55c-1.11,0-1.41.44-1.41,1.06s.5,1,3,1.69c2.06.58,2.88,1.4,2.88,3C13.82,38.12,12.65,39.9,9.23,39.9Z"/><path class="cls-1" d="M23.32,34c0,1.29-.3,1.8-.93,1.8H17.58c0,1.37.77,2,2.46,2a4.28,4.28,0,0,0,3-1.22,1.15,1.15,0,0,1,.33.85c0,1.48-1.59,2.48-4.46,2.48s-4.66-1.26-4.66-4.2,1.62-5.05,4.95-5.05C21.91,30.65,23.32,32.09,23.32,34Zm-2.95,0a1.31,1.31,0,0,0-1.48-1.29c-1,0-1.22.65-1.29,1.62h2.75A1.72,1.72,0,0,0,20.37,34Z"/><path class="cls-1" d="M27.79,32.49a2.52,2.52,0,0,1,2.73-1.8c2,0,3.35.73,3.35,2.84,0,.82,0,2.73,0,3.89,0,.44.21.7,1.16.61,0,1-.82,1.87-2.53,1.87-1.15,0-1.8-.46-1.8-1.64,0-.8,0-3.11,0-3.75,0-1-.47-1.58-1.71-1.58-.78,0-1.14.34-1.14,1.13v5.59a3.64,3.64,0,0,1-1.57.23c-1.11,0-1.58-.29-1.6-.89s-.06-1.44-.06-2.4c0-1.79.06-3.37.06-3.37,0-.44-.22-.71-1.18-.62,0-1,.81-1.87,2.53-1.87C27.23,30.73,27.79,31.24,27.79,32.49Z"/><path class="cls-1" d="M43.77,37.42c0,.44.29.7,1.26.61,0,1-.84,1.87-2.42,1.87-1.17,0-1.64-.47-1.64-1.49V38c-.29,1.31-1.31,1.86-3,1.86-2,0-3.09-1-3.09-2.48,0-1.82,1.29-2.76,4-2.76a13.24,13.24,0,0,1,1.79.11v-.44c0-1.07-.68-1.4-1.77-1.4A3.81,3.81,0,0,0,36,34.22,1.3,1.3,0,0,1,35.4,33c0-1.2,1.45-2.27,4.44-2.27,2.79,0,3.93,1,3.93,2.95Zm-4.44-1.29c-1,0-1.4.31-1.4,1,0,.53.31.9,1.2.9s1.51-.53,1.51-1.79A6,6,0,0,0,39.33,36.13Z"/><path class="cls-1" d="M49.92,3.78l-3.4,1,1-3.4a2,2,0,0,1,2.4-1.3,1.94,1.94,0,0,1,0,3.7Z"/><path class="cls-1" d="M39.72,9.08l3.4-1-1,3.4a1.93,1.93,0,1,1-2.4-2.4Z"/><path class="cls-1" d="M43.12,11.78l.8-3.5,2.5,2.6a2,2,0,0,1-.1,2.8,2,2,0,0,1-3.2-1.9Z"/><path class="cls-1" d="M44.42,3.28l-.8,3.5-2.5-2.6a2,2,0,0,1,.1-2.8,2,2,0,0,1,3.2,1.9Z"/><path class="cls-1" d="M47.12,10.18l-2.6-2.5,3.5-.8a2,2,0,0,1,2.4,1.4,2,2,0,0,1-3.3,1.9Z"/><path class="cls-1" d="M40.42,4.88,43,7.38l-3.5.8a2,2,0,0,1-2.4-1.4,2,2,0,0,1,3.3-1.9Z"/></g></g></svg>