<svg xmlns="http://www.w3.org/2000/svg" viewBox="0 0 52.09 39.36"><defs><style>.cls-1{fill:#fff;}</style></defs><g id="Layer_2" data-name="Layer 2"><g id="Layer_1-2" data-name="Layer 1"><path class="cls-1" d="M33.7,2.62a12.79,12.79,0,0,1,1.22.9s1.41-.2,1.79-.21a3.69,3.69,0,0,1-.85,1.49A3.22,3.22,0,0,1,36,6.51a6.19,6.19,0,0,0-1.53-.86,9.28,9.28,0,0,1-1.91.44,10.28,10.28,0,0,0,.49-1s-.93-.42-1.25-.52C32.74,4.07,34,4.29,33.7,2.62Z"/><path class="cls-1" d="M31.36.39A7.48,7.48,0,0,1,32,.84s.7-.1.89-.1a1.83,1.83,0,0,1-.42.74,1.6,1.6,0,0,1,.08.85,3.45,3.45,0,0,0-.76-.43,4.24,4.24,0,0,1-1,.22,4.44,4.44,0,0,0,.24-.51s-.46-.21-.62-.26l.83-.3A1.12,1.12,0,0,0,31.36.39Z"/><path class="cls-1" d="M36,0a6.85,6.85,0,0,1,.76.56s.88-.13,1.11-.13a2.25,2.25,0,0,1-.52.92,2,2,0,0,1,.09,1.07,3.72,3.72,0,0,0-1-.54,5.75,5.75,0,0,1-1.18.27,5.23,5.23,0,0,0,.3-.64s-.57-.26-.77-.33l1-.37A1.37,1.37,0,0,0,36,0Z"/><path class="cls-1" d="M39.84,2.14a5.87,5.87,0,0,1,.5.36s.57-.08.72-.08a1.52,1.52,0,0,1-.34.6,1.32,1.32,0,0,1,.06.69,2.42,2.42,0,0,0-.62-.35,3.75,3.75,0,0,1-.77.18,3.49,3.49,0,0,0,.2-.42s-.38-.17-.51-.21l.68-.25A1,1,0,0,0,39.84,2.14Z"/><path class="cls-1" d="M31.51,7.2a4.73,4.73,0,0,1,.5.37s.57-.09.72-.09a1.36,1.36,0,0,1-.34.61,1.35,1.35,0,0,1,.06.7,2.31,2.31,0,0,0-.62-.36,3.73,3.73,0,0,1-.78.18,3.49,3.49,0,0,0,.2-.42L30.74,8l.68-.24A.89.89,0,0,0,31.51,7.2Z"/><path class="cls-1" d="M35.07,7.29a20.32,20.32,0,0,1,2,1.49s2.36-.33,3-.35a5.9,5.9,0,0,1-1.4,2.48A5.49,5.49,0,0,1,39,13.77a10.23,10.23,0,0,0-2.55-1.44,14.6,14.6,0,0,1-3.18.73A16.65,16.65,0,0,0,34,11.33s-1.55-.69-2.09-.88l2.78-1A3.56,3.56,0,0,0,35.07,7.29Z"/><path class="cls-1" d="M38.7,5.58a14,14,0,0,1,1.22.89s1.4-.19,1.77-.2a3.51,3.51,0,0,1-.84,1.47A3.27,3.27,0,0,1,41,9.45a5.76,5.76,0,0,0-1.51-.86,8.7,8.7,0,0,1-1.9.43,9.76,9.76,0,0,0,.49-1s-.92-.41-1.25-.52l1.66-.6A2.12,2.12,0,0,0,38.7,5.58Z"/><path class="cls-1" d="M11.8,14.09v8h1.09c1.91,0,3.33-.32,3.75-.74a1.09,1.09,0,0,1,.25.82c0,1.14-1.13,2.09-4.29,2.09-3.53,0-3.92-.16-4.06-.91-.06-.47-.08-1.91-.08-4.39V14.82c0-.44-.21-.71-1.18-.62,0-1,.82-1.87,2.53-1.87C11.15,12.33,11.8,12.84,11.8,14.09Z"/><path class="cls-1" d="M21.8,24.38c-2.92,0-4.77-1.26-4.77-4.26,0-3.17,1.87-5,5-5,2.93,0,4.71,1.31,4.71,4.34C26.78,22.79,24.74,24.38,21.8,24.38Zm.05-7.14c-1.22,0-1.6.86-1.6,2.68s.42,2.46,1.73,2.46c1.13,0,1.65-.71,1.65-2.68C23.63,18.15,23.25,17.24,21.85,17.24Z"/><path class="cls-1" d="M28.18,21.83c0-1.78,0-4.48,0-4.48H27.07a1.12,1.12,0,0,1-.16-.6,1.45,1.45,0,0,1,1.4-1.53A2.28,2.28,0,0,1,30.6,12.8a3.52,3.52,0,0,1,.84.11,20.57,20.57,0,0,0-.11,2.37h.33a4,4,0,0,0,2-.33,1.36,1.36,0,0,1,.26.82A1.74,1.74,0,0,1,32,17.37h-.71v4c0,.55.2.71.82.71a3.78,3.78,0,0,0,2-.63,1.2,1.2,0,0,1,.22.76c0,1.2-1.24,2.13-3.15,2.13C29.11,24.36,28.18,23.7,28.18,21.83Z"/><path class="cls-1" d="M39.27,24.38c-2.92,0-4.77-1.26-4.77-4.26,0-3.17,1.87-5,5-5,2.93,0,4.71,1.31,4.71,4.34C44.25,22.79,42.22,24.38,39.27,24.38Zm0-7.14c-1.22,0-1.6.86-1.6,2.68s.42,2.46,1.73,2.46c1.13,0,1.66-.71,1.66-2.68C41.11,18.15,40.72,17.24,39.32,17.24Z"/><path class="cls-1" d="M1.18,29.82c0-.44-.22-.71-1.18-.62,0-1,.86-1.87,2.55-1.87a3.27,3.27,0,0,1,3.37,2l2.24,5,2.67-5.62a2,2,0,0,1,1.89-1.29,4,4,0,0,1,2.61.63A6.57,6.57,0,0,0,15,30.93v8.12a4.37,4.37,0,0,1-1.71.26c-1,0-1.36-.26-1.45-.77s-.09-2.09-.09-4.57c0-1.65,0-2.71,0-2.71l-2.8,6.23a2.54,2.54,0,0,1-1.22.3c-.76,0-1.26-.18-1.53-.8L3.71,31.42v2.73c0,3.1.22,4,.75,4.52a2.53,2.53,0,0,1-1.77.64c-1.16,0-1.51-.71-1.51-2.15Z"/><path class="cls-1" d="M24.7,36.88c0,.44.29.7,1.26.61,0,1-.84,1.87-2.43,1.87-1.16,0-1.63-.47-1.63-1.49V37.5c-.3,1.31-1.32,1.86-3,1.86-2,0-3.1-1-3.1-2.48,0-1.82,1.3-2.76,4-2.76a13.09,13.09,0,0,1,1.78.11v-.44c0-1.07-.67-1.4-1.76-1.4a3.81,3.81,0,0,0-2.91,1.29,1.3,1.3,0,0,1-.6-1.26c0-1.2,1.45-2.27,4.44-2.27,2.78,0,3.93,1,3.93,3Zm-4.44-1.29c-1,0-1.4.31-1.4,1,0,.53.31.9,1.2.9s1.51-.53,1.51-1.79A6,6,0,0,0,20.26,35.59Z"/><path class="cls-1" d="M29.83,32a2.52,2.52,0,0,1,2.73-1.8c2,0,3.35.73,3.35,2.84,0,.82,0,2.73,0,3.89,0,.44.22.7,1.17.61,0,1-.82,1.87-2.53,1.87-1.15,0-1.8-.46-1.8-1.64,0-.8,0-3.11,0-3.75,0-1-.47-1.58-1.71-1.58-.78,0-1.15.34-1.15,1.13v5.59a3.57,3.57,0,0,1-1.56.23c-1.11,0-1.58-.29-1.6-.89s-.06-1.44-.06-2.4c0-1.79.06-3.37.06-3.37,0-.44-.22-.71-1.19-.62,0-1,.82-1.87,2.53-1.87C29.27,30.19,29.83,30.7,29.83,32Z"/><path class="cls-1" d="M36.58,32.06c0-1,.82-1.87,2.53-1.87,1.33,0,1.84.52,1.84,1.32v7.6a3.52,3.52,0,0,1-1.57.23c-.94,0-1.56-.2-1.6-.89s-.05-1.64-.05-3.28,0-2.34,0-2.49C37.75,32.24,37.53,32,36.58,32.06Zm2.6-2.71c-1.16,0-1.65-.38-1.65-1.15S38,27,39.29,27,41,27.45,41,28.16,40.64,29.35,39.18,29.35Z"/><path class="cls-1" d="M50.83,36.88c0,.44.29.7,1.26.61,0,1-.84,1.87-2.42,1.87-1.17,0-1.64-.47-1.64-1.49V37.5c-.29,1.31-1.31,1.86-3,1.86-2,0-3.09-1-3.09-2.48,0-1.82,1.29-2.76,4-2.76a13.19,13.19,0,0,1,1.78.11v-.44c0-1.07-.67-1.4-1.77-1.4a3.81,3.81,0,0,0-2.91,1.29,1.3,1.3,0,0,1-.6-1.26c0-1.2,1.46-2.27,4.44-2.27,2.79,0,3.93,1,3.93,3Zm-4.44-1.29c-1,0-1.4.31-1.4,1,0,.53.31.9,1.2.9S47.7,37,47.7,35.7A6,6,0,0,0,46.39,35.59Z"/></g></g></svg>