<svg xmlns="http://www.w3.org/2000/svg" viewBox="0 0 48.63 39.53"><defs><style>.cls-1{fill:#fff;}</style></defs><g id="Layer_2" data-name="Layer 2"><g id="Layer_1-2" data-name="Layer 1"><path class="cls-1" d="M11.13,2.62a12.5,12.5,0,0,1,1.23.9s1.41-.2,1.78-.21A3.57,3.57,0,0,1,13.3,4.8a3.16,3.16,0,0,1,.15,1.71,6.19,6.19,0,0,0-1.53-.86,9.11,9.11,0,0,1-1.9.44,8.89,8.89,0,0,0,.48-1s-.92-.42-1.25-.52C10.18,4.07,11.42,4.29,11.13,2.62Z"/><path class="cls-1" d="M8.8.39a7.48,7.48,0,0,1,.61.45s.7-.1.89-.1a1.83,1.83,0,0,1-.42.74,1.65,1.65,0,0,1,.07.85,3.19,3.19,0,0,0-.76-.43,4.24,4.24,0,0,1-.95.22s.18-.33.25-.51c0,0-.47-.21-.63-.26l.83-.3A1.18,1.18,0,0,0,8.8.39Z"/><path class="cls-1" d="M13.39,0a8,8,0,0,1,.76.56S15,.43,15.26.43a2.22,2.22,0,0,1-.53.92,2.07,2.07,0,0,1,.1,1.07,4,4,0,0,0-.95-.54,5.75,5.75,0,0,1-1.18.27s.22-.42.3-.64c0,0-.58-.26-.78-.33l1-.37A1.37,1.37,0,0,0,13.39,0Z"/><path class="cls-1" d="M17.28,2.14a4.81,4.81,0,0,1,.49.36s.57-.08.72-.08a1.36,1.36,0,0,1-.34.6,1.28,1.28,0,0,1,.07.69,2.65,2.65,0,0,0-.62-.35,3.75,3.75,0,0,1-.77.18A4.07,4.07,0,0,0,17,3.12s-.37-.17-.5-.21l.67-.25A.84.84,0,0,0,17.28,2.14Z"/><path class="cls-1" d="M8.94,7.2a3.86,3.86,0,0,1,.5.37s.58-.09.73-.09a1.51,1.51,0,0,1-.34.61,1.35,1.35,0,0,1,.06.7,2.31,2.31,0,0,0-.62-.36,3.73,3.73,0,0,1-.78.18,3.49,3.49,0,0,0,.2-.42L8.18,8l.68-.24A.84.84,0,0,0,8.94,7.2Z"/><path class="cls-1" d="M12.51,7.29a21.58,21.58,0,0,1,2.05,1.49s2.35-.33,3-.35a6.06,6.06,0,0,1-1.4,2.48,5.42,5.42,0,0,1,.25,2.86,10.23,10.23,0,0,0-2.55-1.44,14.6,14.6,0,0,1-3.18.73,14.72,14.72,0,0,0,.81-1.73s-1.54-.69-2.08-.88l2.78-1A3.64,3.64,0,0,0,12.51,7.29Z"/><path class="cls-1" d="M16.13,5.58a12.61,12.61,0,0,1,1.22.89s1.41-.19,1.77-.2a3.55,3.55,0,0,1-.83,1.47,3.27,3.27,0,0,1,.15,1.71,5.71,5.71,0,0,0-1.52-.86A8.71,8.71,0,0,1,15,9a8.48,8.48,0,0,0,.48-1s-.92-.41-1.24-.52l1.66-.6A2.25,2.25,0,0,0,16.13,5.58Z"/><path class="cls-1" d="M4.66,24.53C1.4,24.53,0,23.75,0,22.33a2,2,0,0,1,1-1.75c.33.8,1.84,1.71,3.62,1.71,1,0,1.35-.33,1.35-1.07,0-.59-.58-.75-2.75-1.39C1.64,19.36.33,18.47.33,16.59c0-2.27,1.42-4.07,4.68-4.07,2.73,0,4,1.09,4,2.38a1.68,1.68,0,0,1-1,1.53,4.08,4.08,0,0,0-3.18-1.55c-1.11,0-1.4.44-1.4,1.06s.49,1,3,1.69c2.06.58,2.88,1.4,2.88,3C9.25,22.75,8.08,24.53,4.66,24.53Z"/><path class="cls-1" d="M20.57,22.66c0,1-.82,1.87-2.53,1.87-1.2,0-1.77-.53-1.77-1.78a2.5,2.5,0,0,1-2.73,1.8c-2,0-3.24-.73-3.24-2.86,0-.8.07-2.69.07-3.84,0-.44-.21-.71-1.18-.62,0-1,.82-1.87,2.53-1.87,1.15,0,1.79.31,1.79,1.47,0,.82,0,3.26,0,3.9,0,1.05.36,1.58,1.6,1.58.78,0,1.15-.35,1.15-1.13V18.67a20.31,20.31,0,0,0-.18-3,3.1,3.1,0,0,1,1.52-.36c1.42,0,1.88.56,1.88,2.49,0,1.78-.05,4.2-.05,4.2C19.39,22.49,19.6,22.75,20.57,22.66Z"/><path class="cls-1" d="M27.21,15.32c2.42,0,3.77,1.26,3.77,4.3,0,3.24-1.77,4.93-4.72,4.93a7.59,7.59,0,0,1-1.73-.17A10,10,0,0,0,25,28.19a2.85,2.85,0,0,1-1.85.64c-1.24,0-1.77-.55-1.77-1.57l0-9.41c0-.44-.22-.71-1.19-.62,0-1,.82-1.87,2.53-1.87,1.21,0,1.77.51,1.77,1.76A2.52,2.52,0,0,1,27.21,15.32Zm-2.68,3.37v3.75a5.05,5.05,0,0,0,1.37.16c1.37,0,2-.87,2-2.64,0-1.55-.71-2.4-2.19-2.4C24.9,17.56,24.53,17.9,24.53,18.69Z"/><path class="cls-1" d="M40.68,18.63c0,1.29-.29,1.8-.93,1.8H34.94c0,1.37.77,2,2.46,2a4.28,4.28,0,0,0,3-1.22,1.11,1.11,0,0,1,.33.85c0,1.48-1.58,2.48-4.46,2.48s-4.66-1.26-4.66-4.2,1.62-5,5-5C39.28,15.28,40.68,16.72,40.68,18.63Zm-3,0a1.3,1.3,0,0,0-1.47-1.29c-1,0-1.22.65-1.3,1.62h2.75A1.72,1.72,0,0,0,37.73,18.65Z"/><path class="cls-1" d="M45,17.12c.23-1.18.73-1.76,1.91-1.76a1.48,1.48,0,0,1,1.69,1.58,4,4,0,0,1-.38,1.55,7,7,0,0,0-1.75-.29c-1,0-1.27.54-1.27,1.56v4.53a4,4,0,0,1-1.57.22c-1,0-1.56-.23-1.6-.89S42,22.18,42,21.22c0-1.79,0-3.37,0-3.37,0-.44-.21-.71-1.16-.62,0-1,.82-1.87,2.53-1.87C44.52,15.36,45.08,15.88,45,17.12Z"/><path class="cls-1" d="M11,39.53c-3.26,0-4.66-.78-4.66-2.2a1.94,1.94,0,0,1,1-1.75c.32.8,1.83,1.71,3.62,1.71,1,0,1.35-.33,1.35-1.07,0-.59-.59-.75-2.75-1.39-1.61-.47-2.92-1.36-2.92-3.24,0-2.27,1.42-4.07,4.68-4.07,2.73,0,4,1.09,4,2.38a1.68,1.68,0,0,1-1,1.53,4.09,4.09,0,0,0-3.19-1.55c-1.11,0-1.4.44-1.4,1.06s.49,1,3,1.69c2.05.58,2.87,1.4,2.87,3C15.55,37.75,14.39,39.53,11,39.53Z"/><path class="cls-1" d="M25.05,33.63c0,1.29-.29,1.8-.92,1.8H19.32c0,1.37.76,2,2.46,2a4.28,4.28,0,0,0,3-1.22,1.15,1.15,0,0,1,.33.85c0,1.48-1.59,2.48-4.46,2.48S16,38.27,16,35.33s1.63-5,5-5C23.65,30.28,25.05,31.72,25.05,33.63Zm-2.95,0a1.3,1.3,0,0,0-1.47-1.29c-1,0-1.22.65-1.29,1.62h2.75C22.1,33.87,22.1,33.78,22.1,33.65Z"/><path class="cls-1" d="M26.49,37c0-1.78,0-4.48,0-4.48H25.38a1.12,1.12,0,0,1-.16-.6,1.45,1.45,0,0,1,1.4-1.53A2.28,2.28,0,0,1,28.91,28a3.52,3.52,0,0,1,.84.11,20.57,20.57,0,0,0-.11,2.37H30a4,4,0,0,0,2-.33,1.35,1.35,0,0,1,.25.82,1.73,1.73,0,0,1-1.87,1.6h-.71v4c0,.55.2.71.82.71a3.78,3.78,0,0,0,2-.63,1.2,1.2,0,0,1,.22.76c0,1.2-1.24,2.13-3.15,2.13C27.42,39.53,26.49,38.88,26.49,37Z"/><path class="cls-1" d="M41.83,33.63c0,1.29-.29,1.8-.92,1.8H36.1c0,1.37.76,2,2.46,2a4.28,4.28,0,0,0,3-1.22,1.15,1.15,0,0,1,.33.85c0,1.48-1.59,2.48-4.46,2.48s-4.66-1.26-4.66-4.2,1.62-5,4.95-5C40.43,30.28,41.83,31.72,41.83,33.63Zm-2.94,0a1.31,1.31,0,0,0-1.48-1.29c-1,0-1.22.65-1.29,1.62h2.75A1.72,1.72,0,0,0,38.89,33.65Z"/></g></g></svg>