<svg width="160" height="161" viewBox="0 0 160 161" fill="none" xmlns="http://www.w3.org/2000/svg">
<g clip-path="url(#clip0_81_123371)">
<g clip-path="url(#clip1_81_123371)">
<path opacity="0.1" d="M-421.606 99.3322C-358.321 35.9202 -274.169 1.0027 -184.672 1.00272C-95.1751 1.00273 -11.0225 35.9203 52.2721 99.3323C115.557 162.735 150.42 247.043 150.419 336.716L177.333 336.716C177.333 239.84 139.673 148.772 71.3037 80.2654C2.93401 11.7592 -87.9757 -25.9606 -184.672 -25.9606C-281.368 -25.9606 -372.268 11.7688 -440.638 80.2653C-509.017 148.762 -546.667 239.84 -546.667 336.706L-519.754 336.706C-519.754 247.034 -484.901 162.735 -421.606 99.3226L-421.606 99.3322Z" fill="white"/>
<path opacity="0.3" d="M-402.575 118.399C-344.365 60.0813 -266.979 27.9661 -184.663 27.9661C-102.346 27.9661 -24.9602 60.0814 33.2497 118.399C91.4596 176.717 123.515 254.246 123.515 336.716L150.429 336.716C150.429 247.043 115.576 162.744 52.2814 99.3323C-11.0036 35.9299 -95.1562 1.00276 -184.663 1.00274C-274.169 1.00273 -358.312 35.9202 -421.606 99.3322C-484.901 162.735 -519.754 247.043 -519.754 336.706L-492.841 336.706C-492.841 254.237 -460.785 176.707 -402.575 118.39L-402.575 118.399Z" fill="white"/>
<path opacity="0.5" d="M-383.543 137.466C-330.417 84.2424 -259.789 54.9294 -184.662 54.9295C-109.535 54.9295 -38.9064 84.2425 14.2187 137.466C67.3439 190.69 96.6026 261.449 96.6026 336.716L123.516 336.716C123.516 254.246 91.4602 176.717 33.2504 118.399C-24.9595 60.0814 -102.345 27.9661 -184.662 27.9661C-266.979 27.9661 -344.364 60.0814 -402.574 118.399C-460.784 176.717 -492.84 254.246 -492.84 336.716L-465.926 336.716C-465.926 261.449 -436.668 190.69 -383.543 137.466Z" fill="white"/>
<path opacity="0.7" d="M-364.521 156.523C-316.481 108.394 -252.609 81.8927 -184.672 81.8927C-116.735 81.8927 -52.8636 108.403 -4.82317 156.523C43.2173 204.653 69.6693 268.643 69.6693 336.706L96.5828 336.706C96.5828 261.44 67.3241 190.68 14.1989 137.456C-38.9263 84.2328 -109.555 54.9197 -184.682 54.9197C-259.809 54.9197 -330.437 84.2327 -383.562 137.456C-436.688 190.68 -465.946 261.44 -465.946 336.706L-439.033 336.706C-439.033 268.643 -412.571 204.653 -364.54 156.523L-364.521 156.523Z" fill="white"/>
</g>
</g>
<defs>
<clipPath id="clip0_81_123371">
<rect width="160" height="160" fill="white" transform="translate(160 160.706) rotate(-180)"/>
</clipPath>
<clipPath id="clip1_81_123371">
<rect width="724" height="362.667" fill="white" transform="translate(-546.667 -25.9607)"/>
</clipPath>
</defs>
</svg>
