<svg width="160" height="161" viewBox="0 0 160 161" fill="none" xmlns="http://www.w3.org/2000/svg">
<g clip-path="url(#clip0_81_123377)">
<g clip-path="url(#clip1_81_123377)">
<path opacity="0.1" d="M581.606 62.0799C518.321 125.492 434.169 160.409 344.672 160.409C255.175 160.409 171.023 125.492 107.728 62.0799C44.4429 -1.32254 9.58047 -85.6311 9.58048 -175.304L-17.333 -175.304C-17.333 -78.4281 20.3266 12.6406 88.6963 81.1468C157.066 149.653 247.976 187.373 344.672 187.373C441.368 187.373 532.268 149.643 600.638 81.1468C669.017 12.6503 706.667 -78.428 706.667 -175.294L679.754 -175.294C679.754 -85.6214 644.901 -1.32248 581.606 62.0895L581.606 62.0799Z" fill="white"/>
<path opacity="0.3" d="M562.575 43.0129C504.365 101.331 426.979 133.446 344.663 133.446C262.346 133.446 184.96 101.331 126.75 43.0129C68.5404 -15.305 36.4846 -92.8342 36.4846 -175.304L9.5712 -175.304C9.57119 -85.6311 44.424 -1.33218 107.719 62.0798C171.004 125.482 255.156 160.409 344.663 160.409C434.169 160.409 518.312 125.492 581.606 62.0799C644.901 -1.3225 679.754 -85.6311 679.754 -175.294L652.841 -175.294C652.841 -92.8245 620.785 -15.2953 562.575 43.0226L562.575 43.0129Z" fill="white"/>
<path opacity="0.5" d="M543.542 23.946C490.417 77.1697 419.789 106.483 344.662 106.483C269.535 106.483 198.906 77.1696 145.781 23.9459C92.6561 -29.2778 63.3974 -100.037 63.3974 -175.304L36.484 -175.304C36.484 -92.8342 68.5397 -15.305 126.75 43.0129C184.96 101.331 262.345 133.446 344.662 133.446C426.979 133.446 504.364 101.331 562.574 43.0129C620.784 -15.3049 652.84 -92.8342 652.84 -175.303L625.926 -175.303C625.926 -100.037 596.668 -29.2777 543.542 23.946Z" fill="white"/>
<path opacity="0.7" d="M524.521 4.88875C476.481 53.0183 412.609 79.5194 344.672 79.5194C276.735 79.5194 212.864 53.0087 164.823 4.88872C116.783 -43.2409 90.3306 -107.231 90.3307 -175.294L63.4172 -175.294C63.4172 -100.028 92.6759 -29.2681 145.801 23.9557C198.926 77.1794 269.555 106.492 344.682 106.492C419.809 106.492 490.437 77.1794 543.562 23.9557C596.688 -29.268 625.946 -100.028 625.946 -175.294L599.033 -175.294C599.033 -107.231 572.571 -43.2408 524.54 4.88875L524.521 4.88875Z" fill="white"/>
</g>
</g>
<defs>
<clipPath id="clip0_81_123377">
<rect width="160" height="160" fill="white" transform="translate(0 0.706055)"/>
</clipPath>
<clipPath id="clip1_81_123377">
<rect width="724" height="362.667" fill="white" transform="translate(706.667 187.373) rotate(-180)"/>
</clipPath>
</defs>
</svg>
