<svg width="107" height="91" fill="none" xmlns="http://www.w3.org/2000/svg"><g style="mix-blend-mode: multiply;"><mask id="a" maskUnits="userSpaceOnUse" x="19" y="81" width="53" height="10" style="mask-type: alpha;"><path fill-rule="evenodd" clip-rule="evenodd" d="M19.406 90.155H71.13v-8.344H19.406v8.344Z" fill="#fff"></path></mask><g mask="url(#a)"><path fill-rule="evenodd" clip-rule="evenodd" d="M71.129 87.193s-17.373-6.956-47.012-5.052c0 0-10.538.078-.091 5.979 2.373 1.37 6.274 3.006 28.568 1.313 5.525-.42 18.535-2.24 18.535-2.24Z" fill="#FEFEFE"></path></g><path fill-rule="evenodd" clip-rule="evenodd" d="M71.111 87.19s-17.235-6.904-46.654-5.017c0 0-10.46.077-.097 5.934 2.355 1.36 6.224 2.984 28.353 1.305 5.484-.416 18.398-2.221 18.398-2.221Z" fill="#FBFCFC"></path><path fill-rule="evenodd" clip-rule="evenodd" d="M71.095 87.188s-17.098-6.854-46.297-4.983c0 0-10.38.075-.102 5.89 2.335 1.35 6.174 2.96 28.138 1.296 5.443-.412 18.26-2.203 18.26-2.203Z" fill="#F9FAFB"></path><path fill-rule="evenodd" clip-rule="evenodd" d="M71.077 87.186s-16.96-6.803-45.938-4.948c0 0-10.302.073-.108 5.844 2.316 1.34 6.123 2.94 27.922 1.29 5.402-.41 18.124-2.186 18.124-2.186Z" fill="#F7F9FA"></path><path fill-rule="evenodd" clip-rule="evenodd" d="M71.06 87.183s-16.822-6.751-45.58-4.913c0 0-10.223.072-.114 5.799 2.297 1.33 6.074 2.917 27.707 1.281 5.36-.406 17.988-2.167 17.988-2.167Z" fill="#F5F7F8"></path><path fill-rule="evenodd" clip-rule="evenodd" d="M71.044 87.18s-16.686-6.7-45.224-4.878c0 0-10.144.071-.119 5.754 2.278 1.32 6.023 2.896 27.491 1.274 5.32-.403 17.852-2.15 17.852-2.15Z" fill="#F3F6F7"></path><path fill-rule="evenodd" clip-rule="evenodd" d="M71.027 87.178s-16.548-6.65-44.866-4.843c0 0-10.065.069-.124 5.709 2.258 1.31 5.973 2.873 27.276 1.265 5.279-.398 17.714-2.131 17.714-2.131Z" fill="#F1F5F6"></path><path fill-rule="evenodd" clip-rule="evenodd" d="M71.01 87.175S54.6 80.578 26.5 82.367c0 0-9.986.069-.13 5.665 2.24 1.3 5.923 2.851 27.06 1.258 5.239-.396 17.579-2.114 17.579-2.114Z" fill="#F0F4F6"></path><path fill-rule="evenodd" clip-rule="evenodd" d="M70.993 87.173s-16.273-6.547-44.151-4.774c0 0-9.907.066-.136 5.62 2.22 1.289 5.874 2.828 26.845 1.25 5.197-.393 17.442-2.096 17.442-2.096Z" fill="#EEF2F5"></path><path fill-rule="evenodd" clip-rule="evenodd" d="M70.976 87.17s-16.136-6.496-43.793-4.739c0 0-9.828.066-.141 5.575 2.2 1.279 5.822 2.806 26.63 1.241 5.155-.388 17.304-2.076 17.304-2.076Z" fill="#EDF1F4"></path><path fill-rule="evenodd" clip-rule="evenodd" d="M70.959 87.168s-15.999-6.445-43.436-4.705c0 0-9.75.064-.147 5.53 2.182 1.269 5.773 2.784 26.415 1.234 5.115-.385 17.168-2.059 17.168-2.059Z" fill="#EBF0F3"></path><path fill-rule="evenodd" clip-rule="evenodd" d="M70.942 87.165s-15.861-6.393-43.078-4.67c0 0-9.67.063-.152 5.486 2.163 1.258 5.722 2.762 26.198 1.226 5.075-.382 17.032-2.042 17.032-2.042Z" fill="#EAEFF2"></path><path fill-rule="evenodd" clip-rule="evenodd" d="M70.925 87.163S55.2 80.82 28.205 82.528c0 0-9.592.06-.158 5.44 2.143 1.248 5.672 2.74 25.983 1.218 5.033-.378 16.895-2.023 16.895-2.023Z" fill="#E9EEF1"></path><path fill-rule="evenodd" clip-rule="evenodd" d="M70.908 87.16s-15.587-6.29-42.363-4.6c0 0-9.513.06-.163 5.395 2.124 1.239 5.622 2.718 25.768 1.21 4.992-.374 16.758-2.004 16.758-2.004Z" fill="#E7EDF1"></path><path fill-rule="evenodd" clip-rule="evenodd" d="M70.89 87.158s-15.448-6.24-42.005-4.565c0 0-9.433.058-.168 5.349 2.105 1.23 5.572 2.696 25.552 1.203 4.951-.371 16.622-1.987 16.622-1.987Z" fill="#E6ECF0"></path><path fill-rule="evenodd" clip-rule="evenodd" d="M70.874 87.155s-15.312-6.189-41.648-4.53c0 0-9.355.057-.174 5.304 2.086 1.22 5.522 2.674 25.337 1.195 4.91-.367 16.485-1.969 16.485-1.969Z" fill="#E5EBEF"></path><path fill-rule="evenodd" clip-rule="evenodd" d="M70.857 87.153s-15.174-6.138-41.29-4.496c0 0-9.276.056-.18 5.26 2.067 1.208 5.472 2.651 25.122 1.187 4.869-.364 16.348-1.951 16.348-1.951Z" fill="#E4EAEE"></path><path fill-rule="evenodd" clip-rule="evenodd" d="M70.84 87.15s-15.037-6.087-40.933-4.46c0 0-9.197.053-.185 5.214 2.048 1.199 5.422 2.63 24.906 1.179 4.828-.36 16.212-1.932 16.212-1.932Z" fill="#E3EAEE"></path><path fill-rule="evenodd" clip-rule="evenodd" d="M70.823 87.148s-14.9-6.036-40.575-4.426c0 0-9.118.052-.19 5.17 2.028 1.188 5.371 2.606 24.69 1.17 4.787-.356 16.075-1.914 16.075-1.914Z" fill="#E1E9ED"></path><path fill-rule="evenodd" clip-rule="evenodd" d="M70.806 87.145s-14.762-5.984-40.217-4.39c0 0-9.04.05-.196 5.124 2.009 1.178 5.321 2.585 24.475 1.163 4.746-.353 15.938-1.897 15.938-1.897Z" fill="#E0E8EC"></path><path fill-rule="evenodd" clip-rule="evenodd" d="M70.79 87.143s-14.625-5.934-39.86-4.357c0 0-8.96.05-.202 5.08 1.99 1.168 5.271 2.563 24.26 1.155 4.705-.349 15.802-1.878 15.802-1.878Z" fill="#DFE7EB"></path><path fill-rule="evenodd" clip-rule="evenodd" d="M70.772 87.14S56.285 81.258 31.27 82.82c0 0-8.882.048-.207 5.034 1.97 1.159 5.22 2.541 24.044 1.148 4.664-.346 15.665-1.86 15.665-1.86Z" fill="#DEE6EB"></path><path fill-rule="evenodd" clip-rule="evenodd" d="M70.755 87.137s-14.35-5.83-39.145-4.286c0 0-8.802.047-.212 4.99 1.952 1.148 5.17 2.518 23.829 1.14 4.623-.343 15.528-1.844 15.528-1.844Z" fill="#DCE5EA"></path><path fill-rule="evenodd" clip-rule="evenodd" d="M70.738 87.135s-14.212-5.78-38.787-4.252c0 0-8.724.045-.218 4.945 1.933 1.138 5.12 2.496 23.613 1.132 4.583-.34 15.392-1.825 15.392-1.825Z" fill="#DBE4E9"></path><path fill-rule="evenodd" clip-rule="evenodd" d="M70.721 87.133s-14.075-5.73-38.43-4.217c0 0-8.644.043-.223 4.9 1.914 1.127 5.07 2.473 23.398 1.123 4.541-.335 15.255-1.806 15.255-1.806Z" fill="#DAE3E8"></path><path fill-rule="evenodd" clip-rule="evenodd" d="M70.704 87.13s-13.938-5.678-38.072-4.182c0 0-8.566.042-.229 4.855 1.894 1.118 5.02 2.451 23.183 1.115 4.5-.331 15.118-1.788 15.118-1.788Z" fill="#D9E2E7"></path><path fill-rule="evenodd" clip-rule="evenodd" d="M70.687 87.127s-13.8-5.626-37.714-4.147c0 0-8.487.041-.234 4.81 1.874 1.108 4.97 2.43 22.966 1.108 4.46-.328 14.982-1.77 14.982-1.77Z" fill="#D8E1E7"></path><path fill-rule="evenodd" clip-rule="evenodd" d="M70.67 87.125s-13.663-5.576-37.357-4.113c0 0-8.408.04-.24 4.765 1.856 1.098 4.92 2.407 22.752 1.1 4.418-.324 14.845-1.752 14.845-1.752Z" fill="#D6E0E6"></path><path fill-rule="evenodd" clip-rule="evenodd" d="M70.653 87.123s-13.525-5.525-36.999-4.078c0 0-8.33.038-.245 4.72 1.836 1.087 4.87 2.385 22.536 1.092 4.377-.321 14.708-1.734 14.708-1.734Z" fill="#D5DFE5"></path><path fill-rule="evenodd" clip-rule="evenodd" d="M70.637 87.12s-13.389-5.473-36.642-4.043c0 0-8.25.036-.251 4.675 1.818 1.077 4.82 2.363 22.32 1.085 4.337-.318 14.573-1.717 14.573-1.717Z" fill="#D4DEE4"></path><path fill-rule="evenodd" clip-rule="evenodd" d="M70.62 87.118s-13.252-5.422-36.285-4.009c0 0-8.171.036-.256 4.63 1.798 1.068 4.77 2.341 22.105 1.077 4.295-.314 14.436-1.698 14.436-1.698Z" fill="#D3DDE3"></path><path fill-rule="evenodd" clip-rule="evenodd" d="M70.603 87.115s-13.114-5.371-35.927-3.974c0 0-8.092.034-.262 4.586 1.78 1.057 4.72 2.318 21.89 1.069 4.254-.311 14.299-1.681 14.299-1.681Z" fill="#D2DDE3"></path><path fill-rule="evenodd" clip-rule="evenodd" d="M70.586 87.113s-12.977-5.32-35.57-3.94c0 0-8.013.033-.267 4.54 1.76 1.048 4.67 2.297 21.674 1.062 4.214-.307 14.163-1.662 14.163-1.662Z" fill="#D0DCE2"></path><path fill-rule="evenodd" clip-rule="evenodd" d="M70.569 87.11s-12.84-5.27-35.212-3.904c0 0-7.935.03-.273 4.495 1.74 1.037 4.62 2.274 21.46 1.053 4.171-.304 14.025-1.644 14.025-1.644Z" fill="#CFDBE1"></path><path fill-rule="evenodd" clip-rule="evenodd" d="M70.552 87.107S57.85 81.89 35.698 83.238c0 0-7.856.03-.278 4.45 1.721 1.027 4.569 2.252 21.243 1.046 4.131-.3 13.889-1.627 13.889-1.627Z" fill="#CEDAE0"></path><path fill-rule="evenodd" clip-rule="evenodd" d="M70.535 87.105S57.97 81.939 36.038 83.27c0 0-7.776.028-.283 4.404 1.702 1.018 4.518 2.23 21.027 1.038 4.09-.296 13.753-1.608 13.753-1.608Z" fill="#CDD9E0"></path><path fill-rule="evenodd" clip-rule="evenodd" d="M70.518 87.103s-12.427-5.116-34.14-3.8c0 0-7.697.027-.289 4.36 1.684 1.007 4.469 2.208 20.813 1.03 4.05-.293 13.616-1.59 13.616-1.59Z" fill="#CCD8DF"></path><path fill-rule="evenodd" clip-rule="evenodd" d="M70.5 87.1s-12.288-5.064-33.78-3.765c0 0-7.62.025-.295 4.315 1.664.997 4.418 2.186 20.597 1.022C61.03 88.382 70.5 87.1 70.5 87.1Z" fill="#CBD7DE"></path><path fill-rule="evenodd" clip-rule="evenodd" d="M70.479 87.098s-12.224-5.039-33.603-3.747c0 0-7.579.025-.293 4.293 1.655.991 4.395 2.174 20.488 1.017 3.987-.288 13.408-1.563 13.408-1.563Z" fill="#CAD6DD"></path><path fill-rule="evenodd" clip-rule="evenodd" d="M70.456 87.095s-12.159-5.012-33.424-3.728c0 0-7.539.025-.292 4.27 1.646.987 4.372 2.162 20.38 1.012 3.965-.286 13.336-1.554 13.336-1.554Z" fill="#C8D5DD"></path><path fill-rule="evenodd" clip-rule="evenodd" d="M70.434 87.093s-12.094-4.986-33.246-3.71c0 0-7.498.024-.29 4.247 1.637.981 4.348 2.151 20.27 1.008 3.945-.284 13.266-1.545 13.266-1.545Z" fill="#C7D4DC"></path><path fill-rule="evenodd" clip-rule="evenodd" d="M70.412 87.09s-12.029-4.959-33.068-3.69c0 0-7.457.023-.289 4.223 1.629.977 4.325 2.14 20.163 1.004 3.923-.282 13.194-1.536 13.194-1.536Z" fill="#C6D4DB"></path><path fill-rule="evenodd" clip-rule="evenodd" d="M70.39 87.088s-11.965-4.933-32.89-3.672c0 0-7.418.022-.288 4.2 1.62.972 4.302 2.13 20.054 1 3.902-.281 13.123-1.528 13.123-1.528Z" fill="#C5D3DA"></path><path fill-rule="evenodd" clip-rule="evenodd" d="M70.368 87.086s-11.9-4.907-32.711-3.654c0 0-7.378.022-.287 4.178 1.611.966 4.278 2.118 19.945.995 3.881-.279 13.053-1.519 13.053-1.519Z" fill="#C4D2DA"></path><path fill-rule="evenodd" clip-rule="evenodd" d="M70.345 87.084s-11.833-4.881-32.532-3.636c0 0-7.338.022-.285 4.156 1.602.96 4.254 2.106 19.836.99 3.86-.278 12.981-1.51 12.981-1.51Z" fill="#C3D1D9"></path><path fill-rule="evenodd" clip-rule="evenodd" d="M70.323 87.082s-11.769-4.855-32.354-3.618c0 0-7.297.022-.284 4.133 1.594.955 4.231 2.094 19.727.986 3.84-.276 12.911-1.501 12.911-1.501Z" fill="#C2D0D8"></path><path fill-rule="evenodd" clip-rule="evenodd" d="M70.301 87.08s-11.704-4.83-32.176-3.6c0 0-7.257.021-.282 4.11 1.584.95 4.207 2.084 19.618.981 3.818-.273 12.84-1.492 12.84-1.492Z" fill="#C1CFD7"></path><path fill-rule="evenodd" clip-rule="evenodd" d="M70.279 87.077s-11.639-4.802-31.997-3.58c0 0-7.217.02-.282 4.086 1.576.946 4.185 2.073 19.51.977 3.797-.272 12.769-1.483 12.769-1.483Z" fill="#BFCED6"></path><path fill-rule="evenodd" clip-rule="evenodd" d="M70.257 87.075s-11.574-4.777-31.82-3.563c0 0-7.176.02-.28 4.065 1.568.94 4.162 2.06 19.402.972 3.776-.27 12.698-1.474 12.698-1.474Z" fill="#BECDD6"></path><path fill-rule="evenodd" clip-rule="evenodd" d="M70.234 87.072s-11.508-4.75-31.64-3.543c0 0-7.137.019-.28 4.041 1.559.935 4.139 2.05 19.293.968 3.755-.269 12.627-1.466 12.627-1.466Z" fill="#BDCCD5"></path><path fill-rule="evenodd" clip-rule="evenodd" d="M70.212 87.07S58.77 82.346 38.75 83.544c0 0-7.096.02-.277 4.02 1.55.929 4.114 2.037 19.184.963 3.733-.267 12.555-1.457 12.555-1.457Z" fill="#BCCBD4"></path><path fill-rule="evenodd" clip-rule="evenodd" d="M70.19 87.068S58.812 82.37 38.906 83.56c0 0-7.056.018-.276 3.996 1.54.924 4.091 2.026 19.076.958 3.712-.265 12.484-1.447 12.484-1.447Z" fill="#BBCBD3"></path><path fill-rule="evenodd" clip-rule="evenodd" d="M70.168 87.065s-11.314-4.671-31.106-3.489c0 0-7.016.019-.274 3.974 1.53.92 4.067 2.015 18.966.954 3.691-.263 12.414-1.439 12.414-1.439Z" fill="#BACAD2"></path><path fill-rule="evenodd" clip-rule="evenodd" d="M70.145 87.063s-11.248-4.645-30.927-3.47c0 0-6.976.018-.273 3.95 1.522.914 4.044 2.004 18.858.95 3.67-.262 12.342-1.43 12.342-1.43Z" fill="#B9C9D2"></path><path fill-rule="evenodd" clip-rule="evenodd" d="M70.124 87.061s-11.184-4.62-30.749-3.452c0 0-6.936.018-.272 3.928 1.514.909 4.021 1.992 18.75.945 3.648-.26 12.27-1.421 12.27-1.421Z" fill="#B7C8D1"></path><path fill-rule="evenodd" clip-rule="evenodd" d="M70.101 87.058s-11.118-4.592-30.57-3.433c0 0-6.896.017-.27 3.905 1.504.904 3.997 1.981 18.64.941 3.627-.259 12.2-1.413 12.2-1.413Z" fill="#B6C7D0"></path><path fill-rule="evenodd" clip-rule="evenodd" d="M70.08 87.056s-11.054-4.566-30.392-3.415c0 0-6.856.017-.27 3.882 1.496.9 3.974 1.97 18.532.937 3.606-.257 12.13-1.404 12.13-1.404Z" fill="#B5C6CF"></path><path fill-rule="evenodd" clip-rule="evenodd" d="M70.057 87.054s-10.988-4.54-30.213-3.397c0 0-6.815.016-.268 3.86 1.487.893 3.95 1.958 18.423.931 3.585-.255 12.058-1.394 12.058-1.394Z" fill="#B4C5CE"></path><path fill-rule="evenodd" clip-rule="evenodd" d="M70.035 87.052S59.112 82.537 40 83.674c0 0-6.775.015-.267 3.836 1.479.888 3.927 1.947 18.314.927 3.564-.254 11.988-1.385 11.988-1.385Z" fill="#B3C4CE"></path><path fill-rule="evenodd" clip-rule="evenodd" d="M70.012 87.05s-10.858-4.488-29.856-3.36c0 0-6.735.015-.266 3.813 1.47.883 3.904 1.936 18.206.923 3.543-.252 11.916-1.377 11.916-1.377Z" fill="#B2C3CD"></path><path fill-rule="evenodd" clip-rule="evenodd" d="M69.99 87.047s-10.792-4.462-29.678-3.341c0 0-6.694.014-.264 3.79 1.461.879 3.88 1.925 18.097.919 3.522-.25 11.845-1.368 11.845-1.368Z" fill="#B1C2CC"></path><path fill-rule="evenodd" clip-rule="evenodd" d="M69.968 87.045s-10.728-4.436-29.5-3.323c0 0-6.654.014-.263 3.768 1.453.872 3.858 1.913 17.989.914 3.5-.249 11.774-1.36 11.774-1.36Z" fill="#B0C2CB"></path><path fill-rule="evenodd" clip-rule="evenodd" d="M69.946 87.043s-10.663-4.41-29.321-3.305c0 0-6.615.014-.262 3.745 1.443.868 3.834 1.902 17.88.91 3.48-.247 11.703-1.35 11.703-1.35Z" fill="#AFC1CB"></path><path fill-rule="evenodd" clip-rule="evenodd" d="M69.924 87.04s-10.598-4.383-29.143-3.286c0 0-6.575.013-.26 3.722 1.434.863 3.81 1.89 17.77.905 3.459-.245 11.633-1.341 11.633-1.341Z" fill="#ADC0CA"></path><path fill-rule="evenodd" clip-rule="evenodd" d="M69.901 87.038S59.37 82.68 40.938 83.77c0 0-6.534.013-.259 3.7 1.426.857 3.787 1.879 17.662.9 3.438-.244 11.561-1.332 11.561-1.332Z" fill="#ACBFC9"></path><path fill-rule="evenodd" clip-rule="evenodd" d="M69.88 87.036s-10.468-4.33-28.787-3.25c0 0-6.494.013-.257 3.677 1.416.852 3.763 1.868 17.553.896 3.416-.242 11.49-1.323 11.49-1.323Z" fill="#ABBEC8"></path><path fill-rule="evenodd" clip-rule="evenodd" d="M69.857 87.033s-10.402-4.304-28.607-3.23c0 0-6.454.011-.257 3.654 1.408.846 3.74 1.856 17.445.891 3.395-.24 11.42-1.315 11.42-1.315Z" fill="#AABDC7"></path><path fill-rule="evenodd" clip-rule="evenodd" d="M69.835 87.03s-10.337-4.278-28.43-3.212c0 0-6.413.012-.254 3.632 1.4.841 3.717 1.845 17.336.887 3.374-.239 11.348-1.306 11.348-1.306Z" fill="#A9BCC7"></path><path fill-rule="evenodd" clip-rule="evenodd" d="M69.812 87.029s-10.272-4.253-28.25-3.194c0 0-6.374.01-.254 3.608 1.39.837 3.693 1.834 17.227.883 3.353-.237 11.277-1.297 11.277-1.297Z" fill="#A8BBC6"></path><path fill-rule="evenodd" clip-rule="evenodd" d="M69.79 87.026S59.583 82.8 41.718 83.851c0 0-6.333.01-.252 3.586 1.381.83 3.67 1.822 17.119.878 3.33-.236 11.205-1.289 11.205-1.289Z" fill="#A7BBC5"></path><path fill-rule="evenodd" clip-rule="evenodd" d="M69.768 87.024s-10.142-4.2-27.894-3.157c0 0-6.293.01-.25 3.563 1.372.826 3.646 1.81 17.01.873 3.31-.233 11.134-1.279 11.134-1.279Z" fill="#A6BAC4"></path><path fill-rule="evenodd" clip-rule="evenodd" d="M69.746 87.022s-10.077-4.174-27.716-3.139c0 0-6.252.01-.25 3.54 1.364.821 3.624 1.8 16.902.87 3.29-.233 11.064-1.271 11.064-1.271Z" fill="#A5B9C3"></path><path fill-rule="evenodd" clip-rule="evenodd" d="M69.723 87.02s-10.012-4.148-27.537-3.121c0 0-6.213.009-.248 3.517 1.355.816 3.6 1.789 16.792.865 3.269-.23 10.993-1.262 10.993-1.262Z" fill="#A4B8C3"></path><path fill-rule="evenodd" clip-rule="evenodd" d="M69.701 87.017s-9.947-4.121-27.358-3.102c0 0-6.173.009-.248 3.495 1.347.81 3.577 1.776 16.684.86 3.247-.229 10.922-1.253 10.922-1.253Z" fill="#A3B7C2"></path><path fill-rule="evenodd" clip-rule="evenodd" d="M69.68 87.015s-9.883-4.095-27.18-3.084c0 0-6.133.008-.246 3.472 1.337.805 3.553 1.766 16.575.856 3.225-.227 10.85-1.244 10.85-1.244Z" fill="#A2B6C1"></path><path fill-rule="evenodd" clip-rule="evenodd" d="M69.657 87.012s-9.816-4.068-27.001-3.065c0 0-6.093.008-.245 3.449 1.328.8 3.53 1.755 16.467.851 3.204-.225 10.78-1.235 10.78-1.235Z" fill="#A0B5C0"></path><path fill-rule="evenodd" clip-rule="evenodd" d="M69.635 87.01s-9.752-4.042-26.823-3.047c0 0-6.052.008-.243 3.427 1.32.795 3.506 1.742 16.357.846 3.183-.223 10.709-1.226 10.709-1.226Z" fill="#9FB4BF"></path><path fill-rule="evenodd" clip-rule="evenodd" d="M69.613 87.008s-9.687-4.016-26.645-3.028c0 0-6.012.006-.242 3.403 1.31.79 3.483 1.732 16.25.842 3.162-.222 10.637-1.217 10.637-1.217Z" fill="#9EB3BE"></path><path fill-rule="evenodd" clip-rule="evenodd" d="M69.59 87.005s-9.621-3.99-26.466-3.01c0 0-5.972.007-.24 3.38 1.301.786 3.46 1.722 16.14.84 3.141-.221 10.567-1.21 10.567-1.21Z" fill="#9DB2BE"></path><path fill-rule="evenodd" clip-rule="evenodd" d="M69.568 87.003s-9.557-3.964-26.288-2.991c0 0-5.932.005-.24 3.357 1.294.78 3.437 1.71 16.032.833 3.12-.218 10.496-1.199 10.496-1.199Z" fill="#9CB2BD"></path><path fill-rule="evenodd" clip-rule="evenodd" d="M69.546 87s-9.492-3.937-26.11-2.972c0 0-5.891.005-.238 3.335 1.285.774 3.413 1.697 15.923.829C62.221 87.975 69.546 87 69.546 87Z" fill="#9BB1BC"></path><path fill-rule="evenodd" clip-rule="evenodd" d="M69.524 86.999s-9.427-3.911-25.932-2.955c0 0-5.851.005-.236 3.312 1.275.77 3.39 1.686 15.814.824C62.248 87.965 69.524 87 69.524 87Z" fill="#9AB0BB"></path><path fill-rule="evenodd" clip-rule="evenodd" d="M69.502 86.997S60.14 83.11 43.749 84.06c0 0-5.812.005-.236 3.29 1.267.764 3.367 1.675 15.706.82 3.057-.214 10.283-1.173 10.283-1.173Z" fill="#99AFBA"></path><path fill-rule="evenodd" clip-rule="evenodd" d="M69.48 86.994s-9.297-3.859-25.575-2.918c0 0-5.77.004-.234 3.267 1.258.759 3.343 1.663 15.597.815 3.036-.211 10.212-1.164 10.212-1.164Z" fill="#98AEBA"></path><path fill-rule="evenodd" clip-rule="evenodd" d="M69.457 86.992s-9.231-3.833-25.396-2.9c0 0-5.73.004-.233 3.244 1.25.754 3.32 1.653 15.489.811 3.014-.21 10.14-1.155 10.14-1.155Z" fill="#97ADB9"></path><path fill-rule="evenodd" clip-rule="evenodd" d="M69.435 86.99s-9.167-3.807-25.218-2.882c0 0-5.69.004-.231 3.221 1.24.749 3.296 1.641 15.38.806 2.993-.207 10.069-1.145 10.069-1.145Z" fill="#96ACB8"></path><path fill-rule="evenodd" clip-rule="evenodd" d="M69.413 86.987s-9.101-3.78-25.04-2.862c0 0-5.65.002-.23 3.198 1.232.743 3.273 1.63 15.271.802 2.972-.207 9.999-1.138 9.999-1.138Z" fill="#95ABB7"></path><path fill-rule="evenodd" clip-rule="evenodd" d="M69.39 86.985s-9.036-3.754-24.86-2.844c0 0-5.61.002-.229 3.175 1.223.738 3.25 1.618 15.162.797 2.951-.204 9.928-1.128 9.928-1.128Z" fill="#94ABB7"></path><path fill-rule="evenodd" clip-rule="evenodd" d="M69.368 86.983s-8.971-3.728-24.682-2.826c0 0-5.57.001-.228 3.152 1.214.733 3.226 1.607 15.054.794 2.93-.204 9.856-1.12 9.856-1.12Z" fill="#93AAB6"></path><path fill-rule="evenodd" clip-rule="evenodd" d="M69.347 86.98s-8.906-3.702-24.504-2.807c0 0-5.53 0-.227 3.13 1.205.728 3.203 1.596 14.945.788 2.909-.201 9.786-1.11 9.786-1.11Z" fill="#92A9B5"></path><path fill-rule="evenodd" clip-rule="evenodd" d="M69.324 86.978S60.484 83.302 45 84.19c0 0-5.49 0-.225 3.107 1.196.723 3.179 1.584 14.836.784 2.888-.2 9.714-1.102 9.714-1.102Z" fill="#91A8B4"></path><path fill-rule="evenodd" clip-rule="evenodd" d="M69.302 86.976s-8.776-3.65-24.147-2.771c0 0-5.45 0-.224 3.084 1.187.718 3.156 1.573 14.728.78 2.866-.198 9.643-1.093 9.643-1.093Z" fill="#90A7B3"></path><path fill-rule="evenodd" clip-rule="evenodd" d="M69.28 86.973s-8.71-3.623-23.968-2.752c0 0-5.41 0-.223 3.062 1.179.712 3.133 1.561 14.619.775 2.845-.197 9.572-1.085 9.572-1.085Z" fill="#8FA6B2"></path><path fill-rule="evenodd" clip-rule="evenodd" d="M69.258 86.971s-8.646-3.597-23.79-2.733c0 0-5.37-.001-.222 3.038 1.17.707 3.11 1.55 14.51.77 2.824-.194 9.502-1.075 9.502-1.075Z" fill="#8EA5B2"></path><path fill-rule="evenodd" clip-rule="evenodd" d="M69.235 86.97s-8.58-3.572-23.612-2.717c0 0-5.329 0-.22 3.016 1.162.702 3.086 1.54 14.402.766 2.803-.193 9.43-1.066 9.43-1.066Z" fill="#8DA4B1"></path><path fill-rule="evenodd" clip-rule="evenodd" d="M69.213 86.967s-8.516-3.545-23.434-2.697c0 0-5.289-.002-.218 2.993 1.152.697 3.062 1.527 14.293.761 2.782-.191 9.359-1.057 9.359-1.057Z" fill="#8CA3B0"></path><path fill-rule="evenodd" clip-rule="evenodd" d="M69.191 86.964s-8.45-3.518-23.255-2.678c0 0-5.249-.003-.217 2.97 1.143.691 3.039 1.516 14.184.757 2.76-.19 9.288-1.049 9.288-1.049Z" fill="#8BA3AF"></path><path fill-rule="evenodd" clip-rule="evenodd" d="M69.169 86.962s-8.386-3.493-23.077-2.66c0 0-5.209-.003-.215 2.947 1.134.686 3.015 1.505 14.075.753 2.74-.188 9.217-1.04 9.217-1.04Z" fill="#8AA2AF"></path><path fill-rule="evenodd" clip-rule="evenodd" d="M69.146 86.96s-8.32-3.466-22.898-2.642c0 0-5.168-.003-.215 2.925 1.126.681 2.993 1.493 13.967.747 2.719-.186 9.146-1.03 9.146-1.03Z" fill="#89A1AE"></path><path fill-rule="evenodd" clip-rule="evenodd" d="M69.124 86.957s-8.255-3.44-22.72-2.623c0 0-5.128-.004-.213 2.901 1.117.677 2.97 1.483 13.858.744 2.697-.184 9.075-1.022 9.075-1.022Z" fill="#88A0AD"></path><path fill-rule="evenodd" clip-rule="evenodd" d="M69.102 86.955s-8.19-3.414-22.541-2.605c0 0-5.089-.004-.212 2.879 1.108.671 2.945 1.471 13.749.74 2.676-.184 9.004-1.014 9.004-1.014Z" fill="#879FAC"></path><path fill-rule="evenodd" clip-rule="evenodd" d="M69.08 86.953s-8.126-3.388-22.363-2.587c0 0-5.048-.005-.21 2.856 1.098.666 2.921 1.46 13.64.735 2.655-.181 8.933-1.004 8.933-1.004Z" fill="#869FAB"></path><path fill-rule="evenodd" clip-rule="evenodd" d="M69.058 86.95s-8.06-3.36-22.185-2.568c0 0-5.008-.005-.21 2.833 1.09.662 2.9 1.449 13.533.73 2.633-.179 8.862-.994 8.862-.994Z" fill="#859EAB"></path><path fill-rule="evenodd" clip-rule="evenodd" d="M69.036 86.948s-7.995-3.335-22.007-2.55c0 0-4.967-.005-.207 2.81 1.081.657 2.875 1.438 13.423.726 2.612-.177 8.79-.986 8.79-.986Z" fill="#849DAA"></path><path fill-rule="evenodd" clip-rule="evenodd" d="M69.013 86.946s-7.93-3.309-21.828-2.531c0 0-4.927-.007-.206 2.787 1.072.65 2.851 1.426 13.314.721 2.592-.176 8.72-.977 8.72-.977Z" fill="#839CA9"></path><path fill-rule="evenodd" clip-rule="evenodd" d="M68.991 86.944s-7.865-3.283-21.65-2.513c0 0-4.887-.007-.205 2.765 1.064.645 2.829 1.414 13.206.716 2.57-.174 8.649-.968 8.649-.968Z" fill="#829BA8"></path><path fill-rule="evenodd" clip-rule="evenodd" d="M68.969 86.941s-7.8-3.256-21.471-2.494c0 0-4.847-.007-.204 2.742 1.055.64 2.805 1.403 13.097.712 2.55-.173 8.578-.96 8.578-.96Z" fill="#819AA8"></path><path fill-rule="evenodd" clip-rule="evenodd" d="M68.947 86.94s-7.735-3.231-21.293-2.477c0 0-4.807-.007-.202 2.72 1.045.634 2.781 1.391 12.988.707 2.528-.171 8.507-.95 8.507-.95Z" fill="#809AA7"></path><path fill-rule="evenodd" clip-rule="evenodd" d="M68.925 86.937s-7.67-3.204-21.115-2.458c0 0-4.767-.008-.2 2.697 1.036.63 2.757 1.38 12.879.703 2.507-.17 8.436-.942 8.436-.942Z" fill="#7F99A6"></path><path fill-rule="evenodd" clip-rule="evenodd" d="M68.902 86.934s-7.605-3.178-20.936-2.439c0 0-4.726-.008-.2 2.674 1.029.624 2.735 1.369 12.771.699 2.486-.168 8.365-.934 8.365-.934Z" fill="#7E98A5"></path></g><path fill-rule="evenodd" clip-rule="evenodd" d="M86.78 37.918c-.855-.264-3.816-.467-11.321-.2-7.503.268-15.598.535-15.928.468-.327-.065-6.384-6.68-11.384-10.888-5.003-4.208-5.464-4.476-5.53-4.275 0 0-1.843 15.23-6.385 19.373l-25.47 6.346s17.967 9.353 17.506 10.488c-.46 1.135-4.015 8.015-9.476 14.763 0 0 14.545 1.003 30.54-3.473 0 0 8.226 3.606 21.784 16.1 0 0 3.818-11.224 2.236-18.84-1.578-7.615-1.973-8.082-.13-9.752s7.306-6.881 10.597-12.694c3.29-5.81 3.815-7.148 2.961-7.416Z" fill="#BED62F"></path><path fill-rule="evenodd" clip-rule="evenodd" d="M64.03 60.467S54.169 67.61 41.154 61.6c0 0 11.252 2.65 22.876-1.133ZM57.228 44.02c-.623.02-1.226.636-1.293 1.36-.067.726.175 5.216.416 7.349.241 2.132.702 4.06 1.928 4.285 1.23.227 1.996-.135 1.996-2.403 0-2.267-.461-5.647-.899-7.575-.439-1.928-1.128-3.05-2.148-3.015ZM44.33 45.06c-.622.023-1.226.635-1.293 1.363-.07.76.318 4.54.562 6.698.242 2.132.556 4.708 1.783 4.935 1.227.228 1.996-.135 1.996-2.405 0-2.268-.461-5.645-.9-7.573-.438-1.927-1.128-3.05-2.148-3.018Z" fill="#40606F"></path><path fill-rule="evenodd" clip-rule="evenodd" d="m7.698 40.206 2.546 16.44c3.119.346 6.456.2 9.847-.516 3.31-.7 6.353-1.877 9.015-3.4L24.485 36.15 7.698 40.206Z" fill="#313F44"></path><path fill-rule="evenodd" clip-rule="evenodd" d="m7.7 40.212.474 3.065c3.183.378 6.599.241 10.07-.494a31.545 31.545 0 0 0 7.393-2.538l-1.14-4.093-16.798 4.06Z" fill="#C9DD03"></path><path fill-rule="evenodd" clip-rule="evenodd" d="m7.7 40.218.159 1.03c2.484-.234 5.477-.695 8.67-1.372 3.152-.667 6.04-1.447 8.387-2.23l-.416-1.494-16.8 4.066Z" fill="#A0A01C"></path><path fill-rule="evenodd" clip-rule="evenodd" d="M15.38 34.485c8.219-1.74 15.113-2.06 15.4-.714.288 1.345-6.142 3.846-14.36 5.586-8.218 1.74-15.113 2.06-15.4.714-.287-1.346 6.142-3.846 14.36-5.586Z" fill="#4B636E"></path><path fill-rule="evenodd" clip-rule="evenodd" d="M15.574 35.394c4.45-.942 8.173-1.165 8.316-.497.142.668-3.35 1.973-7.8 2.915-4.45.942-8.173 1.164-8.315.497-.143-.668 3.35-1.973 7.8-2.915Z" fill="#242D30"></path><path fill-rule="evenodd" clip-rule="evenodd" d="M99.076 45.856c3.141-5.497 1.272-12.528-4.174-15.705-5.446-3.177-12.407-1.297-15.548 4.2-3.14 5.496-1.272 12.528 4.174 15.705 5.446 3.177 12.408 1.297 15.548-4.2Z" fill="#E3262D"></path><path fill-rule="evenodd" clip-rule="evenodd" d="M88.623 38.357c-.284 1.123-1.01 1.696-3.44 2.708l1.363.354c.867.225 1.233.265 1.484.167.045.12.052.264.013.417-.132.52-.696.962-1.594.728l-3.218-.835c-.242-.063-.444-.115-.538-.129-.082-.184-.07-.486-.018-.69.078-.306.194-.384.432-.475 2.908-1.16 3.493-1.562 3.716-2.44.145-.572-.127-1.023-.793-1.196-.706-.183-1.355.17-1.6.585-.393-.232-.47-.567-.356-1.016.166-.654 1.104-1.258 2.648-.858 1.675.435 2.174 1.608 1.901 2.68ZM93.151 40.772c.973.405 1.284 1.171 1.106 1.875-.334 1.317-1.5 1.798-3.568 1.261-1.574-.408-2.017-1.122-1.861-1.734.078-.306.268-.55.51-.694.158.52.746.998 1.664 1.236.878.228 1.245.095 1.367-.385.137-.54-.265-.862-1.062-1.07-.162-.041-.434-.068-.644-.003-.166-.239-.186-.582-.124-.827.093-.367.397-.55.851-.431.858.222 1.306.11 1.461-.502.103-.408-.129-.85-.845-1.036-.686-.178-1.322.082-1.564.486-.373-.227-.45-.562-.34-.99.16-.633.997-1.134 2.682-.697 1.563.406 2.204 1.486 1.958 2.456-.145.571-.613 1.059-1.59 1.055Z" fill="#fff"></path><path fill-rule="evenodd" clip-rule="evenodd" d="M101.084 15.268c2.211-3.869.895-8.818-2.938-11.054-3.833-2.236-8.732-.912-10.942 2.956-2.21 3.869-.895 8.818 2.938 11.054 3.833 2.236 8.732.912 10.942-2.956Z" fill="#0094B3"></path><path fill-rule="evenodd" clip-rule="evenodd" d="M92.991 11.117c.794-.012 1.235.426 1.319.968.155 1.014-.511 1.698-2.104 1.948-1.212.191-1.729-.17-1.802-.642a.862.862 0 0 1 .15-.635c.263.313.811.468 1.519.357.675-.107.89-.31.834-.679-.064-.416-.438-.518-1.051-.422a.988.988 0 0 0-.448.191c-.185-.116-.3-.347-.33-.536-.043-.283.115-.5.464-.556.66-.103.938-.316.866-.788-.048-.314-.34-.55-.89-.463-.53.083-.894.454-.943.808-.325-.046-.477-.255-.527-.585-.075-.487.358-1.087 1.655-1.29 1.204-.19 1.966.366 2.08 1.113.069.44-.112.92-.792 1.211ZM96.74 9.465l-.971 2.165 1.273-.2-.301-1.965Zm2.277 1.51c.067.07.113.167.131.284.062.401-.162.758-.64.857l.057.37c.067.44-.151.62-.61.691a1.357 1.357 0 0 1-.777-.087c.048-.152.045-.433-.005-.755l-2.183.343a.83.83 0 0 1-.252-.5.726.726 0 0 1 .087-.52l1.63-3.477c.101-.072.35-.16.521-.186.653-.102.925.12 1.032.812.053.346.355 2.415.355 2.415.186-.03.509-.104.654-.248Z" fill="#fff"></path><path fill-rule="evenodd" clip-rule="evenodd" d="M75.284 28.41c2.106-3.68.855-8.387-2.795-10.513-3.65-2.126-8.315-.865-10.421 2.815-2.106 3.68-.855 8.387 2.794 10.513 3.65 2.126 8.315.865 10.422-2.815Z" fill="#F6A500"></path><path fill-rule="evenodd" clip-rule="evenodd" d="m66.415 23.284-1.038 1.682 1.075-.025-.037-1.657Zm1.719 1.5a.442.442 0 0 1 .077.251c.008.338-.216.608-.622.637l.007.312c.008.371-.192.495-.58.504a1.13 1.13 0 0 1-.632-.158c.057-.12.084-.354.078-.626l-1.841.042a.694.694 0 0 1-.155-.441.605.605 0 0 1 .13-.42l1.723-2.693c.091-.049.307-.093.45-.096.551-.013.753.202.765.785.007.292.032 2.036.032 2.036.157-.004.432-.03.568-.133ZM70.342 23.195l-1.039 1.682 1.075-.024-.036-1.658Zm1.718 1.5a.443.443 0 0 1 .078.251c.007.338-.217.608-.623.637l.007.312c.009.371-.192.496-.579.504a1.13 1.13 0 0 1-.633-.158c.057-.12.084-.353.078-.625l-1.841.041a.695.695 0 0 1-.154-.44.605.605 0 0 1 .128-.422l1.725-2.692c.09-.048.306-.093.45-.096.55-.012.752.202.765.785.006.292.031 2.036.031 2.036.157-.003.432-.03.568-.132Z" fill="#fff"></path><path fill-rule="evenodd" clip-rule="evenodd" d="M79.743 12.996s.73.385 1.064.641c0 0 1.128-.276 1.427-.312 0 0-.029.485-.564 1.288 0 0 .358.716.26 1.4 0 0-.653-.43-1.306-.591 0 0-.882.412-1.509.512 0 0 .241-.582.312-.89 0 0-.782-.271-1.053-.335l1.302-.628s.227-.535.067-1.085ZM82.898 18.814s.439.23.639.384c0 0 .677-.165.856-.187 0 0-.017.29-.339.773 0 0 .215.43.156.84 0 0-.391-.259-.783-.355 0 0-.53.248-.905.308 0 0 .144-.35.187-.535 0 0-.47-.162-.632-.2l.781-.377s.136-.322.04-.651ZM87.127 14.727s.713.376 1.038.625c0 0 1.1-.27 1.39-.304 0 0-.028.472-.55 1.255 0 0 .35.698.253 1.365 0 0-.636-.42-1.272-.577 0 0-.859.402-1.47.5 0 0 .235-.568.304-.869 0 0-.763-.263-1.026-.325l1.269-.612s.22-.522.064-1.058ZM90.118 55.465s.73.385 1.064.641c0 0 1.128-.276 1.427-.312 0 0-.029.484-.564 1.288 0 0 .358.716.26 1.4 0 0-.653-.431-1.306-.592 0 0-.882.413-1.509.513 0 0 .241-.582.312-.89 0 0-.782-.272-1.053-.335l1.302-.628s.227-.536.067-1.085ZM97.503 57.196s.712.375 1.037.625c0 0 1.1-.27 1.391-.304 0 0-.028.472-.55 1.255 0 0 .349.698.253 1.364 0 0-.636-.42-1.272-.576 0 0-.86.402-1.47.5 0 0 .234-.568.303-.869 0 0-.762-.264-1.026-.326l1.269-.611s.22-.523.065-1.058ZM68.256 42.047s1.297.684 1.89 1.138c0 0 2.005-.49 2.537-.554 0 0-.052.861-1.003 2.289 0 0 .636 1.272.461 2.487 0 0-1.16-.766-2.32-1.052 0 0-1.566.735-2.68.911 0 0 .428-1.033.555-1.582 0 0-1.392-.48-1.873-.594l2.315-1.115s.401-.952.118-1.928ZM65.899 39.308s.526.277.765.461c0 0 .81-.198 1.027-.224 0 0-.022.348-.406.926 0 0 .257.515.187 1.006 0 0-.47-.31-.94-.424 0 0-.633.296-1.084.367 0 0 .173-.417.224-.64 0 0-.563-.194-.757-.24l.936-.451s.163-.386.048-.781ZM89.134 22.864s.257.136.374.226c0 0 .397-.097.503-.11 0 0-.01.171-.199.454 0 0 .126.253.092.494 0 0-.23-.152-.46-.209 0 0-.31.145-.53.18 0 0 .084-.204.11-.313 0 0-.276-.096-.371-.118l.458-.221s.08-.19.023-.383ZM99.3 52.42s.438.231.638.385c0 0 .677-.166.856-.187 0 0-.017.29-.338.772 0 0 .214.43.155.84 0 0-.391-.258-.783-.355 0 0-.529.248-.905.308 0 0 .145-.35.187-.535 0 0-.47-.162-.632-.2l.782-.377s.135-.321.04-.65ZM105.535 56.471s.257.136.374.226c0 0 .397-.097.503-.11 0 0-.011.171-.199.454 0 0 .126.253.092.494 0 0-.23-.152-.46-.209 0 0-.31.146-.531.18 0 0 .085-.204.11-.313 0 0-.275-.096-.37-.118l.458-.221s.079-.19.023-.383Z" fill="#BED62F"></path></svg>
