<?xml version="1.0" ?><svg id="Layer_1" style="enable-background:new 0 0 512 512;" version="1.1" viewBox="0 0 512 512" xml:space="preserve" xmlns="http://www.w3.org/2000/svg" xmlns:xlink="http://www.w3.org/1999/xlink"><style type="text/css">
	.st0{fill:#FFFFFF;}
	.st1{fill:#49A146;}
	.st2{fill:#C62127;}
</style><g><rect class="st0" height="298.7" width="512" y="106.7"/><rect class="st1" height="99.8" width="512" y="106.7"/><rect class="st2" height="99.8" width="512" y="305.6"/><polygon class="st2" points="256,220 250.6,224.4 251.6,295 256,300.1 260.4,295 261.4,224.4  "/><path class="st2" d="M266.9,212.6c-2.2,3.5-6.8,4.6-10.3,2.4c-0.2-0.1-0.4-0.3-0.6-0.4c-3.3,2.5-8,1.8-10.5-1.5   c-0.1-0.2-0.3-0.4-0.4-0.6c-0.9,3.5,1.2,7,4.6,7.9c2.2,0.6,4.6-0.1,6.2-1.7c2.5,2.5,6.6,2.6,9.1,0.1   C266.8,217.2,267.4,214.8,266.9,212.6"/><path class="st2" d="M269.6,222.4c14.4,19.6,10.2,47.3-9.5,61.7c-9,6.6-20.2,9.5-31.2,8.2c21,8.4,44.8-1.8,53.2-22.8   C288.7,252.8,283.7,233.7,269.6,222.4"/><path class="st2" d="M242.4,222.4c-14.4,19.6-10.2,47.3,9.5,61.7c9,6.6,20.2,9.5,31.2,8.2c-21,8.4-44.8-1.8-53.2-22.8   C223.3,252.8,228.3,233.7,242.4,222.4"/><path class="st2" d="M274.7,221c19.7,14.3,24.1,41.9,9.7,61.6c-0.7,1-1.5,1.9-2.3,2.8c17-9.2,23.3-30.4,14.1-47.4   C291.7,229.7,283.9,223.5,274.7,221"/><path class="st2" d="M237.3,221c-19.7,14.3-24.1,41.9-9.7,61.6c0.7,1,1.5,1.9,2.3,2.8c-17-9.2-23.3-30.4-14.1-47.4   C220.3,229.7,228.1,223.5,237.3,221"/><path class="st0" d="M1.2,201.7h2.3v-4.7h7v4.7h11.6v-7.1h-7v2.4h4.7v2.4h-7v-4.8H1.2V201.7z M5.8,201.7h2.3v-2.4H5.8V201.7z    M1.2,192.2h30.3v-2.4H1.2V192.2z M31.4,201.7h-7v-7.1h9.3v-4.7h2.3v9.5h2.3v-9.5h2.3v9.5h2.3v-9.5h2.3v11.9H33.7v-4.7h-7v2.4h4.7   V201.7z"/><path class="st0" d="M47.7,201.7H50v-4.7h7v4.7h11.6v-7.1h-7v2.4h4.7v2.4h-7v-4.8H47.7V201.7z M52.4,201.7h2.3v-2.4h-2.3V201.7z    M47.7,192.2H78v-2.4H47.7V192.2z M78,201.7h-7v-7.1h9.3v-4.7h2.3v9.5h2.3v-9.5h2.3v9.5h2.3v-9.5h2.3v11.9H80.3v-4.7h-7v2.4H78   V201.7z"/><path class="st0" d="M94.3,201.7h2.3v-4.7h7v4.7h11.6v-7.1h-7v2.4h4.7v2.4h-7v-4.8H94.3V201.7z M98.9,201.7h2.3v-2.4h-2.3V201.7z    M94.3,192.2h30.3v-2.4H94.3V192.2z M124.5,201.7h-7v-7.1h9.3v-4.7h2.3v9.5h2.3v-9.5h2.3v9.5h2.3v-9.5h2.3v11.9h-11.6v-4.7h-7v2.4   h4.7V201.7z"/><path class="st0" d="M140.8,201.7h2.3v-4.7h7v4.7h11.6v-7.1h-7v2.4h4.7v2.4h-7v-4.8h-11.6V201.7z M145.5,201.7h2.3v-2.4h-2.3V201.7   z M140.8,192.2H171v-2.4h-30.2V192.2z M171,201.7h-7v-7.1h9.3v-4.7h2.3v9.5h2.3v-9.5h2.3v9.5h2.3v-9.5h2.3v11.9h-11.6v-4.7h-7v2.4   h4.7V201.7z"/><path class="st0" d="M187.3,201.7h2.3v-4.7h7v4.7h11.6v-7.1h-7v2.4h4.7v2.4h-7v-4.8h-11.6V201.7z M192,201.7h2.3v-2.4H192V201.7z    M187.3,192.2h30.2v-2.4h-30.2V192.2z M217.6,201.7h-7v-7.1h9.3v-4.7h2.3v9.5h2.3v-9.5h2.3v9.5h2.3v-9.5h2.3v11.9h-11.6v-4.7h-7   v2.4h4.7V201.7z"/><path class="st0" d="M233.9,201.7h2.3v-4.7h7v4.7h11.6v-7.1h-7v2.4h4.7v2.4h-7v-4.8h-11.6V201.7z M238.6,201.7h2.3v-2.4h-2.3V201.7   z M233.9,192.2h30.3v-2.4h-30.3V192.2z M264.1,201.7h-7v-7.1h9.3v-4.7h2.3v9.5h2.3v-9.5h2.3v9.5h2.3v-9.5h2.3v11.9h-11.6v-4.7h-7   v2.4h4.7V201.7z"/><path class="st0" d="M280.4,201.7h2.3v-4.7h7v4.7h11.6v-7.1h-7v2.4h4.7v2.4h-7v-4.8h-11.6V201.7z M285.1,201.7h2.3v-2.4h-2.3V201.7   z M280.4,192.2h30.3v-2.4h-30.3V192.2z M310.7,201.7h-7v-7.1h9.3v-4.7h2.3v9.5h2.3v-9.5h2.3v9.5h2.3v-9.5h2.3v11.9H313v-4.7h-7v2.4   h4.7V201.7z"/><path class="st0" d="M327,201.7h2.3v-4.7h7v4.7h11.6v-7.1h-7v2.4h4.7v2.4h-7v-4.8H327V201.7z M331.6,201.7h2.3v-2.4h-2.3V201.7z    M327,192.2h30.3v-2.4H327V192.2z M357.2,201.7h-7v-7.1h9.3v-4.7h2.3v9.5h2.3v-9.5h2.3v9.5h2.3v-9.5h2.3v11.9h-11.6v-4.7h-7v2.4   h4.7V201.7z"/><path class="st0" d="M373.5,201.7h2.3v-4.7h7v4.7h11.6v-7.1h-7v2.4h4.7v2.4h-7v-4.8h-11.6V201.7z M378.2,201.7h2.3v-2.4h-2.3V201.7   z M373.5,192.2h30.2v-2.4h-30.2V192.2z M403.8,201.7h-7v-7.1h9.3v-4.7h2.3v9.5h2.3v-9.5h2.3v9.5h2.3v-9.5h2.3v11.9h-11.6v-4.7h-7   v2.4h4.7V201.7z"/><path class="st0" d="M420.1,201.7h2.3v-4.7h7v4.7H441v-7.1h-7v2.4h4.7v2.4h-7v-4.8h-11.6V201.7z M424.7,201.7h2.3v-2.4h-2.3V201.7z    M420.1,192.2h30.2v-2.4h-30.2V192.2z M450.3,201.7h-7v-7.1h9.3v-4.7h2.3v9.5h2.3v-9.5h2.3v9.5h2.3v-9.5h2.3v11.9h-11.6v-4.7h-7   v2.4h4.7V201.7z"/><path class="st0" d="M466.6,201.7h2.3v-4.7h7v4.7h11.6v-7.1h-7v2.4h4.7v2.4h-7v-4.8h-11.6V201.7z M471.3,201.7h2.3v-2.4h-2.3V201.7   z M466.6,192.2h30.3v-2.4h-30.3V192.2z M496.9,201.7h-7v-7.1h9.3v-4.7h2.3v9.5h2.3v-9.5h2.3v9.5h2.3v-9.5h2.3v11.9h-11.6v-4.7h-7   v2.4h4.7V201.7z"/><path class="st0" d="M1.2,208.8h21v-4.8h-21V208.8z M24.4,208.8h21v-4.8h-21V208.8z"/><path class="st0" d="M47.7,208.8h21v-4.8h-21V208.8z M71,208.8h20.9v-4.8H71V208.8z"/><path class="st0" d="M94.3,208.8h20.9v-4.8H94.3V208.8z M117.5,208.8h20.9v-4.8h-20.9V208.8z"/><path class="st0" d="M140.8,208.8h20.9v-4.8h-20.9V208.8z M164.1,208.8H185v-4.8h-20.9V208.8z"/><path class="st0" d="M187.3,208.8h20.9v-4.8h-20.9V208.8z M210.6,208.8h21v-4.8h-21V208.8z"/><path class="st0" d="M233.9,208.8h21v-4.8h-21V208.8z M257.2,208.8h21v-4.8h-21V208.8z"/><path class="st0" d="M280.4,208.8h20.9v-4.8h-20.9V208.8z M303.7,208.8h20.9v-4.8h-20.9V208.8z"/><path class="st0" d="M327,208.8h20.9v-4.8H327V208.8z M350.3,208.8h20.9v-4.8h-20.9V208.8z"/><path class="st0" d="M373.5,208.8h20.9v-4.8h-20.9V208.8z M396.8,208.8h20.9v-4.8h-20.9V208.8z"/><path class="st0" d="M420.1,208.8H441v-4.8h-20.9V208.8z M443.3,208.8h21v-4.8h-21V208.8z"/><path class="st0" d="M466.6,208.8h21v-4.8h-21V208.8z M489.9,208.8h21v-4.8h-21V208.8z"/><path class="st0" d="M1.2,322.2h2.3v-4.8h7v4.8h11.6v-7.1h-7v2.4h4.7v2.4h-7v-4.8H1.2V322.2z M5.8,322.2h2.3v-2.4H5.8V322.2z    M1.2,312.7h30.3v-2.4H1.2V312.7z M31.4,322.2h-7v-7.1h9.3v-4.8h2.3v9.5h2.3v-9.5h2.3v9.5h2.3v-9.5h2.3v11.9H33.7v-4.8h-7v2.4h4.7   V322.2z"/><path class="st0" d="M47.7,322.2H50v-4.8h7v4.8h11.6v-7.1h-7v2.4h4.7v2.4h-7v-4.8H47.7V322.2z M52.4,322.2h2.3v-2.4h-2.3V322.2z    M47.7,312.7H78v-2.4H47.7V312.7z M78,322.2h-7v-7.1h9.3v-4.8h2.3v9.5h2.3v-9.5h2.3v9.5h2.3v-9.5h2.3v11.9H80.3v-4.8h-7v2.4H78   V322.2z"/><path class="st0" d="M94.3,322.2h2.3v-4.8h7v4.8h11.6v-7.1h-7v2.4h4.7v2.4h-7v-4.8H94.3V322.2z M98.9,322.2h2.3v-2.4h-2.3V322.2z    M94.3,312.7h30.3v-2.4H94.3V312.7z M124.5,322.2h-7v-7.1h9.3v-4.8h2.3v9.5h2.3v-9.5h2.3v9.5h2.3v-9.5h2.3v11.9h-11.6v-4.8h-7v2.4   h4.7V322.2z"/><path class="st0" d="M140.8,322.2h2.3v-4.8h7v4.8h11.6v-7.1h-7v2.4h4.7v2.4h-7v-4.8h-11.6V322.2z M145.5,322.2h2.3v-2.4h-2.3V322.2   z M140.8,312.7H171v-2.4h-30.2V312.7z M171,322.2h-7v-7.1h9.3v-4.8h2.3v9.5h2.3v-9.5h2.3v9.5h2.3v-9.5h2.3v11.9h-11.6v-4.8h-7v2.4   h4.7V322.2z"/><path class="st0" d="M187.3,322.2h2.3v-4.8h7v4.8h11.6v-7.1h-7v2.4h4.7v2.4h-7v-4.8h-11.6V322.2z M192,322.2h2.3v-2.4H192V322.2z    M187.3,312.7h30.2v-2.4h-30.2V312.7z M217.6,322.2h-7v-7.1h9.3v-4.8h2.3v9.5h2.3v-9.5h2.3v9.5h2.3v-9.5h2.3v11.9h-11.6v-4.8h-7   v2.4h4.7V322.2z"/><path class="st0" d="M233.9,322.2h2.3v-4.8h7v4.8h11.6v-7.1h-7v2.4h4.7v2.4h-7v-4.8h-11.6V322.2z M238.6,322.2h2.3v-2.4h-2.3V322.2   z M233.9,312.7h30.3v-2.4h-30.3V312.7z M264.1,322.2h-7v-7.1h9.3v-4.8h2.3v9.5h2.3v-9.5h2.3v9.5h2.3v-9.5h2.3v11.9h-11.6v-4.8h-7   v2.4h4.7V322.2z"/><path class="st0" d="M280.4,322.2h2.3v-4.8h7v4.8h11.6v-7.1h-7v2.4h4.7v2.4h-7v-4.8h-11.6V322.2z M285.1,322.2h2.3v-2.4h-2.3V322.2   z M280.4,312.7h30.3v-2.4h-30.3V312.7z M310.7,322.2h-7v-7.1h9.3v-4.8h2.3v9.5h2.3v-9.5h2.3v9.5h2.3v-9.5h2.3v11.9H313v-4.8h-7v2.4   h4.7V322.2z"/><path class="st0" d="M327,322.2h2.3v-4.8h7v4.8h11.6v-7.1h-7v2.4h4.7v2.4h-7v-4.8H327V322.2z M331.6,322.2h2.3v-2.4h-2.3V322.2z    M327,312.7h30.3v-2.4H327V312.7z M357.2,322.2h-7v-7.1h9.3v-4.8h2.3v9.5h2.3v-9.5h2.3v9.5h2.3v-9.5h2.3v11.9h-11.6v-4.8h-7v2.4   h4.7V322.2z"/><path class="st0" d="M373.5,322.2h2.3v-4.8h7v4.8h11.6v-7.1h-7v2.4h4.7v2.4h-7v-4.8h-11.6V322.2z M378.2,322.2h2.3v-2.4h-2.3V322.2   z M373.5,312.7h30.2v-2.4h-30.2V312.7z M403.8,322.2h-7v-7.1h9.3v-4.8h2.3v9.5h2.3v-9.5h2.3v9.5h2.3v-9.5h2.3v11.9h-11.6v-4.8h-7   v2.4h4.7V322.2z"/><path class="st0" d="M420.1,322.2h2.3v-4.8h7v4.8H441v-7.1h-7v2.4h4.7v2.4h-7v-4.8h-11.6V322.2z M424.7,322.2h2.3v-2.4h-2.3V322.2z    M420.1,312.7h30.2v-2.4h-30.2V312.7z M450.3,322.2h-7v-7.1h9.3v-4.8h2.3v9.5h2.3v-9.5h2.3v9.5h2.3v-9.5h2.3v11.9h-11.6v-4.8h-7   v2.4h4.7V322.2z"/><path class="st0" d="M466.6,322.2h2.3v-4.8h7v4.8h11.6v-7.1h-7v2.4h4.7v2.4h-7v-4.8h-11.6V322.2z M471.3,322.2h2.3v-2.4h-2.3V322.2   z M466.6,312.7h30.3v-2.4h-30.3V312.7z M496.9,322.2h-7v-7.1h9.3v-4.8h2.3v9.5h2.3v-9.5h2.3v9.5h2.3v-9.5h2.3v11.9h-11.6v-4.8h-7   v2.4h4.7V322.2z"/><path class="st0" d="M1.2,307.9h21v-4.7h-21V307.9z M24.4,307.9h21v-4.7h-21V307.9z"/><path class="st0" d="M47.7,307.9h21v-4.7h-21V307.9z M71,307.9h20.9v-4.7H71V307.9z"/><path class="st0" d="M94.3,307.9h20.9v-4.7H94.3V307.9z M117.5,307.9h20.9v-4.7h-20.9V307.9z"/><path class="st0" d="M140.8,307.9h20.9v-4.7h-20.9V307.9z M164.1,307.9H185v-4.7h-20.9V307.9z"/><path class="st0" d="M187.3,307.9h20.9v-4.7h-20.9V307.9z M210.6,307.9h21v-4.7h-21V307.9z"/><path class="st0" d="M233.9,307.9h21v-4.7h-21V307.9z M257.2,307.9h21v-4.7h-21V307.9z"/><path class="st0" d="M280.4,307.9h20.9v-4.7h-20.9V307.9z M303.7,307.9h20.9v-4.7h-20.9V307.9z"/><path class="st0" d="M327,307.9h20.9v-4.7H327V307.9z M350.3,307.9h20.9v-4.7h-20.9V307.9z"/><path class="st0" d="M373.5,307.9h20.9v-4.7h-20.9V307.9z M396.8,307.9h20.9v-4.7h-20.9V307.9z"/><path class="st0" d="M420.1,307.9H441v-4.7h-20.9V307.9z M443.3,307.9h21v-4.7h-21V307.9z"/><path class="st0" d="M466.6,307.9h21v-4.7h-21V307.9z M489.9,307.9h21v-4.7h-21V307.9z"/></g></svg>