<svg xmlns="http://www.w3.org/2000/svg" width="360" height="360" viewBox="0 0 360 360" fill="none" crosspilot=""><script xmlns=""/>
<g clip-path="url(#clip0_18876_554194)">
<rect width="360" height="360" fill="#E3262D"/>
<g opacity="0.35">
<path fill-rule="evenodd" clip-rule="evenodd" d="M301.338 -14C301.338 -14 312.811 -6.65536 317.926 -2.01354C317.926 -2.01354 337.004 -4.6773 342 -4.8144C342 -4.8144 340.756 2.96117 330.645 15.0456C330.645 15.0456 335.443 27.1495 332.718 38C332.718 38 322.607 30.0288 312.061 26.425C312.061 26.425 296.835 31.6936 286.329 32.3007C286.329 32.3007 291.226 23.3107 292.885 18.4339C292.885 18.4339 280.384 12.8716 276 11.4026L298.513 3.35294C298.513 3.37252 303.095 -4.91222 301.338 -14ZM345.882 35C345.882 35 355.792 41.3559 360.209 45.3729C360.209 45.3729 376.685 43.0677 381 42.9491C381 42.9491 379.926 49.6779 371.193 60.1356C371.193 60.1356 375.338 70.6101 372.984 80C372.984 80 364.251 73.1018 355.144 69.9832C355.144 69.9832 341.994 74.5425 332.92 75.0679C332.92 75.0679 337.15 67.2881 338.583 63.0678C338.583 63.0678 327.786 58.2542 324 56.9831L343.443 50.017C343.443 50.0339 347.4 42.8644 345.882 35ZM279.16 47.2102C271.333 40.1582 253.774 29 253.774 29C256.464 42.8064 249.452 55.3929 249.452 55.3631L215 67.5925C221.709 69.8241 240.839 78.2745 240.839 78.2745C238.301 85.6836 230.806 99.3415 230.806 99.3415C246.884 98.4191 270.184 90.4149 270.184 90.4149C286.323 95.8899 301.796 108 301.796 108C305.966 91.5156 298.623 73.1269 298.623 73.1269C314.096 54.7679 316 42.955 316 42.955C308.354 43.1633 279.16 47.2102 279.16 47.2102ZM332.399 84C332.399 84 347.524 93.6045 354.267 99.6746C354.267 99.6746 379.414 96.1912 386 96.0119C386 96.0119 384.36 106.18 371.031 121.983C371.031 121.983 377.357 137.811 373.765 152C373.765 152 360.436 141.576 346.535 136.863C346.535 136.863 326.464 143.753 312.615 144.547C312.615 144.547 319.071 132.791 321.258 126.414C321.258 126.414 304.779 119.14 299 117.219L328.677 106.692C328.677 106.718 334.716 95.884 332.399 84ZM355.787 12.0852C353.617 10.1159 348.749 7 348.749 7C349.495 10.8554 347.551 14.3702 347.551 14.3619L338 17.7769C339.86 18.4001 345.163 20.7598 345.163 20.7598C344.46 22.8288 342.382 26.6427 342.382 26.6427C346.839 26.3851 353.299 24.15 353.299 24.15C357.773 25.6789 362.062 29.0606 362.062 29.0606C363.218 24.4574 361.183 19.3224 361.183 19.3224C365.472 14.1956 366 10.8969 366 10.8969C363.88 10.9551 355.787 12.0852 355.787 12.0852Z" fill="url(#paint0_linear_18876_554194)"/>
</g>
<g opacity="0.35">
<path fill-rule="evenodd" clip-rule="evenodd" d="M17.0736 404.014C22.1885 408.655 33.6625 416 33.6625 416C31.9048 406.912 36.4865 398.627 36.4865 398.647L59 390.597C54.6158 389.128 42.1149 383.566 42.1149 383.566C43.7738 378.689 48.6715 369.699 48.6715 369.699C38.1652 370.306 22.939 375.575 22.939 375.575C12.3932 371.971 2.28186 364 2.28186 364C-0.443451 374.851 4.35548 386.954 4.35548 386.954C-5.75584 399.039 -7 406.814 -7 406.814C-2.00359 406.677 17.0736 404.014 17.0736 404.014ZM-25.2092 356.627C-20.7917 360.644 -10.8824 367 -10.8824 367C-12.4004 359.136 -8.44344 351.966 -8.44344 351.983L11 345.017C7.21365 343.746 -3.58259 338.932 -3.58259 338.932C-2.14992 334.712 2.0799 326.932 2.0799 326.932C-6.99371 327.457 -20.1436 332.017 -20.1436 332.017C-29.2513 328.898 -37.9838 322 -37.9838 322C-40.3375 331.39 -36.193 341.864 -36.193 341.864C-44.9255 352.322 -46 359.051 -46 359.051C-41.6849 358.932 -25.2092 356.627 -25.2092 356.627ZM85.1176 295C85.1176 295 75.2083 288.644 70.7909 284.627C70.7909 284.627 54.3151 286.932 50 287.051C50 287.051 51.0745 280.322 59.807 269.864C59.807 269.864 55.6625 259.39 58.0162 250C58.0162 250 66.7487 256.898 75.8564 260.017C75.8564 260.017 89.0063 255.457 98.0799 254.932C98.0799 254.932 93.8501 262.712 92.4174 266.932C92.4174 266.932 103.214 271.746 107 273.017L87.5566 279.983C87.5566 279.966 83.5996 287.136 85.1176 295ZM55.8399 354.79C63.6673 361.842 81.2259 373 81.2259 373C78.5362 359.194 85.5476 346.607 85.5476 346.637L120 334.408C113.291 332.176 94.1607 323.725 94.1607 323.725C96.6993 316.316 104.194 302.659 104.194 302.659C88.1164 303.581 64.8157 311.585 64.8157 311.585C48.6775 306.11 33.2041 294 33.2041 294C29.0335 310.484 36.3773 328.873 36.3773 328.873C20.9039 347.232 19 359.045 19 359.045C26.646 358.837 55.8399 354.79 55.8399 354.79ZM2.60053 318C2.60053 318 -12.5242 308.395 -19.2666 302.325C-19.2666 302.325 -44.4138 305.809 -51 305.988C-51 305.988 -49.36 295.82 -36.0314 280.017C-36.0314 280.017 -42.3573 264.189 -38.7648 250C-38.7648 250 -25.4362 260.424 -11.535 265.137C-11.535 265.137 8.53592 258.247 22.3851 257.453C22.3851 257.453 15.9291 269.209 13.7424 275.586C13.7424 275.586 30.2208 282.86 36 284.781L6.32317 295.308C6.32317 295.282 0.283653 306.116 2.60053 318ZM-20.787 389.915C-18.617 391.884 -13.7493 395 -13.7493 395C-14.4949 391.145 -12.5512 387.63 -12.5512 387.638L-3 384.223C-4.85996 383.6 -10.1634 381.24 -10.1634 381.24C-9.45961 379.171 -7.38181 375.357 -7.38181 375.357C-11.839 375.615 -18.2986 377.85 -18.2986 377.85C-22.7726 376.321 -27.0622 372.939 -27.0622 372.939C-28.2184 377.543 -26.1825 382.678 -26.1825 382.678C-30.4722 387.804 -31 391.103 -31 391.103C-28.8803 391.045 -20.787 389.915 -20.787 389.915Z" fill="url(#paint1_linear_18876_554194)"/>
</g>
</g>
<defs>
<linearGradient id="paint0_linear_18876_554194" x1="364" y1="-14" x2="272.805" y2="175" gradientUnits="userSpaceOnUse">
<stop stop-color="white"/>
<stop offset="1" stop-color="white" stop-opacity="0"/>
</linearGradient>
<linearGradient id="paint1_linear_18876_554194" x1="-29" y1="416" x2="62.195" y2="227" gradientUnits="userSpaceOnUse">
<stop stop-color="white"/>
<stop offset="1" stop-color="white" stop-opacity="0"/>
</linearGradient>
<clipPath id="clip0_18876_554194">
<rect width="360" height="360" fill="white"/>
</clipPath>
</defs>
</svg>
