<svg xmlns="http://www.w3.org/2000/svg" xmlns:xlink="http://www.w3.org/1999/xlink" viewBox="0 0 2787 1408.16"><defs><style>.cls-1{fill:#6bae44;}.cls-2{fill:url(#radial-gradient);}.cls-3{fill:url(#radial-gradient-2);}.cls-4{fill:#ffcf01;}.cls-5{fill:url(#linear-gradient);}.cls-6{fill:url(#linear-gradient-2);}.cls-7{fill:#fff;}</style><radialGradient id="radial-gradient" cx="1009.4" cy="1273.33" r="115.16" gradientTransform="matrix(-6.88, -2.45, -2.5, 7.02, 10656.1, -5834.6)" gradientUnits="userSpaceOnUse"><stop offset="0.34" stop-color="#fff"/><stop offset="0.6" stop-color="#fff"/><stop offset="0.66" stop-color="#fcfcfc"/><stop offset="0.7" stop-color="#f3f3f3"/><stop offset="0.74" stop-color="#e4e4e4"/><stop offset="0.77" stop-color="#cecece"/><stop offset="0.8" stop-color="#b1b1b1"/><stop offset="0.83" stop-color="#8f8f8f"/><stop offset="0.86" stop-color="#676767"/><stop offset="0.86" stop-color="#666"/><stop offset="0.92" stop-color="#e9e9ea"/><stop offset="1" stop-color="#dcddde"/></radialGradient><radialGradient id="radial-gradient-2" cx="1108.41" cy="1216.63" r="68.42" gradientTransform="matrix(-6.84, 0, 0, 6.9, 8000.89, -7734.97)" gradientUnits="userSpaceOnUse"><stop offset="0.02" stop-color="#d7df23"/><stop offset="0.33" stop-color="#8dc63f"/><stop offset="0.42" stop-color="#88c13f"/><stop offset="0.54" stop-color="#79b43f"/><stop offset="0.67" stop-color="#609e3f"/><stop offset="0.72" stop-color="#56953f"/><stop offset="0.86" stop-color="#2c7f3c"/><stop offset="1" stop-color="#006838"/></radialGradient><linearGradient id="linear-gradient" x1="1263" y1="980.76" x2="2190.02" y2="980.76" gradientUnits="userSpaceOnUse"><stop offset="0" stop-color="#006839"/><stop offset="1" stop-color="#82bc3f"/></linearGradient><linearGradient id="linear-gradient-2" x1="1340" y1="1285.3" x2="2787" y2="1285.3" gradientUnits="userSpaceOnUse"><stop offset="0" stop-color="#82bc3f"/><stop offset="0.75" stop-color="#006839"/></linearGradient></defs><g id="Layer_2" data-name="Layer 2"><g id="VERSION_1_copy" data-name="VERSION 1 copy"><path class="cls-1" d="M1611.26,325.83,1540.4,225l114,43.11L1734,162.92l-.73,132.23L1852.35,328l-127.12,39.46,7.31,124.19L1657.29,385l-118.35,43.1Zm468.66,373.32L2069.7,667l26.3,20.45L2126,666.28l-11,35.06,28.49,17.54-36.53.73-8,32.87-11.69-33.6-34.34,1.46Z"/><circle class="cls-2" cx="617.33" cy="748.83" r="617.33"/><path class="cls-3" d="M349.21,591C193.6,629.75,103,676.5,87.67,764.9,76,841.61,90.59,965.08,214.79,1058.59c97.89,61.37,211.86-49.68,219.9-113.24,14.61,109.59,45.29,248.4,105.93,280.54,12.42,2.92,50.41,15.34,79.63-19.72,0,0-92-45.3-149.76-245.47,10.95,7.3,113.23,174.6,244.74,162.18s257.89-253.51,179-341.9c-64.29-72.33-177.52-135.16-347-184.11C697.69,610,821.89,629,866.45,631.94c40.91,2.92,130.77,7.31,118.35-101.55C970.19,402.54,752.48,258.62,643.63,258.62c-152.69,0-192.87,221.36-203.1,310.49,6.58-111.78,6.58-240.35,6.58-240.35s-4.39-42.38-24.11-50.41c-79.63-32.15-248.39,83.28-304.65,271-4.38,15.34,2.19,29.22,40.91,40.91,40.92,12.42,111.78,1.46,190,.73Z"/><path class="cls-1" d="M1589,607.83c214.79,43.11,377,127.12,479.25,226.48-52.6-76.71-217.7-196.53-408.38-257.16Z"/><path class="cls-4" d="M1377.85,582.26l-81.09-92.78,118.35,31.41,67.94-113.23,13.15,131.5,122,19.72-122.74,53.34L1515.93,735l-86.21-98.63-112.51,55.53ZM1304.79,114,1250,59.91l76,13.88L1362.51,0l14.61,81.82,77.44,6.58L1380,127.85l19,76-58.45-57.72-68.67,39.45ZM2039,358.71l-22.65-47.49,45.3,27,40.91-38.72-10.23,55.53,47.49,22.64L2083.58,385l-6.58,52.6-23.38-50.41L2001,396ZM1844,547.93l-21.19-38.72,39.46,20.45,32.87-35.07-5.84,47.49,42.37,16.8-48.22,9.5L1881.21,613l-22.65-41.65-44.56,11Z"/><path class="cls-1" d="M1841.76,366l-81.82,25.57.73,12.42c348.48,128.58,626.09,379.17,739.33,672.13C2435.71,821.89,2164.67,518.7,1841.76,366Zm-677.24-59.9a1597.32,1597.32,0,0,1,393.78,38l13.15-18.27L1521,254.24a1573.27,1573.27,0,0,0-448.57-38.72,696.23,696.23,0,0,1,73.79,73c5.84,5.85,12.42,11.69,18.26,17.54Z"/><path class="cls-5" d="M1263,862.9h69v167h76.56l-12.7,65H1263v-232m387.3.33-12.69,63.67H1687v168h68v-168h38l12.74-64H1650m165.16.32-12.67,63.68H1851v168h68v-168h38l12.76-64H1815m137.16,118a118.92,118.92,0,0,0,120.63,118.92c64.06-.9,116.33-53.17,117.22-117.23a118.93,118.93,0,1,0-237.85-1.69Zm67.39-.28a51.54,51.54,0,1,1,51.53,51.53,51.53,51.53,0,0,1-51.53-51.53m-616,0a118.93,118.93,0,1,0,118.93-118.93A118.93,118.93,0,0,0,1403.5,980.62Zm67.39,0a51.54,51.54,0,1,1,51.54,51.53,51.53,51.53,0,0,1-51.54-51.53"/><path class="cls-6" d="M1409,1401.9h-69v-233h69Zm208.94,0h-73.81a79.64,79.64,0,0,0-3.29-20.84,96.17,96.17,0,0,0-9.36-22.41,63.15,63.15,0,0,0-14.73-17.57,28.9,28.9,0,0,0-19.75-6.72v67.54h-70v-234h99.11a94.17,94.17,0,0,1,31.36,5.17,74.94,74.94,0,0,1,25.64,15,72,72,0,0,1,17.33,23.77,74,74,0,0,1,6.41,31.19,86.33,86.33,0,0,1-7.1,35.33q-7.11,16-23.74,27.05a87.7,87.7,0,0,1,20.62,19.47,94.09,94.09,0,0,1,12.82,23.26,121,121,0,0,1,6.58,26A200.07,200.07,0,0,1,1617.94,1401.9Zm-84.3-146q0-10-6.92-15a27.05,27.05,0,0,0-16.24-5H1497v43h12.44a24.32,24.32,0,0,0,17.11-6.53A21.5,21.5,0,0,0,1533.64,1255.86Zm263.36,146h-72v-53h-35v53h-69V1246.65a80.64,80.64,0,0,1,24.9-58.82,87.7,87.7,0,0,1,28-17.77,93.62,93.62,0,0,1,35.27-6.55,92.3,92.3,0,0,1,35.1,6.55,88.24,88.24,0,0,1,27.83,17.77,80.64,80.64,0,0,1,24.9,58.82Zm-72-112v-39.33q0-10.68-5.49-15.87t-12-5.17q-6.52,0-12,5.35t-5.49,15.69v39.33Zm263,113h-71V1251.45q0-10.7-5.71-16a18,18,0,0,0-25.58,0q-5.71,5.35-5.71,16V1402.9h-73V1247.31a80.33,80.33,0,0,1,6.93-33.12,82.76,82.76,0,0,1,19.08-26.91,91.65,91.65,0,0,1,28.78-18.11,95.18,95.18,0,0,1,36.06-6.73,93.89,93.89,0,0,1,35.88,6.73,92.33,92.33,0,0,1,28.61,18.11,80.66,80.66,0,0,1,18.9,26.91,82,82,0,0,1,6.76,33.12Zm85.69-34.07a38,38,0,0,1-3.12,15.18,41.34,41.34,0,0,1-8.32,12.59,38.34,38.34,0,0,1-27.73,11.56,38.09,38.09,0,0,1-15.43-3.11,40.28,40.28,0,0,1-21-20.87,39.32,39.32,0,0,1,0-30.7,38.21,38.21,0,0,1,8.49-12.25,41.52,41.52,0,0,1,12.65-8.28,38.53,38.53,0,0,1,15.26-3.11,38.11,38.11,0,0,1,15.42,3.11,39,39,0,0,1,20.63,20.53A37.58,37.58,0,0,1,2073.69,1368.83ZM2253.2,1166.9l-32.16,63h-30.25a51,51,0,0,0-20.58,4.15,53,53,0,0,0-27.85,27.81,49.82,49.82,0,0,0-4.15,20.2,50.69,50.69,0,0,0,4.15,20.55,55.52,55.52,0,0,0,11.24,16.75,51.9,51.9,0,0,0,16.61,11.4,50.79,50.79,0,0,0,20.58,4.14h52.47l-25.11,67h-26.6a129.1,129.1,0,0,1-44-7.59,108.8,108.8,0,0,1-64-59.87q-9.89-22.26-9.88-51.93a110,110,0,0,1,9.36-45.21,118.67,118.67,0,0,1,25.31-36.75,118.36,118.36,0,0,1,83.21-33.65ZM2484.79,1285a119.11,119.11,0,0,1-9.55,47.44,122.78,122.78,0,0,1-226,0,119.1,119.1,0,0,1-9.54-47.44,117.89,117.89,0,0,1,9.54-47.26,122.93,122.93,0,0,1,226,0A117.9,117.9,0,0,1,2484.79,1285Zm-69.33,0a51,51,0,0,0-4.16-20.35,53.26,53.26,0,0,0-11.44-16.91,56.12,56.12,0,0,0-17-11.55,52.23,52.23,0,0,0-41.6,0,53.79,53.79,0,0,0-16.81,11.55,55,55,0,0,0-11.27,16.91A51,51,0,0,0,2309,1285a51.76,51.76,0,0,0,4.16,20.7,53.52,53.52,0,0,0,69.68,28,55.35,55.35,0,0,0,17-11.21,51.93,51.93,0,0,0,15.6-37.44ZM2787,1401.9h-76V1251.48q0-9.64-5.71-14.83a19,19,0,0,0-12.46-5.35,17.56,17.56,0,0,0-12.29,4.66q-5.55,4.83-5.54,15.52V1401.9h-75V1251.48q0-10-5.71-14.83a18.58,18.58,0,0,0-12.79-4.66,19.76,19.76,0,0,0-12.8,5.18q-5.7,5-5.7,14.31V1401.9h-73V1238.72a75,75,0,0,1,5.21-27.26,73.21,73.21,0,0,1,15.09-24,74.92,74.92,0,0,1,23.94-16.91q14.06-6.37,31.74-6.38,18,0,29.67,2.76a81,81,0,0,1,19.08,6.73,58.73,58.73,0,0,1,12.32,8.45,95.63,95.63,0,0,0,9.72,7.93q3.12-2.4,8.15-6.9a65.3,65.3,0,0,1,12.84-8.62,93.11,93.11,0,0,1,19.25-7.24q11.46-3.12,27.07-3.11a90.87,90.87,0,0,1,33.65,6,80.79,80.79,0,0,1,26.2,16.38,73.13,73.13,0,0,1,17,24.5,75.45,75.45,0,0,1,6.07,30Z"/><path class="cls-7" d="M332.66,509.84a5.54,5.54,0,0,1-.68-.25,3.82,3.82,0,0,0-3.89.22c-1.51,1-2.94.78-4.57.3a42,42,0,0,0-8.4-1.8,9.25,9.25,0,0,1-3-.71c-.34-.15-.82-.43-.88-.73-.21-1.08-1.18-1.7-1.53-2.66a2.79,2.79,0,0,0-2.5-1.89c-.24,0-.46-.19-.69-.21a1.57,1.57,0,0,1-1.49-1.28,6.13,6.13,0,0,0-2.87-3.69,3.91,3.91,0,0,1-1.5-2.1,14.25,14.25,0,0,1-.48-1.61,2.38,2.38,0,0,0-1.36-1.54,18.78,18.78,0,0,1-4.6-2.95.86.86,0,0,0-.85-.33,5.13,5.13,0,0,0-2.47,1.79c.09,1.48-1.14,2.63-1.06,4.12a10.63,10.63,0,0,1-.17,1.67,1.65,1.65,0,0,1-1.15,1.4,2.14,2.14,0,0,1-1.86.11c-1.42-.76-2.81-.21-4.21,0a.68.68,0,0,0-.53,1.07,7.52,7.52,0,0,1,1,2.95c.14.67.29,1.22,1,1.49a1.64,1.64,0,0,1,1.09,2.28c-.16.51,0,1.11-.41,1.59a.77.77,0,0,0-.17.88c.59,1.1.71,2.51,2,3.16a1.07,1.07,0,0,1,.49,1.44c-.46,1.41-.73,2.78.4,4,.14.15.12.46.12.7,0,1,0,1.91,0,2.87,0,.32-.09.64-.1,1,0,1.56.23,1.84,1.75,1.81.32,0,.63-.1.94-.08s.9.86.64,1.1a6.44,6.44,0,0,0-2,4.16c0,.21-.29.37-.42.57-.59,1-1.11,1.94-1.77,2.84s-.53,1.82-.81,2.72c-.1.35.19.62.48.75a1.83,1.83,0,0,0,.92.15,2.43,2.43,0,0,1,2.6,1.29c.44.71,1,1.41,2.11,1.14.36-.09.74.2,1.06.47.57.48.68.81.19,1.57a1.39,1.39,0,0,0-.09,1.75,1.89,1.89,0,0,1,.28,1.37c0,.64,0,1.28,0,1.92a1.46,1.46,0,0,0,.77,1.56,39.76,39.76,0,0,1,3.4,2.56c.39.31.71.8.27,1.22-.86.81-.38,1.8-.53,2.7a2.13,2.13,0,0,0,1.61,2.75c.31.09.68.3.65.62-.11,1.23.57,2.47-.25,3.72-1,1.5-.88,1.59.92,2.19a7.46,7.46,0,0,1,.89.35c1.8.82,2.17,1.64,1.54,3.6-.38,1.17-.65,2.27.43,3.26a4,4,0,0,1,.57,1,1.32,1.32,0,0,0,1.38.74c.24,0,.47-.11.71-.14,1.22-.13,1.44,0,1.64,1.13a24.79,24.79,0,0,0,1.75,6.37,1.78,1.78,0,0,1,0,.92c0,.23-.2.44-.25.67-.27,1.12.33,1.64,1.48,1.31a5.38,5.38,0,0,0,.66-.27,2.91,2.91,0,0,1,2.73.36,6.71,6.71,0,0,1,3.12,3.17,1.25,1.25,0,0,0,1.47.92c.46-.07,1,.18,1.4,0,1.34-.68,2.84-.41,4.21-.82a1.22,1.22,0,0,1,1.48.46,1.79,1.79,0,0,0,2.13.63c.46-.1.91-.28,1.37-.39.26-.06.61.42.5.66a4,4,0,0,1-.36.6c-.87,1.14-2.28,1-3.44,1.52-.85.35-2.1-.19-2.59.86a12.48,12.48,0,0,0-.72,3,3.57,3.57,0,0,0,.67,2.93,10.28,10.28,0,0,0,1.5,1.86c.7.6,1.24,1.23.67,2.26-.23.41.17.7.56.89a2.77,2.77,0,0,1,.53.43c0,.76-.68,1.32-.53,2.09a.42.42,0,0,1-.4.49c-1.15.16-2.24,1-3.47.35a.64.64,0,0,0-.85.22c-.51.75-1.42,1.34-.92,2.52.12.3-.12.76-.22,1.14s-.36.62-.69.51c-.88-.3-1.37-.1-1.46.89a1,1,0,0,1-.72.89c-.86.23-.88,1-1.22,1.6a1.85,1.85,0,0,0,.23,2.17c.5.8.44.84.46,2.68a5,5,0,0,1-2.8-.33c-.77-.27-1.11-.06-1.08.72,0,1-.05,1.92-1.25,2.25a.51.51,0,0,0-.27.36,3.63,3.63,0,0,0,.45,2.06,1.33,1.33,0,0,0,1.09.78c1,.24,1.16.59,1.13,1.46,0,1-.81,1.93-.44,3,.05.15-.17.48-.34.59-1.26.76-1.6,2.15-2.32,3.28-.39.61-.24,1.17.44,1.2,1.2.06,1.66.81,2.07,1.7.68,1.44,2,2.52,2.4,4.12a1.78,1.78,0,0,0,.74.91c.73.45.94,1.25,1.43,1.94l.86-.43c1.34-.7,1.75-.58,2.48.7a.65.65,0,0,1-.08.86c-.23.23-.5.41-.7.65a.51.51,0,0,0,.39.85,2.4,2.4,0,0,0,.93-.06,1.07,1.07,0,0,1,1.4.59,2.64,2.64,0,0,1,.47,1.08,3.91,3.91,0,0,0,1.24,2.27,8.09,8.09,0,0,1,1.11,1.25c.78,1.51.75,2.67-.72,3.44-.43.23-1.13,0-1.31.66.25.65.86.52,1.23.79s.46.46.22.81a4.75,4.75,0,0,0-.42.58.92.92,0,0,0,.65,1.45,4.06,4.06,0,0,0,1.43.05,6.81,6.81,0,0,1,4.62.88,36.28,36.28,0,0,1,6.92,4.68c2.08,1.87,4.21,3.69,6.33,5.52,1,.9,2.19,1.41,3.51.72a1.92,1.92,0,0,1,2,.1c.83.51,1.76,1.26,1.67,2.17-.12,1.28.62,1.92,1.23,2.71.44.57,1,1.07.73,1.91a1.17,1.17,0,0,0,.64,1.41c1.43.83,2.2,2.27,3.08,3.54a27.75,27.75,0,0,0,2.79,3.85,1.47,1.47,0,0,1,.27,1.76c-.57,1.49-1,3-1.64,4.5a17.94,17.94,0,0,0-1.45,8.17c.07,1.6,0,3.2,0,4.8,0,.9.23,1.1,1.17,1.12,1.28,0,2.56,0,3.84,0,1.88,0,1.89,0,1.94,1.85,0,.48,0,1,0,1.44l-.06,7.68c0,1.43-.06,2.07,1.72,2.27a2,2,0,0,1,1.81,1.68c.06.23.12.46.17.69a.93.93,0,0,0,1,.82,2.14,2.14,0,0,1,2.14,1.22,3,3,0,0,0,.47.54c.6.59,1.07,1.2.55,2.1a.86.86,0,0,0,.07.91,12.22,12.22,0,0,1,1.23,2.85,1.65,1.65,0,0,0,1,1,4.86,4.86,0,0,0,2.35.33c.67-.07.95-.42,1.06-1.32,0-.22-.1-.45,0-.56,1.51,0,2.94.14,4.36.13a1.23,1.23,0,0,0,1.28-1.19c.07-.39,0-.82.07-1.19a3.83,3.83,0,0,0-1-4c-.56-.55-.33-1.19-.17-1.8a.66.66,0,0,1,1.07-.44c.53.35,1.08.64,1.32,1.32a1.82,1.82,0,0,0,.74.9,10.17,10.17,0,0,0,3,1.49c.42.09.86.13.95.55.26,1.35,1,1.42,2.11,1a1.87,1.87,0,0,1,.71,0c2.38,0,2.38,0,3,2.35.32,1.26,1,1.59,2.1,1a16.23,16.23,0,0,0,1.43-.89l4.21-2.77a4.26,4.26,0,0,1,2-.82,2.18,2.18,0,0,1,2.38,1.17,7.25,7.25,0,0,1,1,4.12,2.34,2.34,0,0,0,1.06,2.27,7.47,7.47,0,0,1,2.26,2.73c.94,1.55,1.69,3.28,3.49,4.12a1.66,1.66,0,0,1,.62.71,7.8,7.8,0,0,0,2.42,2.62,1.92,1.92,0,0,1,.94,1.32c.06,1.67.9,3.37-.23,5a1.76,1.76,0,0,0,.11,2.05c.46.66,1.13.39,1.75.24s1.31-.42,1.87-.05a5.67,5.67,0,0,1,1.86,1.82,1.37,1.37,0,0,1-.09,1.57c-.36.52-.77.29-1.25.15-.68-.19-1.05.21-1,.88a3.89,3.89,0,0,0,2.72,3.25,3.21,3.21,0,0,1,2.72,3.18,6.88,6.88,0,0,1,0,1.2,11.36,11.36,0,0,0,.74,4,14.81,14.81,0,0,0,2.85,4.67,2.35,2.35,0,0,1,.65,2.58,2.07,2.07,0,0,0,.68,2.38,4.81,4.81,0,0,0,1.9,1.41c.69.19.92.74,1.25,1.32,1.52,2.66,3.62,3.92,6.25,3.2a3.47,3.47,0,0,1,2.35.13,2.33,2.33,0,0,0,1.17.15,4.5,4.5,0,0,1,4.21,1.81,6.94,6.94,0,0,0,4.52,2.44,5.92,5.92,0,0,1,4.54,3.17,5.62,5.62,0,0,0,2.1,2c-.37.68-.84.52-1.18.68a.86.86,0,0,0-.19,1.53A9.88,9.88,0,0,0,461,793a7.72,7.72,0,0,1,2.24,1.37c1.19,1.18,2.71,1.92,4,3a11.74,11.74,0,0,0,3.8,1.88c1.59.56,3.17,1.11,4.75,1.69.86.32,1.65.8,1.64,1.84a3,3,0,0,0,1.56,2.53,18.38,18.38,0,0,1,2.12,1.56,5.47,5.47,0,0,0,3.47,1.3,6.37,6.37,0,0,0,3.23-.66,2,2,0,0,1,1.82-.08,6.12,6.12,0,0,0,4,.55,1.78,1.78,0,0,1,2.25,1.27,2.22,2.22,0,0,0,2.55,1.67,2.27,2.27,0,0,1,2.55,1.36,1.61,1.61,0,0,0,1.59.85c2.48.14,2.5.17,4.66-1.3.92-.63,1.76-1.37,2.63-2.08s1.82-1.81,3.21-2c.5-.06.76-.53,1-1a1.42,1.42,0,0,1,1.88-.57,10.79,10.79,0,0,0,1.14.36,3.24,3.24,0,0,0,4.37-2.78,2.62,2.62,0,0,1,.74-1.9,3.15,3.15,0,0,1,2.13-.89,20.87,20.87,0,0,0,3.3-.49,3.75,3.75,0,0,0,1.91-.92,26,26,0,0,0,2.82-2.23,1,1,0,0,1,.59-.37c1.24,0,2.28-.69,3.43-1a3.12,3.12,0,0,1,1.88.2,18.69,18.69,0,0,0,2.56.61c1.69.43,3.49.2,5.14.94,1,.43,1.94.72,1.71,2.09-.06.35.23.56.53.71a6.94,6.94,0,0,1,1.27.66c.43.32-.16.89.23,1.31a8.67,8.67,0,0,1,.79,1.18,3.92,3.92,0,0,1,.64,1c.59,2.48,1.59,4.89,1.28,7.52a5.87,5.87,0,0,0,.68,4.37,1.34,1.34,0,0,1,.18.69,4,4,0,0,0,1.14,2.8,1.28,1.28,0,0,1,.15,1.75,2.73,2.73,0,0,0,.46,3.51,7.63,7.63,0,0,1,1.49,3c.18.52.26,1.08.42,1.62a1.11,1.11,0,0,0,1,.89c2.51.16,4.91,1.39,7.52.72.69-.18,1.17.33,1.29,1.09.08.46-.12,1,.25,1.37.45.06.73-.24,1.06-.44,2-1.22,2.38-1.12,3.53.91.36.64.67,1.33,1.43,1.53a5,5,0,0,0,3.26.13c1.56-.6,3.14-1.6,4.94-.67a.76.76,0,0,0,.47,0,5.33,5.33,0,0,1,2.6.17,15.79,15.79,0,0,0,2.36.43c2.19.17,4,.91,5.06,3a1.78,1.78,0,0,0,1.78,1,6.78,6.78,0,0,0,1.9-.12c1.58-.53,3.21-1,4.79-1.52a2.52,2.52,0,0,1,3.06.57,3.37,3.37,0,0,0,3.26,1,13.58,13.58,0,0,0,1.43-.15,1.77,1.77,0,0,1,2.1.67,1,1,0,0,0,1.27.35,3.81,3.81,0,0,1,4.41.62.81.81,0,0,0,1.37-.31c.28-.6,1-.9,1.38-.5.91,1,2.34,1,3.17,2.07.15.19.46.49.81.11a2.14,2.14,0,0,0-.78-1.63,1,1,0,0,1,.1-1.47,2.68,2.68,0,0,1,1.24-.69,1.65,1.65,0,0,1,2.31,1.38c.09.46.11.95.22,1.41a1.66,1.66,0,0,0,1.45,1.38c2,.37,4.08.78,6.11,1.21,1.48.32,3.16.44,4.28,1.41a8.17,8.17,0,0,0,3.64,1.6c1.79.44,2.84-.13,3.41-2,.21-.71.41-1.23,1.22-1.19.3,0,.41-.15.51-.37a4.86,4.86,0,0,0,.47-1.84c.11-2,.25-4,.39-6a4.66,4.66,0,0,1,.23-1.64,4.69,4.69,0,0,0,.31-2.81,1,1,0,0,1,.72-1.32,1.79,1.79,0,0,0,1.29-1.8c.24-2,.65-3.95.78-5.94s.74-3.23,2.88-3.78c1.28-.34,2.82-.68,3.62-2.08a.79.79,0,0,1,.86-.28,9.75,9.75,0,0,0,1.42.22c.4,0,.91-.24.7-.71-.47-1.06.59-1.59.72-2.43.18-1.1,1.25-1,2-1.46a7.46,7.46,0,0,1,2.74-.77,8.85,8.85,0,0,0,4.49-1.37,2.47,2.47,0,0,1,1.63-.22c2,0,4,.12,6,.16.89,0,1.21-.2,1.3-1,.11-1,.12-1.92.17-2.88,0-.48,0-1.1.48-1.28,1.33-.51,1.28-1.3.87-2.45a7.78,7.78,0,0,1-.18-2.38,2.33,2.33,0,0,1,.86-1.89c.71-.61.64-.79.3-1.54s-1.23-1.21-1.92-1.73-1.21-.18-1.84-.05-1.59.2-2.35.41a6.37,6.37,0,0,1-4.64-.39c-.09-.81.08-1.57,0-2.37s.48-1.64.69-2.49a5.13,5.13,0,0,0,.17-1.65,60.43,60.43,0,0,0-.75-7.87,23.51,23.51,0,0,1-.35-8.06c.29-2.28.1-2.45-2.08-2a2.81,2.81,0,0,1-3.43-1.4,3.55,3.55,0,0,0-.36-.63,7,7,0,0,0-2.46-2.18,31.08,31.08,0,0,0-5.26-1.54,10.23,10.23,0,0,1-6.13-3.41,27.9,27.9,0,0,0-2.28-2.46,11.17,11.17,0,0,1-3-4.83c-.36-1.06-1.1-2-1.37-3a11,11,0,0,0-1.58-2.84c-.58-1-1.59-2-1.44-3.19a3.13,3.13,0,0,0-1.5-3.2,6.17,6.17,0,0,1-.92-1.1l-6.67-8.19a3,3,0,0,1-.9-1.5c.24-.32.49-.72.79-1.08,2.54-3.1,5.09-6.18,7.62-9.28q5-6.12,10-12.27a3.82,3.82,0,0,0,1.19-2.29,12.75,12.75,0,0,1,.38-3.31,3.54,3.54,0,0,0-.21-1.4c-.38-1.93-1.61-3.64-1.48-5.71,0-.28-.24-.58-.42-.85a2.7,2.7,0,0,0-2-1.12c-3-.43-6-.91-9-1.37-2.13-.32-4.27-.62-6.4-1-1-.16-1.27-.37-1.35-1.36-.12-1.5-.7-3-.23-4.51a2.9,2.9,0,0,0-.1-1.42c-.46-1.89.08-3.83-.25-5.73a1.92,1.92,0,0,1,.2-.92,9.88,9.88,0,0,0,.17-6.8q-2.19-7.47-4.33-15a28.66,28.66,0,0,1-.72-3.28,2.54,2.54,0,0,1,.42-2.06c1.5-1.86,2.62-4,4.51-5.57a1.7,1.7,0,0,0,.71-1.44c0-.6.35-.81.86-1s.81-.25.7-.78a1,1,0,0,0-.85-.76,10.18,10.18,0,0,0-1.64-.26c-.72,0-1.44,0-2.16,0a4.25,4.25,0,0,1-3.15-1.53,2.59,2.59,0,0,1-.69-2.86,6,6,0,0,0,.31-4.2c-.24-1.08-.3-2.21-.48-3.32a4.34,4.34,0,0,1,1.24-4c1.27-1.3,2.56-2.62,4.65-2.33a6.36,6.36,0,0,0,1.44-.08c.58-.06.77-.53.39-1a29.71,29.71,0,0,0-2.66-3.38c-.55-.54-.38-1.17.33-1.2,1.84-.06,2.5-1.9,4-2.47a.74.74,0,0,0,.3-.61c-.13-1.21.75-1.88,1.34-2.7.47-.64,1.15-1.21,1.08-2.08-.13-1.65.55-3.14.93-4.66a3.85,3.85,0,0,0-.06-3,3.77,3.77,0,0,1-.18-1.41,1.07,1.07,0,0,1,.81-1.28,1.14,1.14,0,0,0,1-1.19,6.44,6.44,0,0,1,1.32-3.79,2.89,2.89,0,0,0,.13-3.35,3.1,3.1,0,0,1-.34-2.7,7.44,7.44,0,0,0-.06-3.57,4.37,4.37,0,0,0-1.84-2.32c.38-1,.66-1.8,1-2.6a3.34,3.34,0,0,0,.12-2.78,13.57,13.57,0,0,1-.67-8.4c.44-1.94-.27-2.61-2.3-2.67-1.75-.05-3.52,0-5.28,0-2.8,0-5.6,0-8.39.13-1.36,0-2.33-.31-2.77-1.7a6.53,6.53,0,0,0-1.55-2.4,16.64,16.64,0,0,1-2.9-4.1,2.72,2.72,0,0,0-2.2-1.65,4.93,4.93,0,0,1-2.59-1.16,7.06,7.06,0,0,0-3.54-1.34c-.75-.12-1.53.23-1.84-.83-.08-.28-.46-.42-.81-.4a1.19,1.19,0,0,1-1.4-1,2.33,2.33,0,0,0-.9-1.08,3.67,3.67,0,0,1-1.36-3.17,9.3,9.3,0,0,0-.05-1.67,1.3,1.3,0,0,0-1.7-1.21,2.89,2.89,0,0,1-2.82-.87,15.67,15.67,0,0,0-6-2.8,1.68,1.68,0,0,0-1.33.11c-1.43.72-2.83,1-4.2-.3-.69-.63-1-.57-1.61.19a2.57,2.57,0,0,1-3.4.78,3.61,3.61,0,0,0-1.15-.33,1.7,1.7,0,0,1-1.72-1.65c-.16-1.15-.92-1.58-2-1.73-2.29-.33-4.2-1.92-6.56-2-.07,0-.13-.1-.19-.14a6.9,6.9,0,0,0-3.42-.86,10.82,10.82,0,0,1-4.88-1c-.57-.3-.92-.72-.7-1.35a2.72,2.72,0,0,0-.46-2.48c-.68-1.08-1.32-2.18-2-3.26a1.15,1.15,0,0,0-1.83-.24c-.43.37-.78.81-1.2,1.17A1.42,1.42,0,0,1,551,527c-1.67-.55-3.55-.29-5-1.39a2,2,0,0,0-2.26-.13,3.57,3.57,0,0,1-2.52.16,4.28,4.28,0,0,0-4.22,1.07c-.55.53-1,.94-.54,1.83s-.09,1.19-.89,1.33a6.37,6.37,0,0,1-1.9,0,6.45,6.45,0,0,0-1.91-.05,11.1,11.1,0,0,1-5.87-.67,3.92,3.92,0,0,0-2.36-.22c-2.6.63-5.45.47-7.67,2.38-.29.24-.75.28-1.09.48-1.48.87-3.3,1.21-4.4,2.69a8.26,8.26,0,0,1-2.38,2c-.54.35-1.1.66-1.6,1.06a3.43,3.43,0,0,0-1.38,3.59,2.63,2.63,0,0,1-1.38,3.2c-.48.29-.93.62-1.39.94a1.23,1.23,0,0,1-1.11.3c-1.23-.47-2.17.22-3.15.74a14.46,14.46,0,0,1-8,1.77c-.64,0-1.28,0-1.91-.15-1.26-.18-1.42.36-1.3,1.34a6.6,6.6,0,0,0,.26,1.17c.43,1.45.92,2.89,1.3,4.36a31,31,0,0,1,.76,3.93c.18,1.51-.11,1.9-1.53,2.19a12.43,12.43,0,0,1-5.64-.55c-.11,0-.23-.25-.24-.38a.43.43,0,0,1,.26-.3,5.66,5.66,0,0,1,.72-.08c1.41-.2,2.84-.37,4.24-.65.57-.12,1.7,0,1.54-.72s-1,0-1.5.11a13.81,13.81,0,0,1-2.86.29,45.33,45.33,0,0,0-7.64.6,101.86,101.86,0,0,0-10.48,2.54,47.14,47.14,0,0,1-4.65,1.16,85.27,85.27,0,0,0-11.65,2.74,11.06,11.06,0,0,1-6.6.18c-4.32-1.13-8.73-2-13.1-2.88a11.69,11.69,0,0,1-3.81-1.38c-3-1.83-6-3.7-9-5.44-1.62-.93-2.83-2.34-4.31-3.41a3,3,0,0,1-.86-1.14,16.07,16.07,0,0,1-1.37-3.31,2.28,2.28,0,0,0-1.8-2c-1.15-.29-2.53-.21-3.41-1-1.27-1.11-2.46-.11-3.65-.26-.32,0-.63-.12-1-.16-1.58-.21-3.17-.49-4.76-.6a15.45,15.45,0,0,1-8.09-3.34,6.66,6.66,0,0,1-3.12-4.91,2.52,2.52,0,0,0-.42-1.1,3.39,3.39,0,0,1-.44-1.84,5.2,5.2,0,0,0-.18-1.41,30.86,30.86,0,0,1-1.22-9.21,3.71,3.71,0,0,0,0-.47,1.06,1.06,0,0,0-.86-1,1.94,1.94,0,0,0-1.63.05c-.49.27-.95.59-1.46.81a1.64,1.64,0,0,1-2.33-.56c-1-1.38-2.3-2.45-3-4a.89.89,0,0,0-1.17-.55c-.45.13-1,.37-1.38.05-.62-.47-1.45-.83-1.53-1.73a1.78,1.78,0,0,0-1.27-1.57,14.94,14.94,0,0,1-1.52-.71,9.5,9.5,0,0,1-1.57-1.08,1.34,1.34,0,0,1,0-2.08,3.92,3.92,0,0,1,2.32-1.15,15.29,15.29,0,0,0,1.9-.29c1.62-.45,2.05-1.7,1.14-3.15a2.35,2.35,0,0,0-1.08-.9,5,5,0,0,1-1.88-1.46,1.89,1.89,0,0,1,.74-3.14,10.08,10.08,0,0,1,1.14-.35,5,5,0,0,0,2-1.14,1.74,1.74,0,0,0-.7-1.5c-1.82-1.57-3.36-3.43-5-5.16a2.61,2.61,0,0,0-3.12-1c-.71.26-1.55.08-2.26.6a29.21,29.21,0,0,1-7.4,4.28,3.58,3.58,0,0,0-1.55,1.08,8.08,8.08,0,0,1-4.16,2.69,3.29,3.29,0,0,0-2,1.65c-.22.42-.44.85-.68,1.26a2.17,2.17,0,0,1-2.38,1.21A1.79,1.79,0,0,0,340,504c-1.09,1.24-2,2.71-3.56,3.45-.26.12-.43.47-.61.73s-.39.7-.64,1A1.9,1.9,0,0,1,332.66,509.84Zm56.39,205.91a1.31,1.31,0,0,1,.44,2.26.68.68,0,0,1-.82.23c-.81-.3-1.64-.55-2.45-.82-.14,0-.39-.13-.39-.18.09-1.11-1.19-1.1-1.6-1.9C386,714.51,387.56,715.1,389.05,715.75Z"/><path class="cls-7" d="M529.39,808c1.31-1.15,2.86-2.09,3.69-3.68a3.28,3.28,0,0,1,2.22-2,.67.67,0,0,0,.54-.69c0-.35-.29-.55-.56-.73a1.91,1.91,0,0,0-1.36-.33c-1.18.16-2.51.17-3.42.93a4,4,0,0,1-5,.49.63.63,0,0,0-.24,0,.43.43,0,0,0-.5.57,8.7,8.7,0,0,1,.56,1,1.66,1.66,0,0,1-1.25,2.33,17,17,0,0,0-2.16,1,30.38,30.38,0,0,1-6.9,2.46,19.2,19.2,0,0,0,.14,2,.54.54,0,0,0,.7.46c2-.78,4.18-1,6-2.27a4.73,4.73,0,0,1,3.28-1.21,1.86,1.86,0,0,0,1.06-.45,1.49,1.49,0,0,1,2.13,0A.77.77,0,0,0,529.39,808Z"/><path class="cls-7" d="M487.92,811.41l-.23,0a1,1,0,0,0-1,.73.93.93,0,0,0,.57.93,3.25,3.25,0,0,0,1.82.28.72.72,0,0,0,.45-1.09C489.17,811.55,488.52,811.55,487.92,811.41Z"/><path class="cls-7" d="M472.18,804.38c-.36-.08-.81-.24-1,.26s.26.53.49.72a3.22,3.22,0,0,0,2.19.61,6,6,0,0,0,.71-.11c.27-.06.68,0,.72-.4s-.31-.49-.61-.56C473.86,804.72,473,804.54,472.18,804.38Z"/><path class="cls-7" d="M537.21,803.64a.89.89,0,0,0-.48,1,.51.51,0,0,0,.33.29,1.14,1.14,0,0,0,1.39-.88c-.06-.14-.07-.31-.17-.4A.86.86,0,0,0,537.21,803.64Z"/><path class="cls-7" d="M539.64,798.3a.73.73,0,0,0-.57.89.59.59,0,0,0,.69.49.69.69,0,0,0,.7-.82A.66.66,0,0,0,539.64,798.3Z"/><path class="cls-7" d="M498.65,818.18a.74.74,0,0,0,.62.83.77.77,0,0,0,.58-.85.65.65,0,0,0-.76-.65C498.71,817.55,498.67,817.88,498.65,818.18Z"/><path class="cls-7" d="M412.15,745.15a.56.56,0,0,0-.21.8,1,1,0,0,0,.48.46c.27.09.46-.51.27-.94A.48.48,0,0,0,412.15,745.15Z"/><path class="cls-7" d="M527,809.67c0,.23.14.44.4.41a.66.66,0,0,0,.59-.71c0-.34-.14-.55-.4-.51C527.14,808.92,527,809.25,527,809.67Z"/></g></g></svg>