<svg xmlns="http://www.w3.org/2000/svg" fill="none" viewBox="0 0 61 60"><path fill="#BED62F" d="M8.67 4.7s1.18.79 1.7 1.28c0 0 1.97-.29 2.48-.3 0 0-.12.83-1.16 2.12 0 0 .49 1.3.2 2.45 0 0-1.03-.85-2.12-1.23 0 0-1.56.56-2.65.63 0 0 .5-.96.68-1.48 0 0-1.29-.6-1.74-.75l2.32-.86s.47-.89.29-1.86ZM5.42 1.52s.6.39.85.64c0 0 .98-.15 1.24-.15 0 0-.07.41-.59 1.05 0 0 .25.65.11 1.22 0 0-.52-.42-1.06-.61 0 0-.78.28-1.32.31 0 0 .25-.48.34-.74 0 0-.64-.3-.86-.37l1.15-.43s.23-.44.14-.92ZM11.8.96s.74.48 1.07.8c0 0 1.22-.19 1.54-.2 0 0-.08.52-.73 1.32 0 0 .3.8.13 1.52 0 0-.64-.52-1.32-.76 0 0-.97.35-1.64.39 0 0 .31-.6.42-.92 0 0-.8-.37-1.08-.47l1.44-.53s.29-.55.18-1.15ZM17.21 4.01s.48.32.7.52c0 0 .79-.12 1-.12 0 0-.06.33-.48.86 0 0 .2.52.09.99 0 0-.42-.35-.86-.5 0 0-.64.23-1.07.25 0 0 .2-.39.27-.6 0 0-.52-.24-.7-.3l.93-.35s.2-.36.12-.75ZM22.27 6.01s.3.2.43.32c0 0 .5-.07.63-.07 0 0-.04.2-.3.53 0 0 .13.32.06.62 0 0-.26-.22-.54-.32 0 0-.4.15-.66.16l.17-.37-.44-.19.58-.21s.12-.23.07-.47ZM.72.56s.3.2.43.32L1.77.8s-.03.21-.29.54c0 0 .12.32.05.61 0 0-.26-.21-.53-.3 0 0-.4.13-.67.15 0 0 .13-.24.17-.37l-.43-.19.58-.22S.77.8.72.56ZM18.7 16.8s.3.2.43.32l.62-.08s-.03.21-.29.54c0 0 .12.32.05.61 0 0-.26-.21-.53-.3 0 0-.4.13-.67.15 0 0 .13-.24.17-.37l-.43-.2.58-.2s.12-.23.07-.47ZM2.77 22.6s.3.2.43.32c0 0 .49-.07.62-.07 0 0-.03.2-.3.53 0 0 .13.33.06.62 0 0-.26-.22-.54-.31 0 0-.39.14-.66.16 0 0 .13-.25.17-.38 0 0-.32-.15-.44-.18l.58-.22s.12-.22.08-.47ZM8.45 20.8s.48.32.7.53c0 0 .8-.12 1-.12 0 0-.04.33-.47.86 0 0 .2.53.09 1 0 0-.43-.35-.87-.5 0 0-.64.23-1.08.25 0 0 .2-.39.27-.6 0 0-.52-.24-.7-.3l.94-.36s.2-.36.12-.76ZM5.63 11.23s.48.32.7.53c0 0 .8-.12 1-.13 0 0-.05.34-.47.87 0 0 .2.53.08 1 0 0-.42-.35-.86-.5 0 0-.64.23-1.09.25 0 0 .21-.39.28-.6 0 0-.53-.24-.7-.3l.94-.36s.19-.36.12-.76ZM10.58 11.36s1.97 1.3 2.85 2.14c0 0 3.28-.48 4.13-.5 0 0-.2 1.38-1.95 3.53 0 0 .83 2.16.36 4.1 0 0-1.73-1.43-3.54-2.07 0 0-2.62.94-4.42 1.05 0 0 .84-1.6 1.12-2.47 0 0-2.15-1-2.9-1.25l3.87-1.44s.79-1.47.48-3.09Z"/><path fill="#BED62F" d="M15.62 8.93s1.18.78 1.7 1.27c0 0 1.95-.28 2.46-.3 0 0-.12.83-1.16 2.1 0 0 .5 1.3.21 2.44 0 0-1.03-.84-2.1-1.22 0 0-1.57.55-2.64.62 0 0 .5-.95.67-1.47 0 0-1.28-.6-1.73-.75l2.3-.85s.47-.88.3-1.84Z"/><mask id="a" width="43" height="8" x="6" y="52" maskUnits="userSpaceOnUse"><path fill="white" d="M6.88 59.17h41.2v-6.66H6.89v6.66Z"/></mask><g mask="url(#a)"><path fill="#FEFEFE" d="M48.09 56.8s-13.84-5.55-37.45-4.03c0 0-8.4.07-.08 4.78 1.9 1.09 5 2.4 22.76 1.04 4.4-.33 14.77-1.78 14.77-1.78Z"/></g><path fill="#FBFCFC" d="M48.07 56.8s-13.73-5.5-37.16-4c0 0-8.34.06-.08 4.74 1.87 1.08 4.96 2.38 22.59 1.04 4.37-.34 14.65-1.78 14.65-1.78Z"/><path fill="#F9FAFB" d="M48.06 56.8s-13.62-5.47-36.88-3.98c0 0-8.27.06-.08 4.7C12.96 58.6 16 59.9 33.5 58.57c4.34-.33 14.55-1.76 14.55-1.76Z"/><path fill="#F7F9FA" d="M48.05 56.8s-13.51-5.43-36.6-3.95c0 0-8.2.06-.09 4.67 1.85 1.07 4.88 2.34 22.25 1.02 4.3-.32 14.44-1.74 14.44-1.74Z"/><path fill="#F5F7F8" d="M48.03 56.8s-13.4-5.4-36.31-3.92c0 0-8.14.05-.09 4.63 1.83 1.06 4.84 2.32 22.07 1.02 4.27-.33 14.33-1.73 14.33-1.73Z"/><path fill="#F3F6F7" d="M48.02 56.8s-13.3-5.35-36.03-3.9c0 0-8.08.06-.1 4.6 1.82 1.05 4.8 2.3 21.9 1.01 4.25-.32 14.23-1.71 14.23-1.71Z"/><path fill="#F1F5F6" d="M48 56.8s-13.18-5.31-35.74-3.87c0 0-8.02.05-.1 4.56 1.8 1.04 4.76 2.29 21.73 1 4.21-.31 14.12-1.7 14.12-1.7Z"/><path fill="#F0F4F6" d="M48 56.8s-13.08-5.27-35.47-3.85c0 0-7.95.06-.1 4.53 1.79 1.03 4.72 2.27 21.56 1 4.17-.32 14-1.69 14-1.69Z"/><path fill="#EEF2F5" d="M47.98 56.79s-12.96-5.23-35.17-3.81c0 0-7.9.05-.11 4.49 1.77 1.02 4.68 2.25 21.38 1 4.14-.32 13.9-1.68 13.9-1.68Z"/><path fill="#EDF1F4" d="M47.97 56.79S35.1 51.6 13.07 53c0 0-7.82.05-.1 4.45 1.75 1.02 4.63 2.24 21.21.99 4.1-.31 13.79-1.66 13.79-1.66Z"/><path fill="#EBF0F3" d="M47.95 56.79s-12.74-5.15-34.6-3.76c0 0-7.77.05-.12 4.41 1.74 1.02 4.6 2.23 21.05.99 4.07-.3 13.67-1.64 13.67-1.64Z"/><path fill="#EAEFF2" d="M47.94 56.78s-12.64-5.1-34.32-3.72c0 0-7.7.05-.12 4.38 1.72 1 4.56 2.2 20.87.97 4.04-.3 13.57-1.63 13.57-1.63Z"/><path fill="#E9EEF1" d="M47.93 56.78s-12.53-5.06-34.04-3.7c0 0-7.64.05-.12 4.34 1.7 1 4.51 2.2 20.7.98 4-.3 13.46-1.62 13.46-1.62Z"/><path fill="#E7EDF1" d="M47.91 56.78s-12.42-5.02-33.75-3.67c0 0-7.58.05-.13 4.3 1.7 1 4.48 2.17 20.53.97 3.98-.3 13.35-1.6 13.35-1.6Z"/><path fill="#E6ECF0" d="M47.9 56.78s-12.3-4.98-33.47-3.65c0 0-7.51.05-.13 4.27 1.68.99 4.44 2.16 20.36.96 3.94-.3 13.24-1.58 13.24-1.58Z"/><path fill="#E5EBEF" d="M47.88 56.78s-12.2-4.94-33.17-3.62c0 0-7.46.05-.14 4.23 1.66.98 4.4 2.14 20.18.96 3.91-.3 13.13-1.57 13.13-1.57Z"/><path fill="#E4EAEE" d="M47.87 56.77s-12.09-4.9-32.9-3.58c0 0-7.38.04-.14 4.2 1.65.96 4.36 2.11 20.02.94 3.88-.29 13.02-1.56 13.02-1.56Z"/><path fill="#E3EAEE" d="M47.86 56.77s-11.98-4.86-32.61-3.56c0 0-7.33.04-.15 4.16 1.63.96 4.32 2.1 19.84.94 3.85-.28 12.92-1.54 12.92-1.54Z"/><path fill="#E1E9ED" d="M47.84 56.77s-11.87-4.82-32.32-3.53c0 0-7.26.04-.15 4.12 1.61.95 4.28 2.08 19.67.94 3.81-.29 12.8-1.53 12.8-1.53Z"/><path fill="#E0E8EC" d="M47.83 56.77s-11.76-4.78-32.04-3.5c0 0-7.2.03-.16 4.08 1.6.94 4.24 2.07 19.5.93 3.78-.28 12.7-1.51 12.7-1.51Z"/><path fill="#DFE7EB" d="M47.82 56.77s-11.65-4.74-31.76-3.48c0 0-7.14.04-.16 4.05 1.59.94 4.2 2.05 19.33.93a305.9 305.9 0 0 0 12.59-1.5Z"/><path fill="#DEE6EB" d="M47.8 56.76s-11.54-4.7-31.47-3.45c0 0-7.07.04-.16 4.02 1.57.93 4.16 2.03 19.15.92 3.72-.28 12.48-1.49 12.48-1.49Z"/><path fill="#DCE5EA" d="M47.79 56.76s-11.43-4.65-31.19-3.42c0 0-7 .04-.16 3.98 1.55.92 4.11 2.01 18.98.91 3.68-.27 12.37-1.47 12.37-1.47Z"/><path fill="#DBE4E9" d="M47.78 56.76s-11.33-4.61-30.9-3.4c0 0-6.95.04-.18 3.95 1.54.91 4.08 2 18.81.9 3.66-.26 12.27-1.45 12.27-1.45Z"/><path fill="#DAE3E8" d="M47.76 56.76s-11.21-4.58-30.61-3.37c0 0-6.89.04-.18 3.91 1.52.9 4.04 1.98 18.64.9 3.62-.27 12.15-1.44 12.15-1.44Z"/><path fill="#D9E2E7" d="M47.75 56.76s-11.1-4.54-30.33-3.34c0 0-6.83.03-.18 3.87 1.5.9 4 1.96 18.47.9 3.58-.27 12.04-1.43 12.04-1.43Z"/><path fill="#D8E1E7" d="M47.74 56.75s-11-4.49-30.05-3.3c0 0-6.76.03-.19 3.83 1.5.89 3.96 1.94 18.3.89 3.55-.26 11.94-1.42 11.94-1.42Z"/><path fill="#D6E0E6" d="M47.72 56.75s-10.88-4.45-29.76-3.28c0 0-6.7.03-.19 3.8 1.48.88 3.92 1.92 18.13.88 3.52-.26 11.82-1.4 11.82-1.4Z"/><path fill="#D5DFE5" d="M47.7 56.75s-10.77-4.41-29.47-3.26c0 0-6.63.03-.2 3.77 1.47.87 3.89 1.9 17.96.87 3.49-.25 11.72-1.38 11.72-1.38Z"/><path fill="#D4DEE4" d="M47.7 56.75s-10.67-4.37-29.2-3.23c0 0-6.57.03-.2 3.73 1.45.86 3.84 1.89 17.79.87 3.45-.26 11.6-1.37 11.6-1.37Z"/><path fill="#D3DDE3" d="M47.68 56.75s-10.55-4.33-28.9-3.2c0 0-6.51.02-.2 3.7 1.42.84 3.8 1.86 17.6.85 3.42-.25 11.5-1.35 11.5-1.35Z"/><path fill="#D2DDE3" d="M47.67 56.74s-10.45-4.28-28.62-3.17c0 0-6.45.03-.21 3.66 1.42.85 3.76 1.85 17.44.86 3.39-.25 11.39-1.35 11.39-1.35Z"/><path fill="#D0DCE2" d="M47.66 56.74S37.32 52.5 19.32 53.6c0 0-6.39.02-.21 3.62 1.4.84 3.72 1.83 17.26.85 3.36-.25 11.29-1.33 11.29-1.33Z"/><path fill="#CFDBE1" d="M47.64 56.74s-10.23-4.2-28.05-3.12c0 0-6.32.03-.22 3.6 1.39.82 3.68 1.8 17.1.83 3.32-.24 11.17-1.31 11.17-1.31Z"/><path fill="#CEDAE0" d="M47.63 56.74s-10.12-4.17-27.77-3.1c0 0-6.26.03-.22 3.56 1.37.82 3.64 1.8 16.92.84 3.3-.24 11.07-1.3 11.07-1.3Z"/><path fill="#CDD9E0" d="M47.61 56.74s-10-4.13-27.48-3.06c0 0-6.2.02-.22 3.51 1.35.81 3.6 1.78 16.75.83 3.26-.24 10.95-1.28 10.95-1.28Z"/><path fill="#CCD8DF" d="M47.6 56.73s-9.9-4.08-27.2-3.03c0 0-6.13.02-.23 3.48 1.34.8 3.56 1.76 16.58.82 3.23-.23 10.85-1.27 10.85-1.27Z"/><path fill="#CBD7DE" d="M47.59 56.73s-9.8-4.04-26.91-3c0 0-6.07.02-.24 3.44 1.33.8 3.52 1.75 16.4.82 3.2-.23 10.75-1.26 10.75-1.26Z"/><path fill="#CAD6DD" d="M47.57 56.73s-9.74-4.02-26.77-2.99c0 0-6.04.02-.23 3.43 1.31.79 3.5 1.73 16.32.8 3.17-.22 10.68-1.24 10.68-1.24Z"/><path fill="#C8D5DD" d="M47.55 56.73s-9.68-4-26.63-2.98c0 0-6 .02-.23 3.41 1.31.79 3.48 1.73 16.24.8 3.16-.22 10.62-1.23 10.62-1.23Z"/><path fill="#C7D4DC" d="M47.53 56.73s-9.63-3.98-26.48-2.96c0 0-5.98.01-.23 3.39 1.3.78 3.46 1.71 16.15.8 3.14-.23 10.56-1.23 10.56-1.23Z"/><path fill="#C6D4DB" d="M47.52 56.72s-9.59-3.95-26.35-2.94c0 0-5.94.02-.23 3.37 1.3.78 3.45 1.7 16.07.8 3.12-.22 10.5-1.23 10.5-1.23Z"/><path fill="#C5D3DA" d="M47.5 56.72s-9.53-3.94-26.2-2.93c0 0-5.91.02-.23 3.35 1.29.78 3.42 1.7 15.97.8 3.11-.22 10.46-1.22 10.46-1.22Z"/><path fill="#C4D2DA" d="M47.48 56.72S38 52.8 21.42 53.8c0 0-5.88.02-.23 3.34 1.29.77 3.41 1.69 15.9.8 3.08-.23 10.4-1.22 10.4-1.22Z"/><path fill="#C3D1D9" d="M47.46 56.72s-9.42-3.9-25.91-2.9c0 0-5.85.01-.23 3.31 1.28.77 3.39 1.69 15.8.8 3.08-.23 10.34-1.21 10.34-1.21Z"/><path fill="#C2D0D8" d="M47.45 56.72s-9.38-3.88-25.78-2.89c0 0-5.81.02-.23 3.3 1.27.76 3.38 1.67 15.72.79 3.06-.22 10.29-1.2 10.29-1.2Z"/><path fill="#C1CFD7" d="M47.43 56.72s-9.33-3.86-25.63-2.88c0 0-5.79.02-.23 3.28 1.26.76 3.35 1.67 15.63.79 3.04-.22 10.23-1.2 10.23-1.2Z"/><path fill="#BFCED6" d="M47.41 56.71s-9.27-3.83-25.49-2.85c0 0-5.75.01-.22 3.26 1.25.75 3.33 1.65 15.54.78 3.02-.22 10.17-1.19 10.17-1.19Z"/><path fill="#BECDD6" d="M47.4 56.71s-9.23-3.81-25.36-2.84c0 0-5.71.01-.22 3.24 1.25.75 3.32 1.65 15.46.78 3-.22 10.11-1.18 10.11-1.18Z"/><path fill="#BDCCD5" d="M47.38 56.7s-9.17-3.78-25.21-2.82c0 0-5.69.02-.22 3.23 1.24.74 3.3 1.63 15.37.77 2.99-.21 10.06-1.17 10.06-1.17Z"/><path fill="#BCCBD4" d="M47.36 56.7s-9.12-3.76-25.07-2.8c0 0-5.65 0-.22 3.2 1.24.74 3.28 1.63 15.28.77 2.98-.21 10-1.16 10-1.16Z"/><path fill="#BBCBD3" d="M47.34 56.7s-9.06-3.74-24.92-2.8c0 0-5.62.02-.22 3.2 1.22.73 3.26 1.61 15.2.76 2.95-.21 9.94-1.15 9.94-1.15Z"/><path fill="#BACAD2" d="M47.32 56.7s-9.01-3.72-24.78-2.78c0 0-5.59.01-.22 3.17 1.22.74 3.24 1.61 15.11.76 2.94-.2 9.9-1.15 9.9-1.15Z"/><path fill="#B9C9D2" d="M47.3 56.7s-8.96-3.7-24.63-2.77c0 0-5.56.02-.22 3.16 1.21.73 3.22 1.6 15.02.75 2.93-.2 9.83-1.14 9.83-1.14Z"/><path fill="#B7C8D1" d="M47.29 56.7s-8.91-3.69-24.5-2.76c0 0-5.52.02-.22 3.14 1.21.73 3.2 1.6 14.94.76 2.9-.21 9.78-1.14 9.78-1.14Z"/><path fill="#B6C7D0" d="M47.27 56.7s-8.86-3.67-24.36-2.74c0 0-5.49.01-.21 3.12 1.2.72 3.18 1.58 14.85.75 2.89-.21 9.72-1.13 9.72-1.13Z"/><path fill="#B5C6CF" d="M47.25 56.7s-8.8-3.65-24.21-2.73c0 0-5.46.01-.22 3.1 1.2.72 3.17 1.57 14.77.75 2.87-.2 9.66-1.12 9.66-1.12Z"/><path fill="#B4C5CE" d="M47.23 56.7s-8.75-3.63-24.07-2.72c0 0-5.43.02-.21 3.08 1.19.72 3.15 1.57 14.68.75 2.85-.2 9.6-1.11 9.6-1.11Z"/><path fill="#B3C4CE" d="M47.22 56.7s-8.7-3.61-23.93-2.7c0 0-5.4 0-.21 3.06 1.17.7 3.12 1.55 14.59.74 2.84-.2 9.55-1.1 9.55-1.1Z"/><path fill="#B2C3CD" d="M47.2 56.7S38.55 53.1 23.4 54c0 0-5.36.02-.2 3.05 1.16.7 3.1 1.55 14.5.74 2.82-.2 9.49-1.1 9.49-1.1Z"/><path fill="#B1C2CC" d="M47.18 56.69s-8.6-3.56-23.64-2.67c0 0-5.34.01-.21 3.03 1.16.7 3.09 1.53 14.41.73 2.81-.2 9.44-1.09 9.44-1.09Z"/><path fill="#B0C2CB" d="M47.16 56.69s-8.54-3.54-23.5-2.66c0 0-5.3.02-.2 3.01 1.15.7 3.07 1.53 14.32.73 2.8-.2 9.38-1.08 9.38-1.08Z"/><path fill="#AFC1CB" d="M47.15 56.69s-8.5-3.52-23.36-2.64c0 0-5.27 0-.21 2.99 1.15.69 3.05 1.52 14.24.72 2.77-.2 9.33-1.07 9.33-1.07Z"/><path fill="#ADC0CA" d="M47.13 56.68s-8.45-3.5-23.22-2.62c0 0-5.24.01-.2 2.97 1.14.7 3.03 1.51 14.15.72 2.76-.2 9.27-1.07 9.27-1.07Z"/><path fill="#ACBFC9" d="M47.11 56.68s-8.4-3.48-23.08-2.6c0 0-5.2 0-.2 2.95 1.13.68 3.02 1.5 14.07.72 2.74-.2 9.21-1.07 9.21-1.07Z"/><path fill="#ABBEC8" d="M47.1 56.68s-8.35-3.46-22.94-2.6c0 0-5.17.02-.2 2.94 1.12.68 3 1.5 13.98.72 2.72-.2 9.15-1.06 9.15-1.06Z"/><path fill="#AABDC7" d="M47.07 56.68s-8.28-3.44-22.79-2.58c0 0-5.14 0-.2 2.92 1.12.67 2.98 1.48 13.9.7 2.7-.18 9.1-1.04 9.1-1.04Z"/><path fill="#A9BCC7" d="M47.06 56.68s-8.24-3.42-22.65-2.57c0 0-5.11.01-.2 2.9 1.11.67 2.96 1.47 13.8.7 2.7-.18 9.05-1.03 9.05-1.03Z"/><path fill="#A8BBC6" d="M47.04 56.68s-8.18-3.4-22.5-2.55c0 0-5.08 0-.2 2.88 1.1.66 2.93 1.46 13.72.7 2.67-.19 8.98-1.03 8.98-1.03Z"/><path fill="#A7BBC5" d="M47.02 56.67s-8.13-3.37-22.36-2.53c0 0-5.05 0-.2 2.86 1.1.66 2.92 1.46 13.63.7 2.66-.19 8.93-1.03 8.93-1.03Z"/><path fill="#A6BAC4" d="M47 56.67s-8.08-3.35-22.22-2.52c0 0-5.01 0-.2 2.85 1.1.65 2.9 1.44 13.55.7 2.64-.2 8.87-1.03 8.87-1.03Z"/><path fill="#A5B9C3" d="M46.99 56.67s-8.03-3.33-22.08-2.5c0 0-4.99 0-.2 2.82 1.08.66 2.88 1.44 13.46.7 2.62-.2 8.82-1.02 8.82-1.02Z"/><path fill="#A4B8C3" d="M46.97 56.67s-7.98-3.31-21.94-2.5c0 0-4.95.01-.2 2.81 1.08.66 2.87 1.43 13.38.7 2.6-.19 8.76-1.01 8.76-1.01Z"/><path fill="#A3B7C2" d="M46.95 56.67s-7.92-3.3-21.8-2.48c0 0-4.91 0-.2 2.79 1.08.65 2.86 1.42 13.3.69 2.59-.19 8.7-1 8.7-1Z"/><path fill="#A2B6C1" d="M46.93 56.66s-7.87-3.26-21.65-2.46c0 0-4.89 0-.2 2.77 1.07.65 2.83 1.41 13.2.69 2.58-.18 8.65-1 8.65-1Z"/><path fill="#A0B5C0" d="M46.92 56.66s-7.83-3.25-21.52-2.44c0 0-4.85 0-.2 2.75 1.07.64 2.82 1.4 13.13.68 2.55-.18 8.59-.99 8.59-.99Z"/><path fill="#9FB4BF" d="M46.9 56.66s-7.77-3.23-21.37-2.43c0 0-4.82 0-.2 2.73 1.06.64 2.8 1.4 13.04.68 2.53-.18 8.53-.98 8.53-.98Z"/><path fill="#9EB3BE" d="M46.88 56.66s-7.72-3.2-21.23-2.42c0 0-4.79 0-.19 2.72 1.04.63 2.77 1.38 12.95.67 2.51-.18 8.47-.97 8.47-.97Z"/><path fill="#9DB2BE" d="M46.86 56.66s-7.66-3.19-21.08-2.4c0 0-4.76 0-.2 2.7 1.04.62 2.76 1.37 12.86.66 2.5-.17 8.42-.96 8.42-.96Z"/><path fill="#9CB2BD" d="M46.84 56.65s-7.6-3.16-20.94-2.38c0 0-4.72 0-.19 2.68 1.03.62 2.74 1.36 12.77.66 2.49-.17 8.37-.96 8.37-.96Z"/><path fill="#9BB1BC" d="M46.83 56.65s-7.56-3.14-20.8-2.37c0 0-4.7 0-.2 2.66 1.03.62 2.73 1.36 12.7.66 2.46-.17 8.3-.95 8.3-.95Z"/><path fill="#9AB0BB" d="M46.8 56.65s-7.5-3.12-20.65-2.36c0 0-4.66 0-.19 2.65 1.02.61 2.7 1.34 12.6.65 2.45-.17 8.25-.94 8.25-.94Z"/><path fill="#99AFBA" d="M46.8 56.65s-7.47-3.1-20.52-2.34c0 0-4.63 0-.2 2.62 1.02.61 2.69 1.34 12.52.66 2.44-.17 8.2-.94 8.2-.94Z"/><path fill="#98AEBA" d="M46.77 56.65s-7.4-3.08-20.37-2.33c0 0-4.6 0-.19 2.6 1 .61 2.67 1.33 12.43.66 2.42-.17 8.13-.93 8.13-.93Z"/><path fill="#97ADB9" d="M46.76 56.65s-7.36-3.06-20.24-2.32c0 0-4.56 0-.18 2.59 1 .6 2.64 1.32 12.34.65 2.4-.17 8.08-.92 8.08-.92Z"/><path fill="#96ACB8" d="M46.74 56.64s-7.3-3.03-20.1-2.3c0 0-4.53 0-.18 2.58 1 .6 2.63 1.3 12.26.64 2.38-.17 8.02-.92 8.02-.92Z"/><path fill="#95ABB7" d="M46.72 56.64s-7.25-3.02-19.95-2.28c0 0-4.5 0-.18 2.55.98.6 2.6 1.3 12.17.64 2.36-.16 7.96-.9 7.96-.9Z"/><path fill="#94ABB7" d="M46.7 56.64s-7.2-3-19.8-2.27c0 0-4.47 0-.18 2.53.97.6 2.58 1.3 12.07.64 2.36-.16 7.91-.9 7.91-.9Z"/><path fill="#93AAB6" d="M46.69 56.64s-7.15-2.98-19.67-2.26c0 0-4.44 0-.18 2.52.97.58 2.57 1.28 12 .63 2.33-.16 7.85-.9 7.85-.9Z"/><path fill="#92A9B5" d="M46.67 56.64s-7.1-2.96-19.52-2.24c0 0-4.4 0-.18 2.5.96.57 2.55 1.27 11.9.62 2.32-.16 7.8-.88 7.8-.88Z"/><path fill="#91A8B4" d="M46.65 56.63s-7.04-2.93-19.38-2.22c0 0-4.37 0-.18 2.48.95.58 2.53 1.26 11.82.62 2.3-.16 7.74-.88 7.74-.88Z"/><path fill="#90A7B3" d="M46.63 56.63s-6.99-2.91-19.24-2.2c0 0-4.34 0-.17 2.45.94.58 2.51 1.26 11.73.63 2.28-.16 7.68-.88 7.68-.88Z"/><path fill="#8FA6B2" d="M46.62 56.63s-6.94-2.9-19.1-2.2c0 0-4.31 0-.18 2.45.94.57 2.5 1.24 11.65.62 2.27-.16 7.63-.87 7.63-.87Z"/><path fill="#8EA5B2" d="M46.6 56.63s-6.9-2.87-18.96-2.18c0 0-4.27 0-.17 2.42.93.57 2.47 1.24 11.56.62 2.25-.16 7.57-.86 7.57-.86Z"/><path fill="#8DA4B1" d="M46.58 56.63s-6.84-2.85-18.81-2.17c0 0-4.25 0-.18 2.4.93.57 2.46 1.24 11.48.62 2.23-.16 7.51-.85 7.51-.85Z"/><path fill="#8CA3B0" d="M46.56 56.63s-6.78-2.83-18.67-2.16c0 0-4.21 0-.17 2.4.92.55 2.44 1.21 11.39.6 2.21-.15 7.45-.84 7.45-.84Z"/><path fill="#8BA3AF" d="M46.54 56.62s-6.73-2.8-18.52-2.13c0 0-4.18 0-.18 2.37.92.55 2.43 1.2 11.3.6 2.2-.15 7.4-.84 7.4-.84Z"/><path fill="#8AA2AF" d="M46.53 56.62s-6.68-2.79-18.39-2.12c0 0-4.15 0-.17 2.35.9.55 2.4 1.2 11.21.6 2.19-.15 7.35-.83 7.35-.83Z"/><path fill="#89A1AE" d="M46.5 56.62s-6.62-2.77-18.23-2.1c0 0-4.12-.01-.17 2.33.9.54 2.38 1.19 11.12.6 2.17-.16 7.29-.83 7.29-.83Z"/><path fill="#88A0AD" d="M46.5 56.62s-6.59-2.75-18.1-2.1c0 0-4.1 0-.18 2.32.89.54 2.37 1.18 11.04.6 2.15-.15 7.23-.82 7.23-.82Z"/><path fill="#879FAC" d="M46.47 56.62s-6.52-2.73-17.95-2.08c0 0-4.06 0-.17 2.3.88.53 2.34 1.17 10.95.59 2.13-.15 7.17-.81 7.17-.81Z"/><path fill="#869FAB" d="M46.46 56.61s-6.48-2.7-17.82-2.06c0 0-4.02 0-.17 2.28.88.53 2.33 1.16 10.87.59 2.11-.15 7.12-.8 7.12-.8Z"/><path fill="#859EAB" d="M46.44 56.61s-6.42-2.68-17.68-2.05c0 0-3.99 0-.16 2.26.87.53 2.3 1.16 10.78.59 2.1-.15 7.06-.8 7.06-.8Z"/><path fill="#849DAA" d="M46.42 56.61s-6.37-2.66-17.53-2.03c0 0-3.96 0-.17 2.24.86.52 2.3 1.15 10.7.58 2.08-.14 7-.79 7-.79Z"/><path fill="#839CA9" d="M46.4 56.6s-6.31-2.63-17.39-2.01c0 0-3.92 0-.16 2.22.85.52 2.27 1.14 10.6.58 2.07-.14 6.95-.78 6.95-.78Z"/><path fill="#829BA8" d="M46.39 56.6s-6.27-2.61-17.25-2c0 0-3.9 0-.17 2.2.85.52 2.26 1.14 10.52.58 2.05-.14 6.9-.77 6.9-.77Z"/><path fill="#819AA8" d="M46.37 56.6s-6.22-2.6-17.1-1.99c0 0-3.87 0-.17 2.2.84.5 2.23 1.11 10.43.56 2.03-.14 6.84-.76 6.84-.76Z"/><path fill="#809AA7" d="M46.35 56.6s-6.16-2.58-16.96-1.97c0 0-3.83 0-.16 2.17.83.5 2.21 1.1 10.34.56 2.02-.13 6.78-.76 6.78-.76Z"/><path fill="#7F99A6" d="M46.33 56.6s-6.1-2.56-16.82-1.96c0 0-3.8 0-.16 2.15.83.5 2.2 1.1 10.26.56 2-.13 6.72-.75 6.72-.75Z"/><path fill="#7E98A5" d="M46.31 56.6s-6.05-2.54-16.68-1.95c0 0-3.76 0-.15 2.14.82.5 2.17 1.09 10.17.55 1.98-.13 6.66-.74 6.66-.74Z"/><path fill="#BED62F" d="M60.35 18.6c-.66-.2-2.94-.37-8.72-.16-5.78.21-12.01.42-12.27.37-.25-.05-4.91-5.21-8.76-8.5-3.86-3.28-4.21-3.49-4.26-3.33 0 0-1.42 11.88-4.92 15.11L1.8 27.04s13.84 7.3 13.49 8.19c-.36.88-3.1 6.25-7.3 11.52 0 0 11.2.78 23.52-2.71 0 0 6.33 2.81 16.78 12.56 0 0 2.94-8.76 1.72-14.7-1.22-5.94-1.52-6.3-.1-7.61 1.42-1.3 5.62-5.37 8.16-9.9 2.53-4.54 2.94-5.58 2.28-5.8Z"/><path fill="#40606F" d="M25.27 36.45s8.5 2.68 17.64.36c0 0-7.73 8.1-17.64-.36ZM37.59 23.36c-.48.02-.94.5-1 1.06-.05.57.14 4.07.32 5.73.19 1.67.54 3.17 1.49 3.35.95.18 1.54-.1 1.54-1.88 0-1.77-.36-4.4-.7-5.9-.33-1.51-.86-2.39-1.65-2.36ZM27.66 24.17c-.48.02-.95.5-1 1.06-.05.6.24 3.55.43 5.23.19 1.66.43 3.67 1.38 3.85.94.18 1.53-.1 1.53-1.87s-.35-4.41-.69-5.91c-.34-1.5-.87-2.38-1.65-2.36Z"/></svg>
