 <svg width="137" height="130" fill="none" xmlns="http://www.w3.org/2000/svg" role="img" aria-label="National Lottery Mascot holding hat with lottery numbers">
            <path fill-rule="evenodd" clip-rule="evenodd" d="M45.043 36.624c5.955 0 10.808-4.79 10.839-10.699.03-5.908-4.772-10.698-10.727-10.698s-10.808 4.79-10.839 10.698c-.03 5.91 4.772 10.7 10.727 10.7z" fill="#0094B3"></path>
            <path d="M43.105 27.987c1.28-.095 2.08-.783 2.012-1.685-.056-.74-.75-1.115-1.302-1.128.601-.146 1.083-.64 1.038-1.24-.064-.848-.84-1.356-2.15-1.258-.948.07-1.6.468-1.995.986l.703.785c.337-.35.772-.554 1.242-.59.493-.036.875.083.899.407.02.27-.27.423-.802.463-.193.014-.594.044-.695.044l.09 1.18c.076-.014.47-.044.693-.06.701-.053.928.07.95.363.022.285-.255.523-.825.566-.448.033-1.047-.1-1.444-.435l-.603.952c.436.433 1.202.724 2.19.65zm6.535-.582l-.071-.94.624-.047-.088-1.164-.624.047-.23-3.038-1.843.138-1.71 3.314.078 1.034 2.46-.184.07.94 1.334-.1zM48.147 25.4l-1.172.088 1.03-1.969.142 1.881z" fill="#fff"></path>
            <path fill-rule="evenodd" clip-rule="evenodd" d="M15.892 35.292c6.284 0 11.398-5.055 11.423-11.29.024-6.236-5.05-11.291-11.335-11.291-6.285 0-11.4 5.055-11.424 11.29-.024 6.236 5.051 11.29 11.335 11.29z" fill="#F6A500"></path>
            <path d="M14.638 27.019l-.031-1.045.694-.021-.04-1.294-.693.02-.103-3.375-2.048.061-2.06 3.587.034 1.148 2.733-.082.032 1.045 1.482-.044zm-1.553-2.295l-1.302.04 1.239-2.13.063 2.09zm7.048 2.13L20.1 25.81l.694-.02-.04-1.294-.693.02-.102-3.376-2.048.062-2.061 3.586.034 1.148 2.734-.081.031 1.045 1.483-.044zM18.58 24.56l-1.303.039 1.24-2.13.063 2.09z" fill="#fff"></path>
            <path fill-rule="evenodd" clip-rule="evenodd" d="M5.967 62.202s2.245 1.172 3.27 1.95c0 0 3.468-.84 4.39-.95 0 0-.092 1.475-1.736 3.92 0 0 1.1 2.178.797 4.258 0 0-2.008-1.311-4.013-1.8 0 0-2.71 1.257-4.638 1.56 0 0 .74-1.77.96-2.71 0 0-2.407-.823-3.24-1.016l4.005-1.91s.695-1.63.205-3.302zM1.889 57.511s.91.475 1.324.79c0 0 1.402-.34 1.776-.384 0 0-.037.597-.702 1.586 0 0 .444.882.323 1.723 0 0-.812-.53-1.625-.727 0 0-1.097.508-1.877.63 0 0 .3-.716.388-1.097 0 0-.973-.332-1.31-.411l1.62-.773s.281-.66.083-1.337z" fill="#BED62F"></path>
            <g style="mix-blend-mode: multiply;">
               <mask id="prefix__a" maskUnits="userSpaceOnUse" x="39" y="115" width="75" height="13" style="mask-type: alpha;">
                  <path fill-rule="evenodd" clip-rule="evenodd" d="M39.999 127.916h73.979v-11.924H39.999v11.924z" fill="#fff"></path>
               </mask>
               <g mask="url(#prefix__a)">
                  <path fill-rule="evenodd" clip-rule="evenodd" d="M113.978 123.684s-24.847-9.94-67.24-7.22c0 0-15.074.111-.132 8.544 3.395 1.957 8.974 4.296 40.862 1.876 7.903-.601 26.51-3.2 26.51-3.2z" fill="#FEFEFE"></path>
               </g>
               <path fill-rule="evenodd" clip-rule="evenodd" d="M113.954 123.68s-24.652-9.867-66.73-7.17c0 0-14.96.11-.14 8.48 3.368 1.943 8.903 4.264 40.555 1.865 7.843-.596 26.315-3.175 26.315-3.175z" fill="#FBFCFC"></path>
               <path fill-rule="evenodd" clip-rule="evenodd" d="M113.93 123.676s-24.455-9.794-66.218-7.12c0 0-14.848.107-.147 8.415 3.34 1.93 8.83 4.232 40.246 1.854 7.785-.59 26.119-3.149 26.119-3.149z" fill="#F9FAFB"></path>
               <path fill-rule="evenodd" clip-rule="evenodd" d="M113.905 123.673s-24.259-9.721-65.707-7.071c0 0-14.734.106-.154 8.351 3.312 1.915 8.758 4.201 39.937 1.843 7.727-.586 25.924-3.123 25.924-3.123z" fill="#F7F9FA"></path>
               <path fill-rule="evenodd" clip-rule="evenodd" d="M113.881 123.67s-24.062-9.648-65.195-7.021c0 0-14.622.103-.162 8.286 3.285 1.901 8.686 4.169 39.629 1.831 7.668-.58 25.728-3.096 25.728-3.096z" fill="#F5F7F8"></path>
               <path fill-rule="evenodd" clip-rule="evenodd" d="M113.857 123.666s-23.866-9.575-64.684-6.971c0 0-14.51.101-.17 8.223 3.257 1.885 8.615 4.137 39.32 1.819 7.61-.575 25.534-3.071 25.534-3.071z" fill="#F3F6F7"></path>
               <path fill-rule="evenodd" clip-rule="evenodd" d="M113.833 123.662s-23.67-9.501-64.173-6.921c0 0-14.396.099-.177 8.158 3.23 1.872 8.543 4.106 39.012 1.809 7.551-.57 25.338-3.046 25.338-3.046z" fill="#F1F5F6"></path>
               <path fill-rule="evenodd" clip-rule="evenodd" d="M113.809 123.658s-23.473-9.428-63.661-6.872c0 0-14.284.098-.186 8.095 3.202 1.857 8.471 4.074 38.705 1.797 7.492-.565 25.142-3.02 25.142-3.02z" fill="#F0F4F6"></path>
               <path fill-rule="evenodd" clip-rule="evenodd" d="M113.784 123.654s-23.276-9.355-63.15-6.821c0 0-14.17.095-.194 8.03 3.176 1.842 8.4 4.042 38.397 1.786 7.433-.56 24.947-2.995 24.947-2.995z" fill="#EEF2F5"></path>
               <path fill-rule="evenodd" clip-rule="evenodd" d="M113.76 123.652s-23.08-9.283-62.639-6.773c0 0-14.057.093-.201 7.966 3.148 1.828 8.328 4.01 38.088 1.774 7.375-.554 24.752-2.967 24.752-2.967z" fill="#EDF1F4"></path>
               <path fill-rule="evenodd" clip-rule="evenodd" d="M113.736 123.648s-22.884-9.21-62.127-6.723c0 0-13.945.091-.21 7.902 3.12 1.813 8.257 3.979 37.78 1.763 7.317-.55 24.557-2.942 24.557-2.942z" fill="#EBF0F3"></path>
               <path fill-rule="evenodd" clip-rule="evenodd" d="M113.712 123.644s-22.687-9.136-61.616-6.673c0 0-13.832.09-.217 7.838 3.093 1.799 8.185 3.947 37.472 1.752 7.258-.545 24.361-2.917 24.361-2.917z" fill="#EAEFF2"></path>
               <path fill-rule="evenodd" clip-rule="evenodd" d="M113.687 123.64s-22.49-9.063-61.104-6.622c0 0-13.719.086-.224 7.773 3.065 1.784 8.112 3.915 37.163 1.74 7.199-.539 24.165-2.891 24.165-2.891z" fill="#E9EEF1"></path>
               <path fill-rule="evenodd" clip-rule="evenodd" d="M113.663 123.637s-22.293-8.99-60.592-6.573c0 0-13.606.085-.233 7.708 3.038 1.771 8.041 3.884 36.856 1.73 7.14-.534 23.969-2.865 23.969-2.865z" fill="#E7EDF1"></path>
               <path fill-rule="evenodd" clip-rule="evenodd" d="M113.638 123.633s-22.097-8.917-60.08-6.524c0 0-13.494.083-.242 7.644 3.011 1.757 7.97 3.853 36.548 1.719 7.082-.53 23.774-2.839 23.774-2.839z" fill="#E6ECF0"></path>
               <path fill-rule="evenodd" clip-rule="evenodd" d="M113.614 123.629s-21.9-8.844-59.57-6.473c0 0-13.38.081-.248 7.579 2.983 1.743 7.898 3.821 36.24 1.708 7.023-.525 23.578-2.814 23.578-2.814z" fill="#E5EBEF"></path>
               <path fill-rule="evenodd" clip-rule="evenodd" d="M113.59 123.626s-21.704-8.771-59.058-6.424c0 0-13.267.079-.256 7.516 2.955 1.727 7.826 3.789 35.93 1.696 6.965-.519 23.384-2.788 23.384-2.788z" fill="#E4EAEE"></path>
               <path fill-rule="evenodd" clip-rule="evenodd" d="M113.566 123.622s-21.508-8.698-58.547-6.375c0 0-13.154.077-.264 7.452 2.928 1.713 7.755 3.757 35.623 1.685 6.906-.514 23.188-2.762 23.188-2.762z" fill="#E3EAEE"></path>
               <path fill-rule="evenodd" clip-rule="evenodd" d="M113.542 123.619s-21.311-8.625-58.035-6.325c0 0-13.042.075-.273 7.388 2.901 1.698 7.683 3.725 35.316 1.673 6.847-.509 22.992-2.736 22.992-2.736z" fill="#E1E9ED"></path>
               <path fill-rule="evenodd" clip-rule="evenodd" d="M113.517 123.616s-21.114-8.552-57.524-6.276c0 0-12.929.073-.28 7.324 2.874 1.684 7.611 3.693 35.007 1.662 6.788-.505 22.797-2.71 22.797-2.71z" fill="#E0E8EC"></path>
               <path fill-rule="evenodd" clip-rule="evenodd" d="M113.493 123.611s-20.918-8.478-57.012-6.225c0 0-12.817.071-.288 7.259 2.846 1.67 7.539 3.662 34.699 1.651 6.729-.499 22.601-2.685 22.601-2.685z" fill="#DFE7EB"></path>
               <path fill-rule="evenodd" clip-rule="evenodd" d="M113.469 123.608s-20.722-8.406-56.501-6.176c0 0-12.703.07-.296 7.195 2.819 1.655 7.467 3.63 34.39 1.64 6.672-.494 22.407-2.659 22.407-2.659z" fill="#DEE6EB"></path>
               <path fill-rule="evenodd" clip-rule="evenodd" d="M113.444 123.604s-20.525-8.332-55.99-6.126c0 0-12.59.068-.303 7.131 2.791 1.641 7.395 3.598 34.082 1.628 6.613-.489 22.211-2.633 22.211-2.633z" fill="#DCE5EA"></path>
               <path fill-rule="evenodd" clip-rule="evenodd" d="M113.421 123.601s-20.329-8.26-55.479-6.076c0 0-12.477.064-.31 7.065 2.763 1.627 7.323 3.567 33.773 1.618 6.554-.484 22.016-2.607 22.016-2.607z" fill="#DBE4E9"></path>
               <path fill-rule="evenodd" clip-rule="evenodd" d="M113.396 123.597s-20.132-8.187-54.967-6.026c0 0-12.364.063-.32 7.002 2.737 1.612 7.253 3.535 33.467 1.605 6.495-.478 21.82-2.581 21.82-2.581z" fill="#DAE3E8"></path>
               <path fill-rule="evenodd" clip-rule="evenodd" d="M113.372 123.594s-19.936-8.114-54.456-5.977c0 0-12.251.061-.327 6.938 2.71 1.597 7.18 3.503 33.159 1.594 6.436-.474 21.624-2.555 21.624-2.555z" fill="#D9E2E7"></path>
               <path fill-rule="evenodd" clip-rule="evenodd" d="M113.348 123.589s-19.74-8.04-53.944-5.926c0 0-12.14.058-.335 6.873 2.682 1.583 7.109 3.472 32.85 1.583 6.378-.469 21.429-2.53 21.429-2.53z" fill="#D8E1E7"></path>
               <path fill-rule="evenodd" clip-rule="evenodd" d="M113.323 123.587s-19.543-7.968-53.433-5.878c0 0-12.026.057-.343 6.81 2.655 1.569 7.038 3.439 32.542 1.571 6.32-.463 21.234-2.503 21.234-2.503z" fill="#D6E0E6"></path>
               <path fill-rule="evenodd" clip-rule="evenodd" d="M113.299 123.583s-19.346-7.895-52.921-5.828c0 0-11.913.055-.35 6.745 2.626 1.554 6.965 3.408 32.233 1.561 6.26-.459 21.038-2.478 21.038-2.478z" fill="#D5DFE5"></path>
               <path fill-rule="evenodd" clip-rule="evenodd" d="M113.275 123.579s-19.15-7.821-52.41-5.777c0 0-11.8.052-.359 6.68 2.6 1.54 6.894 3.377 31.926 1.55 6.202-.454 20.843-2.453 20.843-2.453z" fill="#D4DEE4"></path>
               <path fill-rule="evenodd" clip-rule="evenodd" d="M113.251 123.576s-18.954-7.748-51.898-5.728c0 0-11.688.05-.367 6.616 2.572 1.525 6.822 3.345 31.617 1.539 6.144-.449 20.648-2.427 20.648-2.427z" fill="#D3DDE3"></path>
               <path fill-rule="evenodd" clip-rule="evenodd" d="M113.227 123.571s-18.757-7.675-51.387-5.678c0 0-11.575.048-.374 6.553 2.545 1.51 6.75 3.312 31.309 1.527 6.084-.444 20.452-2.402 20.452-2.402z" fill="#D2DDE3"></path>
               <path fill-rule="evenodd" clip-rule="evenodd" d="M113.202 123.568s-18.56-7.602-50.875-5.629c0 0-11.462.047-.383 6.488 2.518 1.497 6.679 3.282 31.001 1.517 6.026-.439 20.257-2.376 20.257-2.376z" fill="#D0DCE2"></path>
               <path fill-rule="evenodd" clip-rule="evenodd" d="M113.178 123.564s-18.364-7.529-50.364-5.578c0 0-11.349.044-.39 6.423 2.49 1.482 6.607 3.249 30.693 1.505 5.967-.434 20.061-2.35 20.061-2.35z" fill="#CFDBE1"></path>
               <path fill-rule="evenodd" clip-rule="evenodd" d="M113.154 123.561s-18.167-7.456-49.853-5.529c0 0-11.236.042-.398 6.359 2.463 1.468 6.536 3.218 30.385 1.494 5.91-.429 19.866-2.324 19.866-2.324z" fill="#CEDAE0"></path>
               <path fill-rule="evenodd" clip-rule="evenodd" d="M113.128 123.557s-17.97-7.382-49.34-5.479c0 0-11.123.04-.406 6.295 2.435 1.453 6.463 3.186 30.076 1.483 5.85-.424 19.67-2.299 19.67-2.299z" fill="#CDD9E0"></path>
               <path fill-rule="evenodd" clip-rule="evenodd" d="M113.105 123.554s-17.775-7.31-48.83-5.429c0 0-11.01.038-.414 6.23 2.408 1.439 6.392 3.155 29.769 1.472 5.791-.419 19.475-2.273 19.475-2.273z" fill="#CCD8DF"></path>
               <path fill-rule="evenodd" clip-rule="evenodd" d="M113.081 123.55s-17.578-7.237-48.318-5.38c0 0-10.898.036-.422 6.166 2.38 1.425 6.32 3.124 29.46 1.46 5.733-.413 19.28-2.246 19.28-2.246z" fill="#CBD7DE"></path>
               <path fill-rule="evenodd" clip-rule="evenodd" d="M113.049 123.547s-17.484-7.2-48.062-5.354c0 0-10.84.036-.42 6.134 2.367 1.417 6.287 3.107 29.305 1.454 5.702-.412 19.177-2.234 19.177-2.234z" fill="#CAD6DD"></path>
               <path fill-rule="evenodd" clip-rule="evenodd" d="M113.017 123.543s-17.391-7.162-47.808-5.327c0 0-10.782.035-.417 6.102 2.355 1.409 6.253 3.09 29.149 1.446 5.672-.409 19.076-2.221 19.076-2.221z" fill="#C8D5DD"></path>
               <path fill-rule="evenodd" clip-rule="evenodd" d="M112.986 123.541s-17.299-7.125-47.553-5.301c0 0-10.725.034-.416 6.068 2.343 1.403 6.22 3.075 28.994 1.441 5.642-.406 18.975-2.208 18.975-2.208z" fill="#C7D4DC"></path>
               <path fill-rule="evenodd" clip-rule="evenodd" d="M112.953 123.537s-17.205-7.087-47.297-5.275c0 0-10.667.034-.414 6.037 2.33 1.395 6.186 3.058 28.839 1.434 5.611-.404 18.872-2.196 18.872-2.196z" fill="#C6D4DB"></path>
               <path fill-rule="evenodd" clip-rule="evenodd" d="M112.922 123.533s-17.112-7.05-47.042-5.248c0 0-10.61.032-.412 6.004 2.317 1.387 6.153 3.042 28.683 1.427 5.581-.401 18.771-2.183 18.771-2.183z" fill="#C5D3DA"></path>
               <path fill-rule="evenodd" clip-rule="evenodd" d="M112.89 123.531s-17.02-7.012-46.787-5.222c0 0-10.553.032-.41 5.97 2.304 1.381 6.119 3.026 28.527 1.422 5.552-.398 18.67-2.17 18.67-2.17z" fill="#C4D2DA"></path>
               <path fill-rule="evenodd" clip-rule="evenodd" d="M112.859 123.527s-16.926-6.974-46.532-5.196c0 0-10.495.032-.408 5.939 2.291 1.373 6.085 3.01 28.371 1.415 5.521-.396 18.569-2.158 18.569-2.158z" fill="#C3D1D9"></path>
               <path fill-rule="evenodd" clip-rule="evenodd" d="M112.827 123.524s-16.834-6.938-46.277-5.169c0 0-10.438.031-.406 5.906 2.279 1.365 6.052 2.993 28.216 1.408 5.491-.394 18.467-2.145 18.467-2.145z" fill="#C2D0D8"></path>
               <path fill-rule="evenodd" clip-rule="evenodd" d="M112.794 123.521s-16.74-6.9-46.021-5.144c0 0-10.38.03-.405 5.873 2.267 1.359 6.019 2.977 28.061 1.402 5.461-.391 18.365-2.131 18.365-2.131z" fill="#C1CFD7"></path>
               <path fill-rule="evenodd" clip-rule="evenodd" d="M112.763 123.517s-16.647-6.862-45.766-5.116c0 0-10.323.029-.403 5.84 2.254 1.351 5.986 2.961 27.906 1.396 5.43-.389 18.263-2.12 18.263-2.12z" fill="#BFCED6"></path>
               <path fill-rule="evenodd" clip-rule="evenodd" d="M112.732 123.515s-16.554-6.826-45.511-5.091c0 0-10.266.029-.401 5.808 2.241 1.343 5.952 2.945 27.75 1.39 5.4-.387 18.162-2.107 18.162-2.107z" fill="#BECDD6"></path>
               <path fill-rule="evenodd" clip-rule="evenodd" d="M112.699 123.51s-16.46-6.788-45.255-5.063c0 0-10.208.027-.4 5.775 2.23 1.336 5.92 2.929 27.595 1.383 5.37-.384 18.06-2.095 18.06-2.095z" fill="#BDCCD5"></path>
               <path fill-rule="evenodd" clip-rule="evenodd" d="M112.668 123.508s-16.368-6.75-45-5.038c0 0-10.151.028-.398 5.742 2.216 1.329 5.885 2.913 27.44 1.377 5.339-.382 17.958-2.081 17.958-2.081z" fill="#BCCBD4"></path>
               <path fill-rule="evenodd" clip-rule="evenodd" d="M112.636 123.505s-16.275-6.714-44.746-5.012c0 0-10.093.026-.395 5.711 2.203 1.32 5.852 2.895 27.284 1.369 5.309-.379 17.857-2.068 17.857-2.068z" fill="#BBCBD3"></path>
               <path fill-rule="evenodd" clip-rule="evenodd" d="M112.604 123.501s-16.182-6.676-44.49-4.986c0 0-10.036.027-.394 5.678 2.19 1.314 5.818 2.88 27.128 1.364 5.28-.377 17.756-2.056 17.756-2.056z" fill="#BACAD2"></path>
               <path fill-rule="evenodd" clip-rule="evenodd" d="M112.572 123.498s-16.088-6.638-44.235-4.959c0 0-9.978.026-.391 5.645 2.178 1.306 5.785 2.863 26.973 1.357 5.249-.374 17.653-2.043 17.653-2.043z" fill="#B9C9D2"></path>
               <path fill-rule="evenodd" clip-rule="evenodd" d="M112.541 123.494s-15.996-6.601-43.98-4.933c0 0-9.92.026-.39 5.613 2.166 1.299 5.752 2.848 26.818 1.351 5.218-.372 17.552-2.031 17.552-2.031z" fill="#B7C8D1"></path>
               <path fill-rule="evenodd" clip-rule="evenodd" d="M112.509 123.491s-15.903-6.563-43.725-4.906c0 0-9.863.024-.388 5.58 2.153 1.291 5.718 2.831 26.662 1.344 5.189-.37 17.451-2.018 17.451-2.018z" fill="#B6C7D0"></path>
               <path fill-rule="evenodd" clip-rule="evenodd" d="M112.477 123.488s-15.81-6.526-43.469-4.88c0 0-9.806.023-.386 5.547 2.14 1.285 5.684 2.815 26.506 1.339 5.159-.368 17.349-2.006 17.349-2.006z" fill="#B5C6CF"></path>
               <path fill-rule="evenodd" clip-rule="evenodd" d="M112.446 123.485s-15.716-6.488-43.214-4.854c0 0-9.749.023-.384 5.515 2.127 1.277 5.65 2.799 26.35 1.332 5.129-.365 17.248-1.993 17.248-1.993z" fill="#B4C5CE"></path>
               <path fill-rule="evenodd" clip-rule="evenodd" d="M112.414 123.481s-15.624-6.451-42.96-4.827c0 0-9.69.022-.381 5.482 2.115 1.269 5.617 2.782 26.195 1.325 5.098-.363 17.146-1.98 17.146-1.98z" fill="#B3C4CE"></path>
               <path fill-rule="evenodd" clip-rule="evenodd" d="M112.382 123.478s-15.53-6.413-42.705-4.801c0 0-9.633.021-.38 5.449 2.103 1.262 5.585 2.767 26.04 1.32 5.068-.361 17.045-1.968 17.045-1.968z" fill="#B2C3CD"></path>
               <path fill-rule="evenodd" clip-rule="evenodd" d="M112.35 123.475s-15.437-6.376-42.449-4.775c0 0-9.575.021-.378 5.418 2.09 1.254 5.55 2.75 25.885 1.312 5.037-.358 16.942-1.955 16.942-1.955z" fill="#B1C2CC"></path>
               <path fill-rule="evenodd" clip-rule="evenodd" d="M112.318 123.471s-15.344-6.338-42.194-4.748c0 0-9.518.02-.376 5.384 2.077 1.247 5.517 2.734 25.73 1.307 5.006-.356 16.84-1.943 16.84-1.943z" fill="#B0C2CB"></path>
               <path fill-rule="evenodd" clip-rule="evenodd" d="M112.287 123.468s-15.251-6.301-41.939-4.722c0 0-9.46.019-.374 5.352 2.064 1.24 5.484 2.717 25.574 1.299 4.976-.353 16.739-1.929 16.739-1.929z" fill="#AFC1CB"></path>
               <path fill-rule="evenodd" clip-rule="evenodd" d="M112.255 123.464s-15.158-6.263-41.683-4.696c0 0-9.403.019-.372 5.32 2.051 1.232 5.45 2.701 25.418 1.293 4.946-.35 16.637-1.917 16.637-1.917z" fill="#ADC0CA"></path>
               <path fill-rule="evenodd" clip-rule="evenodd" d="M112.223 123.461s-15.065-6.226-41.428-4.669c0 0-9.346.018-.37 5.287 2.039 1.225 5.416 2.685 25.262 1.287 4.916-.349 16.536-1.905 16.536-1.905z" fill="#ACBFC9"></path>
               <path fill-rule="evenodd" clip-rule="evenodd" d="M112.191 123.458s-14.972-6.188-41.173-4.643c0 0-9.289.018-.368 5.254 2.026 1.217 5.382 2.669 25.106 1.28 4.887-.346 16.435-1.891 16.435-1.891z" fill="#ABBEC8"></path>
               <path fill-rule="evenodd" clip-rule="evenodd" d="M112.16 123.455s-14.88-6.151-40.918-4.616c0 0-9.231.016-.367 5.221 2.014 1.21 5.35 2.653 24.952 1.274 4.856-.343 16.333-1.879 16.333-1.879z" fill="#AABDC7"></path>
               <path fill-rule="evenodd" clip-rule="evenodd" d="M112.128 123.451s-14.785-6.113-40.662-4.59c0 0-9.174.016-.365 5.189 2.001 1.202 5.316 2.636 24.796 1.268 4.826-.342 16.231-1.867 16.231-1.867z" fill="#A9BCC7"></path>
               <path fill-rule="evenodd" clip-rule="evenodd" d="M112.096 123.449s-14.693-6.077-40.407-4.565c0 0-9.116.016-.363 5.157 1.988 1.195 5.282 2.62 24.64 1.261 4.796-.339 16.13-1.853 16.13-1.853z" fill="#A8BBC6"></path>
               <path fill-rule="evenodd" clip-rule="evenodd" d="M112.064 123.445s-14.6-6.038-40.151-4.537c0 0-9.06.014-.361 5.124 1.975 1.187 5.25 2.604 24.485 1.254 4.765-.336 16.027-1.841 16.027-1.841z" fill="#A7BBC5"></path>
               <path fill-rule="evenodd" clip-rule="evenodd" d="M112.033 123.442s-14.507-6.002-39.897-4.512c0 0-9.002.014-.36 5.091 1.963 1.181 5.216 2.588 24.33 1.249 4.735-.334 15.927-1.828 15.927-1.828z" fill="#A6BAC4"></path>
               <path fill-rule="evenodd" clip-rule="evenodd" d="M112.001 123.439s-14.413-5.965-39.642-4.485c0 0-8.943.013-.357 5.058 1.95 1.173 5.183 2.572 24.174 1.242 4.705-.331 15.825-1.815 15.825-1.815z" fill="#A5B9C3"></path>
               <path fill-rule="evenodd" clip-rule="evenodd" d="M111.969 123.435s-14.32-5.926-39.387-4.459c0 0-8.886.012-.355 5.026 1.938 1.166 5.149 2.556 24.018 1.236 4.675-.33 15.724-1.803 15.724-1.803z" fill="#A4B8C3"></path>
               <path fill-rule="evenodd" clip-rule="evenodd" d="M111.938 123.432s-14.228-5.889-39.132-4.433c0 0-8.829.012-.353 4.994 1.925 1.157 5.115 2.538 23.863 1.228 4.644-.326 15.622-1.789 15.622-1.789z" fill="#A3B7C2"></path>
               <path fill-rule="evenodd" clip-rule="evenodd" d="M111.905 123.429s-14.134-5.852-38.876-4.407c0 0-8.771.012-.351 4.962 1.912 1.151 5.082 2.523 23.707 1.223 4.614-.325 15.52-1.778 15.52-1.778z" fill="#A2B6C1"></path>
               <path fill-rule="evenodd" clip-rule="evenodd" d="M111.873 123.425s-14.04-5.814-38.62-4.38c0 0-8.715.011-.35 4.928 1.9 1.144 5.048 2.507 23.552 1.217 4.583-.322 15.418-1.765 15.418-1.765z" fill="#A0B5C0"></path>
               <path fill-rule="evenodd" clip-rule="evenodd" d="M111.843 123.422s-13.949-5.777-38.366-4.354c0 0-8.657.011-.348 4.896 1.888 1.137 5.015 2.491 23.397 1.21 4.553-.319 15.317-1.752 15.317-1.752z" fill="#9FB4BF"></path>
               <path fill-rule="evenodd" clip-rule="evenodd" d="M111.81 123.42s-13.855-5.74-38.11-4.328c0 0-8.6.009-.346 4.863 1.875 1.129 4.982 2.475 23.242 1.204 4.522-.318 15.214-1.739 15.214-1.739z" fill="#9EB3BE"></path>
               <path fill-rule="evenodd" clip-rule="evenodd" d="M111.778 123.416s-13.762-5.701-37.855-4.301c0 0-8.542.008-.344 4.83 1.862 1.122 4.948 2.459 23.086 1.198 4.493-.315 15.113-1.727 15.113-1.727z" fill="#9DB2BE"></path>
               <path fill-rule="evenodd" clip-rule="evenodd" d="M111.746 123.412s-13.67-5.664-37.6-4.275c0 0-8.484.008-.342 4.798 1.849 1.115 4.915 2.442 22.93 1.191 4.463-.312 15.012-1.714 15.012-1.714z" fill="#9CB2BD"></path>
               <path fill-rule="evenodd" clip-rule="evenodd" d="M111.715 123.409s-13.577-5.627-37.345-4.248c0 0-8.427.008-.34 4.765 1.836 1.107 4.88 2.426 22.774 1.184 4.433-.31 14.911-1.701 14.911-1.701z" fill="#9BB1BC"></path>
               <path fill-rule="evenodd" clip-rule="evenodd" d="M111.683 123.406s-13.483-5.589-37.09-4.222c0 0-8.369.007-.338 4.732 1.824 1.1 4.848 2.41 22.62 1.179 4.402-.308 14.808-1.689 14.808-1.689z" fill="#9AB0BB"></path>
               <path fill-rule="evenodd" clip-rule="evenodd" d="M111.651 123.402s-13.39-5.552-36.834-4.195c0 0-8.312.006-.337 4.7 1.812 1.091 4.815 2.393 22.464 1.171 4.372-.305 14.707-1.676 14.707-1.676z" fill="#99AFBA"></path>
               <path fill-rule="evenodd" clip-rule="evenodd" d="M111.62 123.399s-13.297-5.515-36.58-4.17c0 0-8.254.006-.335 4.668 1.8 1.084 4.782 2.377 22.31 1.165 4.341-.302 14.605-1.663 14.605-1.663z" fill="#98AEBA"></path>
               <path fill-rule="evenodd" clip-rule="evenodd" d="M111.588 123.396s-13.204-5.477-36.325-4.143c0 0-8.197.005-.333 4.635 1.787 1.077 4.748 2.362 22.154 1.159 4.311-.3 14.504-1.651 14.504-1.651z" fill="#97ADB9"></path>
               <path fill-rule="evenodd" clip-rule="evenodd" d="M111.556 123.393s-13.11-5.44-36.069-4.117c0 0-8.14.004-.33 4.603 1.773 1.069 4.714 2.344 21.997 1.151 4.281-.296 14.402-1.637 14.402-1.637z" fill="#96ACB8"></path>
               <path fill-rule="evenodd" clip-rule="evenodd" d="M111.525 123.39s-13.018-5.403-35.814-4.091c0 0-8.082.004-.33 4.57 1.762 1.062 4.682 2.329 21.843 1.146 4.251-.295 14.301-1.625 14.301-1.625z" fill="#95ABB7"></path>
               <path fill-rule="evenodd" clip-rule="evenodd" d="M111.493 123.386s-12.925-5.365-35.56-4.065c0 0-8.024.003-.326 4.538 1.749 1.055 4.647 2.313 21.687 1.14 4.22-.293 14.199-1.613 14.199-1.613z" fill="#94ABB7"></path>
               <path fill-rule="evenodd" clip-rule="evenodd" d="M111.461 123.383s-12.832-5.327-35.304-4.038c0 0-7.967.002-.325 4.504 1.735 1.048 4.614 2.297 21.53 1.134 4.192-.29 14.099-1.6 14.099-1.6z" fill="#93AAB6"></path>
               <path fill-rule="evenodd" clip-rule="evenodd" d="M111.429 123.379s-12.738-5.29-35.048-4.012c0 0-7.91.002-.324 4.473 1.724 1.04 4.58 2.28 21.376 1.127 4.16-.288 13.996-1.588 13.996-1.588z" fill="#92A9B5"></path>
               <path fill-rule="evenodd" clip-rule="evenodd" d="M111.398 123.376s-12.645-5.253-34.793-3.985c0 0-7.853 0-.322 4.439 1.71 1.033 4.547 2.265 21.22 1.121 4.131-.286 13.895-1.575 13.895-1.575z" fill="#91A8B4"></path>
               <path fill-rule="evenodd" clip-rule="evenodd" d="M111.366 123.373s-12.552-5.215-34.538-3.96c0 0-7.795.001-.32 4.407 1.698 1.026 4.513 2.248 21.065 1.114 4.1-.282 13.793-1.561 13.793-1.561z" fill="#90A7B3"></path>
               <path fill-rule="evenodd" clip-rule="evenodd" d="M111.334 123.369s-12.459-5.177-34.282-3.933c0 0-7.738 0-.318 4.375 1.685 1.017 4.48 2.231 20.909 1.107 4.07-.28 13.691-1.549 13.691-1.549z" fill="#8FA6B2"></path>
               <path fill-rule="evenodd" clip-rule="evenodd" d="M111.302 123.366s-12.366-5.14-34.028-3.906c0 0-7.68-.002-.316 4.341 1.673 1.011 4.447 2.216 20.754 1.101 4.04-.277 13.59-1.536 13.59-1.536z" fill="#8EA5B2"></path>
               <path fill-rule="evenodd" clip-rule="evenodd" d="M111.27 123.364s-12.273-5.103-33.773-3.881c0 0-7.622-.002-.314 4.309 1.66 1.003 4.413 2.2 20.599 1.095 4.009-.276 13.488-1.523 13.488-1.523z" fill="#8DA4B1"></path>
               <path fill-rule="evenodd" clip-rule="evenodd" d="M111.239 123.36s-12.18-5.065-33.518-3.853c0 0-7.565-.004-.312 4.276 1.648.996 4.38 2.183 20.443 1.089 3.979-.274 13.387-1.512 13.387-1.512z" fill="#8CA3B0"></path>
               <path fill-rule="evenodd" clip-rule="evenodd" d="M111.207 123.357s-12.087-5.028-33.262-3.828c0 0-7.507-.003-.31 4.244 1.634.988 4.346 2.166 20.287 1.083 3.949-.272 13.285-1.499 13.285-1.499z" fill="#8BA3AF"></path>
               <path fill-rule="evenodd" clip-rule="evenodd" d="M111.175 123.352s-11.994-4.99-33.007-3.801c0 0-7.45-.003-.308 4.211 1.622.982 4.313 2.151 20.132 1.076 3.918-.268 13.183-1.486 13.183-1.486z" fill="#8AA2AF"></path>
               <path fill-rule="evenodd" clip-rule="evenodd" d="M111.143 123.35s-11.901-4.953-32.752-3.775c0 0-7.392-.005-.307 4.179 1.61.974 4.28 2.134 19.977 1.069 3.888-.266 13.082-1.473 13.082-1.473z" fill="#89A1AE"></path>
               <path fill-rule="evenodd" clip-rule="evenodd" d="M111.112 123.347s-11.808-4.916-32.497-3.749c0 0-7.335-.005-.305 4.146 1.597.967 4.247 2.119 19.822 1.063 3.857-.263 12.98-1.46 12.98-1.46z" fill="#88A0AD"></path>
               <path fill-rule="evenodd" clip-rule="evenodd" d="M111.08 123.343s-11.715-4.878-32.241-3.723c0 0-7.278-.005-.303 4.115 1.584.959 4.213 2.102 19.666 1.056 3.827-.261 12.878-1.448 12.878-1.448z" fill="#879FAC"></path>
               <path fill-rule="evenodd" clip-rule="evenodd" d="M111.048 123.34s-11.622-4.841-31.987-3.696c0 0-7.22-.007-.3 4.081 1.571.952 4.18 2.086 19.51 1.05 3.797-.259 12.777-1.435 12.777-1.435z" fill="#869FAB"></path>
               <path fill-rule="evenodd" clip-rule="evenodd" d="M111.016 123.337s-11.529-4.804-31.731-3.671c0 0-7.163-.006-.3 4.049 1.56.945 4.146 2.07 19.355 1.044 3.767-.257 12.676-1.422 12.676-1.422z" fill="#859EAB"></path>
               <path fill-rule="evenodd" clip-rule="evenodd" d="M110.984 123.333s-11.435-4.766-31.475-3.643c0 0-7.106-.008-.297 4.015 1.546.938 4.112 2.054 19.199 1.038 3.736-.254 12.573-1.41 12.573-1.41z" fill="#849DAA"></path>
               <path fill-rule="evenodd" clip-rule="evenodd" d="M110.953 123.33s-11.342-4.728-31.22-3.617c0 0-7.048-.009-.296 3.983 1.534.93 4.079 2.037 19.044 1.031 3.707-.252 12.472-1.397 12.472-1.397z" fill="#839CA9"></path>
               <path fill-rule="evenodd" clip-rule="evenodd" d="M110.921 123.328s-11.25-4.691-30.966-3.592c0 0-6.99-.009-.293 3.952 1.521.921 4.046 2.02 18.889 1.024 3.676-.25 12.37-1.384 12.37-1.384z" fill="#829BA8"></path>
               <path fill-rule="evenodd" clip-rule="evenodd" d="M110.89 123.323s-11.157-4.654-30.71-3.564c0 0-6.934-.01-.292 3.918 1.508.915 4.012 2.005 18.733 1.018 3.646-.247 12.269-1.372 12.269-1.372z" fill="#819AA8"></path>
               <path fill-rule="evenodd" clip-rule="evenodd" d="M110.857 123.321s-11.063-4.616-30.455-3.539c0 0-6.875-.01-.29 3.886 1.496.907 3.98 1.989 18.578 1.012 3.616-.245 12.167-1.359 12.167-1.359z" fill="#809AA7"></path>
               <path fill-rule="evenodd" clip-rule="evenodd" d="M110.826 123.318s-10.97-4.579-30.2-3.512c0 0-6.818-.012-.288 3.853 1.484.9 3.945 1.972 18.422 1.004 3.586-.242 12.066-1.345 12.066-1.345z" fill="#7F99A6"></path>
               <path fill-rule="evenodd" clip-rule="evenodd" d="M110.794 123.314s-10.878-4.542-29.945-3.486c0 0-6.76-.011-.286 3.82 1.47.893 3.912 1.957 18.267.999 3.555-.239 11.964-1.333 11.964-1.333z" fill="#7E98A5"></path>
            </g>
            <path d="M136.116 54.836c-1.215-.369-5.429-.654-16.109-.281-10.677.373-22.194.746-22.66.654-.467-.092-9.083-9.337-16.202-15.22-7.119-5.881-7.775-6.255-7.867-5.973 0 0-2.62 21.29-9.083 27.08l-36.237 8.867s25.566 13.073 24.91 14.662c-.656 1.584-5.715 11.202-13.485 20.636 0 0 20.696 1.4 43.453-4.855 0 0 11.707 5.039 30.994 22.502 0 0 5.433-15.689 3.183-26.33-2.245-10.645-2.809-11.3-.185-13.63 2.624-2.335 10.395-9.618 15.079-17.743 4.68-8.121 5.424-9.991 4.209-10.37z" fill="#BFD730"></path>
            <path d="M71.32 86.817s15.707 4.79 32.582.65c-.004 0-14.28 14.496-32.583-.65zM94.067 63.366c-.887.028-1.746.89-1.839 1.903-.092 1.013.25 7.291.592 10.272.341 2.98.997 5.675 2.744 5.988 1.75.318 2.84-.189 2.84-3.358 0-3.17-.655-7.895-1.279-10.59-.624-2.695-1.603-4.26-3.058-4.215zM75.717 64.822c-.887.032-1.746.89-1.838 1.903-.098 1.064.452 6.347.799 9.36.342 2.98.79 6.582 2.536 6.9 1.746.318 2.837-.189 2.837-3.363 0-3.169-.657-7.89-1.28-10.585-.62-2.69-1.603-4.26-3.054-4.215z" fill="#41606F"></path>
            <path fill-rule="evenodd" clip-rule="evenodd" d="M25.07 58.33l3.514 22.737c4.322.476 8.947.272 13.646-.723 4.59-.97 8.806-2.6 12.496-4.71l-6.39-22.927-23.265 5.623z" fill="#313F44"></path>
            <path fill-rule="evenodd" clip-rule="evenodd" d="M25.072 58.334l.654 4.235c4.409.52 9.142.328 13.952-.69a43.81 43.81 0 0010.242-3.515l-1.576-5.656-23.273 5.626z" fill="#C9DD03"></path>
            <path fill-rule="evenodd" clip-rule="evenodd" d="M25.071 58.337l.22 1.422c3.44-.324 7.587-.964 12.011-1.9 4.366-.925 8.366-2.004 11.618-3.088l-.574-2.063-23.275 5.63z" fill="#A0A01C"></path>
            <path fill-rule="evenodd" clip-rule="evenodd" d="M35.713 50.407c11.385-2.41 20.936-2.858 21.333-1 .397 1.86-8.511 5.32-19.897 7.73-11.385 2.41-20.936 2.858-21.332 1-.397-1.859 8.511-5.32 19.896-7.73z" fill="#4B636E"></path>
            <path fill-rule="evenodd" clip-rule="evenodd" d="M35.981 51.662c6.165-1.305 11.322-1.615 11.52-.693.196.922-4.642 2.728-10.807 4.033-6.165 1.305-11.323 1.616-11.52.694-.196-.923 4.642-2.729 10.807-4.034z" fill="#242D30"></path>
            <path fill-rule="evenodd" clip-rule="evenodd" d="M32.087 53.831c8.35 0 15.156-6.717 15.199-15.002.043-8.286-6.691-15.003-15.042-15.003-8.35 0-15.155 6.717-15.198 15.003-.044 8.285 6.69 15.002 15.041 15.002z" fill="#E3262D"></path>
            <path d="M31.036 41.94l.411-1.666-2.713-.661c2.164-.84 3.214-1.608 3.494-2.742.367-1.489-.648-2.773-2.394-3.198-1.034-.252-2.303-.173-3.306.501l.743 1.525c.657-.37 1.357-.53 2.18-.33.544.134.957.517.83 1.028-.18.733-.907 1.098-4.693 2.637l-.367 1.49 5.815 1.417zm3.849 1.08c1.846.45 3.29-.152 3.612-1.452.263-1.066-.543-1.91-1.313-2.18.914.069 1.82-.405 2.035-1.272.301-1.222-.555-2.291-2.446-2.752-1.367-.333-2.47-.072-3.265.477l.627 1.425a2.833 2.833 0 012.022-.261c.711.173 1.193.514 1.078.98-.096.39-.576.473-1.344.286-.278-.068-.856-.209-.998-.255l-.419 1.7c.114.016.681.154 1.004.233 1.011.247 1.273.522 1.17.945-.102.41-.602.619-1.424.418-.645-.157-1.427-.618-1.832-1.27l-1.288 1.064c.413.807 1.358 1.567 2.78 1.914z" fill="#fff"></path>
            <path fill-rule="evenodd" clip-rule="evenodd" d="M23.33.406s1.263.66 1.84 1.098c0 0 1.952-.474 2.47-.535 0 0-.051.83-.977 2.206 0 0 .619 1.226.448 2.397 0 0-1.128-.738-2.258-1.013 0 0-1.525.706-2.61.877 0 0 .417-.997.54-1.525 0 0-1.354-.463-1.822-.572l2.253-1.075s.392-.917.115-1.858zM28.788 10.368s.759.395 1.105.658c0 0 1.171-.284 1.482-.32 0 0-.03.497-.586 1.323 0 0 .371.736.269 1.438 0 0-.677-.443-1.355-.608 0 0-.915.424-1.566.527 0 0 .25-.598.324-.915 0 0-.813-.278-1.093-.344l1.351-.645s.235-.55.07-1.114zM36.105 3.37s1.233.643 1.795 1.07c0 0 1.902-.461 2.406-.52 0 0-.05.808-.952 2.149 0 0 .604 1.195.438 2.336 0 0-1.1-.719-2.201-.987 0 0-1.487.689-2.544.855 0 0 .406-.971.526-1.486 0 0-1.32-.452-1.775-.558l2.195-1.048s.382-.894.112-1.81zM53.067 37.065s1.098.575 1.6.956c0 0 1.696-.411 2.147-.465 0 0-.045.723-.849 1.92 0 0 .539 1.069.39 2.088 0 0-.982-.643-1.963-.883 0 0-1.326.616-2.269.765 0 0 .363-.868.47-1.329 0 0-1.178-.403-1.585-.498l1.959-.935s.34-.8.1-1.619zM58.47 31.514s.445.232.648.387c0 0 .686-.167.868-.189 0 0-.017.293-.343.778 0 0 .218.432.158.845 0 0-.397-.26-.795-.357 0 0-.536.249-.918.308 0 0 .147-.35.19-.537 0 0-.476-.163-.641-.202l.792-.379s.139-.323.04-.654z" fill="#BED62F"></path>
         </svg>
